<?xml version="1.0" encoding="UTF-8" standalone="yes"?>
<!DOCTYPE svg PUBLIC "-//W3C//DTD SVG 1.0//EN" "http://www.w3.org/TR/2001/REC-SVG-20010904/DTD/svg10.dtd">
<svg height="3200" printerror="1" raiseerror="0" width="3200" xml_xlink="http://www.w3.org/1999/xlink" xmlns="http://www.w3.org/2000/svg" xmlns:svg="http://www.w3.org/2000/svg" xmlns:xlink="http://www.w3.org/1999/xlink">
	<defs >
		<marker id="triangle-right" markerHeight="6" markerUnits="strokeWidth" markerWidth="4" orient="auto" refX="10" refY="5" viewBox="0 0 10 10">
			<rect fill="white" height="10" stroke="none" width="10" x1="0" y1="0" />
			<path d="M 0 0 L 10 5 L 0 10 z" />
		</marker>
		<marker id="triangle-left" markerHeight="6" markerUnits="strokeWidth" markerWidth="4" orient="auto" refX="0" refY="5" viewBox="0 0 10 10">
			<rect fill="white" height="10" stroke="none" width="10" x1="0" y1="0" />
			<path d="M 10 10 L 0 5 L 10 0 z" />
		</marker>
	</defs>
	<g id="t1" opacity="0.7">
		<path d="M386.56,1600 A1213.44,1213.44 -90,1,1 1600,2813.44 A1213.44,1213.44 -90,1,1 2813.44,1600 " fill="none" id="cp1" stroke="none" />
		<text fill="#ff0000" font-size="58.8000000000001" font-style="italic" font-weight="bold" text-anchor="middle" x="1906.067094786" y="0">
			<textPath xlink:href="#cp1"></textPath>
		</text>
	</g>
	<g id="t2">
		<circle cx="1600" cy="1600" fill="none" r="1176" stroke="black" stroke-width="4.8" />
		<line stroke="black" stroke-width="2.4" x1="1600" x2="1600" y1="424" y2="400" />
		<line stroke="black" stroke-width="2.4" x1="1641.04180812214" x2="1641.879396043" y1="424.716387425543" y2="400.731007577085" />
		<line stroke="black" stroke-width="2.4" x1="1682.03361312309" x2="1683.70776849295" y1="426.864676894447" y2="402.923139688211" />
		<line stroke="black" stroke-width="2.4" x1="1722.92547280276" x2="1725.43415592118" y1="430.442251046911" y2="406.573725558072" />
		<line stroke="black" stroke-width="2.4" x1="1763.66756672904" x2="1767.00772115208" y1="435.444751159913" y2="411.678317510116" />
		<line stroke="black" stroke-width="2.4" x1="1804.21025693631" x2="1808.37781320032" y1="441.866082457643" y2="418.23069638535" />
		<line stroke="black" stroke-width="2.4" x1="1844.50414840169" x2="1849.49402898131" y1="449.698421537045" y2="426.222879119433" />
		<line stroke="black" stroke-width="2.4" x1="1884.50014922521" x2="1890.3062747196" y1="458.932225899428" y2="435.645128468804" />
		<line stroke="black" stroke-width="2.4" x1="1924.14953044079" x2="1930.7648269804" y1="469.556245576537" y2="446.485964874018" />
		<line stroke="black" stroke-width="2.4" x1="1963.40398538494" x2="1970.82039324994" y1="481.557536836899" y2="458.732180445816" />
		<line stroke="black" stroke-width="2.4" x1="2002.21568855099" x2="2010.4241719908" y1="494.921477955772" y2="472.36885505691" />
		<line stroke="black" stroke-width="2.4" x1="2040.53735385711" x2="2049.52791209909" y1="509.631787029458" y2="487.379374519855" />
		<line stroke="black" stroke-width="2.4" x1="2078.32229225714" x2="2088.08397169096" y1="525.670541812301" y2="503.745450828879" />
		<line stroke="black" stroke-width="2.4" x1="2115.52446862395" x2="2126.04537614689" y1="543.01820155218" y2="521.447144441" />
		<line stroke="black" stroke-width="2.4" x1="2152.09855783621" x2="2163.36587534307" y1="561.653630797902" y2="540.462888569288" />
		<line stroke="black" stroke-width="2.4" x1="2188" x2="2200" y1="581.5541251495" y2="560.769515458674" />
		<line stroke="black" stroke-width="2.4" x1="2223.18505473825" x2="2235.90311707985" y1="602.695438920043" y2="582.342284612289" />
		<line stroke="black" stroke-width="2.4" x1="2257.6108544816" x2="2271.0314841649" y1="625.051814675271" y2="605.15491293395" />
		<line stroke="black" stroke-width="2.4" x1="2291.23545669595" x2="2305.34230275097" y1="648.596014615062" y2="629.179606750063" />
		<line stroke="black" stroke-width="2.4" x1="2324.01789498297" x2="2338.79377039079" y1="673.299353758495" y2="654.387095671934" />
		<line stroke="black" stroke-width="2.4" x1="2355.91822899137" x2="2371.34513162385" y1="699.131734892082" y2="680.746668257226" />
		<line stroke="black" stroke-width="2.4" x1="2386.89759307802" x2="2402.95672763063" y1="726.061685238584" y2="708.226209427126" />
		<line stroke="black" stroke-width="2.4" x1="2416.91824365978" x2="2433.5900445508" y1="754.056394801746" y2="736.792239593619" />
		<line stroke="black" stroke-width="2.4" x1="2445.94360519825" x2="2463.20776040638" y1="783.081756340219" y2="766.409955449203" />
		<line stroke="black" stroke-width="2.4" x1="2473.93831476142" x2="2491.77379057287" y1="813.102406921983" y2="797.04327236937" />
		<line stroke="black" stroke-width="2.4" x1="2500.86826510792" x2="2519.25333174277" y1="844.081771008629" y2="828.654868376153" />
		<line stroke="black" stroke-width="2.4" x1="2526.70064624151" x2="2545.61290432807" y1="875.982105017026" y2="861.20622960921" />
		<line stroke="black" stroke-width="2.4" x1="2551.40398538494" x2="2570.82039324994" y1="908.764543304051" y2="894.657697249032" />
		<line stroke="black" stroke-width="2.4" x1="2574.94818532473" x2="2594.84508706605" y1="942.389145518402" y2="928.968515835104" />
		<line stroke="black" stroke-width="2.4" x1="2597.30456107996" x2="2617.65771538771" y1="976.814945261751" y2="964.096882920154" />
		<line stroke="black" stroke-width="2.4" x1="2618.4458748505" x2="2639.23048454133" y1="1012" y2="999.999999999999" />
		<line stroke="black" stroke-width="2.4" x1="2638.3463692021" x2="2659.53711143071" y1="1047.90144216379" y2="1036.63412465693" />
		<line stroke="black" stroke-width="2.4" x1="2656.98179844782" x2="2678.552855559" y1="1084.47553137604" y2="1073.95462385311" />
		<line stroke="black" stroke-width="2.4" x1="2674.3294581877" x2="2696.25454917112" y1="1121.67770774286" y2="1111.91602830904" />
		<line stroke="black" stroke-width="2.4" x1="2690.36821297054" x2="2712.62062548014" y1="1159.46264614289" y2="1150.47208790091" />
		<line stroke="black" stroke-width="2.4" x1="2705.07852204423" x2="2727.63114494309" y1="1197.78431144901" y2="1189.5758280092" />
		<line stroke="black" stroke-width="2.4" x1="2718.4424631631" x2="2741.26781955418" y1="1236.59601461506" y2="1229.17960675006" />
		<line stroke="black" stroke-width="2.4" x1="2730.44375442346" x2="2753.51403512598" y1="1275.85046955921" y2="1269.2351730196" />
		<line stroke="black" stroke-width="2.4" x1="2741.06777410057" x2="2764.3548715312" y1="1315.49985077479" y2="1309.6937252804" />
		<line stroke="black" stroke-width="2.4" x1="2750.30157846296" x2="2773.77712088057" y1="1355.49585159831" y2="1350.50597101869" />
		<line stroke="black" stroke-width="2.4" x1="2758.13391754236" x2="2781.76930361465" y1="1395.78974306369" y2="1391.62218679968" />
		<line stroke="black" stroke-width="2.4" x1="2764.55524884009" x2="2788.32168248988" y1="1436.33243327096" y2="1432.99227884792" />
		<line stroke="black" stroke-width="2.4" x1="2769.55774895309" x2="2793.42627444193" y1="1477.07452719724" y2="1474.56584407882" />
		<line stroke="black" stroke-width="2.4" x1="2773.13532310555" x2="2797.07686031179" y1="1517.96638687691" y2="1516.29223150705" />
		<line stroke="black" stroke-width="2.4" x1="2775.28361257446" x2="2799.26899242291" y1="1558.95819187786" y2="1558.120603957" />
		<line stroke="black" stroke-width="2.4" x1="2776" x2="2800" y1="1600" y2="1600" />
		<line stroke="black" stroke-width="2.4" x1="2775.28361257446" x2="2799.26899242291" y1="1641.04180812214" y2="1641.879396043" />
		<line stroke="black" stroke-width="2.4" x1="2773.13532310555" x2="2797.07686031179" y1="1682.03361312309" y2="1683.70776849295" />
		<line stroke="black" stroke-width="2.4" x1="2769.55774895309" x2="2793.42627444193" y1="1722.92547280276" y2="1725.43415592118" />
		<line stroke="black" stroke-width="2.4" x1="2764.55524884009" x2="2788.32168248988" y1="1763.66756672904" y2="1767.00772115208" />
		<line stroke="black" stroke-width="2.4" x1="2758.13391754236" x2="2781.76930361465" y1="1804.21025693631" y2="1808.37781320032" />
		<line stroke="black" stroke-width="2.4" x1="2750.30157846296" x2="2773.77712088057" y1="1844.50414840168" y2="1849.49402898131" />
		<line stroke="black" stroke-width="2.4" x1="2741.06777410057" x2="2764.3548715312" y1="1884.50014922521" y2="1890.3062747196" />
		<line stroke="black" stroke-width="2.4" x1="2730.44375442346" x2="2753.51403512598" y1="1924.14953044079" y2="1930.7648269804" />
		<line stroke="black" stroke-width="2.4" x1="2718.4424631631" x2="2741.26781955418" y1="1963.40398538494" y2="1970.82039324994" />
		<line stroke="black" stroke-width="2.4" x1="2705.07852204423" x2="2727.63114494309" y1="2002.21568855099" y2="2010.4241719908" />
		<line stroke="black" stroke-width="2.4" x1="2690.36821297054" x2="2712.62062548015" y1="2040.53735385711" y2="2049.52791209909" />
		<line stroke="black" stroke-width="2.4" x1="2674.3294581877" x2="2696.25454917112" y1="2078.32229225714" y2="2088.08397169096" />
		<line stroke="black" stroke-width="2.4" x1="2656.98179844782" x2="2678.552855559" y1="2115.52446862396" y2="2126.04537614689" />
		<line stroke="black" stroke-width="2.4" x1="2638.3463692021" x2="2659.53711143071" y1="2152.09855783621" y2="2163.36587534307" />
		<line stroke="black" stroke-width="2.4" x1="2618.4458748505" x2="2639.23048454133" y1="2188" y2="2200" />
		<line stroke="black" stroke-width="2.4" x1="2597.30456107996" x2="2617.65771538771" y1="2223.18505473825" y2="2235.90311707985" />
		<line stroke="black" stroke-width="2.4" x1="2574.94818532473" x2="2594.84508706605" y1="2257.6108544816" y2="2271.0314841649" />
		<line stroke="black" stroke-width="2.4" x1="2551.40398538494" x2="2570.82039324994" y1="2291.23545669595" y2="2305.34230275097" />
		<line stroke="black" stroke-width="2.4" x1="2526.7006462415" x2="2545.61290432807" y1="2324.01789498297" y2="2338.79377039079" />
		<line stroke="black" stroke-width="2.4" x1="2500.86826510792" x2="2519.25333174277" y1="2355.91822899137" y2="2371.34513162385" />
		<line stroke="black" stroke-width="2.4" x1="2473.93831476142" x2="2491.77379057287" y1="2386.89759307802" y2="2402.95672763063" />
		<line stroke="black" stroke-width="2.4" x1="2445.94360519825" x2="2463.20776040638" y1="2416.91824365978" y2="2433.5900445508" />
		<line stroke="black" stroke-width="2.4" x1="2416.91824365978" x2="2433.5900445508" y1="2445.94360519825" y2="2463.20776040638" />
		<line stroke="black" stroke-width="2.4" x1="2386.89759307802" x2="2402.95672763063" y1="2473.93831476142" y2="2491.77379057287" />
		<line stroke="black" stroke-width="2.4" x1="2355.91822899137" x2="2371.34513162385" y1="2500.86826510792" y2="2519.25333174277" />
		<line stroke="black" stroke-width="2.4" x1="2324.01789498297" x2="2338.79377039079" y1="2526.70064624151" y2="2545.61290432807" />
		<line stroke="black" stroke-width="2.4" x1="2291.23545669595" x2="2305.34230275097" y1="2551.40398538494" y2="2570.82039324994" />
		<line stroke="black" stroke-width="2.4" x1="2257.6108544816" x2="2271.0314841649" y1="2574.94818532473" y2="2594.84508706605" />
		<line stroke="black" stroke-width="2.4" x1="2223.18505473825" x2="2235.90311707985" y1="2597.30456107996" y2="2617.65771538771" />
		<line stroke="black" stroke-width="2.4" x1="2188" x2="2200" y1="2618.4458748505" y2="2639.23048454133" />
		<line stroke="black" stroke-width="2.4" x1="2152.09855783621" x2="2163.36587534307" y1="2638.3463692021" y2="2659.53711143071" />
		<line stroke="black" stroke-width="2.4" x1="2115.52446862395" x2="2126.04537614689" y1="2656.98179844782" y2="2678.552855559" />
		<line stroke="black" stroke-width="2.4" x1="2078.32229225714" x2="2088.08397169096" y1="2674.3294581877" y2="2696.25454917112" />
		<line stroke="black" stroke-width="2.4" x1="2040.53735385711" x2="2049.52791209909" y1="2690.36821297054" y2="2712.62062548015" />
		<line stroke="black" stroke-width="2.4" x1="2002.21568855099" x2="2010.4241719908" y1="2705.07852204423" y2="2727.63114494309" />
		<line stroke="black" stroke-width="2.4" x1="1963.40398538494" x2="1970.82039324994" y1="2718.4424631631" y2="2741.26781955418" />
		<line stroke="black" stroke-width="2.4" x1="1924.14953044079" x2="1930.7648269804" y1="2730.44375442346" y2="2753.51403512598" />
		<line stroke="black" stroke-width="2.4" x1="1884.50014922521" x2="1890.3062747196" y1="2741.06777410057" y2="2764.3548715312" />
		<line stroke="black" stroke-width="2.4" x1="1844.50414840169" x2="1849.49402898131" y1="2750.30157846296" y2="2773.77712088057" />
		<line stroke="black" stroke-width="2.4" x1="1804.21025693631" x2="1808.37781320032" y1="2758.13391754236" y2="2781.76930361465" />
		<line stroke="black" stroke-width="2.4" x1="1763.66756672904" x2="1767.00772115208" y1="2764.55524884009" y2="2788.32168248988" />
		<line stroke="black" stroke-width="2.4" x1="1722.92547280276" x2="1725.43415592118" y1="2769.55774895309" y2="2793.42627444193" />
		<line stroke="black" stroke-width="2.4" x1="1682.03361312309" x2="1683.70776849295" y1="2773.13532310555" y2="2797.07686031179" />
		<line stroke="black" stroke-width="2.4" x1="1641.04180812214" x2="1641.879396043" y1="2775.28361257446" y2="2799.26899242291" />
		<line stroke="black" stroke-width="2.4" x1="1600" x2="1600" y1="2776" y2="2800" />
		<line stroke="black" stroke-width="2.4" x1="1558.95819187786" x2="1558.120603957" y1="2775.28361257446" y2="2799.26899242291" />
		<line stroke="black" stroke-width="2.4" x1="1517.96638687691" x2="1516.29223150705" y1="2773.13532310555" y2="2797.07686031179" />
		<line stroke="black" stroke-width="2.4" x1="1477.07452719724" x2="1474.56584407882" y1="2769.55774895309" y2="2793.42627444193" />
		<line stroke="black" stroke-width="2.4" x1="1436.33243327096" x2="1432.99227884792" y1="2764.55524884009" y2="2788.32168248988" />
		<line stroke="black" stroke-width="2.4" x1="1395.78974306369" x2="1391.62218679968" y1="2758.13391754236" y2="2781.76930361465" />
		<line stroke="black" stroke-width="2.4" x1="1355.49585159832" x2="1350.50597101869" y1="2750.30157846296" y2="2773.77712088057" />
		<line stroke="black" stroke-width="2.4" x1="1315.49985077479" x2="1309.6937252804" y1="2741.06777410057" y2="2764.3548715312" />
		<line stroke="black" stroke-width="2.4" x1="1275.85046955921" x2="1269.2351730196" y1="2730.44375442346" y2="2753.51403512598" />
		<line stroke="black" stroke-width="2.4" x1="1236.59601461506" x2="1229.17960675006" y1="2718.4424631631" y2="2741.26781955418" />
		<line stroke="black" stroke-width="2.4" x1="1197.78431144901" x2="1189.5758280092" y1="2705.07852204423" y2="2727.63114494309" />
		<line stroke="black" stroke-width="2.4" x1="1159.46264614289" x2="1150.47208790091" y1="2690.36821297054" y2="2712.62062548015" />
		<line stroke="black" stroke-width="2.4" x1="1121.67770774286" x2="1111.91602830904" y1="2674.3294581877" y2="2696.25454917112" />
		<line stroke="black" stroke-width="2.4" x1="1084.47553137604" x2="1073.95462385311" y1="2656.98179844782" y2="2678.552855559" />
		<line stroke="black" stroke-width="2.4" x1="1047.90144216379" x2="1036.63412465693" y1="2638.3463692021" y2="2659.53711143071" />
		<line stroke="black" stroke-width="2.4" x1="1012" x2="1000" y1="2618.4458748505" y2="2639.23048454133" />
		<line stroke="black" stroke-width="2.4" x1="976.814945261751" x2="964.096882920154" y1="2597.30456107996" y2="2617.65771538771" />
		<line stroke="black" stroke-width="2.4" x1="942.389145518402" x2="928.968515835104" y1="2574.94818532473" y2="2594.84508706605" />
		<line stroke="black" stroke-width="2.4" x1="908.764543304052" x2="894.657697249032" y1="2551.40398538494" y2="2570.82039324994" />
		<line stroke="black" stroke-width="2.4" x1="875.982105017026" x2="861.206229609211" y1="2526.70064624151" y2="2545.61290432807" />
		<line stroke="black" stroke-width="2.4" x1="844.081771008629" x2="828.654868376152" y1="2500.86826510792" y2="2519.25333174277" />
		<line stroke="black" stroke-width="2.4" x1="813.102406921983" x2="797.04327236937" y1="2473.93831476142" y2="2491.77379057287" />
		<line stroke="black" stroke-width="2.4" x1="783.081756340219" x2="766.409955449203" y1="2445.94360519825" y2="2463.20776040638" />
		<line stroke="black" stroke-width="2.4" x1="754.056394801746" x2="736.792239593619" y1="2416.91824365978" y2="2433.5900445508" />
		<line stroke="black" stroke-width="2.4" x1="726.061685238585" x2="708.226209427127" y1="2386.89759307802" y2="2402.95672763063" />
		<line stroke="black" stroke-width="2.4" x1="699.131734892082" x2="680.746668257227" y1="2355.91822899137" y2="2371.34513162385" />
		<line stroke="black" stroke-width="2.4" x1="673.299353758495" x2="654.387095671933" y1="2324.01789498297" y2="2338.79377039079" />
		<line stroke="black" stroke-width="2.4" x1="648.596014615062" x2="629.179606750063" y1="2291.23545669595" y2="2305.34230275097" />
		<line stroke="black" stroke-width="2.4" x1="625.051814675271" x2="605.15491293395" y1="2257.6108544816" y2="2271.0314841649" />
		<line stroke="black" stroke-width="2.4" x1="602.695438920043" x2="582.342284612289" y1="2223.18505473825" y2="2235.90311707985" />
		<line stroke="black" stroke-width="2.4" x1="581.5541251495" x2="560.769515458674" y1="2188" y2="2200" />
		<line stroke="black" stroke-width="2.4" x1="561.653630797902" x2="540.462888569287" y1="2152.09855783621" y2="2163.36587534307" />
		<line stroke="black" stroke-width="2.4" x1="543.01820155218" x2="521.447144441" y1="2115.52446862395" y2="2126.04537614689" />
		<line stroke="black" stroke-width="2.4" x1="525.670541812302" x2="503.745450828879" y1="2078.32229225714" y2="2088.08397169096" />
		<line stroke="black" stroke-width="2.4" x1="509.631787029458" x2="487.379374519855" y1="2040.53735385711" y2="2049.52791209909" />
		<line stroke="black" stroke-width="2.4" x1="494.921477955772" x2="472.36885505691" y1="2002.21568855099" y2="2010.4241719908" />
		<line stroke="black" stroke-width="2.4" x1="481.5575368369" x2="458.732180445816" y1="1963.40398538494" y2="1970.82039324994" />
		<line stroke="black" stroke-width="2.4" x1="469.556245576537" x2="446.485964874017" y1="1924.14953044079" y2="1930.7648269804" />
		<line stroke="black" stroke-width="2.4" x1="458.932225899428" x2="435.645128468804" y1="1884.50014922521" y2="1890.3062747196" />
		<line stroke="black" stroke-width="2.4" x1="449.698421537044" x2="426.222879119433" y1="1844.50414840168" y2="1849.49402898131" />
		<line stroke="black" stroke-width="2.4" x1="441.866082457643" x2="418.23069638535" y1="1804.21025693631" y2="1808.37781320032" />
		<line stroke="black" stroke-width="2.4" x1="435.444751159913" x2="411.678317510116" y1="1763.66756672904" y2="1767.00772115208" />
		<line stroke="black" stroke-width="2.4" x1="430.442251046911" x2="406.573725558072" y1="1722.92547280276" y2="1725.43415592118" />
		<line stroke="black" stroke-width="2.4" x1="426.864676894447" x2="402.923139688211" y1="1682.03361312309" y2="1683.70776849295" />
		<line stroke="black" stroke-width="2.4" x1="424.716387425543" x2="400.731007577085" y1="1641.04180812214" y2="1641.879396043" />
		<line stroke="black" stroke-width="2.4" x1="424" x2="400" y1="1600" y2="1600" />
		<line stroke="black" stroke-width="2.4" x1="424.716387425543" x2="400.731007577085" y1="1558.95819187786" y2="1558.120603957" />
		<line stroke="black" stroke-width="2.4" x1="426.864676894447" x2="402.923139688211" y1="1517.96638687691" y2="1516.29223150705" />
		<line stroke="black" stroke-width="2.4" x1="430.442251046911" x2="406.573725558072" y1="1477.07452719724" y2="1474.56584407882" />
		<line stroke="black" stroke-width="2.4" x1="435.444751159913" x2="411.678317510116" y1="1436.33243327096" y2="1432.99227884792" />
		<line stroke="black" stroke-width="2.4" x1="441.866082457643" x2="418.23069638535" y1="1395.78974306369" y2="1391.62218679968" />
		<line stroke="black" stroke-width="2.4" x1="449.698421537045" x2="426.222879119433" y1="1355.49585159831" y2="1350.50597101869" />
		<line stroke="black" stroke-width="2.4" x1="458.932225899428" x2="435.645128468804" y1="1315.49985077479" y2="1309.6937252804" />
		<line stroke="black" stroke-width="2.4" x1="469.556245576537" x2="446.485964874017" y1="1275.85046955921" y2="1269.2351730196" />
		<line stroke="black" stroke-width="2.4" x1="481.557536836899" x2="458.732180445816" y1="1236.59601461506" y2="1229.17960675006" />
		<line stroke="black" stroke-width="2.4" x1="494.921477955772" x2="472.36885505691" y1="1197.78431144901" y2="1189.5758280092" />
		<line stroke="black" stroke-width="2.4" x1="509.631787029458" x2="487.379374519855" y1="1159.46264614289" y2="1150.47208790091" />
		<line stroke="black" stroke-width="2.4" x1="525.670541812301" x2="503.745450828879" y1="1121.67770774286" y2="1111.91602830904" />
		<line stroke="black" stroke-width="2.4" x1="543.01820155218" x2="521.447144441" y1="1084.47553137604" y2="1073.95462385311" />
		<line stroke="black" stroke-width="2.4" x1="561.653630797902" x2="540.462888569288" y1="1047.90144216379" y2="1036.63412465693" />
		<line stroke="black" stroke-width="2.4" x1="581.5541251495" x2="560.769515458674" y1="1012" y2="1000" />
		<line stroke="black" stroke-width="2.4" x1="602.695438920043" x2="582.342284612289" y1="976.814945261751" y2="964.096882920154" />
		<line stroke="black" stroke-width="2.4" x1="625.051814675271" x2="605.15491293395" y1="942.389145518402" y2="928.968515835104" />
		<line stroke="black" stroke-width="2.4" x1="648.596014615062" x2="629.179606750063" y1="908.764543304052" y2="894.657697249032" />
		<line stroke="black" stroke-width="2.4" x1="673.299353758495" x2="654.387095671934" y1="875.982105017026" y2="861.20622960921" />
		<line stroke="black" stroke-width="2.4" x1="699.131734892082" x2="680.746668257226" y1="844.08177100863" y2="828.654868376153" />
		<line stroke="black" stroke-width="2.4" x1="726.061685238584" x2="708.226209427127" y1="813.102406921983" y2="797.04327236937" />
		<line stroke="black" stroke-width="2.4" x1="754.056394801746" x2="736.792239593619" y1="783.081756340219" y2="766.409955449203" />
		<line stroke="black" stroke-width="2.4" x1="783.081756340219" x2="766.409955449203" y1="754.056394801746" y2="736.792239593619" />
		<line stroke="black" stroke-width="2.4" x1="813.102406921983" x2="797.04327236937" y1="726.061685238584" y2="708.226209427127" />
		<line stroke="black" stroke-width="2.4" x1="844.08177100863" x2="828.654868376153" y1="699.131734892082" y2="680.746668257226" />
		<line stroke="black" stroke-width="2.4" x1="875.982105017026" x2="861.20622960921" y1="673.299353758495" y2="654.387095671933" />
		<line stroke="black" stroke-width="2.4" x1="908.764543304051" x2="894.657697249032" y1="648.596014615062" y2="629.179606750063" />
		<line stroke="black" stroke-width="2.4" x1="942.389145518402" x2="928.968515835104" y1="625.051814675271" y2="605.15491293395" />
		<line stroke="black" stroke-width="2.4" x1="976.814945261751" x2="964.096882920154" y1="602.695438920043" y2="582.342284612289" />
		<line stroke="black" stroke-width="2.4" x1="1012" x2="999.999999999999" y1="581.5541251495" y2="560.769515458674" />
		<line stroke="black" stroke-width="2.4" x1="1047.90144216379" x2="1036.63412465693" y1="561.653630797902" y2="540.462888569288" />
		<line stroke="black" stroke-width="2.4" x1="1084.47553137604" x2="1073.95462385311" y1="543.01820155218" y2="521.447144441" />
		<line stroke="black" stroke-width="2.4" x1="1121.67770774286" x2="1111.91602830904" y1="525.670541812301" y2="503.745450828879" />
		<line stroke="black" stroke-width="2.4" x1="1159.46264614289" x2="1150.47208790091" y1="509.631787029458" y2="487.379374519855" />
		<line stroke="black" stroke-width="2.4" x1="1197.78431144901" x2="1189.5758280092" y1="494.921477955772" y2="472.36885505691" />
		<line stroke="black" stroke-width="2.4" x1="1236.59601461506" x2="1229.17960675006" y1="481.5575368369" y2="458.732180445816" />
		<line stroke="black" stroke-width="2.4" x1="1275.85046955921" x2="1269.2351730196" y1="469.556245576537" y2="446.485964874017" />
		<line stroke="black" stroke-width="2.4" x1="1315.49985077479" x2="1309.6937252804" y1="458.932225899428" y2="435.645128468804" />
		<line stroke="black" stroke-width="2.4" x1="1355.49585159831" x2="1350.50597101869" y1="449.698421537045" y2="426.222879119433" />
		<line stroke="black" stroke-width="2.4" x1="1395.78974306369" x2="1391.62218679968" y1="441.866082457643" y2="418.23069638535" />
		<line stroke="black" stroke-width="2.4" x1="1436.33243327096" x2="1432.99227884792" y1="435.444751159913" y2="411.678317510116" />
		<line stroke="black" stroke-width="2.4" x1="1477.07452719724" x2="1474.56584407882" y1="430.442251046911" y2="406.573725558072" />
		<line stroke="black" stroke-width="2.4" x1="1517.96638687691" x2="1516.29223150705" y1="426.864676894447" y2="402.923139688211" />
		<line stroke="black" stroke-width="2.4" x1="1558.95819187786" x2="1558.120603957" y1="424.716387425543" y2="400.731007577085" />
		<line stroke="black" stroke-width="9.60000000000001" x1="1600" x2="1600" y1="424" y2="376" />
		<text font-size="50" font-weight="bold" text-anchor="start" x="1600" y="352">0bp</text>
		<line stroke="black" stroke-width="9.60000000000001" x1="2002.21568855099" x2="2018.63265543062" y1="494.921477955772" y2="449.816232158048" />
		<text font-size="50" font-weight="bold" text-anchor="start" x="2026.84113887043" y="427.263609259187">10bp</text>
		<line stroke="black" stroke-width="9.60000000000001" x1="2355.91822899137" x2="2386.77203425632" y1="699.131734892082" y2="662.361601622371" />
		<text font-size="50" font-weight="bold" text-anchor="start" x="2402.1989368888" y="643.976534987515">20bp</text>
		<line stroke="black" stroke-width="9.60000000000001" x1="2618.4458748505" x2="2660.01509423215" y1="1012" y2="987.999999999999" />
		<text font-size="50" font-weight="bold" text-anchor="start" x="2680.79970392298" y="975.999999999999">30bp</text>
		<line stroke="black" stroke-width="9.60000000000001" x1="2758.13391754236" x2="2805.40468968694" y1="1395.78974306369" y2="1387.45463053568" />
		<text font-size="50" font-weight="bold" text-anchor="start" x="2829.04007575924" y="1383.28707427167">40bp</text>
		<line stroke="black" stroke-width="9.60000000000001" x1="2758.13391754236" x2="2805.40468968694" y1="1804.21025693631" y2="1812.54536946432" />
		<text font-size="50" font-weight="bold" text-anchor="start" x="2829.04007575924" y="1856.71292572833">50bp</text>
		<line stroke="black" stroke-width="9.60000000000001" x1="2618.4458748505" x2="2660.01509423215" y1="2188" y2="2212" />
		<text font-size="50" font-weight="bold" text-anchor="start" x="2680.79970392298" y="2264">60bp</text>
		<line stroke="black" stroke-width="9.60000000000001" x1="2355.91822899137" x2="2386.77203425632" y1="2500.86826510792" y2="2537.63839837763" />
		<text font-size="50" font-weight="bold" text-anchor="start" x="2402.1989368888" y="2596.02346501248">70bp</text>
		<line stroke="black" stroke-width="9.60000000000001" x1="2002.21568855099" x2="2018.63265543062" y1="2705.07852204423" y2="2750.18376784195" />
		<text font-size="50" font-weight="bold" text-anchor="start" x="2026.84113887043" y="2812.73639074081">80bp</text>
		<line stroke="black" stroke-width="9.60000000000001" x1="1600" x2="1600" y1="2776" y2="2824" />
		<text font-size="50" font-weight="bold" text-anchor="end" x="1600" y="2888">90bp</text>
		<line stroke="black" stroke-width="9.60000000000001" x1="1197.78431144901" x2="1181.36734456938" y1="2705.07852204423" y2="2750.18376784195" />
		<text font-size="50" font-weight="bold" text-anchor="end" x="1173.15886112957" y="2812.73639074081">100bp</text>
		<line stroke="black" stroke-width="9.60000000000001" x1="844.081771008629" x2="813.227965743675" y1="2500.86826510792" y2="2537.63839837763" />
		<text font-size="50" font-weight="bold" text-anchor="end" x="797.801063111198" y="2596.02346501248">110bp</text>
		<line stroke="black" stroke-width="9.60000000000001" x1="581.5541251495" x2="539.984905767847" y1="2188" y2="2212" />
		<text font-size="50" font-weight="bold" text-anchor="end" x="519.200296077021" y="2264">120bp</text>
		<line stroke="black" stroke-width="9.60000000000001" x1="441.866082457643" x2="394.595310313057" y1="1804.21025693631" y2="1812.54536946432" />
		<text font-size="50" font-weight="bold" text-anchor="end" x="370.959924240764" y="1856.71292572833">130bp</text>
		<line stroke="black" stroke-width="9.60000000000001" x1="441.866082457643" x2="394.595310313057" y1="1395.78974306369" y2="1387.45463053568" />
		<text font-size="50" font-weight="bold" text-anchor="end" x="370.959924240764" y="1383.28707427167">140bp</text>
		<line stroke="black" stroke-width="9.60000000000001" x1="581.5541251495" x2="539.984905767847" y1="1012" y2="988" />
		<text font-size="50" font-weight="bold" text-anchor="end" x="519.200296077021" y="976">150bp</text>
		<line stroke="black" stroke-width="9.60000000000001" x1="844.08177100863" x2="813.227965743676" y1="699.131734892082" y2="662.361601622371" />
		<text font-size="50" font-weight="bold" text-anchor="end" x="797.801063111199" y="643.976534987516">160bp</text>
		<line stroke="black" stroke-width="9.60000000000001" x1="1197.78431144901" x2="1181.36734456938" y1="494.921477955772" y2="449.816232158048" />
		<text font-size="50" font-weight="bold" text-anchor="end" x="1173.15886112957" y="427.263609259186">170bp</text>
	</g>
	<g id="t3">
		<mask height="3200" id="2" maskUnits="userSpaceOnUse" width="3200" x="0" y="0">
			<rect fill="white" height="3200" width="3200" x="0" y="0" />
			<circle cx="1600" cy="1600" fill="black" r="1092" stroke="black" stroke-width="0.042" />
		</mask>
		<circle cx="1600" cy="1600" fill="#0000ff" mask="url(#2)" r="1176" stroke="black" stroke-width="0.042" />
		<circle cx="1600" cy="1600" fill="none" r="1092" stroke="black" stroke-width="0.042" />
	</g>
	<g id="t4" />
	<g id="t5">
		<path d="M630.949171035988,1770.86980682426 A984,984 0,0,1 2452.16899732389,1108 L2524.91513124178,1066 A1068,1068 0,0,0 548.225319782962,1785.45625374828 L630.949171035988,1770.86980682426 " fill="#cca0a0" stroke="black" stroke-width="0.042" />
	</g>
	<g id="t6" opacity="0.7">
		<path d="M602.56,1600 A997.44,997.44 -90,1,1 1600,2597.44 A997.44,997.44 -90,1,1 2597.44,1600 " fill="none" id="cp3" stroke="none" />
		<text fill="#ff0000" font-size="58.8000000000001" font-style="italic" font-weight="bold" text-anchor="end" x="2611.29181366384" y="0">
			<textPath xlink:href="#cp3">-50-30(0)</textPath>
		</text>
	</g>
	<g id="t7" />
	<g id="t8">
		<path d="M737.308408361306,1752.11580363623 A876,876 0,0,1 2358.63825371517,1162 L2431.38438763306,1120 A960,960 0,0,0 654.58455710828,1766.70225056025 L737.308408361306,1752.11580363623 " fill="#cca0a0" stroke="black" stroke-width="0.042" />
	</g>
	<g id="t9" opacity="0.7">
		<path d="M710.56,1600 A889.44,889.44 -90,1,1 1600,2489.44 A889.44,889.44 -90,1,1 2489.44,1600 " fill="none" id="cp4" stroke="none" />
		<text fill="#ff0000" font-size="58.8000000000001" font-style="italic" font-weight="bold" text-anchor="end" x="2328.54847484075" y="0">
			<textPath xlink:href="#cp4">-49-30(1)</textPath>
		</text>
	</g>
	<g id="t10" />
	<g id="t11">
		<path d="M1600,832 A768,768 0,0,1 2356.33235431338,1733.3618004482 L2439.0562055664,1747.94824737222 A852,852 0,0,0 1600,748 L1600,832 " fill="#cca0a0" stroke="black" stroke-width="0.042" />
	</g>
	<g id="t12" opacity="0.7">
		<path d="M818.56,1600 A781.44,781.44 -90,1,1 1600,2381.44 A781.44,781.44 -90,1,1 2381.44,1600 " fill="none" id="cp5" stroke="none" />
		<text fill="#ff0000" font-size="58.8000000000001" font-style="italic" font-weight="bold" text-anchor="start" x="2591.35317228905" y="0">
			<textPath xlink:href="#cp5">0-50(0)</textPath>
		</text>
	</g>
	<g id="t13" />
	<g id="t14">
		<path d="M1600,940 A660,660 0,0,1 2249.97311698806,1714.60779726017 L2332.69696824108,1729.1942441842 A744,744 0,0,0 1600,856 L1600,940 " fill="#cca0a0" stroke="black" stroke-width="0.042" />
	</g>
	<g id="t15" opacity="0.7">
		<path d="M926.560000000001,1600 A673.439999999999,673.439999999999 -90,1,1 1600,2273.44 A673.439999999999,673.439999999999 -90,1,1 2273.44,1600 " fill="none" id="cp6" stroke="none" />
		<text fill="#ff0000" font-size="58.8000000000001" font-style="italic" font-weight="bold" text-anchor="start" x="2233.21160977981" y="0">
			<textPath xlink:href="#cp6">1-50(1)</textPath>
		</text>
	</g>
	<g id="t16" />
	<g id="t17">
		<path d="M1619.26452217978,1048.33626348546 A552,552 0,0,1 2139.93747560506,1714.7672533314 L2222.1018740667,1732.23183536009 A636,636 0,0,0 1622.19607990279,964.387434015856 L1619.26452217978,1048.33626348546 " fill="#cca0a0" stroke="black" stroke-width="0.042" />
	</g>
	<g id="t18" opacity="0.7">
		<path d="M1034.56,1600 A565.439999999999,565.439999999999 -90,1,1 1600,2165.44 A565.439999999999,565.439999999999 -90,1,1 2165.44,1600 " fill="none" id="cp7" stroke="none" />
		<text fill="#ff0000" font-size="58.8" font-style="italic" font-weight="bold" text-anchor="start" x="1894.80762671553" y="0">
			<textPath xlink:href="#cp7">1-51(0)</textPath>
		</text>
	</g>
	<g id="t19" />
	<g id="t20">
		<path d="M1615.49537653591,1156.27047280352 A443.999999999999,443.999999999999 0,0,1 2034.29753472581,1692.31279072309 L2116.46193318745,1709.77737275178 A527.999999999999,527.999999999999 0,0,0 1618.42693425892,1072.32164333392 L1615.49537653591,1156.27047280352 " fill="#cca0a0" stroke="black" stroke-width="0.042" />
	</g>
	<g id="t21" opacity="0.7">
		<path d="M1142.56,1600 A457.439999999999,457.439999999999 -90,1,1 1600,2057.44 A457.439999999999,457.439999999999 -90,1,1 2057.44,1600 " fill="none" id="cp8" stroke="none" />
		<text fill="#ff0000" font-size="58.8" font-style="italic" font-weight="bold" text-anchor="start" x="1532.89615302199" y="0">
			<textPath xlink:href="#cp8">2-51(1)</textPath>
		</text>
	</g>
	<g id="t22" />
	<g id="t23">
		<path d="M1930.8954050121,1658.34578769609 A335.999999999999,335.999999999999 0,0,1 1928.65759384656,1669.85832811477 L2010.8219923082,1687.32291014346 A419.999999999999,419.999999999999 0,0,0 2013.61925626513,1672.93223462011 L1930.8954050121,1658.34578769609 " fill="#cca0a0" stroke="black" stroke-width="0.042" />
	</g>
	<g id="t24" opacity="0.7">
		<path d="M1250.56,1600 A349.439999999999,349.439999999999 -90,1,1 1600,1949.44 A349.439999999999,349.439999999999 -90,1,1 1949.44,1600 " fill="none" id="cp9" stroke="none" />
		<text fill="#ff0000" font-size="58.8" font-style="italic" font-weight="bold" text-anchor="start" x="1170.98467932844" y="0">
			<textPath xlink:href="#cp9">50-51(0)</textPath>
		</text>
	</g>
	<g id="t25" />
	<g id="t26">
		<path d="M1824.53616768678,1639.59178450806 A227.999999999999,227.999999999999 0,0,1 1823.01765296731,1647.40386550645 L1905.18205142895,1664.86844753514 A311.999999999999,311.999999999999 0,0,0 1907.26001893981,1654.17823143208 L1824.53616768678,1639.59178450806 " fill="#cca0a0" stroke="black" stroke-width="0.042" />
	</g>
	<g id="t27" opacity="0.7">
		<path d="M1358.56,1600 A241.439999999999,241.439999999999 -90,1,1 1600,1841.44 A241.439999999999,241.439999999999 -90,1,1 1841.44,1600 " fill="none" id="cp10" stroke="none" />
		<text fill="#ff0000" font-size="58.8" font-style="italic" font-weight="bold" text-anchor="start" x="809.073205634899" y="0">
			<textPath xlink:href="#cp10">51-51(1)</textPath>
		</text>
	</g>
	<g id="t28" />
	<g id="t29" opacity="0.3">
		<path d="M1600,1600 A0,0 0,0,1 1600,1600 L1646.0673356473,280.804108334794 A1320,1320 0,0,0 1600,280 L1600,1600 " fill="#a0a0a0" stroke="black" stroke-width="0.66" />
	</g>
	<g id="t30" opacity="0.7">
		<path d="M266.56,1600 A1333.44,1333.44 -90,1,1 1600,2933.44 A1333.44,1333.44 -90,1,1 2933.44,1600 " fill="none" id="cp11" stroke="none" />
		<text fill="#ff0000" font-size="58.7999999999999" font-style="italic" font-weight="bold" text-anchor="start" x="2141.10849075697" y="0">
			<textPath xlink:href="#cp11">0-1(0)</textPath>
		</text>
	</g>
	<g id="t31" opacity="0.3">
		<path d="M1600,1600 A0,0 0,0,1 1600,1600 L2891.15483296862,1874.44343187944 A1320,1320 0,0,0 2899.94623397611,1829.21559452035 L1600,1600 " fill="#a0a0a0" stroke="black" stroke-width="0.66" />
	</g>
	<g id="t32" opacity="0.7">
		<path d="M266.56,1600 A1333.44,1333.44 -90,1,1 1600,2933.44 A1333.44,1333.44 -90,1,1 2933.44,1600 " fill="none" id="cp12" stroke="none" />
		<text fill="#ff0000" font-size="58.7999999999999" font-style="italic" font-weight="bold" text-anchor="start" x="4468.40032853629" y="0">
			<textPath xlink:href="#cp12">50-51(0)</textPath>
		</text>
	</g>
	<g id="t33">
		<path d="M400.48,1600 A1199.52,1199.52 -90,1,1 1600,2799.52 A1199.52,1199.52 -90,1,1 2799.52,1600 " fill="none" id="cp13" stroke="none" />
		<text fill="black" font-size="50.4" text-anchor="middle" x="9316.33018236746" y="0">
			<textPath xlink:href="#cp13">T</textPath>
		</text>
	</g>
	<g id="t34">
		<path d="M400.48,1600 A1199.52,1199.52 -90,1,1 1600,2799.52 A1199.52,1199.52 -90,1,1 2799.52,1600 " fill="none" id="cp14" stroke="none" />
		<text fill="black" font-size="50.4" text-anchor="middle" x="9358.20132925451" y="0">
			<textPath xlink:href="#cp14">A</textPath>
		</text>
	</g>
	<g id="t35">
		<path d="M400.48,1600 A1199.52,1199.52 -90,1,1 1600,2799.52 A1199.52,1199.52 -90,1,1 2799.52,1600 " fill="none" id="cp15" stroke="none" />
		<text fill="black" font-size="50.4" text-anchor="middle" x="9400.07247614155" y="0">
			<textPath xlink:href="#cp15">C</textPath>
		</text>
	</g>
	<g id="t36">
		<path d="M400.48,1600 A1199.52,1199.52 -90,1,1 1600,2799.52 A1199.52,1199.52 -90,1,1 2799.52,1600 " fill="none" id="cp16" stroke="none" />
		<text fill="black" font-size="50.4" text-anchor="middle" x="1905.13718336054" y="0">
			<textPath xlink:href="#cp16">T</textPath>
		</text>
	</g>
	<g id="t37">
		<path d="M400.48,1600 A1199.52,1199.52 -90,1,1 1600,2799.52 A1199.52,1199.52 -90,1,1 2799.52,1600 " fill="none" id="cp17" stroke="none" />
		<text fill="black" font-size="50.4" text-anchor="middle" x="1947.00833024758" y="0">
			<textPath xlink:href="#cp17">T</textPath>
		</text>
	</g>
	<g id="t38">
		<path d="M400.48,1600 A1199.52,1199.52 -90,1,1 1600,2799.52 A1199.52,1199.52 -90,1,1 2799.52,1600 " fill="none" id="cp18" stroke="none" />
		<text fill="black" font-size="50.4" text-anchor="middle" x="1988.87947713463" y="0">
			<textPath xlink:href="#cp18">G</textPath>
		</text>
	</g>
	<g id="t39">
		<path d="M400.48,1600 A1199.52,1199.52 -90,1,1 1600,2799.52 A1199.52,1199.52 -90,1,1 2799.52,1600 " fill="none" id="cp19" stroke="none" />
		<text fill="black" font-size="50.4" text-anchor="middle" x="2030.75062402167" y="0">
			<textPath xlink:href="#cp19">A</textPath>
		</text>
	</g>
	<g id="t40">
		<path d="M400.48,1600 A1199.52,1199.52 -90,1,1 1600,2799.52 A1199.52,1199.52 -90,1,1 2799.52,1600 " fill="none" id="cp20" stroke="none" />
		<text fill="black" font-size="50.4" text-anchor="middle" x="3873.08108705164" y="0">
			<textPath xlink:href="#cp20">G</textPath>
		</text>
	</g>
	<g id="t41">
		<path d="M400.48,1600 A1199.52,1199.52 -90,1,1 1600,2799.52 A1199.52,1199.52 -90,1,1 2799.52,1600 " fill="none" id="cp21" stroke="none" />
		<text fill="black" font-size="50.4" text-anchor="middle" x="3914.95223393869" y="0">
			<textPath xlink:href="#cp21">A</textPath>
		</text>
	</g>
	<g id="t42">
		<path d="M400.48,1600 A1199.52,1199.52 -90,1,1 1600,2799.52 A1199.52,1199.52 -90,1,1 2799.52,1600 " fill="none" id="cp22" stroke="none" />
		<text fill="black" font-size="50.4" text-anchor="middle" x="3956.82338082573" y="0">
			<textPath xlink:href="#cp22">T</textPath>
		</text>
	</g>
	<g id="t43">
		<path d="M400.48,1600 A1199.52,1199.52 -90,1,1 1600,2799.52 A1199.52,1199.52 -90,1,1 2799.52,1600 " fill="none" id="cp23" stroke="none" />
		<text fill="black" font-size="50.4" text-anchor="middle" x="3998.69452771278" y="0">
			<textPath xlink:href="#cp23">C</textPath>
		</text>
	</g>
	<g id="t44">
		<path d="M400.48,1600 A1199.52,1199.52 -90,1,1 1600,2799.52 A1199.52,1199.52 -90,1,1 2799.52,1600 " fill="none" id="cp24" stroke="none" />
		<text fill="black" font-size="50.4" text-anchor="middle" x="4040.56567459982" y="0">
			<textPath xlink:href="#cp24">A</textPath>
		</text>
	</g>
	<g id="t45">
		<path d="M400.48,1600 A1199.52,1199.52 -90,1,1 1600,2799.52 A1199.52,1199.52 -90,1,1 2799.52,1600 " fill="none" id="cp25" stroke="none" />
		<text fill="black" font-size="50.4" text-anchor="middle" x="4082.43682148686" y="0">
			<textPath xlink:href="#cp25">C</textPath>
		</text>
	</g>
	<g id="t46">
		<path d="M400.48,1600 A1199.52,1199.52 -90,1,1 1600,2799.52 A1199.52,1199.52 -90,1,1 2799.52,1600 " fill="none" id="cp26" stroke="none" />
		<text fill="black" font-size="50.4" text-anchor="middle" x="4124.30796837391" y="0">
			<textPath xlink:href="#cp26">A</textPath>
		</text>
	</g>
	<!-- 
	Generated using the Perl SVG Module V2.59
	by Ronan Oger
	Info: http://www.roitsystems.com/
 -->
</svg>