<?xml version="1.0" encoding="UTF-8" standalone="yes"?>
<!DOCTYPE svg PUBLIC "-//W3C//DTD SVG 1.0//EN" "http://www.w3.org/TR/2001/REC-SVG-20010904/DTD/svg10.dtd">
<svg height="3200" printerror="1" raiseerror="0" width="3200" xml_xlink="http://www.w3.org/1999/xlink" xmlns="http://www.w3.org/2000/svg" xmlns:svg="http://www.w3.org/2000/svg" xmlns:xlink="http://www.w3.org/1999/xlink">
	<defs >
		<marker id="triangle-right" markerHeight="6" markerUnits="strokeWidth" markerWidth="4" orient="auto" refX="10" refY="5" viewBox="0 0 10 10">
			<rect fill="white" height="10" stroke="none" width="10" x1="0" y1="0" />
			<path d="M 0 0 L 10 5 L 0 10 z" />
		</marker>
		<marker id="triangle-left" markerHeight="6" markerUnits="strokeWidth" markerWidth="4" orient="auto" refX="0" refY="5" viewBox="0 0 10 10">
			<rect fill="white" height="10" stroke="none" width="10" x1="0" y1="0" />
			<path d="M 10 10 L 0 5 L 10 0 z" />
		</marker>
	</defs>
	<g id="t1">
		<path d="M450.4,1600 A1149.6,1149.6 -90,1,1 1600,2749.6 A1149.6,1149.6 -90,1,1 2749.6,1600 " fill="none" id="cp1" stroke="none" />
		<text fill="#000000" font-size="42" font-style="italic" font-weight="bold" text-anchor="middle" x="1805.78745728341" y="0">
			<textPath xlink:href="#cp1"></textPath>
		</text>
	</g>
	<g id="t2">
		<path d="M251.2,1600 A1348.8,1348.8 -90,1,1 1600,2948.8 A1348.8,1348.8 -90,1,1 2948.8,1600 " fill="none" id="cp2" stroke="none" />
	</g>
	<g id="t3">
		<circle cx="1600" cy="1600" fill="none" r="1200" stroke="black" stroke-width="4.8" />
		<line stroke="black" stroke-width="2.4" x1="1600" x2="1600" y1="400" y2="376" />
		<path d="M328,1600 A1272,1272 -90,1,1 1600,2872 A1272,1272 -90,1,1 1600,328 " fill="none" id="cp3" stroke="none" />
		<line stroke="black" stroke-width="9.60000000000001" x1="1600" x2="1600" y1="400" y2="352" />
		<text font-size="50" font-weight="bold" text-anchor="middle" x="1998.05292768311" y="0">
			<textPath xlink:href="#cp3">0.0Mb</textPath>
		</text>
	</g>
	<g id="t4">
		<mask height="3200" id="4" maskUnits="userSpaceOnUse" width="3200" x="0" y="0">
			<rect fill="white" height="3200" width="3200" x="0" y="0" />
			<circle cx="1600" cy="1600" fill="black" r="1116" stroke="black" stroke-width="0.042" />
		</mask>
		<circle cx="1600" cy="1600" fill="#000000" mask="url(#4)" r="1200" stroke="black" stroke-width="0.042" />
		<circle cx="1600" cy="1600" fill="none" r="1116" stroke="black" stroke-width="0.042" />
	</g>
	<g id="t5" />
	<g id="t6" />
	<g id="t7" />
	<g id="t8" />
	<g id="t9" />
	<g id="t10">
		<path d="M971.2,1600 A628.8,628.8 -90,1,1 1600,2228.8 A628.8,628.8 -90,1,1 2228.8,1600 " fill="none" id="cp5" stroke="none" />
	</g>
	<g id="t11" />
	<g id="t12">
		<path d="M1152.64,1600 A447.36,447.36 -90,1,1 1600,2047.36 A447.36,447.36 -90,1,1 2047.36,1600 " fill="none" id="cp6" stroke="none" />
		<text fill="black" font-size="67.2" text-anchor="middle" x="702.711444754965" y="0">
			<textPath xlink:href="#cp6">Test label 1</textPath>
		</text>
	</g>
	<!-- 
	Generated using the Perl SVG Module V2.59
	by Ronan Oger
	Info: http://www.roitsystems.com/
 -->
</svg>