<?xml version="1.0" encoding="UTF-8" standalone="yes"?>
<!DOCTYPE svg PUBLIC "-//W3C//DTD SVG 1.0//EN" "http://www.w3.org/TR/2001/REC-SVG-20010904/DTD/svg10.dtd">
<svg height="3200" printerror="1" raiseerror="0" width="3200" xml_xlink="http://www.w3.org/1999/xlink" xmlns="http://www.w3.org/2000/svg" xmlns:svg="http://www.w3.org/2000/svg" xmlns:xlink="http://www.w3.org/1999/xlink">
	<defs >
		<marker id="triangle-right" markerHeight="6" markerUnits="strokeWidth" markerWidth="4" orient="auto" refX="10" refY="5" viewBox="0 0 10 10">
			<rect fill="white" height="10" stroke="none" width="10" x1="0" y1="0" />
			<path d="M 0 0 L 10 5 L 0 10 z" />
		</marker>
		<marker id="triangle-left" markerHeight="6" markerUnits="strokeWidth" markerWidth="4" orient="auto" refX="0" refY="5" viewBox="0 0 10 10">
			<rect fill="white" height="10" stroke="none" width="10" x1="0" y1="0" />
			<path d="M 10 10 L 0 5 L 10 0 z" />
		</marker>
	</defs>
	<g id="t1" opacity="0.7">
		<path d="M386.56,1600 A1213.44,1213.44 -90,1,1 1600,2813.44 A1213.44,1213.44 -90,1,1 2813.44,1600 " fill="none" id="cp1" stroke="none" />
		<text fill="#ff0000" font-size="58.8000000000001" font-style="italic" font-weight="bold" text-anchor="middle" x="1906.067094786" y="0">
			<textPath xlink:href="#cp1"></textPath>
		</text>
	</g>
	<g id="t2" />
	<g id="t3">
		<circle cx="1600" cy="1600" fill="none" r="1176" stroke="black" stroke-width="4.8" />
		<line stroke="black" stroke-width="2.4" x1="1600" x2="1600" y1="424" y2="400" />
		<line stroke="black" stroke-width="2.4" x1="1638.97902956649" x2="1639.77451996581" y1="424.646165933826" y2="400.6593529937" />
		<line stroke="black" stroke-width="2.4" x1="1677.91522423326" x2="1679.50533085026" y1="426.583953649567" y2="402.636687397517" />
		<line stroke="black" stroke-width="2.4" x1="1716.76579617277" x2="1719.14877160486" y1="429.811233670336" y2="405.929830275853" />
		<line stroke="black" stroke-width="2.4" x1="1755.48805165016" x2="1758.66127719404" y1="434.324459468229" y2="410.535162722683" />
		<line stroke="black" stroke-width="2.4" x1="1794.03943794032" x2="1797.99942646972" y1="440.118671361676" y2="416.447623838445" />
		<line stroke="black" stroke-width="2.4" x1="1832.37759008998" x2="1837.11998988774" y1="447.187501965748" y2="423.66071629158" />
		<line stroke="black" stroke-width="2.4" x1="1870.46037747348" x2="1875.97997701376" y1="455.52318318941" y2="432.166513458582" />
		<line stroke="black" stroke-width="2.4" x1="1908.24595009104" x2="1914.53668376637" y1="465.116554772047" y2="441.955668134741" />
		<line stroke="black" stroke-width="2.4" x1="1945.69278455862" x2="1952.74773934553" y1="475.95707434987" y2="453.017422805989" />
		<line stroke="black" stroke-width="2.4" x1="1982.75972973887" x2="1990.57115279477" y1="488.032829041151" y2="465.339621470562" />
		<line stroke="black" stroke-width="2.4" x1="2019.406051963" x2="2027.96535914592" y1="501.330548537546" y2="478.908722997496" />
		<line stroke="black" stroke-width="2.4" x1="2055.5914797939" x2="2064.88926509582" y1="515.835619687123" y2="493.709816007268" />
		<line stroke="black" stroke-width="2.4" x1="2091.27624828129" x2="2101.30229416458" y1="531.53210255307" y2="509.726635258235" />
		<line stroke="black" stroke-width="2.4" x1="2126.42114266028" x2="2137.164431286" y1="548.402747930441" y2="526.941579520858" />
		<line stroke="black" stroke-width="2.4" x1="2160.98754144533" x2="2172.43626678095" y1="566.429016301677" y2="545.335730920079" />
		<line stroke="black" stroke-width="2.4" x1="2194.93745887226" x2="2207.07903966557" y1="585.591098210085" y2="564.888875724577" />
		<line stroke="black" stroke-width="2.4" x1="2228.23358664156" x2="2241.05468024649" y1="605.867936028879" y2="585.579526560081" />
		<line stroke="black" stroke-width="2.4" x1="2260.83933491737" x2="2274.3258519565" y1="627.237247101862" y2="607.384946022308" />
		<line stroke="black" stroke-width="2.4" x1="2292.7188725368" x2="2306.85599238449" y1="649.675548230317" y2="630.281171663589" />
		<line stroke="black" stroke-width="2.4" x1="2323.83716638555" x2="2338.60935345465" y1="673.158181479207" y2="654.243042325721" />
		<line stroke="black" stroke-width="2.4" x1="2354.16001989663" x2="2369.55104071085" y1="697.65934127431" y2="679.244225790112" />
		<line stroke="black" stroke-width="2.4" x1="2383.65411062963" x2="2399.64705166289" y1="723.152102760528" y2="705.257247714824" />
		<line stroke="black" stroke-width="2.4" x1="2412.28702688951" x2="2428.86431315256" y1="749.608451390186" y2="732.25352182672" />
		<line stroke="black" stroke-width="2.4" x1="2440.02730334452" x2="2457.17071769849" y1="776.999313708833" y2="760.203381335544" />
		<line stroke="black" stroke-width="2.4" x1="2466.84445560411" x2="2484.53515877971" y1="805.294589304686" y2="789.076111535394" />
		<line stroke="black" stroke-width="2.4" x1="2492.70901371892" x2="2510.9275650193" y1="834.463183886626" y2="818.839983557782" />
		<line stroke="black" stroke-width="2.4" x1="2517.59255456588" x2="2536.31893323049" y1="864.473043454386" y2="849.462289239169" />
		<line stroke="black" stroke-width="2.4" x1="2541.4677330831" x2="2560.68136028888" y1="895.291189523388" y2="880.909377064682" />
		<line stroke="black" stroke-width="2.4" x1="2564.30831231986" x2="2583.98807379577" y1="926.883755365515" y2="913.146689148485" />
		<line stroke="black" stroke-width="2.4" x1="2586.08919226898" x2="2606.21346149896" y1="959.216023225989" y2="946.138799210193" />
		<line stroke="black" stroke-width="2.4" x1="2606.7864374498" x2="2627.33309943857" y1="992.252462475465" y2="979.849451505576" />
		<line stroke="black" stroke-width="2.4" x1="2626.37730321138" x2="2647.32377878712" y1="1025.95676865541" y2="1014.24160066878" />
		<line stroke="black" stroke-width="2.4" x1="2644.84026072706" x2="2666.16353135414" y1="1060.29190337385" y2="1049.2774524223" />
		<line stroke="black" stroke-width="2.4" x1="2662.15502065299" x2="2683.83165372754" y1="1095.22013500769" y2="1084.91850510989" />
		<line stroke="black" stroke-width="2.4" x1="2678.30255542451" x2="2700.30873002501" y1="1130.70308016676" y2="1121.1255920069" />
		<line stroke="black" stroke-width="2.4" x1="2693.26512016598" x2="2715.5766532306" y1="1166.70174587421" y2="1157.85892436144" />
		<line stroke="black" stroke-width="2.4" x1="2707.02627219097" x2="2729.61864509283" y1="1203.1765724167" y2="1195.07813511908" />
		<line stroke="black" stroke-width="2.4" x1="2719.5708890715" x2="2742.41927456276" y1="1240.08747681743" y2="1232.7423232831" />
		<line stroke="black" stroke-width="2.4" x1="2730.88518525642" x2="2753.96447475145" y1="1277.39389688422" y2="1270.81009886145" />
		<line stroke="black" stroke-width="2.4" x1="2740.95672722062" x2="2764.24155838839" y1="1315.05483578413" y2="1309.23962835115" />
		<line stroke="black" stroke-width="2.4" x1="2749.77444712853" x2="2773.2392317638" y1="1353.02890709582" y2="1347.98868071002" />
		<line stroke="black" stroke-width="2.4" x1="2757.32865499678" x2="2780.94760713957" y1="1391.27438028995" y2="1387.01467376525" />
		<line stroke="black" stroke-width="2.4" x1="2763.61104934275" x2="2787.35821361505" y1="1429.74922658777" y2="1426.27472100793" />
		<line stroke="black" stroke-width="2.4" x1="2768.61472630724" x2="2792.46400643596" y1="1468.41116514748" y2="1465.72567872191" />
		<line stroke="black" stroke-width="2.4" x1="2772.33418724128" x2="2796.259374736" y1="1507.21770952751" y2="1505.32419339542" />
		<line stroke="black" stroke-width="2.4" x1="2774.7653447487" x2="2798.74014770275" y1="1546.12621437585" y2="1545.02674936312" />
		<line stroke="black" stroke-width="2.4" x1="2775.90552717785" x2="2799.90359916107" y1="1585.09392229392" y2="1584.78971662645" />
		<line stroke="black" stroke-width="2.4" x1="2775.75348155758" x2="2799.74845056896" y1="1624.07801082359" y2="1624.56939879958" />
		<line stroke="black" stroke-width="2.4" x1="2774.30937497412" x2="2798.27487242257" y1="1663.03563950572" y2="1664.32208112829" />
		<line stroke="black" stroke-width="2.4" x1="2771.57479438745" x2="2795.48448406883" y1="1701.92399695849" y2="1704.00407852907" />
		<line stroke="black" stroke-width="2.4" x1="2666.06012893659" x2="2687.81645809856" y1="2096.47940691604" y2="2106.61163971024" />
		<line stroke="black" stroke-width="2.4" x1="2649.0183455862" x2="2670.42688325122" y1="2131.5416358326" y2="2142.38942431898" />
		<line stroke="black" stroke-width="2.4" x1="2630.82377325812" x2="2651.86099312053" y1="2166.0197421344" y2="2177.57116544326" />
		<line stroke="black" stroke-width="2.4" x1="2611.49640636192" x2="2632.13919016522" y1="2199.87583708374" y2="2212.11820110586" />
		<line stroke="black" stroke-width="2.4" x1="2591.05748415963" x2="2611.28314710167" y1="2233.07271548471" y2="2245.99256682113" />
		<line stroke="black" stroke-width="2.4" x1="2569.52946742549" x2="2589.31578308724" y1="2265.5738965687" y2="2279.157037315" />
		<line stroke="black" stroke-width="2.4" x1="2546.93601376331" x2="2566.26123853399" y1="2297.34366408396" y2="2311.57516743262" />
		<line stroke="black" stroke-width="2.4" x1="2523.3019516086" x2="2542.1448485802" y1="2328.34710554498" y2="2343.21133218876" />
		<line stroke="black" stroke-width="2.4" x1="2498.65325294408" x2="2516.99311524906" y1="2358.55015059851" y2="2374.03076591684" />
		<line stroke="black" stroke-width="2.4" x1="2473.01700475852" x2="2490.83367832502" y1="2387.91960846425" y2="2403.99960047373" />
		<line stroke="black" stroke-width="2.4" x1="2446.42137928023" x2="2463.69528497982" y1="2416.42320440894" y2="2433.0849024581" />
		<line stroke="black" stroke-width="2.4" x1="2418.895603018" x2="2435.60775818163" y1="2444.0296152137" y2="2461.25470940173" />
		<line stroke="black" stroke-width="2.4" x1="2390.46992464348" x2="2406.60196392192" y1="2470.70850359586" y2="2488.47806489373" />
		<line stroke="black" stroke-width="2.4" x1="2361.17558175021" x2="2376.70977729614" y1="2496.4305515472" y2="2514.72505259919" />
		<line stroke="black" stroke-width="2.4" x1="2331.04476652602" x2="2345.96404747553" y1="2521.1674925522" y2="2539.9668291349" />
		<line stroke="black" stroke-width="2.4" x1="2300.11059037626" x2="2314.39856160843" y1="2544.89214265068" y2="2564.175655766" />
		<line stroke="black" stroke-width="2.4" x1="2268.40704753703" x2="2282.04800769085" y1="2567.57843031086" y2="2587.32492888863" />
		<line stroke="black" stroke-width="2.4" x1="2235.96897771812" x2="2248.94793644706" y1="2589.20142507993" y2="2609.38920926524" />
		<line stroke="black" stroke-width="2.4" x1="2202.83202781695" x2="2215.1347222622" y1="2609.73736498067" y2="2630.34424998027" />
		<line stroke="black" stroke-width="2.4" x1="2169.03261274538" x2="2180.64552320957" y1="2629.16368262399" y2="2650.1670230857" />
		<line stroke="black" stroke-width="2.4" x1="2134.6078754126" x2="2145.51824021694" y1="2647.45903000873" y2="2668.83574490687" />
		<line stroke="black" stroke-width="2.4" x1="2099.59564590797" x2="2109.79147541629" y1="2664.60330198145" y2="2686.32989998107" />
		<line stroke="black" stroke-width="2.4" x1="2064.03439992872" x2="2073.50448972319" y1="2680.57765833039" y2="2702.63026360244" />
		<line stroke="black" stroke-width="2.4" x1="2027.96321649819" x2="2036.69715969203" y1="2695.36454448943" y2="2717.71892294839" />
		<line stroke="black" stroke-width="2.4" x1="1991.421735021" x2="1999.4099336949" y1="2708.94771082912" y2="2731.57929676441" />
		<line stroke="black" stroke-width="2.4" x1="1954.4501117225" x2="1961.68378747194" y1="2721.31223051383" y2="2744.19615358554" />
		<line stroke="black" stroke-width="2.4" x1="1917.08897552021" x2="1923.56017910225" y1="2732.4445159051" y2="2755.5556284746" />
		<line stroke="black" stroke-width="2.4" x1="1879.37938337578" x2="1885.08100344467" y1="2742.33233349344" y2="2765.64523825861" />
		<line stroke="black" stroke-width="2.4" x1="1841.36277517667" x2="1846.28854609864" y1="2750.96481734196" y2="2774.4538952469" />
		<line stroke="black" stroke-width="2.4" x1="1803.08092819693" x2="1807.22543693564" y1="2758.33248102722" y2="2781.97191941553" />
		<line stroke="black" stroke-width="2.4" x1="1764.57591118723" x2="1767.93460325228" y1="2764.42722806403" y2="2788.19104904493" />
		<line stroke="black" stroke-width="2.4" x1="1725.89003814465" x2="1728.45922259659" y1="2769.2423608029" y2="2793.10444979888" />
		<line stroke="black" stroke-width="2.4" x1="1687.06582181286" x2="1688.84267531925" y1="2772.77258779017" y2="2796.70672223487" />
		<line stroke="black" stroke-width="2.4" x1="1648.14592696397" x2="1649.12849690201" y1="2775.01402958296" y2="2798.99390773771" />
		<line stroke="black" stroke-width="2.4" x1="1609.17312351328" x2="1609.36033011559" y1="2775.96422301234" y2="2799.96349286973" />
		<line stroke="black" stroke-width="2.4" x1="1570.1902395185" x2="1569.58187705969" y1="2775.62212389017" y2="2799.61441213283" />
		<line stroke="black" stroke-width="2.4" x1="1531.24011411508" x2="1529.83685113784" y1="2773.98810815659" y2="2797.94704913938" />
		<line stroke="black" stroke-width="2.4" x1="1492.36555043934" x2="1490.16892901974" y1="2771.06397146688" y2="2794.96323619069" />
		<line stroke="black" stroke-width="2.4" x1="1453.60926859117" x2="1450.62170264405" y1="2766.85292721816" y2="2790.66625226343" />
		<line stroke="black" stroke-width="2.4" x1="1415.01385868801" x2="1411.23863131429" y1="2761.35960301816" y2="2785.06081940629" />
		<line stroke="black" stroke-width="2.4" x1="1376.62173406162" x2="1372.06299394043" y1="2754.59003559981" y2="2778.15309755082" />
		<line stroke="black" stroke-width="2.4" x1="1338.4750846492" x2="1333.13784147877" y1="2746.55166418734" y2="2769.95067774218" />
		<line stroke="black" stroke-width="2.4" x1="1300.61583062988" x2="1294.50594962232" y1="2737.25332232118" y2="2760.46257379712" />
		<line stroke="black" stroke-width="2.4" x1="1263.08557635779" x2="1256.20977179366" y1="2726.70522815057" y2="2749.69921239854" />
		<line stroke="black" stroke-width="2.4" x1="1225.92556464212" x2="1218.29139249196" y1="2714.91897320464" y2="2737.67242163738" />
		<line stroke="black" stroke-width="2.4" x1="1189.17663142448" x2="1180.79248104539" y1="2701.90750965417" y2="2724.39541801446" />
		<line stroke="black" stroke-width="2.4" x1="1152.87916090343" x2="1143.75424581982" y1="2687.68513607826" y2="2709.88279191659" />
		<line stroke="black" stroke-width="2.4" x1="1117.07304115538" x2="1107.21738893407" y1="2672.26748175121" y2="2694.15049158287" />
		<line stroke="black" stroke-width="2.4" x1="1081.79762030076" x2="1071.22206153139" y1="2655.67148946727" y2="2677.21580557885" />
		<line stroke="black" stroke-width="2.4" x1="1047.09166326347" x2="1035.8078196566" y1="2637.91539692175" y2="2659.09734379771" />
		<line stroke="black" stroke-width="2.4" x1="1012.99330917129" x2="1001.01358078703" y1="2619.01871666929" y2="2639.81501700948" />
		<line stroke="black" stroke-width="2.4" x1="979.540029443977" x2="966.877581065282" y1="2599.00221468104" y2="2619.39001498065" />
		<line stroke="black" stroke-width="2.4" x1="946.768586615094" x2="933.437333280708" y1="2577.88788752451" y2="2597.84478318828" />
		<line stroke="black" stroke-width="2.4" x1="914.714993932868" x2="900.729585645784" y1="2555.69893819109" y2="2575.20299815417" />
		<line stroke="black" stroke-width="2.4" x1="883.414475784456" x2="868.79028141271" y1="2532.4597505977" y2="2551.48954142623" />
		<line stroke="black" stroke-width="2.4" x1="852.901428987101" x2="837.654519374593" y1="2508.19586279089" y2="2526.7304722356" />
		<line stroke="black" stroke-width="2.4" x1="823.209384988722" x2="807.356515294615" y1="2482.93393888241" y2="2500.9529988596" />
		<line stroke="black" stroke-width="2.4" x1="794.370973019487" x2="777.929564305599" y1="2456.70173974752" y2="2474.18544872196" />
		<line stroke="black" stroke-width="2.4" x1="766.417884234839" x2="749.406004321264" y1="2429.52809251795" y2="2446.45723726322" />
		<line stroke="black" stroke-width="2.4" x1="739.380836889398" x2="721.817180499386" y1="2401.44285890312" y2="2417.79883561543" />
		<line stroke="black" stroke-width="2.4" x1="713.289542580011" x2="695.19341079593" y1="2372.47690237446" y2="2388.24173711679" />
		<line stroke="black" stroke-width="2.4" x1="688.172673595034" x2="669.563952647994" y1="2342.66205424888" y2="2357.81842270294" />
		<line stroke="black" stroke-width="2.4" x1="664.057831405728" x2="644.956970822171" y1="2312.03107870868" y2="2326.56232521294" />
		<line stroke="black" stroke-width="2.4" x1="640.971516334411" x2="621.399506463685" y1="2280.61763679623" y2="2294.50779264921" />
		<line stroke="black" stroke-width="2.4" x1="618.939098432674" x2="598.91744738028" y1="2248.45624942312" y2="2261.69005043176" />
		<line stroke="black" stroke-width="2.4" x1="597.984789601689" x2="577.53549959356" y1="2215.58225943446" y2="2228.14516268822" />
		<line stroke="black" stroke-width="2.4" x1="578.13161698522" x2="557.277160189" y1="2182.03179276974" y2="2193.90999262218" />
		<line stroke="black" stroke-width="2.4" x1="559.401397664598" x2="538.164691494487" y1="2147.84171876337" y2="2159.02216200344" />
		<line stroke="black" stroke-width="2.4" x1="541.814714683459" x2="520.219096615774" y1="2113.0496096281" y2="2123.5200098246" />
		<line stroke="black" stroke-width="2.4" x1="525.390894428592" x2="503.460096355707" y1="2077.69369916613" y2="2087.44255016952" />
		<line stroke="black" stroke-width="2.4" x1="510.147985391753" x2="487.906107542605" y1="2041.81284075312" y2="2050.82942933992" />
		<line stroke="black" stroke-width="2.4" x1="496.102738335783" x2="473.574222791616" y1="2005.44646464144" y2="2013.72088228719" />
		<line stroke="black" stroke-width="2.4" x1="483.270587886841" x2="460.480191721266" y1="1968.63453462935" y2="1976.1576883973" />
		<line stroke="black" stroke-width="2.4" x1="471.665635572948" x2="448.638403645866" y1="1931.41750414394" y2="1938.18112667749" />
		<line stroke="black" stroke-width="2.4" x1="461.300634327522" x2="438.061871762777" y1="1893.836271786" y2="1899.83293039388" />
		<line stroke="black" stroke-width="2.4" x1="452.186974474897" x2="428.762218851936" y1="1855.93213638562" y2="1861.15524120982" />
		<line stroke="black" stroke-width="2.4" x1="444.334671213252" x2="420.749664503319" y1="1817.74675161806" y2="1822.19056287557" />
		<line stroke="black" stroke-width="2.4" x1="437.752353608693" x2="414.033013886421" y1="1779.32208022959" y2="1782.98171451999" />
		<line stroke="black" stroke-width="2.4" x1="432.447255112582" x2="408.619648074064" y1="1740.70034792372" y2="1743.57178359563" />
		<line stroke="black" stroke-width="2.4" x1="428.425205612546" x2="404.515515931169" y1="1701.92399695849" y2="1704.00407852907" />
		<line stroke="black" stroke-width="2.4" x1="425.690625025881" x2="401.72512757743" y1="1663.03563950572" y2="1664.32208112829" />
		<line stroke="black" stroke-width="2.4" x1="424.246518442416" x2="400.251549431037" y1="1624.07801082359" y2="1624.56939879958" />
		<line stroke="black" stroke-width="2.4" x1="424.094472822149" x2="400.096400838927" y1="1585.09392229392" y2="1584.78971662645" />
		<line stroke="black" stroke-width="2.4" x1="425.234655251304" x2="401.259852297248" y1="1546.12621437585" y2="1545.02674936312" />
		<line stroke="black" stroke-width="2.4" x1="427.665812758717" x2="403.740625263997" y1="1507.21770952751" y2="1505.32419339542" />
		<line stroke="black" stroke-width="2.4" x1="431.385273692756" x2="407.535993564037" y1="1468.41116514748" y2="1465.72567872191" />
		<line stroke="black" stroke-width="2.4" x1="436.388950657249" x2="412.641786384948" y1="1429.74922658777" y2="1426.27472100793" />
		<line stroke="black" stroke-width="2.4" x1="442.671345003221" x2="419.052392860429" y1="1391.27438028995" y2="1387.01467376525" />
		<line stroke="black" stroke-width="2.4" x1="450.225552871471" x2="426.760768236195" y1="1353.02890709582" y2="1347.98868071002" />
		<line stroke="black" stroke-width="2.4" x1="459.043272779379" x2="435.758441611611" y1="1315.05483578413" y2="1309.23962835115" />
		<line stroke="black" stroke-width="2.4" x1="469.114814743579" x2="446.03552524855" y1="1277.39389688422" y2="1270.81009886145" />
		<line stroke="black" stroke-width="2.4" x1="480.429110928495" x2="457.58072543724" y1="1240.08747681743" y2="1232.7423232831" />
		<line stroke="black" stroke-width="2.4" x1="492.973727809028" x2="470.381354907171" y1="1203.1765724167" y2="1195.07813511908" />
		<line stroke="black" stroke-width="2.4" x1="506.734879834016" x2="484.423346769404" y1="1166.70174587421" y2="1157.85892436144" />
		<line stroke="black" stroke-width="2.4" x1="521.697444575487" x2="499.691269974987" y1="1130.70308016676" y2="1121.1255920069" />
		<line stroke="black" stroke-width="2.4" x1="537.844979347015" x2="516.168346272464" y1="1095.22013500769" y2="1084.91850510989" />
		<line stroke="black" stroke-width="2.4" x1="555.159739272945" x2="533.836468645862" y1="1060.29190337385" y2="1049.2774524223" />
		<line stroke="black" stroke-width="2.4" x1="573.622696788623" x2="552.676221212881" y1="1025.95676865541" y2="1014.24160066878" />
		<line stroke="black" stroke-width="2.4" x1="593.213562550198" x2="572.666900561427" y1="992.252462475464" y2="979.849451505576" />
		<line stroke="black" stroke-width="2.4" x1="613.910807731023" x2="593.786538501044" y1="959.216023225989" y2="946.138799210193" />
		<line stroke="black" stroke-width="2.4" x1="635.691687680144" x2="616.011926204229" y1="926.883755365515" y2="913.146689148485" />
		<line stroke="black" stroke-width="2.4" x1="658.532266916896" x2="639.318639711119" y1="895.291189523388" y2="880.909377064682" />
		<line stroke="black" stroke-width="2.4" x1="682.407445434115" x2="663.681066769505" y1="864.473043454386" y2="849.462289239169" />
		<line stroke="black" stroke-width="2.4" x1="707.290986281085" x2="689.072434980699" y1="834.463183886626" y2="818.839983557781" />
		<line stroke="black" stroke-width="2.4" x1="733.155544395886" x2="715.464841220292" y1="805.294589304686" y2="789.076111535394" />
		<line stroke="black" stroke-width="2.4" x1="759.972696655478" x2="742.829282301508" y1="776.999313708834" y2="760.203381335545" />
		<line stroke="black" stroke-width="2.4" x1="787.712973110488" x2="771.135686847437" y1="749.608451390186" y2="732.253521826721" />
		<line stroke="black" stroke-width="2.4" x1="816.34588937037" x2="800.352948337112" y1="723.152102760528" y2="705.257247714824" />
		<line stroke="black" stroke-width="2.4" x1="845.839980103368" x2="830.448959289151" y1="697.659341274311" y2="679.244225790113" />
		<line stroke="black" stroke-width="2.4" x1="876.162833614445" x2="861.390646545352" y1="673.158181479207" y2="654.243042325721" />
		<line stroke="black" stroke-width="2.4" x1="907.281127463202" x2="893.144007615513" y1="649.675548230317" y2="630.281171663589" />
		<line stroke="black" stroke-width="2.4" x1="939.160665082626" x2="925.674148043496" y1="627.237247101862" y2="607.384946022309" />
		<line stroke="black" stroke-width="2.4" x1="971.766413358437" x2="958.945319753508" y1="605.86793602888" y2="585.579526560082" />
		<line stroke="black" stroke-width="2.4" x1="1005.06254112774" x2="992.92096033443" y1="585.591098210086" y2="564.888875724577" />
		<line stroke="black" stroke-width="2.4" x1="1039.01245855467" x2="1027.56373321905" y1="566.429016301677" y2="545.335730920079" />
		<line stroke="black" stroke-width="2.4" x1="1073.57885733972" x2="1062.835568714" y1="548.402747930441" y2="526.941579520858" />
		<line stroke="black" stroke-width="2.4" x1="1108.72375171871" x2="1098.69770583542" y1="531.53210255307" y2="509.726635258234" />
		<line stroke="black" stroke-width="2.4" x1="1144.4085202061" x2="1135.11073490419" y1="515.835619687122" y2="493.709816007268" />
		<line stroke="black" stroke-width="2.4" x1="1180.593948037" x2="1172.03464085408" y1="501.330548537546" y2="478.908722997496" />
		<line stroke="black" stroke-width="2.4" x1="1217.24027026113" x2="1209.42884720523" y1="488.032829041151" y2="465.339621470562" />
		<line stroke="black" stroke-width="2.4" x1="1254.30721544138" x2="1247.25226065446" y1="475.95707434987" y2="453.017422805989" />
		<line stroke="black" stroke-width="2.4" x1="1291.75404990896" x2="1285.46331623363" y1="465.116554772046" y2="441.955668134741" />
		<line stroke="black" stroke-width="2.4" x1="1329.53962252652" x2="1324.02002298624" y1="455.52318318941" y2="432.166513458581" />
		<line stroke="black" stroke-width="2.4" x1="1367.62240991002" x2="1362.88001011226" y1="447.187501965748" y2="423.66071629158" />
		<line stroke="black" stroke-width="2.4" x1="1405.96056205968" x2="1402.00057353028" y1="440.118671361676" y2="416.447623838445" />
		<line stroke="black" stroke-width="2.4" x1="1444.51194834984" x2="1441.33872280596" y1="434.324459468229" y2="410.535162722683" />
		<line stroke="black" stroke-width="2.4" x1="1483.23420382723" x2="1480.85122839514" y1="429.811233670336" y2="405.929830275853" />
		<line stroke="black" stroke-width="2.4" x1="1522.08477576674" x2="1520.49466914974" y1="426.583953649567" y2="402.636687397517" />
		<line stroke="black" stroke-width="2.4" x1="1561.02097043351" x2="1560.22548003419" y1="424.646165933826" y2="400.6593529937" />
		<line stroke="black" stroke-width="9.60000000000001" x1="1600" x2="1600" y1="424" y2="376" />
		<text font-size="50" font-weight="bold" text-anchor="start" x="1600" y="352">0bp</text>
		<line stroke="black" stroke-width="9.60000000000001" x1="1982.75972973887" x2="1998.38257585066" y1="488.032829041151" y2="442.646413899973" />
		<text font-size="50" font-weight="bold" text-anchor="start" x="2006.19399890656" y="419.953206329385">10bp</text>
		<line stroke="black" stroke-width="9.60000000000001" x1="2323.83716638555" x2="2353.38154052374" y1="673.158181479207" y2="635.327903172235" />
		<text font-size="50" font-weight="bold" text-anchor="start" x="2368.15372759283" y="616.41276401875">20bp</text>
		<line stroke="black" stroke-width="9.60000000000001" x1="2586.08919226898" x2="2626.33773072894" y1="959.216023225989" y2="933.061575194397" />
		<text font-size="50" font-weight="bold" text-anchor="start" x="2646.46199995891" y="919.9843511786">30bp</text>
		<line stroke="black" stroke-width="9.60000000000001" x1="2740.95672722062" x2="2787.52638955616" y1="1315.05483578413" y2="1303.42442091818" />
		<text font-size="50" font-weight="bold" text-anchor="start" x="2810.81122072392" y="1297.6092134852">40bp</text>
		<line stroke="black" stroke-width="9.60000000000001" x1="2771.57479438745" x2="2819.39417375021" y1="1701.92399695849" y2="1706.08416009965" />
		<text font-size="50" font-weight="bold" text-anchor="start" x="2843.30386343158" y="1748.16424167024">50bp</text>
		<line stroke="black" stroke-width="9.60000000000001" x1="2473.01700475852" x2="2508.65035189152" y1="2387.91960846425" y2="2420.0795924832" />
		<text font-size="50" font-weight="bold" text-anchor="start" x="2526.46702545802" y="2476.15958449268">60bp</text>
		<line stroke="black" stroke-width="9.60000000000001" x1="2169.03261274538" x2="2192.25843367376" y1="2629.16368262399" y2="2671.17036354742" />
		<text font-size="50" font-weight="bold" text-anchor="start" x="2203.87134413795" y="2732.17370400913">70bp</text>
		<line stroke="black" stroke-width="9.60000000000001" x1="1803.08092819693" x2="1811.36994567435" y1="2758.33248102722" y2="2805.61135780384" />
		<text font-size="50" font-weight="bold" text-anchor="start" x="1815.51445441306" y="2869.25079619215">80bp</text>
		<line stroke="black" stroke-width="9.60000000000001" x1="1415.01385868801" x2="1407.46340394058" y1="2761.35960301816" y2="2808.76203579441" />
		<text font-size="50" font-weight="bold" text-anchor="end" x="1403.68817656687" y="2872.46325218254">90bp</text>
		<line stroke="black" stroke-width="9.60000000000001" x1="1047.09166326347" x2="1024.52397604973" y1="2637.91539692175" y2="2680.27929067366" />
		<text font-size="50" font-weight="bold" text-anchor="end" x="1013.24013244286" y="2741.46123754962">100bp</text>
		<line stroke="black" stroke-width="9.60000000000001" x1="739.380836889398" x2="704.253524109373" y1="2401.44285890312" y2="2434.15481232774" />
		<text font-size="50" font-weight="bold" text-anchor="end" x="686.689867719361" y="2490.51078904005">110bp</text>
		<line stroke="black" stroke-width="9.60000000000001" x1="525.390894428592" x2="481.529298282821" y1="2077.69369916613" y2="2097.19140117291" />
		<text font-size="50" font-weight="bold" text-anchor="end" x="459.598500209935" y="2146.9402521763">120bp</text>
		<line stroke="black" stroke-width="9.60000000000001" x1="428.425205612546" x2="380.605826249793" y1="1701.92399695849" y2="1706.08416009965" />
		<text font-size="50" font-weight="bold" text-anchor="end" x="356.696136568416" y="1748.16424167024">130bp</text>
		<line stroke="black" stroke-width="9.60000000000001" x1="459.043272779379" x2="412.473610443843" y1="1315.05483578413" y2="1303.42442091818" />
		<text font-size="50" font-weight="bold" text-anchor="end" x="389.188779276076" y="1297.6092134852">140bp</text>
		<line stroke="black" stroke-width="9.60000000000001" x1="613.910807731023" x2="573.662269271065" y1="959.216023225989" y2="933.061575194396" />
		<text font-size="50" font-weight="bold" text-anchor="end" x="553.538000041086" y="919.9843511786">150bp</text>
		<line stroke="black" stroke-width="9.60000000000001" x1="876.162833614445" x2="846.618459476259" y1="673.158181479207" y2="635.327903172236" />
		<text font-size="50" font-weight="bold" text-anchor="end" x="831.846272407166" y="616.41276401875">160bp</text>
		<line stroke="black" stroke-width="9.60000000000001" x1="1217.24027026113" x2="1201.61742414934" y1="488.032829041151" y2="442.646413899973" />
		<text font-size="50" font-weight="bold" text-anchor="end" x="1193.80600109344" y="419.953206329385">170bp</text>
	</g>
	<g id="t4">
		<mask height="3200" id="2" maskUnits="userSpaceOnUse" width="3200" x="0" y="0">
			<rect fill="white" height="3200" width="3200" x="0" y="0" />
			<circle cx="1600" cy="1600" fill="black" r="1092" stroke="black" stroke-width="0.042" />
		</mask>
		<circle cx="1600" cy="1600" fill="#0000ff" mask="url(#2)" r="1176" stroke="black" stroke-width="0.042" />
		<circle cx="1600" cy="1600" fill="none" r="1092" stroke="black" stroke-width="0.042" />
	</g>
	<g id="t5" />
	<g id="t6">
		<path d="M619.702723063559,1685.28334439384 A984,984 0,0,1 2425.09503842914,1063.83381535236 L2495.52998073407,1018.06353129707 A1068,1068 0,0,0 536.018809178741,1692.56362989088 L619.702723063559,1685.28334439384 " fill="#cca0a0" stroke="black" stroke-width="0.042" />
	</g>
	<g id="t7" opacity="0.7">
		<path d="M602.56,1600 A997.44,997.44 -90,1,1 1600,2597.44 A997.44,997.44 -90,1,1 2597.44,1600 " fill="none" id="cp3" stroke="none" />
		<text fill="#ff0000" font-size="58.8000000000001" font-style="italic" font-weight="bold" text-anchor="end" x="2558.7742129421" y="0">
			<textPath xlink:href="#cp3">-50-30(0)</textPath>
		</text>
	</g>
	<g id="t8" />
	<g id="t9">
		<path d="M727.296326629754,1675.92297732622 A876,876 0,0,1 2334.53582689424,1122.68132342344 L2404.97076919916,1076.91103936815 A960,960 0,0,0 643.612412744936,1683.20326282326 L727.296326629754,1675.92297732622 " fill="#cca0a0" stroke="black" stroke-width="0.042" />
	</g>
	<g id="t10" opacity="0.7">
		<path d="M710.56,1600 A889.44,889.44 -90,1,1 1600,2489.44 A889.44,889.44 -90,1,1 2489.44,1600 " fill="none" id="cp4" stroke="none" />
		<text fill="#ff0000" font-size="58.8000000000001" font-style="italic" font-weight="bold" text-anchor="end" x="2281.71733232999" y="0">
			<textPath xlink:href="#cp4">-49-30(1)</textPath>
		</text>
	</g>
	<g id="t11" />
	<g id="t12">
		<path d="M1600,832 A768,768 0,0,1 2365.11006980405,1666.56261025861 L2448.79398368887,1673.84289575564 A852,852 0,0,0 1600,748 L1600,832 " fill="#cca0a0" stroke="black" stroke-width="0.042" />
	</g>
	<g id="t13" opacity="0.7">
		<path d="M818.56,1600 A781.44,781.44 -90,1,1 1600,2381.44 A781.44,781.44 -90,1,1 2381.44,1600 " fill="none" id="cp5" stroke="none" />
		<text fill="#ff0000" font-size="58.8000000000001" font-style="italic" font-weight="bold" text-anchor="start" x="2522.77869845606" y="0">
			<textPath xlink:href="#cp5">0-50(0)</textPath>
		</text>
	</g>
	<g id="t14" />
	<g id="t15">
		<path d="M1600,940 A660,660 0,0,1 2257.51646623786,1657.20224319099 L2341.20038012267,1664.48252868803 A744,744 0,0,0 1600,856 L1600,940 " fill="#cca0a0" stroke="black" stroke-width="0.042" />
	</g>
	<g id="t16" opacity="0.7">
		<path d="M926.560000000001,1600 A673.439999999999,673.439999999999 -90,1,1 1600,2273.44 A673.439999999999,673.439999999999 -90,1,1 2273.44,1600 " fill="none" id="cp6" stroke="none" />
		<text fill="#ff0000" font-size="58.8000000000001" font-style="italic" font-weight="bold" text-anchor="start" x="2174.11456629843" y="0">
			<textPath xlink:href="#cp6">1-50(1)</textPath>
		</text>
	</g>
	<g id="t17" />
	<g id="t18">
		<path d="M1618.29627918427,1048.3033023771 A552,552 0,0,1 2100.39557072534,1833.04135426671 L2176.54272279224,1868.50416904643 A636,636 0,0,0 1621.08049558188,964.349457086662 L1618.29627918427,1048.3033023771 " fill="#cca0a0" stroke="black" stroke-width="0.042" />
	</g>
	<g id="t19" opacity="0.7">
		<path d="M1034.56,1600 A565.439999999999,565.439999999999 -90,1,1 1600,2165.44 A565.439999999999,565.439999999999 -90,1,1 2165.44,1600 " fill="none" id="cp7" stroke="none" />
		<text fill="#ff0000" font-size="58.8" font-style="italic" font-weight="bold" text-anchor="start" x="2022.82622859034" y="0">
			<textPath xlink:href="#cp7">1-51(0)</textPath>
		</text>
	</g>
	<g id="t20" />
	<g id="t21">
		<path d="M1614.71657238735,1156.24396060767 A443.999999999999,443.999999999999 0,0,1 2002.49208949647,1787.44630669279 L2078.63924156337,1822.90912147251 A527.999999999999,527.999999999999 0,0,0 1617.50078878496,1072.29011531723 L1614.71657238735,1156.24396060767 " fill="#cca0a0" stroke="black" stroke-width="0.042" />
	</g>
	<g id="t22" opacity="0.7">
		<path d="M1142.56,1600 A457.439999999999,457.439999999999 -90,1,1 1600,2057.44 A457.439999999999,457.439999999999 -90,1,1 2057.44,1600 " fill="none" id="cp8" stroke="none" />
		<text fill="#ff0000" font-size="58.8" font-style="italic" font-weight="bold" text-anchor="start" x="1636.46298458964" y="0">
			<textPath xlink:href="#cp8">2-51(1)</textPath>
		</text>
	</g>
	<g id="t23" />
	<g id="t24">
		<path d="M1934.73565553927,1629.12114198814 A335.999999999999,335.999999999999 0,0,1 1904.5886082676,1741.85125911887 L1980.7357603345,1777.31407389858 A419.999999999999,419.999999999999 0,0,0 2018.41956942409,1636.40142748518 L1934.73565553927,1629.12114198814 " fill="#cca0a0" stroke="black" stroke-width="0.042" />
	</g>
	<g id="t25" opacity="0.7">
		<path d="M1250.56,1600 A349.439999999999,349.439999999999 -90,1,1 1600,1949.44 A349.439999999999,349.439999999999 -90,1,1 1949.44,1600 " fill="none" id="cp9" stroke="none" />
		<text fill="#ff0000" font-size="58.8" font-style="italic" font-weight="bold" text-anchor="start" x="1250.09974058894" y="0">
			<textPath xlink:href="#cp9">50-51(0)</textPath>
		</text>
	</g>
	<g id="t26" />
	<g id="t27">
		<path d="M1827.14205197308,1619.76077492052 A227.999999999999,227.999999999999 0,0,1 1806.68512703873,1696.25621154495 L1882.83227910563,1731.71902632466 A311.999999999999,311.999999999999 0,0,0 1910.8259658579,1627.04106041756 L1827.14205197308,1619.76077492052 " fill="#cca0a0" stroke="black" stroke-width="0.042" />
	</g>
	<g id="t28" opacity="0.7">
		<path d="M1358.56,1600 A241.439999999999,241.439999999999 -90,1,1 1600,1841.44 A241.439999999999,241.439999999999 -90,1,1 1841.44,1600 " fill="none" id="cp10" stroke="none" />
		<text fill="#ff0000" font-size="58.8" font-style="italic" font-weight="bold" text-anchor="start" x="863.736496588235" y="0">
			<textPath xlink:href="#cp10">51-51(1)</textPath>
		</text>
	</g>
	<g id="t29" />
	<g id="t30" opacity="0.3">
		<path d="M1600,1600 A0,0 0,0,1 1600,1600 L1643.75197196239,280.72528829307 A1320,1320 0,0,0 1600,280 L1600,1600 " fill="#a0a0a0" stroke="black" stroke-width="0.66" />
	</g>
	<g id="t31" opacity="0.7">
		<path d="M266.56,1600 A1333.44,1333.44 -90,1,1 1600,2933.44 A1333.44,1333.44 -90,1,1 2933.44,1600 " fill="none" id="cp11" stroke="none" />
		<text fill="#ff0000" font-size="58.7999999999999" font-style="italic" font-weight="bold" text-anchor="start" x="2138.76819728882" y="0">
			<textPath xlink:href="#cp11">0-1(0)</textPath>
		</text>
	</g>
	<g id="t32" opacity="0.3">
		<path d="M1600,1600 A0,0 0,0,1 1600,1600 L2796.59810390842,2157.27280368127 A1320,1320 0,0,0 2915.03293247571,1714.40448638198 L1600,1600 " fill="#a0a0a0" stroke="black" stroke-width="0.66" />
	</g>
	<g id="t33" opacity="0.7">
		<path d="M266.56,1600 A1333.44,1333.44 -90,1,1 1600,2933.44 A1333.44,1333.44 -90,1,1 2933.44,1600 " fill="none" id="cp12" stroke="none" />
		<text fill="#ff0000" font-size="58.7999999999999" font-style="italic" font-weight="bold" text-anchor="start" x="4770.29818592867" y="0">
			<textPath xlink:href="#cp12">50-51(0)</textPath>
		</text>
	</g>
	<g id="t34">
		<path d="M400.48,1600 A1199.52,1199.52 -90,1,1 1600,2799.52 A1199.52,1199.52 -90,1,1 2799.52,1600 " fill="none" id="cp13" stroke="none" />
		<text fill="black" font-size="50.4" text-anchor="middle" x="9321.59331535605" y="0">
			<textPath xlink:href="#cp13">T</textPath>
		</text>
	</g>
	<g id="t35">
		<path d="M400.48,1600 A1199.52,1199.52 -90,1,1 1600,2799.52 A1199.52,1199.52 -90,1,1 2799.52,1600 " fill="none" id="cp14" stroke="none" />
		<text fill="black" font-size="50.4" text-anchor="middle" x="9361.35920904766" y="0">
			<textPath xlink:href="#cp14">A</textPath>
		</text>
	</g>
	<g id="t36">
		<path d="M400.48,1600 A1199.52,1199.52 -90,1,1 1600,2799.52 A1199.52,1199.52 -90,1,1 2799.52,1600 " fill="none" id="cp15" stroke="none" />
		<text fill="black" font-size="50.4" text-anchor="middle" x="9401.12510273927" y="0">
			<textPath xlink:href="#cp15">C</textPath>
		</text>
	</g>
	<g id="t37">
		<path d="M400.48,1600 A1199.52,1199.52 -90,1,1 1600,2799.52 A1199.52,1199.52 -90,1,1 2799.52,1600 " fill="none" id="cp16" stroke="none" />
		<text fill="black" font-size="50.4" text-anchor="middle" x="1904.08455676282" y="0">
			<textPath xlink:href="#cp16">T</textPath>
		</text>
	</g>
	<g id="t38">
		<path d="M400.48,1600 A1199.52,1199.52 -90,1,1 1600,2799.52 A1199.52,1199.52 -90,1,1 2799.52,1600 " fill="none" id="cp17" stroke="none" />
		<text fill="black" font-size="50.4" text-anchor="middle" x="1943.85045045442" y="0">
			<textPath xlink:href="#cp17">T</textPath>
		</text>
	</g>
	<g id="t39">
		<path d="M400.48,1600 A1199.52,1199.52 -90,1,1 1600,2799.52 A1199.52,1199.52 -90,1,1 2799.52,1600 " fill="none" id="cp18" stroke="none" />
		<text fill="black" font-size="50.4" text-anchor="middle" x="1983.61634414603" y="0">
			<textPath xlink:href="#cp18">G</textPath>
		</text>
	</g>
	<g id="t40">
		<path d="M400.48,1600 A1199.52,1199.52 -90,1,1 1600,2799.52 A1199.52,1199.52 -90,1,1 2799.52,1600 " fill="none" id="cp19" stroke="none" />
		<text fill="black" font-size="50.4" text-anchor="middle" x="2023.38223783764" y="0">
			<textPath xlink:href="#cp19">A</textPath>
		</text>
	</g>
	<g id="t41">
		<path d="M400.48,1600 A1199.52,1199.52 -90,1,1 1600,2799.52 A1199.52,1199.52 -90,1,1 2799.52,1600 " fill="none" id="cp20" stroke="none" />
		<text fill="black" font-size="50.4" text-anchor="middle" x="3773.08156026834" y="0">
			<textPath xlink:href="#cp20">G</textPath>
		</text>
	</g>
	<g id="t42">
		<path d="M400.48,1600 A1199.52,1199.52 -90,1,1 1600,2799.52 A1199.52,1199.52 -90,1,1 2799.52,1600 " fill="none" id="cp21" stroke="none" />
		<text fill="black" font-size="50.4" text-anchor="middle" x="3812.84745395994" y="0">
			<textPath xlink:href="#cp21">A</textPath>
		</text>
	</g>
	<g id="t43">
		<path d="M400.48,1600 A1199.52,1199.52 -90,1,1 1600,2799.52 A1199.52,1199.52 -90,1,1 2799.52,1600 " fill="none" id="cp22" stroke="none" />
		<text fill="black" font-size="50.4" text-anchor="middle" x="3852.61334765155" y="0">
			<textPath xlink:href="#cp22">T</textPath>
		</text>
	</g>
	<g id="t44">
		<path d="M400.48,1600 A1199.52,1199.52 -90,1,1 1600,2799.52 A1199.52,1199.52 -90,1,1 2799.52,1600 " fill="none" id="cp23" stroke="none" />
		<text fill="black" font-size="50.4" text-anchor="middle" x="4081.85202893258" y="0">
			<textPath xlink:href="#cp23">C</textPath>
		</text>
	</g>
	<g id="t45">
		<path d="M400.48,1600 A1199.52,1199.52 -90,1,1 1600,2799.52 A1199.52,1199.52 -90,1,1 2799.52,1600 " fill="none" id="cp24" stroke="none" />
		<text fill="black" font-size="50.4" text-anchor="middle" x="4311.0907102136" y="0">
			<textPath xlink:href="#cp24">A</textPath>
		</text>
	</g>
	<g id="t46">
		<path d="M400.48,1600 A1199.52,1199.52 -90,1,1 1600,2799.52 A1199.52,1199.52 -90,1,1 2799.52,1600 " fill="none" id="cp25" stroke="none" />
		<text fill="black" font-size="50.4" text-anchor="middle" x="4350.85660390521" y="0">
			<textPath xlink:href="#cp25">C</textPath>
		</text>
	</g>
	<g id="t47">
		<path d="M400.48,1600 A1199.52,1199.52 -90,1,1 1600,2799.52 A1199.52,1199.52 -90,1,1 2799.52,1600 " fill="none" id="cp26" stroke="none" />
		<text fill="black" font-size="50.4" text-anchor="middle" x="4390.62249759682" y="0">
			<textPath xlink:href="#cp26">A</textPath>
		</text>
	</g>
	<!-- 
	Generated using the Perl SVG Module V2.59
	by Ronan Oger
	Info: http://www.roitsystems.com/
 -->
</svg>