<?xml version="1.0" encoding="UTF-8" standalone="yes"?>
<!DOCTYPE svg PUBLIC "-//W3C//DTD SVG 1.0//EN" "http://www.w3.org/TR/2001/REC-SVG-20010904/DTD/svg10.dtd">
<svg height="3200" printerror="1" raiseerror="0" width="3200" xml_xlink="http://www.w3.org/1999/xlink" xmlns="http://www.w3.org/2000/svg" xmlns:svg="http://www.w3.org/2000/svg" xmlns:xlink="http://www.w3.org/1999/xlink">
	<defs >
		<marker id="triangle-right" markerHeight="6" markerUnits="strokeWidth" markerWidth="4" orient="auto" refX="10" refY="5" viewBox="0 0 10 10">
			<rect fill="white" height="10" stroke="none" width="10" x1="0" y1="0" />
			<path d="M 0 0 L 10 5 L 0 10 z" />
		</marker>
		<marker id="triangle-left" markerHeight="6" markerUnits="strokeWidth" markerWidth="4" orient="auto" refX="0" refY="5" viewBox="0 0 10 10">
			<rect fill="white" height="10" stroke="none" width="10" x1="0" y1="0" />
			<path d="M 10 10 L 0 5 L 10 0 z" />
		</marker>
	</defs>
	<g id="t1">
		<path d="M726.4,1600 A873.6,873.6 -90,1,1 1600,2473.6 A873.6,873.6 -90,1,1 2473.6,1600 " fill="none" id="cp1" stroke="none" />
		<text fill="#a1a3aa" font-family="Arial" font-size="252" font-weight="bold" text-anchor="middle" x="1524.71963454225" y="0">
			<textPath xlink:href="#cp1"></textPath>
		</text>
	</g>
	<g id="t2">
		<path d="M721.6,1600 A878.4,878.4 -90,1,1 1600,2478.4 A878.4,878.4 -90,1,1 2478.4,1600 " fill="none" id="cp2" stroke="none" />
		<text fill="#a1a3aa" font-family="Arial" font-size="168" font-weight="bold" text-anchor="middle" x="1533.09721495182" y="0">
			<textPath xlink:href="#cp2"></textPath>
		</text>
	</g>
	<g id="t3" />
	<g id="t4">
		<path d="M1741.69691297622,2403.60312645796 A816,816 0,1,1 1741.69691297621,796.396873542038 L1791.70758814429,512.772240674522 A1104,1104 0,1,0 1791.70758814429,2687.22775932548 L1741.69691297622,2403.60312645796 " fill="#182d6c" stroke="#182d6c" stroke-width="0.144" />
	</g>
	<g id="t5">
		<path d="M726.4,1600 A873.6,873.6 -90,1,1 1600,2473.6 A873.6,873.6 -90,1,1 2473.6,1600 " fill="none" id="cp3" stroke="none" />
		<text fill="#a1a3aa" font-family="Arial" font-size="252" font-weight="bold" text-anchor="middle" x="4116.74301326406" y="0">
			<textPath xlink:href="#cp3">C</textPath>
		</text>
	</g>
	<g id="t6">
		<path d="M726.4,1600 A873.6,873.6 -90,1,1 1600,2473.6 A873.6,873.6 -90,1,1 2473.6,1600 " fill="none" id="cp4" stroke="none" />
		<text fill="#a1a3aa" font-family="Arial" font-size="252" font-weight="bold" text-anchor="middle" x="4421.68694017251" y="0">
			<textPath xlink:href="#cp4">I</textPath>
		</text>
	</g>
	<g id="t7">
		<path d="M726.4,1600 A873.6,873.6 -90,1,1 1600,2473.6 A873.6,873.6 -90,1,1 2473.6,1600 " fill="none" id="cp5" stroke="none" />
		<text fill="#a1a3aa" font-family="Arial" font-size="252" font-weight="bold" text-anchor="middle" x="4726.63086708096" y="0">
			<textPath xlink:href="#cp5">R</textPath>
		</text>
	</g>
	<g id="t8">
		<path d="M726.4,1600 A873.6,873.6 -90,1,1 1600,2473.6 A873.6,873.6 -90,1,1 2473.6,1600 " fill="none" id="cp6" stroke="none" />
		<text fill="#a1a3aa" font-family="Arial" font-size="252" font-weight="bold" text-anchor="middle" x="5031.57479398941" y="0">
			<textPath xlink:href="#cp6">C</textPath>
		</text>
	</g>
	<g id="t9">
		<path d="M726.4,1600 A873.6,873.6 -90,1,1 1600,2473.6 A873.6,873.6 -90,1,1 2473.6,1600 " fill="none" id="cp7" stroke="none" />
		<text fill="#a1a3aa" font-family="Arial" font-size="252" font-weight="bold" text-anchor="middle" x="5336.51872089786" y="0">
			<textPath xlink:href="#cp7">L</textPath>
		</text>
	</g>
	<g id="t10">
		<path d="M726.4,1600 A873.6,873.6 -90,1,1 1600,2473.6 A873.6,873.6 -90,1,1 2473.6,1600 " fill="none" id="cp8" stroke="none" />
		<text fill="#a1a3aa" font-family="Arial" font-size="252" font-weight="bold" text-anchor="middle" x="5641.46264780631" y="0">
			<textPath xlink:href="#cp8">E</textPath>
		</text>
	</g>
	<g id="t11">
		<path d="M721.6,1600 A878.4,878.4 -90,1,1 1600,2478.4 A878.4,878.4 -90,1,1 2478.4,1600 " fill="none" id="cp9" stroke="none" />
		<text fill="#a1a3aa" font-family="Arial" font-size="168" font-weight="bold" text-anchor="middle" x="5979.07913831209" y="0">
			<textPath xlink:href="#cp9">A</textPath>
		</text>
	</g>
	<g id="t12">
		<path d="M721.6,1600 A878.4,878.4 -90,1,1 1600,2478.4 A878.4,878.4 -90,1,1 2478.4,1600 " fill="none" id="cp10" stroke="none" />
		<text fill="#a1a3aa" font-family="Arial" font-size="168" font-weight="bold" text-anchor="middle" x="6285.69858130246" y="0">
			<textPath xlink:href="#cp10">T</textPath>
		</text>
	</g>
	<g id="t13">
		<path d="M721.6,1600 A878.4,878.4 -90,1,1 1600,2478.4 A878.4,878.4 -90,1,1 2478.4,1600 " fill="none" id="cp11" stroke="none" />
		<text fill="#a1a3aa" font-family="Arial" font-size="168" font-weight="bold" text-anchor="middle" x="6592.31802429282" y="0">
			<textPath xlink:href="#cp11">O</textPath>
		</text>
	</g>
	<g id="t14">
		<path d="M721.6,1600 A878.4,878.4 -90,1,1 1600,2478.4 A878.4,878.4 -90,1,1 2478.4,1600 " fill="none" id="cp12" stroke="none" />
		<text fill="#a1a3aa" font-family="Arial" font-size="168" font-weight="bold" text-anchor="middle" x="6898.93746728319" y="0">
			<textPath xlink:href="#cp12">R</textPath>
		</text>
	</g>
	<g id="t15" opacity="0.15">
		<path d="M1691.68623780814,2119.97849359045 A528,528 0,1,1 1691.68623780814,1080.02150640955 L1741.69691297621,796.396873542038 A816,816 0,1,0 1741.69691297622,2403.60312645796 L1691.68623780814,2119.97849359045 " fill="#a1a3aa" stroke="#a1a3aa" stroke-width="0.144" />
	</g>
	<g id="t16">
		<path d="M1691.68623780814,2119.97849359045 A528,528 0,1,1 1691.68623780814,1080.02150640955 L1791.70758814429,512.772240674522 A1104,1104 0,1,0 1791.70758814429,2687.22775932548 L1691.68623780814,2119.97849359045 " fill="none" stroke="#182d6c" stroke-width="3" />
	</g>
	<!-- 
	Generated using the Perl SVG Module V2.59
	by Ronan Oger
	Info: http://www.roitsystems.com/
 -->
</svg>