<?xml version="1.0" encoding="UTF-8" standalone="yes"?>
<!DOCTYPE svg PUBLIC "-//W3C//DTD SVG 1.0//EN" "http://www.w3.org/TR/2001/REC-SVG-20010904/DTD/svg10.dtd">
<svg height="3200" printerror="1" raiseerror="0" width="3200" xml_xlink="http://www.w3.org/1999/xlink" xmlns="http://www.w3.org/2000/svg" xmlns:svg="http://www.w3.org/2000/svg" xmlns:xlink="http://www.w3.org/1999/xlink">
	<defs >
		<marker id="triangle-right" markerHeight="6" markerUnits="strokeWidth" markerWidth="4" orient="auto" refX="10" refY="5" viewBox="0 0 10 10">
			<rect fill="white" height="10" stroke="none" width="10" x1="0" y1="0" />
			<path d="M 0 0 L 10 5 L 0 10 z" />
		</marker>
		<marker id="triangle-left" markerHeight="6" markerUnits="strokeWidth" markerWidth="4" orient="auto" refX="0" refY="5" viewBox="0 0 10 10">
			<rect fill="white" height="10" stroke="none" width="10" x1="0" y1="0" />
			<path d="M 10 10 L 0 5 L 10 0 z" />
		</marker>
	</defs>
	<g id="t1" opacity="0.7">
		<path d="M386.56,1600 A1213.44,1213.44 -90,1,1 1600,2813.44 A1213.44,1213.44 -90,1,1 2813.44,1600 " fill="none" id="cp1" stroke="none" />
		<text fill="#ff0000" font-size="58.8000000000001" font-style="italic" font-weight="bold" text-anchor="middle" x="1906.067094786" y="0">
			<textPath xlink:href="#cp1"></textPath>
		</text>
	</g>
	<g id="t2">
		<circle cx="1600" cy="1600" fill="none" r="1176" stroke="black" stroke-width="4.8" />
		<line stroke="black" stroke-width="2.4" x1="1600" x2="1600" y1="424" y2="400" />
		<path d="M352,1600 A1248,1248 -90,1,1 1600,2848 A1248,1248 -90,1,1 1600,352 " fill="none" id="cp2" stroke="none" />
		<line stroke="black" stroke-width="9.60000000000001" x1="1600" x2="1600" y1="424" y2="376" />
		<text font-size="50" font-weight="bold" text-anchor="middle" x="1960.35381584003" y="0">
			<textPath xlink:href="#cp2">0.0Mb</textPath>
		</text>
	</g>
	<g id="t3" opacity="0.7">
		<path d="M410.56,1600 A1189.44,1189.44 -90,1,1 1600,2789.44 A1189.44,1189.44 -90,1,1 2789.44,1600 " fill="none" id="cp3" stroke="none" />
		<text fill="#ff0000" font-size="58.8000000000001" font-style="italic" font-weight="bold" text-anchor="middle" x="1868.36798294292" y="0">
			<textPath xlink:href="#cp3">coords</textPath>
		</text>
	</g>
	<g id="t4" />
	<g id="t5">
		<mask height="3200" id="4" maskUnits="userSpaceOnUse" width="3200" x="0" y="0">
			<rect fill="white" height="3200" width="3200" x="0" y="0" />
			<circle cx="1600" cy="1600" fill="black" r="1068" stroke="black" stroke-width="0.042" />
		</mask>
		<circle cx="1600" cy="1600" fill="#0000ff" mask="url(#4)" r="1152" stroke="black" stroke-width="0.042" />
		<circle cx="1600" cy="1600" fill="none" r="1068" stroke="black" stroke-width="0.042" />
	</g>
	<g id="t6" opacity="0.7">
		<path d="M518.56,1600 A1081.44,1081.44 -90,1,1 1600,2681.44 A1081.44,1081.44 -90,1,1 2681.44,1600 " fill="none" id="cp5" stroke="none" />
		<text fill="#ff0000" font-size="58.8000000000001" font-style="italic" font-weight="bold" text-anchor="middle" x="1698.72197964907" y="0">
			<textPath xlink:href="#cp5">contigs</textPath>
		</text>
	</g>
	<g id="t7" />
	<g id="t8">
		<path d="M581.2,1600 A1018.8,1018.8 -90,1,1 1600,2618.8 A1018.8,1018.8 -90,1,1 2618.8,1600 " fill="none" id="cp6" stroke="none" />
		<text fill="black" font-size="21" text-anchor="middle" x="1600.32729773864" y="0">
			<textPath xlink:href="#cp6">small label</textPath>
		</text>
	</g>
	<g id="t9">
		<path d="M636.4,1600 A963.6,963.6 -90,1,1 1600,2563.6 A963.6,963.6 -90,1,1 2563.6,1600 " fill="none" id="cp7" stroke="none" />
		<text fill="black" font-size="42" text-anchor="middle" x="1513.61934049956" y="0">
			<textPath xlink:href="#cp7">medium label</textPath>
		</text>
	</g>
	<g id="t10">
		<path d="M746.8,1600 A853.2,853.2 -90,1,1 1600,2453.2 A853.2,853.2 -90,1,1 2453.2,1600 " fill="none" id="cp8" stroke="none" />
		<text fill="black" font-size="84" text-anchor="middle" x="1340.20342602141" y="0">
			<textPath xlink:href="#cp8">large label</textPath>
		</text>
	</g>
	<g id="t11" />
	<g id="t12">
		<mask height="3200" id="9" maskUnits="userSpaceOnUse" width="3200" x="0" y="0">
			<rect fill="white" height="3200" width="3200" x="0" y="0" />
			<circle cx="1600" cy="1600" fill="black" r="726" stroke="black" stroke-width="0.042" />
		</mask>
		<circle cx="1600" cy="1600" fill="#0000ff" mask="url(#9)" r="810" stroke="black" stroke-width="0.042" />
		<circle cx="1600" cy="1600" fill="none" r="726" stroke="black" stroke-width="0.042" />
	</g>
	<g id="t13" />
	<g id="t14">
		<mask height="3200" id="10" maskUnits="userSpaceOnUse" width="3200" x="0" y="0">
			<rect fill="white" height="3200" width="3200" x="0" y="0" />
			<circle cx="1600" cy="1600" fill="black" r="630" stroke="black" stroke-width="0.042" />
		</mask>
		<circle cx="1600" cy="1600" fill="#0000ff" mask="url(#10)" r="714" stroke="black" stroke-width="0.042" />
		<circle cx="1600" cy="1600" fill="none" r="630" stroke="black" stroke-width="0.042" />
	</g>
	<g id="t15" />
	<g id="t16">
		<mask height="3200" id="11" maskUnits="userSpaceOnUse" width="3200" x="0" y="0">
			<rect fill="white" height="3200" width="3200" x="0" y="0" />
			<circle cx="1600" cy="1600" fill="black" r="522" stroke="black" stroke-width="0.042" />
		</mask>
		<circle cx="1600" cy="1600" fill="#0000ff" mask="url(#11)" r="606" stroke="black" stroke-width="0.042" />
		<circle cx="1600" cy="1600" fill="none" r="522" stroke="black" stroke-width="0.042" />
	</g>
	<g id="t17" />
	<g id="t18">
		<mask height="3200" id="12" maskUnits="userSpaceOnUse" width="3200" x="0" y="0">
			<rect fill="white" height="3200" width="3200" x="0" y="0" />
			<circle cx="1600" cy="1600" fill="black" r="378" stroke="black" stroke-width="0.042" />
		</mask>
		<circle cx="1600" cy="1600" fill="#0000ff" mask="url(#12)" r="462" stroke="black" stroke-width="0.042" />
		<circle cx="1600" cy="1600" fill="none" r="378" stroke="black" stroke-width="0.042" />
	</g>
	<g id="t19" />
	<g id="t20">
		<mask height="3200" id="13" maskUnits="userSpaceOnUse" width="3200" x="0" y="0">
			<rect fill="white" height="3200" width="3200" x="0" y="0" />
			<circle cx="1600" cy="1600" fill="black" r="174" stroke="black" stroke-width="0.042" />
		</mask>
		<circle cx="1600" cy="1600" fill="#0000ff" mask="url(#13)" r="258" stroke="black" stroke-width="0.042" />
		<circle cx="1600" cy="1600" fill="none" r="174" stroke="black" stroke-width="0.042" />
	</g>
	<g id="t21" opacity="0.7">
		<path d="M1412.56,1600 A187.44,187.44 -90,1,1 1600,1787.44 A187.44,187.44 -90,1,1 1787.44,1600 " fill="none" id="cp14" stroke="none" />
		<text fill="#ff0000" font-size="58.8" font-style="italic" font-weight="bold" text-anchor="middle" x="1600" y="1426">gaps (tiny/small/medium/large)</text>
	</g>
	<!-- 
	Generated using the Perl SVG Module V2.59
	by Ronan Oger
	Info: http://www.roitsystems.com/
 -->
</svg>