<?xml version="1.0" encoding="UTF-8" standalone="yes"?>
<!DOCTYPE svg PUBLIC "-//W3C//DTD SVG 1.0//EN" "http://www.w3.org/TR/2001/REC-SVG-20010904/DTD/svg10.dtd">
<svg height="3200" printerror="1" raiseerror="0" width="3200" xml_xlink="http://www.w3.org/1999/xlink" xmlns="http://www.w3.org/2000/svg" xmlns:svg="http://www.w3.org/2000/svg" xmlns:xlink="http://www.w3.org/1999/xlink">
	<defs >
		<marker id="triangle-right" markerHeight="6" markerUnits="strokeWidth" markerWidth="4" orient="auto" refX="10" refY="5" viewBox="0 0 10 10">
			<rect fill="white" height="10" stroke="none" width="10" x1="0" y1="0" />
			<path d="M 0 0 L 10 5 L 0 10 z" />
		</marker>
		<marker id="triangle-left" markerHeight="6" markerUnits="strokeWidth" markerWidth="4" orient="auto" refX="0" refY="5" viewBox="0 0 10 10">
			<rect fill="white" height="10" stroke="none" width="10" x1="0" y1="0" />
			<path d="M 10 10 L 0 5 L 10 0 z" />
		</marker>
	</defs>
	<g id="t1" opacity="0.7">
		<path d="M386.56,1600 A1213.44,1213.44 -90,1,1 1600,2813.44 A1213.44,1213.44 -90,1,1 2813.44,1600 " fill="none" id="cp1" stroke="none" />
		<text fill="#ff0000" font-size="58.8000000000001" font-style="italic" font-weight="bold" text-anchor="middle" x="1906.067094786" y="0">
			<textPath xlink:href="#cp1"></textPath>
		</text>
	</g>
	<g id="t2">
		<circle cx="1600" cy="1600" fill="none" r="1176" stroke="black" stroke-width="4.8" />
		<line stroke="black" stroke-width="2.4" x1="1600" x2="1600" y1="424" y2="400" />
		<line stroke="black" stroke-width="2.4" x1="2002.21568855099" x2="2010.4241719908" y1="494.921477955772" y2="472.36885505691" />
		<line stroke="black" stroke-width="2.4" x1="2188" x2="2200" y1="581.5541251495" y2="560.769515458674" />
		<line stroke="black" stroke-width="2.4" x1="2216.36816926957" x2="2228.94711149956" y1="598.468033505032" y2="578.02860561738" />
		<line stroke="black" stroke-width="2.4" x1="2244.25017324153" x2="2257.39813596075" y1="616.171908167767" y2="596.09378384466" />
		<line stroke="black" stroke-width="2.4" x1="2271.62401976342" x2="2285.33063241165" y1="634.651785065704" y2="614.950801087453" />
		<line stroke="black" stroke-width="2.4" x1="2298.46811749597" x2="2312.72256887344" y1="653.893088048906" y2="634.584783723374" />
		<line stroke="black" stroke-width="2.4" x1="2324.76129294353" x2="2339.5523397383" y1="673.880640386553" y2="654.980245292401" />
		<line stroke="black" stroke-width="2.4" x1="2350.48280715476" x2="2365.79878281098" y1="694.598676737709" y2="676.121098711948" />
		<line stroke="black" stroke-width="2.4" x1="2375.61237208068" x2="2391.44119600069" y1="716.03085558636" y2="697.990668965674" />
		<line stroke="black" stroke-width="2.4" x1="2400.130166577" x2="2416.45935365" y1="738.160272130916" y2="720.571706256036" />
		<line stroke="black" stroke-width="2.4" x1="2424.01685203825" x2="2440.83352248801" y1="760.969471618004" y2="743.846399610208" />
		<line stroke="black" stroke-width="2.4" x1="2447.25358765121" x2="2464.54447719511" y1="784.44046311005" y2="767.796390928623" />
		<line stroke="black" stroke-width="2.4" x1="2469.82204525579" x2="2487.57351556713" y1="808.554733675769" y2="792.40278946507" />
		<line stroke="black" stroke-width="2.4" x1="2491.70442380149" x2="2509.90247326682" y1="833.293262992389" y2="817.646186726928" />
		<line stroke="black" stroke-width="2.4" x1="2512.88346338812" x2="2531.51373815114" y1="858.63653834808" y2="843.506671783755" />
		<line stroke="black" stroke-width="2.4" x1="2533.3424588797" x2="2552.39026416295" y1="884.564570032763" y2="869.963846972208" />
		<line stroke="black" stroke-width="2.4" x1="2553.06527308075" x2="2572.51558477627" y1="911.056907105154" y2="896.996843984851" />
		<line stroke="black" stroke-width="2.4" x1="2572.03634946465" x2="2591.87382598434" y1="938.092653523599" y2="924.584340330203" />
		<line stroke="black" stroke-width="2.4" x1="2590.24072444397" x2="2610.44971882037" y1="965.650484628004" y2="952.704576151024" />
		<line stroke="black" stroke-width="2.4" x1="2607.66403917309" x2="2628.22861140111" y1="993.708663959822" y2="981.335371387574" />
		<line stroke="black" stroke-width="2.4" x1="2624.29255087389" x2="2645.19648048356" y1="1022.24506040686" y2="1010.45414327231" />
		<line stroke="black" stroke-width="2.4" x1="2640.11314367546" x2="2661.33994252598" y1="1051.23716565938" y2="1040.03792414223" />
		<line stroke="black" stroke-width="2.4" x1="2655.11333895937" x2="2676.64626424425" y1="1080.66211196369" y2="1070.06337955478" />
		<line stroke="black" stroke-width="2.4" x1="2669.28130520222" x2="2691.10337265532" y1="1110.49669015926" y2="1100.50682669312" />
		<line stroke="black" stroke-width="2.4" x1="2682.60586730792" x2="2704.69986459992" y1="1140.71736798517" y2="1131.34425304609" />
		<line stroke="black" stroke-width="2.4" x1="2695.07651542209" x2="2717.42501573683" y1="1171.30030864134" y2="1162.55133534831" />
		<line stroke="black" stroke-width="2.4" x1="2706.68341322182" x2="2729.26878900185" y1="1202.22138959" y2="1194.1034587653" />
		<line stroke="black" stroke-width="2.4" x1="2717.4174056741" x2="2740.22184252459" y1="1233.45622158251" y2="1225.97573630869" />
		<line stroke="black" stroke-width="2.4" x1="2727.27002625699" x2="2750.27553699693" y1="1264.98016789664" y2="1258.14302846596" />
		<line stroke="black" stroke-width="2.4" x1="2736.23350363762" x2="2759.42194248736" y1="1296.7683637689" y2="1290.57996302949" />
		<line stroke="black" stroke-width="2.4" x1="2744.30076780187" x2="2767.65384469579" y1="1328.79573600689" y2="1323.26095510907" />
		<line stroke="black" stroke-width="2.4" x1="2751.46545563096" x2="2774.96475064384" y1="1361.03702276592" y2="1356.16022731216" />
		<line stroke="black" stroke-width="2.4" x1="2757.72191592036" x2="2781.34889379629" y1="1393.46679347454" y2="1389.25183007606" />
		<line stroke="black" stroke-width="2.4" x1="2763.06521383723" x2="2786.80123860942" y1="1426.05946889307" y2="1422.50966213579" />
		<line stroke="black" stroke-width="2.4" x1="2767.49113481283" x2="2791.31748450288" y1="1458.78934128947" y2="1455.9074911117" />
		<line stroke="black" stroke-width="2.4" x1="2770.99618786676" x2="2794.8940692518" y1="1491.63059471645" y2="1489.41897420046" />
		<line stroke="black" stroke-width="2.4" x1="2773.57760836056" x2="2797.52817179649" y1="1524.55732537409" y2="1523.01767895315" />
		<line stroke="black" stroke-width="2.4" x1="2775.23336017826" x2="2799.21771446761" y1="1557.54356204159" y2="1556.67710412408" />
		<line stroke="black" stroke-width="2.4" x1="2775.96213733245" x2="2799.96136462495" y1="1590.56328656234" y2="1590.37070057382" />
		<line stroke="black" stroke-width="2.4" x1="2775.76336499434" x2="2799.75853570851" y1="1623.59045436589" y2="1624.07189221009" />
		<line stroke="black" stroke-width="2.4" x1="2774.6371999472" x2="2798.60938770123" y1="1656.59901501087" y2="1657.75409694987" />
		<line stroke="black" stroke-width="2.4" x1="2772.58453046267" x2="2796.51482700273" y1="1689.56293273243" y2="1691.39074768615" />
		<line stroke="black" stroke-width="2.4" x1="2769.60697560014" x2="2793.47650571443" y1="1722.45620697819" y2="1724.95531324305" />
		<line stroke="black" stroke-width="2.4" x1="2765.7068839297" x2="2789.49682033643" y1="1755.25289291638" y2="1758.42131930243" />
		<line stroke="black" stroke-width="2.4" x1="2760.88733167968" x2="2784.57890987723" y1="1787.92712190003" y2="1791.76236928574" />
		<line stroke="black" stroke-width="2.4" x1="2755.15212031027" x2="2778.72665337783" y1="1820.45312187105" y2="1824.95216517454" />
		<line stroke="black" stroke-width="2.4" x1="2748.50577351506" x2="2771.9446668521" y1="1852.80523768816" y2="1857.96452825323" />
		<line stroke="black" stroke-width="2.4" x1="2740.95353365298" x2="2764.2382996459" y1="1884.95795136263" y2="1890.77341975778" />
		<line stroke="black" stroke-width="2.4" x1="2732.50135761329" x2="2755.61363021765" y1="1916.8859021857" y2="1923.35296141398" />
		<line stroke="black" stroke-width="2.4" x1="2660.26945783154" x2="2681.90761003218" y1="2108.72849024762" y2="2119.1107043343" />
		<line stroke="black" stroke-width="2.4" x1="2422.33199442063" x2="2439.11428002105" y1="2440.68192020061" y2="2457.83869408226" />
		<line stroke="black" stroke-width="2.4" x1="2263.85604021505" x2="2277.40412266842" y1="2570.70652509911" y2="2590.51686234603" />
		<line stroke="black" stroke-width="2.4" x1="2236.33478480219" x2="2249.32120898182" y1="2588.96614787906" y2="2609.14913048884" />
		<line stroke="black" stroke-width="2.4" x1="2208.31161526485" x2="2220.72613802536" y1="2606.44571574123" y2="2626.98542422574" />
		<line stroke="black" stroke-width="2.4" x1="2179.80863510098" x2="2191.64146438875" y1="2623.13144153737" y2="2644.01167503814" />
		<line stroke="black" stroke-width="2.4" x1="2150.84832626295" x2="2162.09012883975" y1="2639.01016426852" y2="2660.21445333523" />
		<line stroke="black" stroke-width="2.4" x1="2121.4535314248" x2="2132.09544022939" y1="2654.06935946578" y2="2675.58097904672" />
		<line stroke="black" stroke-width="2.4" x1="2091.64743596482" x2="2101.68105710696" y1="2668.29714906912" y2="2690.09913170319" />
		<line stroke="black" stroke-width="2.4" x1="2061.45354967796" x2="2070.87096905914" y1="2681.6823107963" y2="2703.75745999622" />
		<line stroke="black" stroke-width="2.4" x1="2030.89568823226" x2="2039.68947778802" y1="2694.21428699448" y2="2716.5451908107" />
		<line stroke="black" stroke-width="2.4" x1="1999.99795438407" x2="2008.16117794293" y1="2705.88319296775" y2="2728.4522377222" />
		<line stroke="black" stroke-width="2.4" x1="1968.78471896681" x2="1976.31093772123" y1="2716.67982477368" y2="2739.46920895273" />
		<line stroke="black" stroke-width="2.4" x1="1937.28060166824" x2="1944.16387925331" y1="2726.59566648301" y2="2749.58741477859" />
		<line stroke="black" stroke-width="2.4" x1="1905.51045161156" x2="1911.7453587873" y1="2735.62289689672" y2="2758.79887438441" />
		<line stroke="black" stroke-width="2.4" x1="1873.49932775539" x2="1879.08094668917" y1="2743.75439571498" y2="2767.09632215815" />
		<line stroke="black" stroke-width="2.4" x1="1841.27247912837" x2="1846.19640727385" y1="2750.98374915341" y2="2774.47321342185" />
		<line stroke="black" stroke-width="2.4" x1="1808.85532491377" x2="1813.11767848344" y1="2757.30525500196" y2="2780.92372959384" />
		<line stroke="black" stroke-width="2.4" x1="1776.2734343999" x2="1779.87085142847" y1="2762.7139271226" y2="2786.44278277817" />
		<line stroke="black" stroke-width="2.4" x1="1743.55250681214" x2="1746.48214980831" y1="2767.20549938216" y2="2791.02601977771" />
		<line stroke="black" stroke-width="2.4" x1="1710.71835104246" x2="1712.977909227" y1="2770.77642901727" y2="2794.66982552783" />
		<line stroke="black" stroke-width="2.4" x1="1677.79686529248" x2="1679.38455642089" y1="2773.42389942879" y2="2797.37132594774" />
		<line stroke="black" stroke-width="2.4" x1="1644.814016646" x2="1645.72858841429" y1="2775.14582240335" y2="2799.1283902075" />
		<line stroke="black" stroke-width="2.4" x1="1611.79582058734" x2="1612.03655161974" y1="2775.94083976052" y2="2799.93963240869" />
		<line stroke="black" stroke-width="2.4" x1="1578.76832048134" x2="1578.33502089933" y1="2775.80832442402" y2="2799.80441267757" />
		<line stroke="black" stroke-width="2.4" x1="1545.75756703149" x2="1544.65057860356" y1="2774.74838091638" y2="2798.72283766978" />
		<line stroke="black" stroke-width="2.4" x1="1512.78959773221" x2="1511.0097936043" y1="2772.76184527648" y2="2796.6957604862" />
		<line stroke="black" stroke-width="2.4" x1="1479.89041633162" x2="1477.43920033838" y1="2769.85028440011" y2="2793.72478000011" />
		<line stroke="black" stroke-width="2.4" x1="1447.08597232078" x2="1443.96527787835" y1="2766.01599480407" y2="2789.81223959599" />
		<line stroke="black" stroke-width="2.4" x1="1414.40214046593" x2="1410.61442904686" y1="2761.26200081479" y2="2784.96122532121" />
		<line stroke="black" stroke-width="2.4" x1="1381.86470039948" x2="1377.4129595913" y1="2755.59205218286" y2="2779.1755634519" />
		<line stroke="black" stroke-width="2.4" x1="1349.49931628617" x2="1344.38705743487" y1="2749.01062112537" y2="2772.45981747487" />
		<line stroke="black" stroke-width="2.4" x1="1317.33151658024" x2="1311.56277202065" y1="2741.52289879843" y2="2764.81928448819" />
		<line stroke="black" stroke-width="2.4" x1="1285.38667388964" x2="1278.96599376493" y1="2733.13479120261" y2="2756.25999102307" />
		<line stroke="black" stroke-width="2.4" x1="1253.68998496321" x2="1246.62243363592" y1="2723.8529145245" y2="2746.78868829031" />
		<line stroke="black" stroke-width="2.4" x1="1222.26645081653" x2="1214.55760287401" y1="2713.6845899182" y2="2736.4128468553" />
		<line stroke="black" stroke-width="2.4" x1="1191.14085701219" x2="1182.79679286958" y1="2702.63783773063" y2="2725.14065074554" />
		<line stroke="black" stroke-width="2.4" x1="1160.33775410995" x2="1151.36505521423" y1="2690.72137117548" y2="2712.98099099538" />
		<line stroke="black" stroke-width="2.4" x1="1129.88143830229" x2="1120.28718194111" y1="2677.94458946055" y2="2699.94345863322" />
		<line stroke="black" stroke-width="2.4" x1="1099.79593225065" x2="1089.58768597005" y1="2664.31757037409" y2="2686.03833711642" />
		<line stroke="black" stroke-width="2.4" x1="1070.10496613728" x2="1059.29078177274" y1="2649.85106233581" y2="2671.27659422021" />
		<line stroke="black" stroke-width="2.4" x1="1040.83195894796" x2="1029.42036627343" y1="2634.55647591904" y2="2655.66987338678" />
		<line stroke="black" stroke-width="2.4" x1="1012" x2="1000" y1="2618.4458748505" y2="2639.23048454133" />
		<line stroke="black" stroke-width="2.4" x1="983.631830730429" x2="971.052888500437" y1="2601.53196649497" y2="2621.97139438262" />
		<line stroke="black" stroke-width="2.4" x1="955.749826758465" x2="942.60186403925" y1="2583.82809183223" y2="2603.90621615534" />
		<line stroke="black" stroke-width="2.4" x1="928.375980236584" x2="914.669367588351" y1="2565.3482149343" y2="2585.04919891255" />
		<line stroke="black" stroke-width="2.4" x1="901.531882504029" x2="887.27743112656" y1="2546.10691195109" y2="2565.41521627663" />
		<line stroke="black" stroke-width="2.4" x1="875.238707056468" x2="860.447660261702" y1="2526.11935961345" y2="2545.0197547076" />
		<line stroke="black" stroke-width="2.4" x1="849.517192845236" x2="834.201217189017" y1="2505.40132326229" y2="2523.87890128805" />
		<line stroke="black" stroke-width="2.4" x1="824.387627919321" x2="808.558803999307" y1="2483.96914441364" y2="2502.00933103433" />
		<line stroke="black" stroke-width="2.4" x1="799.869833422997" x2="783.540646349997" y1="2461.83972786908" y2="2479.42829374396" />
		<line stroke="black" stroke-width="2.4" x1="775.983147961749" x2="759.166477511989" y1="2439.030528382" y2="2456.15360038979" />
		<line stroke="black" stroke-width="2.4" x1="752.746412348787" x2="735.455522804884" y1="2415.55953688995" y2="2432.20360907138" />
		<line stroke="black" stroke-width="2.4" x1="730.177954744208" x2="712.426484432866" y1="2391.44526632423" y2="2407.59721053493" />
		<line stroke="black" stroke-width="2.4" x1="708.295576198513" x2="690.097526733176" y1="2366.70673700761" y2="2382.35381327307" />
		<line stroke="black" stroke-width="2.4" x1="687.116536611883" x2="668.48626184886" y1="2341.36346165192" y2="2356.49332821624" />
		<line stroke="black" stroke-width="2.4" x1="666.657541120304" x2="647.609735837045" y1="2315.43542996724" y2="2330.03615302779" />
		<line stroke="black" stroke-width="2.4" x1="646.934726919251" x2="627.484415223725" y1="2288.94309289485" y2="2303.00315601515" />
		<line stroke="black" stroke-width="2.4" x1="627.963650535347" x2="608.12617401566" y1="2261.9073464764" y2="2275.4156596698" />
		<line stroke="black" stroke-width="2.4" x1="609.759275556033" x2="589.550281179625" y1="2234.349515372" y2="2247.29542384898" />
		<line stroke="black" stroke-width="2.4" x1="592.335960826915" x2="571.771388598893" y1="2206.29133604018" y2="2218.66462861243" />
		<line stroke="black" stroke-width="2.4" x1="575.707449126114" x2="554.803519516443" y1="2177.75493959314" y2="2189.54585672769" />
		<line stroke="black" stroke-width="2.4" x1="559.886856324538" x2="538.660057474018" y1="2148.76283434062" y2="2159.96207585777" />
		<line stroke="black" stroke-width="2.4" x1="544.886661040634" x2="523.353735755749" y1="2119.33788803631" y2="2129.93662044522" />
		<line stroke="black" stroke-width="2.4" x1="530.718694797781" x2="508.896627344675" y1="2089.50330984074" y2="2099.49317330688" />
		<line stroke="black" stroke-width="2.4" x1="517.39413269208" x2="495.300135400081" y1="2059.28263201483" y2="2068.6557469539" />
		<line stroke="black" stroke-width="2.4" x1="504.923484577907" x2="482.57498426317" y1="2028.69969135866" y2="2037.44866465169" />
		<line stroke="black" stroke-width="2.4" x1="493.316586778185" x2="470.731210998147" y1="1997.77861041" y2="2005.8965412347" />
		<line stroke="black" stroke-width="2.4" x1="482.582594325901" x2="459.778157475409" y1="1966.54377841749" y2="1974.02426369131" />
		<line stroke="black" stroke-width="2.4" x1="472.729973743009" x2="449.72446300307" y1="1935.01983210336" y2="1941.85697153404" />
		<line stroke="black" stroke-width="2.4" x1="463.766496362384" x2="440.578057512636" y1="1903.23163623109" y2="1909.4200369705" />
		<line stroke="black" stroke-width="2.4" x1="455.699232198127" x2="432.346155304211" y1="1871.20426399311" y2="1876.73904489093" />
		<line stroke="black" stroke-width="2.4" x1="448.534544369035" x2="425.035249356158" y1="1838.96297723408" y2="1843.83977268784" />
		<line stroke="black" stroke-width="2.4" x1="442.278084079639" x2="418.651106203713" y1="1806.53320652546" y2="1810.74816992394" />
		<line stroke="black" stroke-width="2.4" x1="436.93478616277" x2="413.198761390582" y1="1773.94053110692" y2="1777.49033786421" />
		<line stroke="black" stroke-width="2.4" x1="432.508865187175" x2="408.682515497117" y1="1741.21065871053" y2="1744.0925088883" />
		<line stroke="black" stroke-width="2.4" x1="429.003812133237" x2="405.105930748201" y1="1708.36940528355" y2="1710.58102579954" />
		<line stroke="black" stroke-width="2.4" x1="426.422391639441" x2="402.471828203511" y1="1675.44267462591" y2="1676.98232104685" />
		<line stroke="black" stroke-width="2.4" x1="424.76663982174" x2="400.782285532388" y1="1642.4564379584" y2="1643.32289587592" />
		<line stroke="black" stroke-width="2.4" x1="424.037862667554" x2="400.038635375055" y1="1609.43671343766" y2="1609.62929942618" />
		<line stroke="black" stroke-width="2.4" x1="424.236635005661" x2="400.241464291491" y1="1576.40954563411" y2="1575.92810778991" />
		<line stroke="black" stroke-width="2.4" x1="425.362800052799" x2="401.390612298775" y1="1543.40098498913" y2="1542.24590305013" />
		<line stroke="black" stroke-width="2.4" x1="427.415469537327" x2="403.485172997273" y1="1510.43706726757" y2="1508.60925231385" />
		<line stroke="black" stroke-width="2.4" x1="430.393024399857" x2="406.523494285568" y1="1477.54379302181" y2="1475.04468675695" />
		<line stroke="black" stroke-width="2.4" x1="434.293116070299" x2="410.50317966357" y1="1444.74710708362" y2="1441.57868069757" />
		<line stroke="black" stroke-width="2.4" x1="439.112668320318" x2="415.421090122774" y1="1412.07287809997" y2="1408.23763071426" />
		<line stroke="black" stroke-width="2.4" x1="444.847879689731" x2="421.273346622175" y1="1379.54687812895" y2="1375.04783482546" />
		<line stroke="black" stroke-width="2.4" x1="451.494226484938" x2="428.055333147896" y1="1347.19476231184" y2="1342.03547174677" />
		<line stroke="black" stroke-width="2.4" x1="459.046466347023" x2="435.761700354105" y1="1315.04204863737" y2="1309.22658024222" />
		<line stroke="black" stroke-width="2.4" x1="467.498642386706" x2="444.386369782353" y1="1283.1140978143" y2="1276.64703858602" />
		<line stroke="black" stroke-width="2.4" x1="476.844087882886" x2="453.922538656006" y1="1251.43609326786" y2="1244.32254415088" />
		<line stroke="black" stroke-width="2.4" x1="487.075431541071" x2="464.362685245991" y1="1220.03302127618" y2="1212.27859313896" />
		<line stroke="black" stroke-width="2.4" x1="498.184603307547" x2="475.698574803619" y1="1188.92965126216" y2="1180.54046047159" />
		<line stroke="black" stroke-width="2.4" x1="510.162840734693" x2="487.921266055809" y1="1158.15051625636" y2="1149.13317985342" />
		<line stroke="black" stroke-width="2.4" x1="523.000695892433" x2="501.021118257585" y1="1127.71989354641" y2="1118.08152402695" />
		<line stroke="black" stroke-width="2.4" x1="536.68804282037" x2="514.987798796296" y1="1097.66178552809" y2="1087.40998523275" />
		<line stroke="black" stroke-width="2.4" x1="551.214085514711" x2="529.810291341541" y1="1067.99990077327" y2="1057.14275589109" />
		<line stroke="black" stroke-width="2.4" x1="566.567366443704" x2="545.476904534392" y1="1038.75763532953" y2="1027.30370951993" />
		<line stroke="black" stroke-width="2.4" x1="582.735775584861" x2="561.975281209042" y1="1009.95805426642" y2="997.916381904513" />
		<line stroke="black" stroke-width="2.4" x1="599.706559976827" x2="579.29240813962" y1="981.623873482645" y2="969.003952533311" />
		<line stroke="black" stroke-width="2.4" x1="617.466333778387" x2="597.414626304476" y1="953.777441788732" y2="940.589226315032" />
		<line stroke="black" stroke-width="2.4" x1="636.00108882665" x2="616.327641659847" y1="926.440723279238" y2="912.69461559106" />
		<line stroke="black" stroke-width="2.4" x1="655.296205686101" x2="636.016536414389" y1="899.635280008393" y2="885.342122457544" />
		<line stroke="black" stroke-width="2.4" x1="675.336465179797" x2="656.465780795711" y1="873.382254982851" y2="858.553321411072" />
		<line stroke="black" stroke-width="2.4" x1="696.106060393613" x2="677.659245299605" y1="847.702355484982" y2="832.349342331614" />
		<line stroke="black" stroke-width="2.4" x1="717.588609144071" x2="699.580213412317" y1="822.615836739836" y2="806.750853816159" />
		<line stroke="black" stroke-width="2.4" x1="739.767166899921" x2="722.211394795838" y1="798.142485938673" y2="781.778046876197" />
		<line stroke="black" stroke-width="2.4" x1="762.624240147271" x2="745.534938925787" y1="774.301606631656" y2="757.450619011894" />
		<line stroke="black" stroke-width="2.4" x1="786.141800187734" x2="769.532449171158" y1="751.11200350203" y2="733.78775867554" />
		<line stroke="black" stroke-width="2.4" x1="810.301297358714" x2="794.18499730481" y1="728.591967533768" y2="710.808130136498" />
		<line stroke="black" stroke-width="2.4" x1="835.083675664593" x2="819.473138433258" y1="706.75926158442" y2="688.529858759613" />
		<line stroke="black" stroke-width="2.4" x1="860.469387807302" x2="845.376926333982" y1="685.631106374515" y2="666.970516708689" />
		<line stroke="black" stroke-width="2.4" x1="886.43841060441" x2="871.875929188174" y1="665.224166904578" y2="646.147109086304" />
		<line stroke="black" stroke-width="2.4" x1="912.970260782566" x2="898.949245696495" y1="645.554539310483" y2="626.076060520901" />
		<line stroke="black" stroke-width="2.4" x1="940.044011133839" x2="926.575521565142" y1="626.637738167496" y2="606.773202211731" />
		<line stroke="black" stroke-width="2.4" x1="967.63830702223" x2="954.732966349215" y1="608.488684253029" y2="588.253759441867" />
		<line stroke="black" stroke-width="2.4" x1="995.731383227308" x2="983.39937064011" y1="591.121692777758" y2="570.532339569141" />
		<line stroke="black" stroke-width="2.4" x1="1024.30108111169" x2="1012.55212358336" y1="574.550462094388" y2="553.622920504478" />
		<line stroke="black" stroke-width="2.4" x1="1053.32486609886" x2="1042.16823071312" y1="558.78806289297" y2="537.538839686704" />
		<line stroke="black" stroke-width="2.4" x1="1082.77984544749" x2="1072.22433208927" y1="543.846927891287" y2="522.292783562537" />
		<line stroke="black" stroke-width="2.4" x1="1112.64278630824" x2="1102.6967207227" y1="529.738842028448" y2="507.896777580049" />
		<line stroke="black" stroke-width="2.4" x1="1142.89013404893" x2="1133.56136127442" y1="516.474933169428" y2="494.362176703498" />
		<line stroke="black" stroke-width="2.4" x1="1173.49803083335" x2="1164.79390901363" y1="504.065663327874" y2="481.699656457014" />
		<line stroke="black" stroke-width="2.4" x1="1204.44233443939" x2="1196.36972901979" y1="492.520820414106" y2="469.91920450419" />
		<line stroke="black" stroke-width="2.4" x1="1235.69863730138" x2="1228.26391561365" y1="481.84951051483" y2="459.030112770234" />
		<line stroke="black" stroke-width="2.4" x1="1267.24228576173" x2="1260.45131200177" y1="472.060150710632" y2="449.04097011289" />
		<line stroke="black" stroke-width="2.4" x1="1299.04839951676" x2="1292.90653011914" y1="463.160462436948" y2="439.959655547906" />
		<line stroke="black" stroke-width="2.4" x1="1331.09189124117" x2="1325.60397065425" y1="455.157465393713" y2="431.793332034401" />
		<line stroke="black" stroke-width="2.4" x1="1363.34748637591" x2="1358.51784324073" y1="448.05747200852" y2="424.548440825021" />
		<line stroke="black" stroke-width="2.4" x1="1395.78974306369" x2="1391.62218679968" y1="441.866082457643" y2="418.23069638535" />
		<line stroke="black" stroke-width="9.60000000000001" x1="1600" x2="1600" y1="424" y2="376" />
		<text font-size="50" font-weight="bold" text-anchor="start" x="1600" y="352">0bp</text>
		<line stroke="black" stroke-width="9.60000000000001" x1="2400.130166577" x2="2432.788540723" y1="738.160272130916" y2="702.983140381157" />
		<text font-size="50" font-weight="bold" text-anchor="start" x="2449.117727796" y="685.394574506278">10bp</text>
		<line stroke="black" stroke-width="9.60000000000001" x1="2607.66403917309" x2="2648.79318362913" y1="993.708663959822" y2="968.962078815325" />
		<text font-size="50" font-weight="bold" text-anchor="start" x="2669.35775585715" y="956.588786243077">20bp</text>
		<line stroke="black" stroke-width="9.60000000000001" x1="2736.23350363762" x2="2782.61038133711" y1="1296.7683637689" y2="1284.39156229008" />
		<text font-size="50" font-weight="bold" text-anchor="start" x="2805.79882018686" y="1278.20316155067">30bp</text>
		<line stroke="black" stroke-width="9.60000000000001" x1="2775.76336499434" x2="2823.75370642268" y1="1623.59045436589" y2="1624.5533300543" />
		<text font-size="50" font-weight="bold" text-anchor="start" x="2847.74887713685" y="1665.0347678985">40bp</text>
		<line stroke="black" stroke-width="9.60000000000001" x1="2660.26945783154" x2="2703.54576223282" y1="2108.72849024762" y2="2129.49291842099" />
		<text font-size="50" font-weight="bold" text-anchor="start" x="2725.18391443347" y="2179.87513250768">50bp</text>
		<line stroke="black" stroke-width="9.60000000000001" x1="2030.89568823226" x2="2048.48326734378" y1="2694.21428699448" y2="2738.87609462691" />
		<text font-size="50" font-weight="bold" text-anchor="start" x="2057.27705689954" y="2801.20699844313">60bp</text>
		<line stroke="black" stroke-width="9.60000000000001" x1="1710.71835104246" x2="1715.23746741154" y1="2770.77642901727" y2="2818.56322203839" />
		<text font-size="50" font-weight="bold" text-anchor="start" x="1717.49702559608" y="2882.45661854894">70bp</text>
		<line stroke="black" stroke-width="9.60000000000001" x1="1381.86470039948" x2="1372.96121878313" y1="2755.59205218286" y2="2802.75907472093" />
		<text font-size="50" font-weight="bold" text-anchor="end" x="1368.50947797496" y="2866.34258598997">80bp</text>
		<line stroke="black" stroke-width="9.60000000000001" x1="1070.10496613728" x2="1048.47659740819" y1="2649.85106233581" y2="2692.70212610462" />
		<text font-size="50" font-weight="bold" text-anchor="end" x="1037.66241304365" y="2754.12765798902">90bp</text>
		<line stroke="black" stroke-width="9.60000000000001" x1="799.869833422997" x2="767.211459276997" y1="2461.83972786908" y2="2497.01685961884" />
		<text font-size="50" font-weight="bold" text-anchor="end" x="750.882272203997" y="2554.60542549372">100bp</text>
		<line stroke="black" stroke-width="9.60000000000001" x1="592.335960826915" x2="551.206816370871" y1="2206.29133604018" y2="2231.03792118467" />
		<text font-size="50" font-weight="bold" text-anchor="end" x="530.642244142849" y="2283.41121375692">110bp</text>
		<line stroke="black" stroke-width="9.60000000000001" x1="463.766496362384" x2="417.389618662889" y1="1903.23163623109" y2="1915.60843770992" />
		<text font-size="50" font-weight="bold" text-anchor="end" x="394.201179813142" y="1961.79683844933">120bp</text>
		<line stroke="black" stroke-width="9.60000000000001" x1="424.236635005661" x2="376.246293577321" y1="1576.40954563411" y2="1575.4466699457" />
		<text font-size="50" font-weight="bold" text-anchor="end" x="352.251122863151" y="1574.9652321015">130bp</text>
		<line stroke="black" stroke-width="9.60000000000001" x1="476.844087882886" x2="431.000989429126" y1="1251.43609326786" y2="1237.20899503389" />
		<text font-size="50" font-weight="bold" text-anchor="end" x="408.079440202246" y="1230.09544591691">140bp</text>
		<line stroke="black" stroke-width="9.60000000000001" x1="617.466333778387" x2="577.362918830566" y1="953.777441788732" y2="927.401010841333" />
		<text font-size="50" font-weight="bold" text-anchor="end" x="557.311211356656" y="914.212795367634">150bp</text>
		<line stroke="black" stroke-width="9.60000000000001" x1="835.083675664593" x2="803.862601201923" y1="706.75926158442" y2="670.300455934805" />
		<text font-size="50" font-weight="bold" text-anchor="end" x="788.252063970588" y="652.071053109997">160bp</text>
		<line stroke="black" stroke-width="9.60000000000001" x1="1112.64278630824" x2="1092.75065513715" y1="529.738842028448" y2="486.05471313165" />
		<text font-size="50" font-weight="bold" text-anchor="end" x="1082.80458955161" y="464.212648683251">170bp</text>
	</g>
	<g id="t3">
		<mask height="3200" id="2" maskUnits="userSpaceOnUse" width="3200" x="0" y="0">
			<rect fill="white" height="3200" width="3200" x="0" y="0" />
			<circle cx="1600" cy="1600" fill="black" r="1092" stroke="black" stroke-width="0.042" />
		</mask>
		<circle cx="1600" cy="1600" fill="#0000ff" mask="url(#2)" r="1176" stroke="black" stroke-width="0.042" />
		<circle cx="1600" cy="1600" fill="none" r="1092" stroke="black" stroke-width="0.042" />
	</g>
	<g id="t4" />
	<g id="t5">
		<path d="M616.198000719023,1580.26104838772 A984,984 0,0,1 2550.72599283964,1346.27556968419 L2631.88552881375,1324.61616709625 A1068,1068 0,0,0 532.214903219427,1578.57601593302 L616.198000719023,1580.26104838772 " fill="#cca0a0" stroke="black" stroke-width="0.042" />
	</g>
	<g id="t6" opacity="0.7">
		<path d="M602.56,1600 A997.44,997.44 -90,1,1 1600,2597.44 A997.44,997.44 -90,1,1 2597.44,1600 " fill="none" id="cp3" stroke="none" />
		<text fill="#ff0000" font-size="58.8000000000001" font-style="italic" font-weight="bold" text-anchor="end" x="2873.42148997798" y="0">
			<textPath xlink:href="#cp3">-50-30(0)</textPath>
		</text>
	</g>
	<g id="t7" />
	<g id="t8">
		<path d="M724.176268932789,1582.42751868663 A876,876 0,0,1 2446.37801801578,1374.12337301153 L2527.53755398989,1352.4639704236 A960,960 0,0,0 640.193171433193,1580.74248623192 L724.176268932789,1582.42751868663 " fill="#cca0a0" stroke="black" stroke-width="0.042" />
	</g>
	<g id="t9" opacity="0.7">
		<path d="M710.56,1600 A889.44,889.44 -90,1,1 1600,2489.44 A889.44,889.44 -90,1,1 2489.44,1600 " fill="none" id="cp4" stroke="none" />
		<text fill="#ff0000" font-size="58.8000000000001" font-style="italic" font-weight="bold" text-anchor="end" x="2562.29548649143" y="0">
			<textPath xlink:href="#cp4">-49-30(1)</textPath>
		</text>
	</g>
	<g id="t10" />
	<g id="t11">
		<path d="M1600,832 A768,768 0,0,1 2292.42087042059,1932.23085077395 L2368.15440312285,1968.56860007736 A852,852 0,0,0 1600,748 L1600,832 " fill="#cca0a0" stroke="black" stroke-width="0.042" />
	</g>
	<g id="t12" opacity="0.7">
		<path d="M818.56,1600 A781.44,781.44 -90,1,1 1600,2381.44 A781.44,781.44 -90,1,1 2381.44,1600 " fill="none" id="cp5" stroke="none" />
		<text fill="#ff0000" font-size="58.8000000000001" font-style="italic" font-weight="bold" text-anchor="start" x="2804.55585313074" y="0">
			<textPath xlink:href="#cp5">0-50(0)</textPath>
		</text>
	</g>
	<g id="t13" />
	<g id="t14">
		<path d="M1600,940 A660,660 0,0,1 2195.0491855177,1885.51088738387 L2270.78271821995,1921.84863668727 A744,744 0,0,0 1600,856 L1600,940 " fill="#cca0a0" stroke="black" stroke-width="0.042" />
	</g>
	<g id="t15" opacity="0.7">
		<path d="M926.560000000001,1600 A673.439999999999,673.439999999999 -90,1,1 1600,2273.44 A673.439999999999,673.439999999999 -90,1,1 2273.44,1600 " fill="none" id="cp6" stroke="none" />
		<text fill="#ff0000" font-size="58.8000000000001" font-style="italic" font-weight="bold" text-anchor="start" x="2416.94831814645" y="0">
			<textPath xlink:href="#cp6">1-50(1)</textPath>
		</text>
	</g>
	<g id="t16" />
	<g id="t17">
		<path d="M1788.79511911577,1081.28967332618 A552,552 0,0,1 1985.99256880968,1994.60579927784 L2044.73056841116,2054.6545078636 A636,636 0,0,0 1817.52481115513,1002.35549318016 L1788.79511911577,1081.28967332618 " fill="#cca0a0" stroke="black" stroke-width="0.042" />
	</g>
	<g id="t18" opacity="0.7">
		<path d="M1034.56,1600 A565.439999999999,565.439999999999 -90,1,1 1600,2165.44 A565.439999999999,565.439999999999 -90,1,1 2165.44,1600 " fill="none" id="cp7" stroke="none" />
		<text fill="#ff0000" font-size="58.8" font-style="italic" font-weight="bold" text-anchor="start" x="2226.7165776117" y="0">
			<textPath xlink:href="#cp7">1-51(0)</textPath>
		</text>
	</g>
	<g id="t19" />
	<g id="t20">
		<path d="M1751.8569436366,1182.77647637106 A443.999999999999,443.999999999999 0,0,1 1910.47228360779,1917.40031681044 L1969.21028320926,1977.44902539619 A527.999999999999,527.999999999999 0,0,0 1780.58663567595,1103.84229622504 L1751.8569436366,1182.77647637106 " fill="#cca0a0" stroke="black" stroke-width="0.042" />
	</g>
	<g id="t21" opacity="0.7">
		<path d="M1142.56,1600 A457.439999999999,457.439999999999 -90,1,1 1600,2057.44 A457.439999999999,457.439999999999 -90,1,1 2057.44,1600 " fill="none" id="cp8" stroke="none" />
		<text fill="#ff0000" font-size="58.8" font-style="italic" font-weight="bold" text-anchor="start" x="1801.40993078434" y="0">
			<textPath xlink:href="#cp8">2-51(1)</textPath>
		</text>
	</g>
	<g id="t22" />
	<g id="t23">
		<path d="M1902.93413080901,1745.3509972136 A335.999999999999,335.999999999999 0,0,1 1834.95199840589,1840.19483434303 L1893.68999800737,1900.24354292879 A419.999999999999,419.999999999999 0,0,0 1978.66766351126,1781.68874651701 L1902.93413080901,1745.3509972136 " fill="#cca0a0" stroke="black" stroke-width="0.042" />
	</g>
	<g id="t24" opacity="0.7">
		<path d="M1250.56,1600 A349.439999999999,349.439999999999 -90,1,1 1600,1949.44 A349.439999999999,349.439999999999 -90,1,1 1949.44,1600 " fill="none" id="cp9" stroke="none" />
		<text fill="#ff0000" font-size="58.8" font-style="italic" font-weight="bold" text-anchor="start" x="1376.10328395698" y="0">
			<textPath xlink:href="#cp9">50-51(0)</textPath>
		</text>
	</g>
	<g id="t25" />
	<g id="t26">
		<path d="M1805.56244590611,1698.63103382352 A227.999999999999,227.999999999999 0,0,1 1759.431713204,1762.98935187563 L1818.16971280547,1823.03806046139 A311.999999999999,311.999999999999 0,0,0 1881.29597860837,1734.96878312692 L1805.56244590611,1698.63103382352 " fill="#cca0a0" stroke="black" stroke-width="0.042" />
	</g>
	<g id="t27" opacity="0.7">
		<path d="M1358.56,1600 A241.439999999999,241.439999999999 -90,1,1 1600,1841.44 A241.439999999999,241.439999999999 -90,1,1 1841.44,1600 " fill="none" id="cp10" stroke="none" />
		<text fill="#ff0000" font-size="58.8" font-style="italic" font-weight="bold" text-anchor="start" x="950.796637129614" y="0">
			<textPath xlink:href="#cp10">51-51(1)</textPath>
		</text>
	</g>
	<g id="t28" />
	<g id="t29" opacity="0.3">
		<path d="M1600,1600 A0,0 0,0,1 1600,1600 L2051.46658918988,359.605740562601 A1320,1320 0,0,0 1600,280 L1600,1600 " fill="#a0a0a0" stroke="black" stroke-width="0.66" />
	</g>
	<g id="t30" opacity="0.7">
		<path d="M266.56,1600 A1333.44,1333.44 -90,1,1 1600,2933.44 A1333.44,1333.44 -90,1,1 2933.44,1600 " fill="none" id="cp11" stroke="none" />
		<text fill="#ff0000" font-size="58.8000000000001" font-style="italic" font-weight="bold" text-anchor="start" x="2560.02102155725" y="0">
			<textPath xlink:href="#cp11">0-1(0)</textPath>
		</text>
	</g>
	<g id="t31">
		<path d="M400.48,1600 A1199.52,1199.52 -90,1,1 1600,2799.52 A1199.52,1199.52 -90,1,1 2799.52,1600 " fill="none" id="cp12" stroke="none" />
		<text fill="black" font-size="50.4" text-anchor="middle" x="9161.11817235514" y="0">
			<textPath xlink:href="#cp12">T</textPath>
		</text>
	</g>
	<g id="t32">
		<path d="M400.48,1600 A1199.52,1199.52 -90,1,1 1600,2799.52 A1199.52,1199.52 -90,1,1 2799.52,1600 " fill="none" id="cp13" stroke="none" />
		<text fill="black" font-size="50.4" text-anchor="middle" x="9194.80760088495" y="0">
			<textPath xlink:href="#cp13">A</textPath>
		</text>
	</g>
	<g id="t33">
		<path d="M400.48,1600 A1199.52,1199.52 -90,1,1 1600,2799.52 A1199.52,1199.52 -90,1,1 2799.52,1600 " fill="none" id="cp14" stroke="none" />
		<text fill="black" font-size="50.4" text-anchor="middle" x="9316.33018236746" y="0">
			<textPath xlink:href="#cp14">C</textPath>
		</text>
	</g>
	<g id="t34">
		<path d="M400.48,1600 A1199.52,1199.52 -90,1,1 1600,2799.52 A1199.52,1199.52 -90,1,1 2799.52,1600 " fill="none" id="cp15" stroke="none" />
		<text fill="black" font-size="50.4" text-anchor="middle" x="2093.55734435224" y="0">
			<textPath xlink:href="#cp15">T</textPath>
		</text>
	</g>
	<g id="t35">
		<path d="M400.48,1600 A1199.52,1199.52 -90,1,1 1600,2799.52 A1199.52,1199.52 -90,1,1 2799.52,1600 " fill="none" id="cp16" stroke="none" />
		<text fill="black" font-size="50.4" text-anchor="middle" x="2407.59094600507" y="0">
			<textPath xlink:href="#cp16">T</textPath>
		</text>
	</g>
	<g id="t36">
		<path d="M400.48,1600 A1199.52,1199.52 -90,1,1 1600,2799.52 A1199.52,1199.52 -90,1,1 2799.52,1600 " fill="none" id="cp17" stroke="none" />
		<text fill="black" font-size="50.4" text-anchor="middle" x="2529.11352748759" y="0">
			<textPath xlink:href="#cp17">G</textPath>
		</text>
	</g>
	<g id="t37">
		<path d="M400.48,1600 A1199.52,1199.52 -90,1,1 1600,2799.52 A1199.52,1199.52 -90,1,1 2799.52,1600 " fill="none" id="cp18" stroke="none" />
		<text fill="black" font-size="50.4" text-anchor="middle" x="2562.80295601739" y="0">
			<textPath xlink:href="#cp18">A</textPath>
		</text>
	</g>
	<g id="t38" opacity="0.3">
		<path d="M1600,1600 A0,0 0,0,1 1600,1600 L2523.02570802315,2543.62256349049 A1320,1320 0,0,0 2790.0983710354,2171.02177476773 L1600,1600 " fill="#a0a0a0" stroke="black" stroke-width="0.66" />
	</g>
	<g id="t39" opacity="0.7">
		<path d="M266.56,1600 A1333.44,1333.44 -90,1,1 1600,2933.44 A1333.44,1333.44 -90,1,1 2933.44,1600 " fill="none" id="cp19" stroke="none" />
		<text fill="#ff0000" font-size="58.8000000000001" font-style="italic" font-weight="bold" text-anchor="start" x="5251.11939949518" y="0">
			<textPath xlink:href="#cp19">50-51(0)</textPath>
		</text>
	</g>
	<g id="t40">
		<path d="M400.48,1600 A1199.52,1199.52 -90,1,1 1600,2799.52 A1199.52,1199.52 -90,1,1 2799.52,1600 " fill="none" id="cp20" stroke="none" />
		<text fill="black" font-size="50.4" text-anchor="middle" x="4045.13781132886" y="0">
			<textPath xlink:href="#cp20">G</textPath>
		</text>
	</g>
	<g id="t41">
		<path d="M400.48,1600 A1199.52,1199.52 -90,1,1 1600,2799.52 A1199.52,1199.52 -90,1,1 2799.52,1600 " fill="none" id="cp21" stroke="none" />
		<text fill="black" font-size="50.4" text-anchor="middle" x="4078.82723985867" y="0">
			<textPath xlink:href="#cp21">A</textPath>
		</text>
	</g>
	<g id="t42">
		<path d="M400.48,1600 A1199.52,1199.52 -90,1,1 1600,2799.52 A1199.52,1199.52 -90,1,1 2799.52,1600 " fill="none" id="cp22" stroke="none" />
		<text fill="black" font-size="50.4" text-anchor="middle" x="4200.34982134119" y="0">
			<textPath xlink:href="#cp22">T</textPath>
		</text>
	</g>
	<g id="t43">
		<path d="M400.48,1600 A1199.52,1199.52 -90,1,1 1600,2799.52 A1199.52,1199.52 -90,1,1 2799.52,1600 " fill="none" id="cp23" stroke="none" />
		<text fill="black" font-size="50.4" text-anchor="middle" x="4514.38342299402" y="0">
			<textPath xlink:href="#cp23">C</textPath>
		</text>
	</g>
	<g id="t44">
		<path d="M400.48,1600 A1199.52,1199.52 -90,1,1 1600,2799.52 A1199.52,1199.52 -90,1,1 2799.52,1600 " fill="none" id="cp24" stroke="none" />
		<text fill="black" font-size="50.4" text-anchor="middle" x="4828.41702464686" y="0">
			<textPath xlink:href="#cp24">A</textPath>
		</text>
	</g>
	<g id="t45">
		<path d="M400.48,1600 A1199.52,1199.52 -90,1,1 1600,2799.52 A1199.52,1199.52 -90,1,1 2799.52,1600 " fill="none" id="cp25" stroke="none" />
		<text fill="black" font-size="50.4" text-anchor="middle" x="4949.93960612937" y="0">
			<textPath xlink:href="#cp25">C</textPath>
		</text>
	</g>
	<g id="t46">
		<path d="M400.48,1600 A1199.52,1199.52 -90,1,1 1600,2799.52 A1199.52,1199.52 -90,1,1 2799.52,1600 " fill="none" id="cp26" stroke="none" />
		<text fill="black" font-size="50.4" text-anchor="middle" x="4983.62903465918" y="0">
			<textPath xlink:href="#cp26">A</textPath>
		</text>
	</g>
	<g id="t47" opacity="0.4">
		<path d="M1358.28173668763,229.147607807006 A1392,1392 0,0,1 1600,208 L1600,40 A1560,1560 0,0,0 1329.10884283959,63.6999053009554 L1358.28173668763,229.147607807006 " fill="#00ff00" stroke="#000000" stroke-width="3" />
	</g>
	<g id="t48" opacity="0.7">
		<path d="M146.56,1600 A1453.44,1453.44 -90,1,1 1600,3053.44 A1453.44,1453.44 -90,1,1 3053.44,1600 " fill="none" id="cp27" stroke="none" />
		<text fill="#ff0000" font-size="58.8000000000001" font-style="italic" font-weight="bold" text-anchor="middle" x="11288.4544986829" y="0">
			<textPath xlink:href="#cp27">5X</textPath>
		</text>
	</g>
	<g id="t49" opacity="0.4">
		<path d="M1600,208 A1392,1392 0,0,1 2076.09203950933,291.947871866016 L2133.55142358804,134.079511573983 A1560,1560 0,0,0 1600,40 L1600,208 " fill="#ff0000" stroke="#000000" stroke-width="3" />
	</g>
	<g id="t50" opacity="0.7">
		<path d="M146.56,1600 A1453.44,1453.44 -90,1,1 1600,3053.44 A1453.44,1453.44 -90,1,1 3053.44,1600 " fill="none" id="cp28" stroke="none" />
		<text fill="#ff0000" font-size="58.8000000000001" font-style="italic" font-weight="bold" text-anchor="middle" x="2536.73134801864" y="0">
			<textPath xlink:href="#cp28">10X</textPath>
		</text>
	</g>
	<g id="t51" opacity="0.4">
		<path d="M2076.09203950933,291.947871866016 A1392,1392 0,0,1 2296,394.492637932061 L2380,249.000370096276 A1560,1560 0,0,0 2133.55142358804,134.079511573983 L2076.09203950933,291.947871866016 " fill="#00ff00" stroke="#000000" stroke-width="3" />
	</g>
	<g id="t52" opacity="0.7">
		<path d="M146.56,1600 A1453.44,1453.44 -90,1,1 1600,3053.44 A1453.44,1453.44 -90,1,1 3053.44,1600 " fill="none" id="cp29" stroke="none" />
		<text fill="#ff0000" font-size="58.8000000000001" font-style="italic" font-weight="bold" text-anchor="middle" x="2917.24105022143" y="0">
			<textPath xlink:href="#cp29">5X</textPath>
		</text>
	</g>
	<g id="t53" opacity="0.4">
		<path d="M2573.37256482442,2595.09288513542 A1392,1392 0,0,1 2385.78878229537,2748.9995603214 L2480.62535946895,2887.67192104984 A1560,1560 0,0,0 2690.84856402736,2715.19030230694 L2573.37256482442,2595.09288513542 " fill="#00ff00" stroke="#000000" stroke-width="3" />
	</g>
	<g id="t54" opacity="0.7">
		<path d="M146.56,1600 A1453.44,1453.44 -90,1,1 1600,3053.44 A1453.44,1453.44 -90,1,1 3053.44,1600 " fill="none" id="cp30" stroke="none" />
		<text fill="#ff0000" font-size="58.8000000000001" font-style="italic" font-weight="bold" text-anchor="middle" x="5850.5189078154" y="0">
			<textPath xlink:href="#cp30">5X</textPath>
		</text>
	</g>
	<g id="t55" opacity="0.4">
		<path d="M2855.01282763733,2202.16841702779 A1392,1392 0,0,1 2573.37256482442,2595.09288513542 L2690.84856402736,2715.19030230694 A1560,1560 0,0,0 3006.47989304183,2274.8439156346 L2855.01282763733,2202.16841702779 " fill="#ff0000" stroke="#000000" stroke-width="3" />
	</g>
	<g id="t56" opacity="0.7">
		<path d="M146.56,1600 A1453.44,1453.44 -90,1,1 1600,3053.44 A1453.44,1453.44 -90,1,1 3053.44,1600 " fill="none" id="cp31" stroke="none" />
		<text fill="#ff0000" font-size="58.8000000000001" font-style="italic" font-weight="bold" text-anchor="middle" x="5470.0092056126" y="0">
			<textPath xlink:href="#cp31">10X</textPath>
		</text>
	</g>
	<g id="t57" opacity="0.4">
		<path d="M2940.51181105247,1975.08943524022 A1392,1392 0,0,1 2855.01282763733,2202.16841702779 L3006.47989304183,2274.8439156346 A1560,1560 0,0,0 3102.29771928294,2020.35884983817 L2940.51181105247,1975.08943524022 " fill="#00ff00" stroke="#000000" stroke-width="3" />
	</g>
	<g id="t58" opacity="0.7">
		<path d="M146.56,1600 A1453.44,1453.44 -90,1,1 1600,3053.44 A1453.44,1453.44 -90,1,1 3053.44,1600 " fill="none" id="cp32" stroke="none" />
		<text fill="#ff0000" font-size="58.8000000000001" font-style="italic" font-weight="bold" text-anchor="middle" x="5089.49950340981" y="0">
			<textPath xlink:href="#cp32">5X</textPath>
		</text>
	</g>
	<!-- 
	Generated using the Perl SVG Module V2.59
	by Ronan Oger
	Info: http://www.roitsystems.com/
 -->
</svg>