<?xml version="1.0" encoding="UTF-8" standalone="yes"?>
<!DOCTYPE svg PUBLIC "-//W3C//DTD SVG 1.0//EN" "http://www.w3.org/TR/2001/REC-SVG-20010904/DTD/svg10.dtd">
<svg height="3200" printerror="1" raiseerror="0" width="3200" xml_xlink="http://www.w3.org/1999/xlink" xmlns="http://www.w3.org/2000/svg" xmlns:svg="http://www.w3.org/2000/svg" xmlns:xlink="http://www.w3.org/1999/xlink">
	<defs >
		<marker id="triangle-right" markerHeight="6" markerUnits="strokeWidth" markerWidth="4" orient="auto" refX="10" refY="5" viewBox="0 0 10 10">
			<rect fill="white" height="10" stroke="none" width="10" x1="0" y1="0" />
			<path d="M 0 0 L 10 5 L 0 10 z" />
		</marker>
		<marker id="triangle-left" markerHeight="6" markerUnits="strokeWidth" markerWidth="4" orient="auto" refX="0" refY="5" viewBox="0 0 10 10">
			<rect fill="white" height="10" stroke="none" width="10" x1="0" y1="0" />
			<path d="M 10 10 L 0 5 L 10 0 z" />
		</marker>
	</defs>
	<g id="t1">
		<circle cx="1600" cy="1600" fill="none" r="1176" stroke="black" stroke-width="4.8" />
		<line stroke="black" stroke-width="2.4" x1="1600" x2="1600" y1="424" y2="400" />
		<line stroke="black" stroke-width="9.60000000000001" x1="1600" x2="1600" y1="424" y2="376" />
		<g transform="translate(1600, 352)">
			<text font-size="50" font-weight="bold" text-anchor="start" transform="rotate(-90)" x="0" y="0">0.0Mb</text>
		</g>
	</g>
	<g id="t2" />
	<g id="t3" />
	<g id="t4">
		<circle cx="1600" cy="1600" fill="none" r="912" stroke="black" stroke-width="4.8" />
		<line stroke="black" stroke-width="2.4" x1="1600" x2="1600" y1="688" y2="664" />
		<line stroke="black" stroke-width="9.60000000000001" x1="1600" x2="1600" y1="688" y2="640" />
		<text font-size="50" font-weight="bold" text-anchor="start" x="1600" y="616">0.0Mb</text>
	</g>
	<g id="t5" />
	<g id="t6" />
	<g id="t7">
		<circle cx="1600" cy="1600" fill="none" r="648" stroke="black" stroke-width="4.8" />
		<line stroke="black" stroke-width="2.4" x1="1600" x2="1600" y1="952" y2="928" />
		<path d="M880,1600 A720,720 -90,1,1 1600,2320 A720,720 -90,1,1 1600,880 " fill="none" id="cp1" stroke="none" />
		<line stroke="black" stroke-width="9.60000000000001" x1="1600" x2="1600" y1="952" y2="904" />
		<text font-size="50" font-weight="bold" text-anchor="middle" x="1130.97335529233" y="0">
			<textPath xlink:href="#cp1">0.0Mb</textPath>
		</text>
	</g>
	<g id="t8" />
	<g id="t9" />
	<g id="t10">
		<circle cx="1600" cy="1600" fill="none" r="384" stroke="black" stroke-width="4.8" />
		<line stroke="black" stroke-width="2.4" x1="1600" x2="1600" y1="1216" y2="1192" />
		<path d="M1144,1600 A456,456 -90,1,1 1600,2056 A456,456 -90,1,1 1600,1144 " fill="none" id="cp2" stroke="none" />
		<line stroke="black" stroke-width="9.60000000000001" x1="1600" x2="1600" y1="1216" y2="1168" />
		<text font-size="50" font-weight="bold" text-anchor="middle" x="716.283125018473" y="0">
			<textPath xlink:href="#cp2">0.0Mb</textPath>
		</text>
	</g>
	<!-- 
	Generated using the Perl SVG Module V2.59
	by Ronan Oger
	Info: http://www.roitsystems.com/
 -->
</svg>