<?xml version="1.0" encoding="UTF-8" standalone="yes"?>
<!DOCTYPE svg PUBLIC "-//W3C//DTD SVG 1.0//EN" "http://www.w3.org/TR/2001/REC-SVG-20010904/DTD/svg10.dtd">
<svg height="3200" printerror="1" raiseerror="0" width="3200" xml_xlink="http://www.w3.org/1999/xlink" xmlns="http://www.w3.org/2000/svg" xmlns:svg="http://www.w3.org/2000/svg" xmlns:xlink="http://www.w3.org/1999/xlink">
	<defs >
		<marker id="triangle-right" markerHeight="6" markerUnits="strokeWidth" markerWidth="4" orient="auto" refX="10" refY="5" viewBox="0 0 10 10">
			<rect fill="white" height="10" stroke="none" width="10" x1="0" y1="0" />
			<path d="M 0 0 L 10 5 L 0 10 z" />
		</marker>
		<marker id="triangle-left" markerHeight="6" markerUnits="strokeWidth" markerWidth="4" orient="auto" refX="0" refY="5" viewBox="0 0 10 10">
			<rect fill="white" height="10" stroke="none" width="10" x1="0" y1="0" />
			<path d="M 10 10 L 0 5 L 10 0 z" />
		</marker>
	</defs>
	<g id="t1">
		<circle cx="1600" cy="1600" fill="none" r="1176" stroke="black" stroke-width="4.8" />
		<line stroke="black" stroke-width="2.4" x1="1600" x2="1600" y1="424" y2="400" />
		<line stroke="black" stroke-width="2.4" x1="1741.36710828678" x2="1744.25215131304" y1="432.527798748667" y2="408.701835457823" />
		<line stroke="black" stroke-width="2.4" x1="1880.68396104779" x2="1886.41220515081" y1="457.987515825453" y2="434.681138597401" />
		<line stroke="black" stroke-width="2.4" x1="2015.93003773433" x2="2024.41840585135" y1="500.009907449016" y2="477.561130050017" />
		<line stroke="black" stroke-width="2.4" x1="2145.14385650364" x2="2156.26924133025" y1="557.98552039027" y2="536.719918765582" />
		<line stroke="black" stroke-width="2.4" x1="2266.45142170606" x2="2280.05247112864" y1="631.07353090858" y2="611.299521335285" />
		<line stroke="black" stroke-width="2.4" x1="2378.09340255462" x2="2393.97285974961" y1="718.21393926816" y2="700.218305375674" />
		<line stroke="black" stroke-width="2.4" x1="2478.45064880343" x2="2496.37821306472" y1="818.142942976892" y2="802.186676507033" />
		<line stroke="black" stroke-width="2.4" x1="2566.0676733794" x2="2585.78334018306" y1="929.411265788546" y2="915.725781416883" />
		<line stroke="black" stroke-width="2.4" x1="2639.67376139725" x2="2660.8915932625" y1="1050.40517664183" y2="1039.18895575697" />
		<line stroke="black" stroke-width="2.4" x1="2698.20139941261" x2="2720.61367287001" y1="1179.36989369733" y2="1170.78560581361" />
		<line stroke="black" stroke-width="2.4" x1="2740.80175763257" x2="2764.08342615568" y1="1314.43503404226" y2="1308.60717759415" />
		<line stroke="black" stroke-width="2.4" x1="2766.85700054434" x2="2790.67040871871" y1="1453.64173996433" y2="1450.65483669829" />
		<line stroke="black" stroke-width="2.4" x1="2775.9892474202" x2="2799.9890279798" y1="1594.97108838093" y2="1594.86845753156" />
		<line stroke="black" stroke-width="2.4" x1="2768.06605274403" x2="2791.90413545309" y1="1736.37337139994" y2="1739.15650142851" />
		<line stroke="black" stroke-width="2.4" x1="2743.20232707644" x2="2766.5329868127" y1="1875.79782335436" y2="1881.42635036159" />
		<line stroke="black" stroke-width="2.4" x1="2701.75867050016" x2="2724.24354132669" y1="2011.22236317803" y2="2019.61465630411" />
		<line stroke="black" stroke-width="2.4" x1="2644.33614281567" x2="2665.64912532211" y1="2140.68292076677" y2="2151.71726608854" />
		<line stroke="black" stroke-width="2.4" x1="2571.76754633545" x2="2591.59953707699" y1="2262.30192200323" y2="2275.8182877584" />
		<line stroke="black" stroke-width="2.4" x1="2485.10534770279" x2="2503.16872214571" y1="2374.31551932524" y2="2390.11787686249" />
		<line stroke="black" stroke-width="2.4" x1="2385.60641390589" x2="2401.63919786315" y1="2475.09917291124" y2="2492.95833970535" />
		<line stroke="black" stroke-width="2.4" x1="2274.71378386161" x2="2288.48345292001" y1="2563.19121147732" y2="2582.84817497686" />
		<line stroke="black" stroke-width="2.4" x1="2154.03573993686" x2="2165.3425917723" y1="2637.31403098224" y2="2658.48370508392" />
		<line stroke="black" stroke-width="2.4" x1="2025.3224829343" x2="2034.00253360642" y1="2696.39262379433" y2="2718.7679834636" />
		<line stroke="black" stroke-width="2.4" x1="1890.44074882672" x2="1896.36811104768" y1="2739.5701695907" y2="2762.82670366398" />
		<line stroke="black" stroke-width="2.4" x1="1751.34673537492" x2="1754.43544426012" y1="2766.22046187303" y2="2790.02087946228" />
		<line stroke="black" stroke-width="2.4" x1="1610.05773127593" x2="1610.26299109789" y1="2775.95698987743" y2="2799.95611211982" />
		<line stroke="black" stroke-width="2.4" x1="1468.62285930588" x2="1465.94169316926" y1="2768.63854416284" y2="2792.48831037024" />
		<line stroke="black" stroke-width="2.4" x1="1329.09335777122" x2="1323.56465078696" y1="2744.37126457996" y2="2767.72578018363" />
		<line stroke="black" stroke-width="2.4" x1="1193.4928312784" x2="1185.19676661062" y1="2703.50710091868" y2="2726.02765399865" />
		<line stroke="black" stroke-width="2.4" x1="1063.78790227666" x2="1052.84479824149" y1="2646.63870855952" y2="2667.99868220359" />
		<line stroke="black" stroke-width="2.4" x1="941.859689016383" x2="928.428254098349" y1="2574.59085315756" y2="2594.48046240568" />
		<line stroke="black" stroke-width="2.4" x1="829.476523580008" x2="813.751554673477" y1="2488.40844901748" y2="2506.53923369131" />
		<line stroke="black" stroke-width="2.4" x1="728.268305657293" x2="710.477862915605" y1="2389.34140463959" y2="2405.45041289754" />
		<line stroke="black" stroke-width="2.4" x1="639.702864013812" x2="620.1049632794" y1="2278.82649522299" y2="2292.68009716631" />
		<line stroke="black" stroke-width="2.4" x1="565.064668483614" x2="543.943539268994" y1="2158.46652502999" y2="2169.86380105101" />
		<line stroke="black" stroke-width="2.4" x1="505.436201227322" x2="483.098164517676" y1="2030.00708182113" y2="2038.78273655217" />
		<line stroke="black" stroke-width="2.4" x1="461.68225742938" x2="438.451283091204" y1="1895.31122049277" y2="1901.33798009466" />
		<line stroke="black" stroke-width="2.4" x1="434.437403122387" x2="410.650411349375" y1="1756.33244308177" y2="1759.52290110385" />
		<line stroke="black" stroke-width="2.4" x1="424.096772038431" x2="400.098746977991" y1="1615.08636701008" y2="1615.3942520511" />
		<line stroke="black" stroke-width="2.4" x1="430.810334961216" x2="406.949321388996" y1="1473.6214924661" y2="1471.04233925112" />
		<line stroke="black" stroke-width="2.4" x1="454.480724690926" x2="431.102780296863" y1="1333.98949288539" y2="1328.5607070259" />
		<line stroke="black" stroke-width="2.4" x1="494.764648166476" x2="472.20882465967" y1="1198.21545940961" y2="1190.01577490777" />
		<line stroke="black" stroke-width="2.4" x1="551.077865265067" x2="529.671291086803" y1="1068.26853087003" y2="1057.41686823473" />
		<line stroke="black" stroke-width="2.4" x1="622.603662071211" x2="602.656798031848" y1="946.033335250647" y2="932.687076786374" />
		<line stroke="black" stroke-width="2.4" x1="708.304695726915" x2="690.106832374403" y1="833.282656817175" y2="817.635364099158" />
		<line stroke="black" stroke-width="2.4" x1="806.938039076447" x2="790.753101098415" y1="731.651725322098" y2="713.930331961325" />
		<line stroke="black" stroke-width="2.4" x1="917.073206912338" x2="903.135925420754" y1="642.614500170907" y2="623.076020582558" />
		<line stroke="black" stroke-width="2.4" x1="1037.11290238688" x2="1025.62541059885" y1="567.462293501747" y2="546.390095409946" />
		<line stroke="black" stroke-width="2.4" x1="1165.31618270268" x2="1156.44508439049" y1="507.285042209162" y2="484.984736948125" />
		<line stroke="black" stroke-width="2.4" x1="1299.82370810899" x2="1293.6976613357" y1="462.955500524909" y2="439.750510739703" />
		<line stroke="black" stroke-width="2.4" x1="1438.68470801592" x2="1435.39255919992" y1="435.116582411746" y2="411.343451440557" />
		<line stroke="black" stroke-width="2.4" x1="1579.88527313564" x2="1579.47476850576" y1="424.17203734425" y2="400.175548310459" />
		<path d="M352,1600 A1248,1248 -90,1,1 1600,2848 A1248,1248 -90,1,1 1600,352 " fill="none" id="cp1" stroke="none" />
		<line stroke="black" stroke-width="9.60000000000001" x1="1600" x2="1600" y1="424" y2="376" />
		<text font-size="50" font-weight="bold" text-anchor="middle" x="1960.35381584003" y="0">
			<textPath xlink:href="#cp1">0.0000Gb</textPath>
		</text>
		<line stroke="black" stroke-width="9.60000000000001" x1="2266.45142170606" x2="2293.65352055121" y1="631.07353090858" y2="591.525511761991" />
		<text font-size="50" font-weight="bold" text-anchor="middle" x="2712.28342945825" y="0">
			<textPath xlink:href="#cp1">0.0005Gb</textPath>
		</text>
		<line stroke="black" stroke-width="9.60000000000001" x1="2698.20139941261" x2="2743.02594632741" y1="1179.36989369733" y2="1162.20131792988" />
		<text font-size="50" font-weight="bold" text-anchor="middle" x="3464.21304307647" y="0">
			<textPath xlink:href="#cp1">0.0010Gb</textPath>
		</text>
		<line stroke="black" stroke-width="9.60000000000001" x1="2743.20232707644" x2="2789.86364654895" y1="1875.79782335436" y2="1887.05487736883" />
		<text font-size="50" font-weight="bold" text-anchor="middle" x="4216.14265669469" y="0">
			<textPath xlink:href="#cp1">0.0015Gb</textPath>
		</text>
		<line stroke="black" stroke-width="9.60000000000001" x1="2385.60641390589" x2="2417.67198182041" y1="2475.09917291124" y2="2510.81750649945" />
		<text font-size="50" font-weight="bold" text-anchor="middle" x="4968.07227031292" y="0">
			<textPath xlink:href="#cp1">0.0020Gb</textPath>
		</text>
		<line stroke="black" stroke-width="9.60000000000001" x1="1751.34673537492" x2="1757.52415314533" y1="2766.22046187303" y2="2813.82129705153" />
		<text font-size="50" font-weight="bold" text-anchor="middle" x="5720.00188393114" y="0">
			<textPath xlink:href="#cp1">0.0025Gb</textPath>
		</text>
		<line stroke="black" stroke-width="9.60000000000001" x1="1063.78790227666" x2="1041.90169420632" y1="2646.63870855952" y2="2689.35865584766" />
		<text font-size="50" font-weight="bold" text-anchor="middle" x="6471.93149754936" y="0">
			<textPath xlink:href="#cp1">0.0030Gb</textPath>
		</text>
		<line stroke="black" stroke-width="9.60000000000001" x1="565.064668483614" x2="522.822410054374" y1="2158.46652502999" y2="2181.26107707203" />
		<text font-size="50" font-weight="bold" text-anchor="middle" x="7223.86111116758" y="0">
			<textPath xlink:href="#cp1">0.0035Gb</textPath>
		</text>
		<line stroke="black" stroke-width="9.60000000000001" x1="430.810334961216" x2="383.088307816776" y1="1473.6214924661" y2="1468.46318603614" />
		<text font-size="50" font-weight="bold" text-anchor="middle" x="7975.7907247858" y="0">
			<textPath xlink:href="#cp1">0.0040Gb</textPath>
		</text>
		<line stroke="black" stroke-width="9.60000000000001" x1="708.304695726915" x2="671.908969021891" y1="833.282656817175" y2="801.988071381141" />
		<text font-size="50" font-weight="bold" text-anchor="middle" x="8727.72033840402" y="0">
			<textPath xlink:href="#cp1">0.0045Gb</textPath>
		</text>
		<line stroke="black" stroke-width="9.60000000000001" x1="1299.82370810899" x2="1287.57161456241" y1="462.955500524909" y2="416.545520954497" />
		<text font-size="50" font-weight="bold" text-anchor="middle" x="9479.64995202224" y="0">
			<textPath xlink:href="#cp1">0.0050Gb</textPath>
		</text>
	</g>
	<g id="t2" />
	<g id="t3">
		<circle cx="1600" cy="1600" fill="none" r="1032" stroke="black" stroke-width="4.8" />
		<line stroke="black" stroke-width="2.4" x1="1600" x2="1600" y1="568" y2="544" />
		<line stroke="black" stroke-width="2.4" x1="1724.05685012921" x2="1726.94189315548" y1="575.483578493728" y2="551.657615202884" />
		<line stroke="black" stroke-width="2.4" x1="1846.3144964297" x2="1852.04274053271" y1="597.825779193765" y2="574.519401965713" />
		<line stroke="black" stroke-width="2.4" x1="1964.99982903216" x2="1973.48819714919" y1="634.702571843014" y2="612.253794444014" />
		<line stroke="black" stroke-width="2.4" x1="2078.39154754401" x2="2089.51693237062" y1="685.5791301384" y2="664.313528513712" />
		<line stroke="black" stroke-width="2.4" x1="2184.84512517063" x2="2198.4461745932" y1="749.717588348345" y2="729.943578775051" />
		<line stroke="black" stroke-width="2.4" x1="2282.81665938467" x2="2298.69611657966" y1="826.18774262308" y2="808.192108730593" />
		<line stroke="black" stroke-width="2.4" x1="2370.88526323566" x2="2388.81282749696" y1="913.880541796048" y2="897.924275326189" />
		<line stroke="black" stroke-width="2.4" x1="2447.77367255743" x2="2467.48933936109" y1="1011.52417201852" y2="997.838687646857" />
		<line stroke="black" stroke-width="2.4" x1="2512.36677020575" x2="2533.584602071" y1="1117.70250195099" y2="1106.48628106613" />
		<line stroke="black" stroke-width="2.4" x1="2563.72775866821" x2="2586.14003212561" y1="1230.8756209997" y2="1222.29133311597" />
		<line stroke="black" stroke-width="2.4" x1="2601.11174649389" x2="2624.393415017" y1="1349.40217273096" y2="1343.57431628285" />
		<line stroke="black" stroke-width="2.4" x1="2623.97655149809" x2="2647.78995967247" y1="1471.56315956053" y2="1468.5762562945" />
		<line stroke="black" stroke-width="2.4" x1="2631.99056406262" x2="2655.99034462222" y1="1595.58687347715" y2="1595.48424262778" />
		<line stroke="black" stroke-width="2.4" x1="2625.03755648966" x2="2648.87563919872" y1="1719.67459122852" y2="1722.45772125709" />
		<line stroke="black" stroke-width="2.4" x1="2603.21836865892" x2="2626.54902839517" y1="1842.02666131097" y2="1847.6551883182" />
		<line stroke="black" stroke-width="2.4" x1="2566.84944554096" x2="2589.33431636749" y1="1960.86860442153" y2="1969.26089754761" />
		<line stroke="black" stroke-width="2.4" x1="2516.45824777702" x2="2537.77123028346" y1="2074.47684883614" y2="2085.51119415791" />
		<line stroke="black" stroke-width="2.4" x1="2452.77560188621" x2="2472.60759262775" y1="2181.20372747222" y2="2194.72009322739" />
		<line stroke="black" stroke-width="2.4" x1="2376.72510104531" x2="2394.78847548822" y1="2279.50137410174" y2="2295.30373163899" />
		<line stroke="black" stroke-width="2.4" x1="2289.40971016231" x2="2305.44249411957" y1="2367.9441721466" y2="2385.8033389407" />
		<line stroke="black" stroke-width="2.4" x1="2192.09576951121" x2="2205.86543856961" y1="2445.2494304801" y2="2464.90639397963" />
		<line stroke="black" stroke-width="2.4" x1="2086.19462892418" x2="2097.50148075963" y1="2510.29598637217" y2="2531.46566047385" />
		<line stroke="black" stroke-width="2.4" x1="1973.24217890152" x2="1981.92222957365" y1="2562.14046577869" y2="2584.51582544797" />
		<line stroke="black" stroke-width="2.4" x1="1854.876575501" x2="1860.80393772195" y1="2600.03096515102" y2="2623.2874992243" />
		<line stroke="black" stroke-width="2.4" x1="1732.81448206371" x2="1735.90319094891" y1="2623.41795633756" y2="2647.21837392681" />
		<line stroke="black" stroke-width="2.4" x1="1608.82617234419" x2="1609.03143216614" y1="2631.96225642305" y2="2655.96137866545" />
		<line stroke="black" stroke-width="2.4" x1="1484.70985612557" x2="1482.02868998895" y1="2625.53994691841" y2="2649.38971312581" />
		<line stroke="black" stroke-width="2.4" x1="1362.26559967678" x2="1356.73689269252" y1="2604.24417095792" y2="2627.59868656159" />
		<line stroke="black" stroke-width="2.4" x1="1243.26921928513" x2="1234.97315461734" y1="2568.38378243884" y2="2590.90433551882" />
		<line stroke="black" stroke-width="2.4" x1="1129.44652648768" x2="1118.50342245251" y1="2518.47886669509" y2="2539.83884033916" />
		<line stroke="black" stroke-width="2.4" x1="1022.44829852458" x2="1009.01686360655" y1="2455.25319766888" y2="2475.142806917" />
		<line stroke="black" stroke-width="2.4" x1="923.826337019191" x2="908.10136811266" y1="2379.62374097453" y2="2397.75452564835" />
		<line stroke="black" stroke-width="2.4" x1="835.01096210742" x2="817.220519365733" y1="2292.68735509188" y2="2308.79636334983" />
		<line stroke="black" stroke-width="2.4" x1="757.290268420284" x2="737.692367685872" y1="2195.70488356303" y2="2209.55848550636" />
		<line stroke="black" stroke-width="2.4" x1="691.791443771335" x2="670.670314556715" y1="2090.08286890387" y2="2101.48014492489" />
		<line stroke="black" stroke-width="2.4" x1="639.464421485201" x2="617.126384775555" y1="1977.35315343487" y2="1986.12880816591" />
		<line stroke="black" stroke-width="2.4" x1="601.068103458435" x2="577.837129120259" y1="1859.15066288141" y2="1865.1774224833" />
		<line stroke="black" stroke-width="2.4" x1="577.159353760462" x2="553.37236198745" y1="1737.18969494931" y2="1740.38015297139" />
		<line stroke="black" stroke-width="2.4" x1="568.084922401072" x2="544.086897340632" y1="1613.23905676395" y2="1613.54694180497" />
		<line stroke="black" stroke-width="2.4" x1="573.976416394537" x2="550.115402822317" y1="1489.09641175596" y2="1486.51725854098" />
		<line stroke="black" stroke-width="2.4" x1="594.748391055302" x2="571.37044666124" y1="1366.56220804228" y2="1361.1334221828" />
		<line stroke="black" stroke-width="2.4" x1="630.099589207316" x2="607.543765700509" y1="1247.41356642068" y2="1239.21388191884" />
		<line stroke="black" stroke-width="2.4" x1="679.517310334651" x2="658.110736156387" y1="1133.37850668187" y2="1122.52684404656" />
		<line stroke="black" stroke-width="2.4" x1="742.284846307389" x2="722.337982268027" y1="1026.11088603628" y2="1012.76462757201" />
		<line stroke="black" stroke-width="2.4" x1="817.491875841987" x2="799.294012489475" y1="927.166413125276" y2="911.519120407259" />
		<line stroke="black" stroke-width="2.4" x1="904.047666944637" x2="887.862728966605" y1="837.980085486739" y2="820.258692125966" />
		<line stroke="black" stroke-width="2.4" x1="1000.69689586185" x2="986.759614370263" y1="759.845377701" y2="740.306898112651" />
		<line stroke="black" stroke-width="2.4" x1="1106.03785311501" x2="1094.55036132699" y1="693.895482052553" y2="672.823283960752" />
		<line stroke="black" stroke-width="2.4" x1="1218.54277257582" x2="1209.67167426363" y1="641.086873775387" y2="618.78656851435" />
		<line stroke="black" stroke-width="2.4" x1="1336.5799887487" x2="1330.45394197542" y1="602.185439236144" y2="578.980449450938" />
		<line stroke="black" stroke-width="2.4" x1="1458.43760091193" x2="1455.14545209593" y1="577.755368238879" y2="553.98223726769" />
		<line stroke="black" stroke-width="2.4" x1="1582.34830091495" x2="1581.93779628506" y1="568.150971546995" y2="544.154482513204" />
		<path d="M496,1600 A1104,1104 -90,1,1 1600,2704 A1104,1104 -90,1,1 1600,496 " fill="none" id="cp2" stroke="none" />
		<line stroke="black" stroke-width="9.60000000000001" x1="1600" x2="1600" y1="568" y2="520" />
		<text font-size="50" font-weight="bold" text-anchor="middle" x="1734.15914478157" y="0">
			<textPath xlink:href="#cp2">0.0000Gb</textPath>
		</text>
		<line stroke="black" stroke-width="9.60000000000001" x1="2184.84512517063" x2="2212.04722401577" y1="749.717588348345" y2="710.169569201757" />
		<text font-size="50" font-weight="bold" text-anchor="middle" x="2399.32764913615" y="0">
			<textPath xlink:href="#cp2">0.0005Gb</textPath>
		</text>
		<line stroke="black" stroke-width="9.60000000000001" x1="2563.72775866821" x2="2608.55230558301" y1="1230.8756209997" y2="1213.70704523225" />
		<text font-size="50" font-weight="bold" text-anchor="middle" x="3064.49615349073" y="0">
			<textPath xlink:href="#cp2">0.0010Gb</textPath>
		</text>
		<line stroke="black" stroke-width="9.60000000000001" x1="2603.21836865892" x2="2649.87968813143" y1="1842.02666131097" y2="1853.28371532543" />
		<text font-size="50" font-weight="bold" text-anchor="middle" x="3729.66465784531" y="0">
			<textPath xlink:href="#cp2">0.0015Gb</textPath>
		</text>
		<line stroke="black" stroke-width="9.60000000000001" x1="2289.40971016231" x2="2321.47527807683" y1="2367.9441721466" y2="2403.66250573481" />
		<text font-size="50" font-weight="bold" text-anchor="middle" x="4394.83316219989" y="0">
			<textPath xlink:href="#cp2">0.0020Gb</textPath>
		</text>
		<line stroke="black" stroke-width="9.60000000000001" x1="1732.81448206371" x2="1738.99189983411" y1="2623.41795633756" y2="2671.01879151605" />
		<text font-size="50" font-weight="bold" text-anchor="middle" x="5060.00166655447" y="0">
			<textPath xlink:href="#cp2">0.0025Gb</textPath>
		</text>
		<line stroke="black" stroke-width="9.60000000000001" x1="1129.44652648768" x2="1107.56031841734" y1="2518.47886669509" y2="2561.19881398323" />
		<text font-size="50" font-weight="bold" text-anchor="middle" x="5725.17017090905" y="0">
			<textPath xlink:href="#cp2">0.0030Gb</textPath>
		</text>
		<line stroke="black" stroke-width="9.60000000000001" x1="691.791443771335" x2="649.549185342095" y1="2090.08286890387" y2="2112.87742094591" />
		<text font-size="50" font-weight="bold" text-anchor="middle" x="6390.33867526363" y="0">
			<textPath xlink:href="#cp2">0.0035Gb</textPath>
		</text>
		<line stroke="black" stroke-width="9.60000000000001" x1="573.976416394537" x2="526.254389250097" y1="1489.09641175596" y2="1483.93810532601" />
		<text font-size="50" font-weight="bold" text-anchor="middle" x="7055.50717961821" y="0">
			<textPath xlink:href="#cp2">0.0040Gb</textPath>
		</text>
		<line stroke="black" stroke-width="9.60000000000001" x1="817.491875841987" x2="781.096149136963" y1="927.166413125276" y2="895.871827689242" />
		<text font-size="50" font-weight="bold" text-anchor="middle" x="7720.67568397279" y="0">
			<textPath xlink:href="#cp2">0.0045Gb</textPath>
		</text>
		<line stroke="black" stroke-width="9.60000000000001" x1="1336.5799887487" x2="1324.32789520213" y1="602.185439236144" y2="555.775459665733" />
		<text font-size="50" font-weight="bold" text-anchor="middle" x="8385.84418832737" y="0">
			<textPath xlink:href="#cp2">0.0050Gb</textPath>
		</text>
	</g>
	<g id="t4" />
	<g id="t5">
		<circle cx="1600" cy="1600" fill="none" r="888" stroke="black" stroke-width="4.8" />
		<line stroke="black" stroke-width="2.4" x1="1600" x2="1600" y1="712" y2="688" />
		<line stroke="black" stroke-width="2.4" x1="1706.74659197165" x2="1709.63163499791" y1="718.439358238789" y2="694.613394947945" />
		<line stroke="black" stroke-width="2.4" x1="1811.9450318116" x2="1817.67327591462" y1="737.664042562076" y2="714.357665334025" />
		<line stroke="black" stroke-width="2.4" x1="1914.06962033" x2="1922.55798844703" y1="769.395236237012" y2="746.946458838013" />
		<line stroke="black" stroke-width="2.4" x1="2011.63923858438" x2="2022.76462341099" y1="813.172739886531" y2="791.907138261842" />
		<line stroke="black" stroke-width="2.4" x1="2103.23882863519" x2="2116.83987805776" y1="868.361645788111" y2="848.587636214817" />
		<line stroke="black" stroke-width="2.4" x1="2187.53991621471" x2="2203.4193734097" y1="934.161545977999" y2="916.165912085512" />
		<line stroke="black" stroke-width="2.4" x1="2263.3198776679" x2="2281.24744192919" y1="1009.6181406152" y2="993.661874145345" />
		<line stroke="black" stroke-width="2.4" x1="2329.47967173546" x2="2349.19533853912" y1="1093.63707824849" y2="1079.95159387683" />
		<line stroke="black" stroke-width="2.4" x1="2385.05977901425" x2="2406.2776108795" y1="1184.99982726016" y2="1173.7836063753" />
		<line stroke="black" stroke-width="2.4" x1="2429.25411792381" x2="2451.66639138121" y1="1282.38134830207" y2="1273.79706041834" />
		<line stroke="black" stroke-width="2.4" x1="2461.4217353552" x2="2484.70340387832" y1="1384.36931141967" y2="1378.54145497155" />
		<line stroke="black" stroke-width="2.4" x1="2481.09610245185" x2="2504.90951062622" y1="1489.48457915674" y2="1486.4976758907" />
		<line stroke="black" stroke-width="2.4" x1="2487.99188070505" x2="2511.99166126464" y1="1596.20265857336" y2="1596.10002772399" />
		<line stroke="black" stroke-width="2.4" x1="2482.00906023529" x2="2505.84714294435" y1="1702.9758110571" y2="1705.75894108567" />
		<line stroke="black" stroke-width="2.4" x1="2463.2344102414" x2="2486.56506997765" y1="1808.25549926758" y2="1813.88402627481" />
		<line stroke="black" stroke-width="2.4" x1="2431.94022058175" x2="2454.42509140829" y1="1910.51484566504" y2="1918.90713879112" />
		<line stroke="black" stroke-width="2.4" x1="2388.58035273837" x2="2409.89333524481" y1="2008.27077690552" y2="2019.30512222729" />
		<line stroke="black" stroke-width="2.4" x1="2333.78365743697" x2="2353.61564817851" y1="2100.10553294122" y2="2113.62189869638" />
		<line stroke="black" stroke-width="2.4" x1="2268.34485438782" x2="2286.40822883074" y1="2184.68722887824" y2="2200.48958641549" />
		<line stroke="black" stroke-width="2.4" x1="2193.21300641873" x2="2209.24579037599" y1="2260.78917138196" y2="2278.64833817606" />
		<line stroke="black" stroke-width="2.4" x1="2109.47775516081" x2="2123.24742421921" y1="2327.30764948287" y2="2346.96461298241" />
		<line stroke="black" stroke-width="2.4" x1="2018.3535179115" x2="2029.66036974695" y1="2383.2779417621" y2="2404.44761586378" />
		<line stroke="black" stroke-width="2.4" x1="1921.16187486875" x2="1929.84192554088" y1="2427.88830776306" y2="2450.26366743233" />
		<line stroke="black" stroke-width="2.4" x1="1819.31240217528" x2="1825.23976439623" y1="2460.49176071134" y2="2483.74829478462" />
		<line stroke="black" stroke-width="2.4" x1="1714.28222875249" x2="1717.37093763769" y1="2480.61545080209" y2="2504.41586839133" />
		<line stroke="black" stroke-width="2.4" x1="1607.59461341244" x2="1607.7998732344" y1="2487.96752296867" y2="2511.96664521107" />
		<line stroke="black" stroke-width="2.4" x1="1500.79685294525" x2="1498.11568680864" y1="2482.44134967398" y2="2506.29111588138" />
		<line stroke="black" stroke-width="2.4" x1="1395.43784158235" x2="1389.90913459809" y1="2464.11707733588" y2="2487.47159293956" />
		<line stroke="black" stroke-width="2.4" x1="1293.04560729186" x2="1284.74954262407" y1="2433.260463959" y2="2455.78101703898" />
		<line stroke="black" stroke-width="2.4" x1="1195.1051506987" x2="1184.16204666353" y1="2390.31902483066" y2="2411.67899847473" />
		<line stroke="black" stroke-width="2.4" x1="1103.03690803278" x2="1089.60547311475" y1="2335.9155421802" y2="2355.80515142831" />
		<line stroke="black" stroke-width="2.4" x1="1018.17615045837" x2="1002.45118155184" y1="2270.83903293157" y2="2288.9698176054" />
		<line stroke="black" stroke-width="2.4" x1="941.753618557548" x2="923.96317581586" y1="2196.03330554418" y2="2212.14231380213" />
		<line stroke="black" stroke-width="2.4" x1="874.877672826756" x2="855.279772092344" y1="2112.58327190307" y2="2126.4368738464" />
		<line stroke="black" stroke-width="2.4" x1="818.518219059056" x2="797.397089844436" y1="2021.69921277775" y2="2033.09648879877" />
		<line stroke="black" stroke-width="2.4" x1="773.49264174308" x2="751.154605033434" y1="1924.69922504861" y2="1933.47487977965" />
		<line stroke="black" stroke-width="2.4" x1="740.453949487491" x2="717.222975149315" y1="1822.99010527005" y2="1829.01686487194" />
		<line stroke="black" stroke-width="2.4" x1="719.881304398537" x2="696.094312625525" y1="1718.04694681685" y2="1721.23740483893" />
		<line stroke="black" stroke-width="2.4" x1="712.073072763713" x2="688.075047703273" y1="1611.39174651782" y2="1611.69963155884" />
		<line stroke="black" stroke-width="2.4" x1="717.142497827857" x2="693.281484255637" y1="1504.57133104583" y2="1501.99217783085" />
		<line stroke="black" stroke-width="2.4" x1="735.016057419679" x2="711.638113025616" y1="1399.13492319917" y2="1393.70613733969" />
		<line stroke="black" stroke-width="2.4" x1="765.434530248156" x2="742.878706741349" y1="1296.61167343175" y2="1288.4119889299" />
		<line stroke="black" stroke-width="2.4" x1="807.956755404235" x2="786.550181225971" y1="1198.4884824937" y2="1187.63681985839" />
		<line stroke="black" stroke-width="2.4" x1="861.966030543568" x2="842.019166504205" y1="1106.18843682192" y2="1092.84217835764" />
		<line stroke="black" stroke-width="2.4" x1="926.679055957058" x2="908.481192604546" y1="1021.05016943338" y2="1005.40287671536" />
		<line stroke="black" stroke-width="2.4" x1="1001.15729481283" x2="984.972356834795" y1="944.30844565138" y2="926.587052290607" />
		<line stroke="black" stroke-width="2.4" x1="1084.32058481136" x2="1070.38330331977" y1="877.076255231093" y2="857.537775642744" />
		<line stroke="black" stroke-width="2.4" x1="1174.96280384315" x2="1163.47531205513" y1="820.32867060336" y2="799.256472511559" />
		<line stroke="black" stroke-width="2.4" x1="1271.76936244896" x2="1262.89826413677" y1="774.888705341612" y2="752.588400080575" />
		<line stroke="black" stroke-width="2.4" x1="1373.33626938842" x2="1367.21022261513" y1="741.41537794738" y2="718.210388162174" />
		<line stroke="black" stroke-width="2.4" x1="1478.19049380794" x2="1474.89834499194" y1="720.394154066012" y2="696.621023094823" />
		<line stroke="black" stroke-width="2.4" x1="1584.81132869426" x2="1584.40082406437" y1="712.12990574974" y2="688.133416715949" />
		<path d="M640,1600 A960,960 -90,1,1 1600,2560 A960,960 -90,1,1 1600,640 " fill="none" id="cp3" stroke="none" />
		<line stroke="black" stroke-width="9.60000000000001" x1="1600" x2="1600" y1="712" y2="664" />
		<text font-size="50" font-weight="bold" text-anchor="middle" x="1507.9644737231" y="0">
			<textPath xlink:href="#cp3">0.0Mb</textPath>
		</text>
		<line stroke="black" stroke-width="9.60000000000001" x1="2103.23882863519" x2="2130.44092748034" y1="868.361645788111" y2="828.813626641523" />
		<text font-size="50" font-weight="bold" text-anchor="middle" x="2086.37186881404" y="0">
			<textPath xlink:href="#cp3">0.5Mb</textPath>
		</text>
		<line stroke="black" stroke-width="9.60000000000001" x1="2429.25411792381" x2="2474.07866483861" y1="1282.38134830207" y2="1265.21277253461" />
		<text font-size="50" font-weight="bold" text-anchor="middle" x="2664.77926390498" y="0">
			<textPath xlink:href="#cp3">1.0Mb</textPath>
		</text>
		<line stroke="black" stroke-width="9.60000000000001" x1="2463.2344102414" x2="2509.8957297139" y1="1808.25549926758" y2="1819.51255328204" />
		<text font-size="50" font-weight="bold" text-anchor="middle" x="3243.18665899592" y="0">
			<textPath xlink:href="#cp3">1.5Mb</textPath>
		</text>
		<line stroke="black" stroke-width="9.60000000000001" x1="2193.21300641873" x2="2225.27857433326" y1="2260.78917138196" y2="2296.50750497017" />
		<text font-size="50" font-weight="bold" text-anchor="middle" x="3821.59405408686" y="0">
			<textPath xlink:href="#cp3">2.0Mb</textPath>
		</text>
		<line stroke="black" stroke-width="9.60000000000001" x1="1714.28222875249" x2="1720.4596465229" y1="2480.61545080209" y2="2528.21628598058" />
		<text font-size="50" font-weight="bold" text-anchor="middle" x="4400.0014491778" y="0">
			<textPath xlink:href="#cp3">2.5Mb</textPath>
		</text>
		<line stroke="black" stroke-width="9.60000000000001" x1="1195.1051506987" x2="1173.21894262836" y1="2390.31902483066" y2="2433.0389721188" />
		<text font-size="50" font-weight="bold" text-anchor="middle" x="4978.40884426874" y="0">
			<textPath xlink:href="#cp3">3.0Mb</textPath>
		</text>
		<line stroke="black" stroke-width="9.60000000000001" x1="818.518219059056" x2="776.275960629816" y1="2021.69921277775" y2="2044.49376481979" />
		<text font-size="50" font-weight="bold" text-anchor="middle" x="5556.81623935968" y="0">
			<textPath xlink:href="#cp3">3.5Mb</textPath>
		</text>
		<line stroke="black" stroke-width="9.60000000000001" x1="717.142497827857" x2="669.420470683417" y1="1504.57133104583" y2="1499.41302461587" />
		<text font-size="50" font-weight="bold" text-anchor="middle" x="6135.22363445062" y="0">
			<textPath xlink:href="#cp3">4.0Mb</textPath>
		</text>
		<line stroke="black" stroke-width="9.60000000000001" x1="926.679055957058" x2="890.283329252034" y1="1021.05016943338" y2="989.755583997343" />
		<text font-size="50" font-weight="bold" text-anchor="middle" x="6713.63102954156" y="0">
			<textPath xlink:href="#cp3">4.5Mb</textPath>
		</text>
		<line stroke="black" stroke-width="9.60000000000001" x1="1373.33626938842" x2="1361.08417584185" y1="741.41537794738" y2="695.005398376968" />
		<text font-size="50" font-weight="bold" text-anchor="middle" x="7292.0384246325" y="0">
			<textPath xlink:href="#cp3">5.0Mb</textPath>
		</text>
	</g>
	<g id="t6" />
	<g id="t7">
		<circle cx="1600" cy="1600" fill="none" r="744" stroke="black" stroke-width="4.8" />
		<line stroke="black" stroke-width="2.4" x1="1600" x2="1600" y1="856" y2="832" />
		<line stroke="black" stroke-width="2.4" x1="1689.43633381408" x2="1692.32137684035" y1="861.39513798385" y2="837.569174693007" />
		<line stroke="black" stroke-width="2.4" x1="1777.5755671935" x2="1783.30381129652" y1="877.502305930388" y2="854.195928702336" />
		<line stroke="black" stroke-width="2.4" x1="1863.13941162784" x2="1871.62777974487" y1="904.08790063101" y2="881.639123232011" />
		<line stroke="black" stroke-width="2.4" x1="1944.88692962475" x2="1956.01231445136" y1="940.766349634661" y2="919.500748009972" />
		<line stroke="black" stroke-width="2.4" x1="2021.63253209975" x2="2035.23358152233" y1="987.005703227877" y2="967.231693654583" />
		<line stroke="black" stroke-width="2.4" x1="2092.26317304476" x2="2108.14263023975" y1="1042.13534933292" y2="1024.13971544043" />
		<line stroke="black" stroke-width="2.4" x1="2155.75449210013" x2="2173.68205636142" y1="1105.35573943436" y2="1089.3994729645" />
		<line stroke="black" stroke-width="2.4" x1="2211.1856709135" x2="2230.90133771716" y1="1175.74998447847" y2="1162.06450010681" />
		<line stroke="black" stroke-width="2.4" x1="2257.75278782275" x2="2278.970619688" y1="1252.29715256932" y2="1241.08093168446" />
		<line stroke="black" stroke-width="2.4" x1="2294.7804771794" x2="2317.1927506368" y1="1333.88707560444" y2="1325.30278772071" />
		<line stroke="black" stroke-width="2.4" x1="2321.73172421652" x2="2345.01339273964" y1="1419.33645010837" y2="1413.50859366025" />
		<line stroke="black" stroke-width="2.4" x1="2338.2156534056" x2="2362.02906157998" y1="1507.40599875294" y2="1504.41909548691" />
		<line stroke="black" stroke-width="2.4" x1="2343.99319734747" x2="2367.99297790707" y1="1596.81844366957" y2="1596.7158128202" />
		<line stroke="black" stroke-width="2.4" x1="2338.98056398092" x2="2362.81864668998" y1="1686.27703088568" y2="1689.06016091425" />
		<line stroke="black" stroke-width="2.4" x1="2323.25045182387" x2="2346.58111156013" y1="1774.48433722419" y2="1780.11286423142" />
		<line stroke="black" stroke-width="2.4" x1="2297.03099562255" x2="2319.51586644908" y1="1860.16108690855" y2="1868.55338003463" />
		<line stroke="black" stroke-width="2.4" x1="2260.70245769971" x2="2282.01544020615" y1="1942.06470497489" y2="1953.09905029667" />
		<line stroke="black" stroke-width="2.4" x1="2214.79171298774" x2="2234.62370372927" y1="2019.00733841021" y2="2032.52370416538" />
		<line stroke="black" stroke-width="2.4" x1="2159.96460773034" x2="2178.02798217325" y1="2089.87308365474" y2="2105.67544119199" />
		<line stroke="black" stroke-width="2.4" x1="2097.01630267515" x2="2113.04908663241" y1="2153.63417061731" y2="2171.49333741142" />
		<line stroke="black" stroke-width="2.4" x1="2026.85974081041" x2="2040.62940986881" y1="2209.36586848565" y2="2229.02283198519" />
		<line stroke="black" stroke-width="2.4" x1="1950.51240689883" x2="1961.81925873427" y1="2256.25989715203" y2="2277.42957125371" />
		<line stroke="black" stroke-width="2.4" x1="1869.08157083598" x2="1877.76162150811" y1="2293.63614974743" y2="2316.0115094167" />
		<line stroke="black" stroke-width="2.4" x1="1783.74822884956" x2="1789.67559107051" y1="2320.95255627167" y2="2344.20909034495" />
		<line stroke="black" stroke-width="2.4" x1="1695.74997544128" x2="1698.83868432648" y1="2337.81294526661" y2="2361.61336285586" />
		<line stroke="black" stroke-width="2.4" x1="1606.36305448069" x2="1606.56831430265" y1="2343.97278951429" y2="2367.97191175669" />
		<line stroke="black" stroke-width="2.4" x1="1516.88384976494" x2="1514.20268362833" y1="2339.34275242955" y2="2363.19251863696" />
		<line stroke="black" stroke-width="2.4" x1="1428.61008348791" x2="1423.08137650365" y1="2323.98998371385" y2="2347.34449931752" />
		<line stroke="black" stroke-width="2.4" x1="1342.82199529858" x2="1334.52593063079" y1="2298.13714547917" y2="2320.65769855914" />
		<line stroke="black" stroke-width="2.4" x1="1260.76377490972" x2="1249.82067087455" y1="2262.15918296622" y2="2283.5191566103" />
		<line stroke="black" stroke-width="2.4" x1="1183.62551754098" x2="1170.19408262294" y1="2216.57788669152" y2="2236.46749593963" />
		<line stroke="black" stroke-width="2.4" x1="1112.52596389756" x2="1096.80099499103" y1="2162.05432488861" y2="2180.18510956244" />
		<line stroke="black" stroke-width="2.4" x1="1048.49627500768" x2="1030.70583226599" y1="2099.37925599647" y2="2115.48826425442" />
		<line stroke="black" stroke-width="2.4" x1="992.465077233228" x2="972.867176498816" y1="2029.46166024311" y2="2043.31526218644" />
		<line stroke="black" stroke-width="2.4" x1="945.244994346776" x2="924.123865132156" y1="1953.31555665162" y2="1964.71283267264" />
		<line stroke="black" stroke-width="2.4" x1="907.520862000959" x2="885.182825291312" y1="1872.04529666235" y2="1880.82095139339" />
		<line stroke="black" stroke-width="2.4" x1="879.839795516546" x2="856.60882117837" y1="1786.82954765869" y2="1792.85630726058" />
		<line stroke="black" stroke-width="2.4" x1="862.603255036612" x2="838.8162632636" y1="1698.90419868439" y2="1702.09465670646" />
		<line stroke="black" stroke-width="2.4" x1="856.061223126354" x2="832.063198065914" y1="1609.54443627168" y2="1609.85232131271" />
		<line stroke="black" stroke-width="2.4" x1="860.308579261178" x2="836.447565688958" y1="1520.04625033569" y2="1517.46709712072" />
		<line stroke="black" stroke-width="2.4" x1="875.283723784055" x2="851.905779389993" y1="1431.70763835606" y2="1426.27885249658" />
		<line stroke="black" stroke-width="2.4" x1="900.769471288995" x2="878.213647782189" y1="1345.80978044282" y2="1337.61009594097" />
		<line stroke="black" stroke-width="2.4" x1="936.396200473818" x2="914.989626295554" y1="1263.59845830553" y2="1252.74679567023" />
		<line stroke="black" stroke-width="2.4" x1="981.647214779746" x2="961.700350740383" y1="1186.26598760755" y2="1172.91972914328" />
		<line stroke="black" stroke-width="2.4" x1="1035.86623607213" x2="1017.66837271962" y1="1114.93392574148" y2="1099.28663302346" />
		<line stroke="black" stroke-width="2.4" x1="1098.26692268102" x2="1082.08198470299" y1="1050.63680581602" y2="1032.91541245525" />
		<line stroke="black" stroke-width="2.4" x1="1167.94427376087" x2="1154.00699226928" y1="994.307132761186" y2="974.768653172837" />
		<line stroke="black" stroke-width="2.4" x1="1243.88775457129" x2="1232.40026278327" y1="946.761859154166" y2="925.689661062365" />
		<line stroke="black" stroke-width="2.4" x1="1324.99595232211" x2="1316.12485400991" y1="908.690536907837" y2="886.3902316468" />
		<line stroke="black" stroke-width="2.4" x1="1410.09255002813" x2="1403.96650325485" y1="880.645316658616" y2="857.44032687341" />
		<line stroke="black" stroke-width="2.4" x1="1497.94338670395" x2="1494.65123788795" y1="863.032939893146" y2="839.259808921957" />
		<line stroke="black" stroke-width="2.4" x1="1587.27435647357" x2="1586.86385184368" y1="856.108839952485" y2="832.112350918694" />
		<path d="M784,1600 A816,816 -90,1,1 1600,2416 A816,816 -90,1,1 1600,784 " fill="none" id="cp4" stroke="none" />
		<line stroke="black" stroke-width="9.60000000000001" x1="1600" x2="1600" y1="856" y2="808" />
		<text font-size="50" font-weight="bold" text-anchor="middle" x="1281.76980266464" y="0">
			<textPath xlink:href="#cp4">0.0Mb</textPath>
		</text>
		<line stroke="black" stroke-width="9.60000000000001" x1="2021.63253209975" x2="2048.8346309449" y1="987.005703227877" y2="947.457684081288" />
		<text font-size="50" font-weight="bold" text-anchor="middle" x="1773.41608849193" y="0">
			<textPath xlink:href="#cp4">0.5Mb</textPath>
		</text>
		<line stroke="black" stroke-width="9.60000000000001" x1="2294.7804771794" x2="2339.6050240942" y1="1333.88707560444" y2="1316.71849983698" />
		<text font-size="50" font-weight="bold" text-anchor="middle" x="2265.06237431923" y="0">
			<textPath xlink:href="#cp4">1.0Mb</textPath>
		</text>
		<line stroke="black" stroke-width="9.60000000000001" x1="2323.25045182387" x2="2369.91177129638" y1="1774.48433722419" y2="1785.74139123865" />
		<text font-size="50" font-weight="bold" text-anchor="middle" x="2756.70866014653" y="0">
			<textPath xlink:href="#cp4">1.5Mb</textPath>
		</text>
		<line stroke="black" stroke-width="9.60000000000001" x1="2097.01630267515" x2="2129.08187058968" y1="2153.63417061731" y2="2189.35250420553" />
		<text font-size="50" font-weight="bold" text-anchor="middle" x="3248.35494597383" y="0">
			<textPath xlink:href="#cp4">2.0Mb</textPath>
		</text>
		<line stroke="black" stroke-width="9.60000000000001" x1="1695.74997544128" x2="1701.92739321168" y1="2337.81294526661" y2="2385.4137804451" />
		<text font-size="50" font-weight="bold" text-anchor="middle" x="3740.00123180113" y="0">
			<textPath xlink:href="#cp4">2.5Mb</textPath>
		</text>
		<line stroke="black" stroke-width="9.60000000000001" x1="1260.76377490972" x2="1238.87756683938" y1="2262.15918296622" y2="2304.87913025437" />
		<text font-size="50" font-weight="bold" text-anchor="middle" x="4231.64751762843" y="0">
			<textPath xlink:href="#cp4">3.0Mb</textPath>
		</text>
		<line stroke="black" stroke-width="9.60000000000001" x1="945.244994346776" x2="903.002735917536" y1="1953.31555665162" y2="1976.11010869366" />
		<text font-size="50" font-weight="bold" text-anchor="middle" x="4723.29380345573" y="0">
			<textPath xlink:href="#cp4">3.5Mb</textPath>
		</text>
		<line stroke="black" stroke-width="9.60000000000001" x1="860.308579261178" x2="812.586552116738" y1="1520.04625033569" y2="1514.88794390574" />
		<text font-size="50" font-weight="bold" text-anchor="middle" x="5214.94008928303" y="0">
			<textPath xlink:href="#cp4">4.0Mb</textPath>
		</text>
		<line stroke="black" stroke-width="9.60000000000001" x1="1035.86623607213" x2="999.470509367106" y1="1114.93392574148" y2="1083.63934030544" />
		<text font-size="50" font-weight="bold" text-anchor="middle" x="5706.58637511032" y="0">
			<textPath xlink:href="#cp4">4.5Mb</textPath>
		</text>
		<line stroke="black" stroke-width="9.60000000000001" x1="1410.09255002813" x2="1397.84045648156" y1="880.645316658616" y2="834.235337088204" />
		<text font-size="50" font-weight="bold" text-anchor="middle" x="6198.23266093762" y="0">
			<textPath xlink:href="#cp4">5.0Mb</textPath>
		</text>
	</g>
	<g id="t8" />
	<g id="t9">
		<circle cx="1600" cy="1600" fill="none" r="600" stroke="black" stroke-width="4.8" />
		<line stroke="black" stroke-width="2.4" x1="1600" x2="1600" y1="1000" y2="976" />
		<line stroke="black" stroke-width="2.4" x1="1672.12607565652" x2="1675.01111868278" y1="1004.35091772891" y2="980.524954438068" />
		<line stroke="black" stroke-width="2.4" x1="1743.2061025754" x2="1748.93434667842" y1="1017.3405692987" y2="994.034192070648" />
		<line stroke="black" stroke-width="2.4" x1="1812.20920292568" x2="1820.6975710427" y1="1038.78056502501" y2="1016.33178762601" />
		<line stroke="black" stroke-width="2.4" x1="1878.13462066512" x2="1889.26000549173" y1="1068.35995938279" y2="1047.0943577581" />
		<line stroke="black" stroke-width="2.4" x1="1940.02623556432" x2="1953.62728498689" y1="1105.64976066764" y2="1085.87575109435" />
		<line stroke="black" stroke-width="2.4" x1="1996.98642987481" x2="2012.8658870698" y1="1150.10915268784" y2="1132.11351879535" />
		<line stroke="black" stroke-width="2.4" x1="2048.18910653236" x2="2066.11667079366" y1="1201.09333825352" y2="1185.13707178366" />
		<line stroke="black" stroke-width="2.4" x1="2092.89167009153" x2="2112.60733689519" y1="1257.86289070844" y2="1244.17740633678" />
		<line stroke="black" stroke-width="2.4" x1="2130.44579663125" x2="2151.6636284965" y1="1319.59447787848" y2="1308.37825699362" />
		<line stroke="black" stroke-width="2.4" x1="2160.306836435" x2="2182.7191098924" y1="1385.3928029068" y2="1376.80851502308" />
		<line stroke="black" stroke-width="2.4" x1="2182.04171307784" x2="2205.32338160095" y1="1454.30358879707" y2="1448.47573234896" />
		<line stroke="black" stroke-width="2.4" x1="2195.33520435936" x2="2219.14861253373" y1="1525.32741834915" y2="1522.34051508311" />
		<line stroke="black" stroke-width="2.4" x1="2199.9945139899" x2="2223.99429454949" y1="1597.43422876578" y2="1597.33159791641" />
		<line stroke="black" stroke-width="2.4" x1="2195.95206772654" x2="2219.79015043561" y1="1669.57825071426" y2="1672.36138074283" />
		<line stroke="black" stroke-width="2.4" x1="2183.26649340635" x2="2206.5971531426" y1="1740.7131751808" y2="1746.34170218803" />
		<line stroke="black" stroke-width="2.4" x1="2162.12177066335" x2="2184.60664148988" y1="1809.80732815205" y2="1818.19962127814" />
		<line stroke="black" stroke-width="2.4" x1="2132.82456266106" x2="2154.1375451675" y1="1875.85863304427" y2="1886.89297836604" />
		<line stroke="black" stroke-width="2.4" x1="2095.7997685385" x2="2115.63175928004" y1="1937.9091438792" y2="1951.42550963437" />
		<line stroke="black" stroke-width="2.4" x1="2051.58436107285" x2="2069.64773551577" y1="1995.05893843125" y2="2010.8612959685" />
		<line stroke="black" stroke-width="2.4" x1="2000.81959893157" x2="2016.85238288884" y1="2046.47916985267" y2="2064.33833664678" />
		<line stroke="black" stroke-width="2.4" x1="1944.24172646001" x2="1958.01139551841" y1="2091.42408748843" y2="2111.08105098797" />
		<line stroke="black" stroke-width="2.4" x1="1882.67129588615" x2="1893.9781477216" y1="2129.24185254196" y2="2150.41152664364" />
		<line stroke="black" stroke-width="2.4" x1="1817.00126680321" x2="1825.68131747534" y1="2159.3839917318" y2="2181.75935140107" />
		<line stroke="black" stroke-width="2.4" x1="1748.18405552384" x2="1754.11141774479" y1="2181.41335183199" y2="2204.66988590527" />
		<line stroke="black" stroke-width="2.4" x1="1677.21772213006" x2="1680.30643101526" y1="2195.01043973114" y2="2218.81085732039" />
		<line stroke="black" stroke-width="2.4" x1="1605.13149554895" x2="1605.3367553709" y1="2199.97805605991" y2="2223.97717830231" />
		<line stroke="black" stroke-width="2.4" x1="1532.97084658463" x2="1530.28968044802" y1="2196.24415518512" y2="2220.09392139253" />
		<line stroke="black" stroke-width="2.4" x1="1461.78232539348" x2="1456.25361840922" y1="2183.86289009181" y2="2207.21740569549" />
		<line stroke="black" stroke-width="2.4" x1="1392.59838330531" x2="1384.30231863752" y1="2163.01382699933" y2="2185.5343800793" />
		<line stroke="black" stroke-width="2.4" x1="1326.42239912074" x2="1315.47929508557" y1="2133.99934110179" y2="2155.35931474587" />
		<line stroke="black" stroke-width="2.4" x1="1264.21412704917" x2="1250.78269213114" y1="2097.24023120284" y2="2117.12984045095" />
		<line stroke="black" stroke-width="2.4" x1="1206.87577733674" x2="1191.15080843021" y1="2053.26961684565" y2="2071.40040151948" />
		<line stroke="black" stroke-width="2.4" x1="1155.2389314578" x2="1137.44848871611" y1="2002.72520644877" y2="2018.83421470672" />
		<line stroke="black" stroke-width="2.4" x1="1110.0524816397" x2="1090.45458090529" y1="1946.34004858316" y2="1960.19365052648" />
		<line stroke="black" stroke-width="2.4" x1="1071.9717696345" x2="1050.85064041988" y1="1884.9319005255" y2="1896.32917654652" />
		<line stroke="black" stroke-width="2.4" x1="1041.54908225884" x2="1019.21104554919" y1="1819.39136827609" y2="1828.16702300713" />
		<line stroke="black" stroke-width="2.4" x1="1019.2256415456" x2="995.994667207426" y1="1750.66899004733" y2="1756.69574964922" />
		<line stroke="black" stroke-width="2.4" x1="1005.32520567469" x2="981.538213901675" y1="1679.76145055192" y2="1682.951908574" />
		<line stroke="black" stroke-width="2.4" x1="1000.049373489" x2="976.051348428555" y1="1607.69712602555" y2="1608.00501106657" />
		<line stroke="black" stroke-width="2.4" x1="1003.4746606945" x2="979.613647122278" y1="1535.52116962556" y2="1532.94201641058" />
		<line stroke="black" stroke-width="2.4" x1="1015.55139014843" x2="992.173445754369" y1="1464.28035351295" y2="1458.85156765347" />
		<line stroke="black" stroke-width="2.4" x1="1036.10441232983" x2="1013.54858882303" y1="1395.00788745388" y2="1386.80820295204" />
		<line stroke="black" stroke-width="2.4" x1="1064.8356455434" x2="1043.42907136514" y1="1328.70843411736" y2="1317.85677148206" />
		<line stroke="black" stroke-width="2.4" x1="1101.32839901592" x2="1081.38153497656" y1="1266.34353839319" y2="1252.99727992891" />
		<line stroke="black" stroke-width="2.4" x1="1145.0534161872" x2="1126.85555283469" y1="1208.81768204958" y2="1193.17038933156" />
		<line stroke="black" stroke-width="2.4" x1="1195.37655054921" x2="1179.19161257118" y1="1156.96516598066" y2="1139.24377261989" />
		<line stroke="black" stroke-width="2.4" x1="1251.56796271038" x2="1237.63068121879" y1="1111.53801029128" y2="1091.99953070293" />
		<line stroke="black" stroke-width="2.4" x1="1312.81270529943" x2="1301.3252135114" y1="1073.19504770497" y2="1052.12284961317" />
		<line stroke="black" stroke-width="2.4" x1="1378.22254219525" x2="1369.35144388306" y1="1042.49236847406" y2="1020.19206321302" />
		<line stroke="black" stroke-width="2.4" x1="1446.84883066785" x2="1440.72278389456" y1="1019.87525536985" y2="996.670265584645" />
		<line stroke="black" stroke-width="2.4" x1="1517.69627959996" x2="1514.40413078396" y1="1005.67172572028" y2="981.89859474909" />
		<line stroke="black" stroke-width="2.4" x1="1589.73738425288" x2="1589.32687962299" y1="1000.08777415523" y2="976.091285121439" />
		<path d="M928,1600 A672,672 -90,1,1 1600,2272 A672,672 -90,1,1 1600,928 " fill="none" id="cp5" stroke="none" />
		<line stroke="black" stroke-width="9.60000000000001" x1="1600" x2="1600" y1="1000" y2="952" />
		<text font-size="50" font-weight="bold" text-anchor="middle" x="1055.57513160617" y="0">
			<textPath xlink:href="#cp5">0kb</textPath>
		</text>
		<line stroke="black" stroke-width="9.60000000000001" x1="1940.02623556432" x2="1967.22833440946" y1="1105.64976066764" y2="1066.10174152105" />
		<text font-size="50" font-weight="bold" text-anchor="middle" x="1460.46030816983" y="0">
			<textPath xlink:href="#cp5">500kb</textPath>
		</text>
		<line stroke="black" stroke-width="9.60000000000001" x1="2160.306836435" x2="2205.1313833498" y1="1385.3928029068" y2="1368.22422713935" />
		<text font-size="50" font-weight="bold" text-anchor="middle" x="1865.34548473349" y="0">
			<textPath xlink:href="#cp5">1000kb</textPath>
		</text>
		<line stroke="black" stroke-width="9.60000000000001" x1="2183.26649340635" x2="2229.92781287886" y1="1740.7131751808" y2="1751.97022919526" />
		<text font-size="50" font-weight="bold" text-anchor="middle" x="2270.23066129714" y="0">
			<textPath xlink:href="#cp5">1500kb</textPath>
		</text>
		<line stroke="black" stroke-width="9.60000000000001" x1="2000.81959893157" x2="2032.8851668461" y1="2046.47916985267" y2="2082.19750344089" />
		<text font-size="50" font-weight="bold" text-anchor="middle" x="2675.1158378608" y="0">
			<textPath xlink:href="#cp5">2000kb</textPath>
		</text>
		<line stroke="black" stroke-width="9.60000000000001" x1="1677.21772213006" x2="1683.39513990047" y1="2195.01043973114" y2="2242.61127490963" />
		<text font-size="50" font-weight="bold" text-anchor="middle" x="3080.00101442446" y="0">
			<textPath xlink:href="#cp5">2500kb</textPath>
		</text>
		<line stroke="black" stroke-width="9.60000000000001" x1="1326.42239912074" x2="1304.5361910504" y1="2133.99934110179" y2="2176.71928838994" />
		<text font-size="50" font-weight="bold" text-anchor="middle" x="3484.88619098812" y="0">
			<textPath xlink:href="#cp5">3000kb</textPath>
		</text>
		<line stroke="black" stroke-width="9.60000000000001" x1="1071.9717696345" x2="1029.72951120526" y1="1884.9319005255" y2="1907.72645256754" />
		<text font-size="50" font-weight="bold" text-anchor="middle" x="3889.77136755178" y="0">
			<textPath xlink:href="#cp5">3500kb</textPath>
		</text>
		<line stroke="black" stroke-width="9.60000000000001" x1="1003.4746606945" x2="955.752633550058" y1="1535.52116962556" y2="1530.3628631956" />
		<text font-size="50" font-weight="bold" text-anchor="middle" x="4294.65654411543" y="0">
			<textPath xlink:href="#cp5">4000kb</textPath>
		</text>
		<line stroke="black" stroke-width="9.60000000000001" x1="1145.0534161872" x2="1108.65768948218" y1="1208.81768204958" y2="1177.52309661355" />
		<text font-size="50" font-weight="bold" text-anchor="middle" x="4699.54172067909" y="0">
			<textPath xlink:href="#cp5">4500kb</textPath>
		</text>
		<line stroke="black" stroke-width="9.60000000000001" x1="1446.84883066785" x2="1434.59673712128" y1="1019.87525536985" y2="973.465275799439" />
		<text font-size="50" font-weight="bold" text-anchor="middle" x="5104.42689724275" y="0">
			<textPath xlink:href="#cp5">5000kb</textPath>
		</text>
	</g>
	<g id="t10" />
	<g id="t11">
		<circle cx="1600" cy="1600" fill="none" r="456" stroke="black" stroke-width="4.8" />
		<line stroke="black" stroke-width="2.4" x1="1600" x2="1600" y1="1144" y2="1120" />
		<line stroke="black" stroke-width="2.4" x1="1654.81581749896" x2="1657.70086052522" y1="1147.30669747397" y2="1123.48073418313" />
		<line stroke="black" stroke-width="2.4" x1="1708.83663795731" x2="1714.56488206032" y1="1157.17883266701" y2="1133.87245543896" />
		<line stroke="black" stroke-width="2.4" x1="1761.27899422351" x2="1769.76736234054" y1="1173.47322941901" y2="1151.02445202001" />
		<line stroke="black" stroke-width="2.4" x1="1811.38231170549" x2="1822.5076965321" y1="1195.95356913092" y2="1174.68796750623" />
		<line stroke="black" stroke-width="2.4" x1="1858.41993902888" x2="1872.02098845145" y1="1224.29381810741" y2="1204.51980853411" />
		<line stroke="black" stroke-width="2.4" x1="1901.70968670485" x2="1917.58914389984" y1="1258.08295604276" y2="1240.08732215027" />
		<line stroke="black" stroke-width="2.4" x1="1940.62372096459" x2="1958.55128522589" y1="1296.83093707267" y2="1280.87467060281" />
		<line stroke="black" stroke-width="2.4" x1="1974.59766926956" x2="1994.31333607322" y1="1339.97579693842" y2="1326.29031256675" />
		<line stroke="black" stroke-width="2.4" x1="2003.13880543975" x2="2024.356637305" y1="1386.89180318765" y2="1375.67558230279" />
		<line stroke="black" stroke-width="2.4" x1="2025.8331956906" x2="2048.245469148" y1="1436.89853020917" y2="1428.31424232544" />
		<line stroke="black" stroke-width="2.4" x1="2042.35170193916" x2="2065.63337046227" y1="1489.27072748578" y2="1483.44287103766" />
		<line stroke="black" stroke-width="2.4" x1="2052.45475531311" x2="2076.26816348749" y1="1543.24883794535" y2="1540.26193467932" />
		<line stroke="black" stroke-width="2.4" x1="2055.99583063232" x2="2079.99561119192" y1="1598.05001386199" y2="1597.94738301263" />
		<line stroke="black" stroke-width="2.4" x1="2052.92357147217" x2="2076.76165418124" y1="1652.87947054283" y2="1655.6626005714" />
		<line stroke="black" stroke-width="2.4" x1="2043.28253498883" x2="2066.61319472508" y1="1706.94201313741" y2="1712.57054014464" />
		<line stroke="black" stroke-width="2.4" x1="2027.21254570414" x2="2049.69741653068" y1="1759.45356939556" y2="1767.84586252164" />
		<line stroke="black" stroke-width="2.4" x1="2004.9466676224" x2="2026.25965012885" y1="1809.65256111364" y2="1820.68690643542" />
		<line stroke="black" stroke-width="2.4" x1="1976.80782408926" x2="1996.6398148308" y1="1856.81094934819" y2="1870.32731510336" />
		<line stroke="black" stroke-width="2.4" x1="1943.20411441537" x2="1961.26748885828" y1="1900.24479320775" y2="1916.047150745" />
		<line stroke="black" stroke-width="2.4" x1="1904.622895188" x2="1920.65567914526" y1="1939.32416908803" y2="1957.18333588214" />
		<line stroke="black" stroke-width="2.4" x1="1861.6237121096" x2="1875.393381168" y1="1973.48230649121" y2="1993.13926999074" />
		<line stroke="black" stroke-width="2.4" x1="1814.83018487347" x2="1826.13703670892" y1="2002.22380793189" y2="2023.39348203357" />
		<line stroke="black" stroke-width="2.4" x1="1764.92096277044" x2="1773.60101344257" y1="2025.13183371617" y2="2047.50719338544" />
		<line stroke="black" stroke-width="2.4" x1="1712.61988219812" x2="1718.54724441907" y1="2041.87414739231" y2="2065.13068146559" />
		<line stroke="black" stroke-width="2.4" x1="1658.68546881885" x2="1661.77417770405" y1="2052.20793419567" y2="2076.00835178491" />
		<line stroke="black" stroke-width="2.4" x1="1603.8999366172" x2="1604.10519643916" y1="2055.98332260553" y2="2079.98244484793" />
		<line stroke="black" stroke-width="2.4" x1="1549.05784340432" x2="1546.3766772677" y1="2053.14555794069" y2="2076.9953241481" />
		<line stroke="black" stroke-width="2.4" x1="1494.95456729904" x2="1489.42586031478" y1="2043.73579646978" y2="2067.09031207345" />
		<line stroke="black" stroke-width="2.4" x1="1442.37477131203" x2="1434.07870664425" y1="2027.89050851949" y2="2050.41106159946" />
		<line stroke="black" stroke-width="2.4" x1="1392.08102333177" x2="1381.1379192966" y1="2005.83949923736" y2="2027.19947288144" />
		<line stroke="black" stroke-width="2.4" x1="1344.80273655737" x2="1331.37130163934" y1="1977.90257571416" y2="1997.79218496227" />
		<line stroke="black" stroke-width="2.4" x1="1301.22559077592" x2="1285.50062186939" y1="1944.4849088027" y2="1962.61569347652" />
		<line stroke="black" stroke-width="2.4" x1="1261.98158790793" x2="1244.19114516624" y1="1906.07115690106" y2="1922.18016515901" />
		<line stroke="black" stroke-width="2.4" x1="1227.63988604617" x2="1208.04198531176" y1="1863.2184369232" y2="1877.07203886653" />
		<line stroke="black" stroke-width="2.4" x1="1198.69854492222" x2="1177.5774157076" y1="1816.54824439938" y2="1827.9455204204" />
		<line stroke="black" stroke-width="2.4" x1="1175.57730251672" x2="1153.23926580707" y1="1766.73743988983" y2="1775.51309462087" />
		<line stroke="black" stroke-width="2.4" x1="1158.61148757466" x2="1135.38051323648" y1="1714.50843243597" y2="1720.53519203786" />
		<line stroke="black" stroke-width="2.4" x1="1148.04715631276" x2="1124.26016453975" y1="1660.61870241946" y2="1663.80916044154" />
		<line stroke="black" stroke-width="2.4" x1="1144.03752385164" x2="1120.0394987912" y1="1605.84981577942" y2="1606.15770082044" />
		<line stroke="black" stroke-width="2.4" x1="1146.64074212782" x2="1122.7797285556" y1="1550.99608891543" y2="1548.41693570045" />
		<line stroke="black" stroke-width="2.4" x1="1155.81905651281" x2="1132.44111211875" y1="1496.85306866984" y2="1491.42428281036" />
		<line stroke="black" stroke-width="2.4" x1="1171.43935337067" x2="1148.88352986387" y1="1444.20599446495" y2="1436.00630996311" />
		<line stroke="black" stroke-width="2.4" x1="1193.27509061299" x2="1171.86851643472" y1="1393.8184099292" y2="1382.96674729389" />
		<line stroke="black" stroke-width="2.4" x1="1221.0095832521" x2="1201.06271921274" y1="1346.42108917882" y2="1333.07483071455" />
		<line stroke="black" stroke-width="2.4" x1="1254.24059630227" x2="1236.04273294976" y1="1302.70143835768" y2="1287.05414563966" />
		<line stroke="black" stroke-width="2.4" x1="1292.4861784174" x2="1276.30124043937" y1="1263.2935261453" y2="1245.57213278453" />
		<line stroke="black" stroke-width="2.4" x1="1335.19165165989" x2="1321.2543701683" y1="1228.76888782137" y2="1209.23040823302" />
		<line stroke="black" stroke-width="2.4" x1="1381.73765602756" x2="1370.25016423954" y1="1199.62823625578" y2="1178.55603816398" />
		<line stroke="black" stroke-width="2.4" x1="1431.44913206839" x2="1422.5780337562" y1="1176.29420004029" y2="1153.99389477925" />
		<line stroke="black" stroke-width="2.4" x1="1483.60511130757" x2="1477.47906453428" y1="1159.10519408109" y2="1135.90020429588" />
		<line stroke="black" stroke-width="2.4" x1="1537.44917249597" x2="1534.15702367997" y1="1148.31051154741" y2="1124.53738057622" />
		<line stroke="black" stroke-width="2.4" x1="1592.20041203219" x2="1591.7899074023" y1="1144.06670835797" y2="1120.07021932418" />
		<path d="M1072,1600 A528,528 -90,1,1 1600,2128 A528,528 -90,1,1 1600,1072 " fill="none" id="cp6" stroke="none" />
		<line stroke="black" stroke-width="9.60000000000001" x1="1600" x2="1600" y1="1144" y2="1096" />
		<text font-size="50" font-weight="bold" text-anchor="middle" x="829.380460547706" y="0">
			<textPath xlink:href="#cp6">0kb</textPath>
		</text>
		<line stroke="black" stroke-width="9.60000000000001" x1="1858.41993902888" x2="1885.62203787403" y1="1224.29381810741" y2="1184.74579896082" />
		<text font-size="50" font-weight="bold" text-anchor="middle" x="1147.50452784772" y="0">
			<textPath xlink:href="#cp6">500kb</textPath>
		</text>
		<line stroke="black" stroke-width="9.60000000000001" x1="2025.8331956906" x2="2070.6577426054" y1="1436.89853020917" y2="1419.72995444171" />
		<text font-size="50" font-weight="bold" text-anchor="middle" x="1465.62859514774" y="0">
			<textPath xlink:href="#cp6">1000kb</textPath>
		</text>
		<line stroke="black" stroke-width="9.60000000000001" x1="2043.28253498883" x2="2089.94385446133" y1="1706.94201313741" y2="1718.19906715187" />
		<text font-size="50" font-weight="bold" text-anchor="middle" x="1783.75266244776" y="0">
			<textPath xlink:href="#cp6">1500kb</textPath>
		</text>
		<line stroke="black" stroke-width="9.60000000000001" x1="1904.622895188" x2="1936.68846310252" y1="1939.32416908803" y2="1975.04250267625" />
		<text font-size="50" font-weight="bold" text-anchor="middle" x="2101.87672974777" y="0">
			<textPath xlink:href="#cp6">2000kb</textPath>
		</text>
		<line stroke="black" stroke-width="9.60000000000001" x1="1658.68546881885" x2="1664.86288658925" y1="2052.20793419567" y2="2099.80876937416" />
		<text font-size="50" font-weight="bold" text-anchor="middle" x="2420.00079704779" y="0">
			<textPath xlink:href="#cp6">2500kb</textPath>
		</text>
		<line stroke="black" stroke-width="9.60000000000001" x1="1392.08102333177" x2="1370.19481526142" y1="2005.83949923736" y2="2048.55944652551" />
		<text font-size="50" font-weight="bold" text-anchor="middle" x="2738.12486434781" y="0">
			<textPath xlink:href="#cp6">3000kb</textPath>
		</text>
		<line stroke="black" stroke-width="9.60000000000001" x1="1198.69854492222" x2="1156.45628649298" y1="1816.54824439938" y2="1839.34279644142" />
		<text font-size="50" font-weight="bold" text-anchor="middle" x="3056.24893164782" y="0">
			<textPath xlink:href="#cp6">3500kb</textPath>
		</text>
		<line stroke="black" stroke-width="9.60000000000001" x1="1146.64074212782" x2="1098.91871498338" y1="1550.99608891543" y2="1545.83778248547" />
		<text font-size="50" font-weight="bold" text-anchor="middle" x="3374.37299894784" y="0">
			<textPath xlink:href="#cp6">4000kb</textPath>
		</text>
		<line stroke="black" stroke-width="9.60000000000001" x1="1254.24059630227" x2="1217.84486959725" y1="1302.70143835768" y2="1271.40685292165" />
		<text font-size="50" font-weight="bold" text-anchor="middle" x="3692.49706624786" y="0">
			<textPath xlink:href="#cp6">4500kb</textPath>
		</text>
		<line stroke="black" stroke-width="9.60000000000001" x1="1483.60511130757" x2="1471.35301776099" y1="1159.10519408109" y2="1112.69521451068" />
		<text font-size="50" font-weight="bold" text-anchor="middle" x="4010.62113354787" y="0">
			<textPath xlink:href="#cp6">5000kb</textPath>
		</text>
	</g>
	<g id="t12" />
	<g id="t13">
		<circle cx="1600" cy="1600" fill="none" r="312" stroke="black" stroke-width="4.8" />
		<line stroke="black" stroke-width="2.4" x1="1600" x2="1600" y1="1288" y2="1264" />
		<line stroke="black" stroke-width="2.4" x1="1637.50555934139" x2="1640.39060236765" y1="1290.26247721903" y2="1266.43651392819" />
		<line stroke="black" stroke-width="2.4" x1="1674.46717333921" x2="1680.19541744223" y1="1297.01709603532" y2="1273.71071880727" />
		<line stroke="black" stroke-width="2.4" x1="1710.34878552135" x2="1718.83715363838" y1="1308.165893813" y2="1285.717116414" />
		<line stroke="black" stroke-width="2.4" x1="1744.63000274586" x2="1755.75538757247" y1="1323.54717887905" y2="1302.28157725436" />
		<line stroke="black" stroke-width="2.4" x1="1776.81364249345" x2="1790.41469191602" y1="1342.93787554717" y2="1323.16386597388" />
		<line stroke="black" stroke-width="2.4" x1="1806.4329435349" x2="1822.31240072989" y1="1366.05675939768" y2="1348.06112550519" />
		<line stroke="black" stroke-width="2.4" x1="1833.05833539683" x2="1850.98589965812" y1="1392.56853589183" y2="1376.61226942197" />
		<line stroke="black" stroke-width="2.4" x1="1856.30366844759" x2="1876.01933525126" y1="1422.08870316839" y2="1408.40321879673" />
		<line stroke="black" stroke-width="2.4" x1="1875.83181424825" x2="1897.0496461135" y1="1454.18912849681" y2="1442.97290761195" />
		<line stroke="black" stroke-width="2.4" x1="1891.3595549462" x2="1913.7718284036" y1="1488.40425751154" y2="1479.81996962781" />
		<line stroke="black" stroke-width="2.4" x1="1902.66169080048" x2="1925.94335932359" y1="1524.23786617448" y2="1518.41000972636" />
		<line stroke="black" stroke-width="2.4" x1="1909.57430626687" x2="1933.38771444124" y1="1561.17025754156" y2="1558.18335427552" />
		<line stroke="black" stroke-width="2.4" x1="1911.99714727475" x2="1935.99692783434" y1="1598.66579895821" y2="1598.56316810884" />
		<line stroke="black" stroke-width="2.4" x1="1909.8950752178" x2="1933.73315792687" y1="1636.18069037141" y2="1638.96382039998" />
		<line stroke="black" stroke-width="2.4" x1="1903.2985765713" x2="1926.62923630756" y1="1673.17085109401" y2="1678.79937810125" />
		<line stroke="black" stroke-width="2.4" x1="1892.30332074494" x2="1914.78819157147" y1="1709.09981063907" y2="1717.49210376515" />
		<line stroke="black" stroke-width="2.4" x1="1877.06877258375" x2="1898.38175509019" y1="1743.44648918302" y2="1754.48083450479" />
		<line stroke="black" stroke-width="2.4" x1="1857.81587964002" x2="1877.64787038156" y1="1775.71275481718" y2="1789.22912057235" />
		<line stroke="black" stroke-width="2.4" x1="1834.82386775788" x2="1852.8872422008" y1="1805.43064798425" y2="1821.2330055215" />
		<line stroke="black" stroke-width="2.4" x1="1808.42619144442" x2="1824.45897540168" y1="1832.16916832339" y2="1850.0283351175" />
		<line stroke="black" stroke-width="2.4" x1="1779.0056977592" x2="1792.7753668176" y1="1855.54052549398" y2="1875.19748899352" />
		<line stroke="black" stroke-width="2.4" x1="1746.9890738608" x2="1758.29592569624" y1="1875.20576332182" y2="1896.3754374235" />
		<line stroke="black" stroke-width="2.4" x1="1712.84065873767" x2="1721.5207094098" y1="1890.87967570054" y2="1913.25503536981" />
		<line stroke="black" stroke-width="2.4" x1="1677.0557088724" x2="1682.98307109335" y1="1902.33494295263" y2="1925.59147702591" />
		<line stroke="black" stroke-width="2.4" x1="1640.15321550763" x2="1643.24192439283" y1="1909.40542866019" y2="1933.20584624944" />
		<line stroke="black" stroke-width="2.4" x1="1602.66837768545" x2="1602.87363750741" y1="1911.98858915115" y2="1935.98771139355" />
		<line stroke="black" stroke-width="2.4" x1="1565.14484022401" x2="1562.46367408739" y1="1910.04696069626" y2="1933.89672690367" />
		<line stroke="black" stroke-width="2.4" x1="1528.12680920461" x2="1522.59810222035" y1="1903.60870284774" y2="1926.96321845142" />
		<line stroke="black" stroke-width="2.4" x1="1492.15115931876" x2="1483.85509465097" y1="1892.76719003965" y2="1915.28774311962" />
		<line stroke="black" stroke-width="2.4" x1="1457.73964754279" x2="1446.79654350762" y1="1877.67965737293" y2="1899.039631017" />
		<line stroke="black" stroke-width="2.4" x1="1425.39134606557" x2="1411.95991114754" y1="1858.56492022548" y2="1878.45452947359" />
		<line stroke="black" stroke-width="2.4" x1="1395.5754042151" x2="1379.85043530857" y1="1835.70020075974" y2="1853.83098543357" />
		<line stroke="black" stroke-width="2.4" x1="1368.72424435806" x2="1350.93380161637" y1="1809.41710735336" y2="1825.52611561131" />
		<line stroke="black" stroke-width="2.4" x1="1345.22729045264" x2="1325.62938971823" y1="1780.09682526324" y2="1793.95042720657" />
		<line stroke="black" stroke-width="2.4" x1="1325.42532020994" x2="1304.30419099532" y1="1748.16458827326" y2="1759.56186429428" />
		<line stroke="black" stroke-width="2.4" x1="1309.6055227746" x2="1287.26748606495" y1="1714.08351150357" y2="1722.85916623461" />
		<line stroke="black" stroke-width="2.4" x1="1297.99733360371" x2="1274.76635926554" y1="1678.34787482461" y2="1684.3746344265" />
		<line stroke="black" stroke-width="2.4" x1="1290.76910695084" x2="1266.98211517782" y1="1641.475954287" y2="1644.66641230908" />
		<line stroke="black" stroke-width="2.4" x1="1288.02567421428" x2="1264.02764915384" y1="1604.00250553329" y2="1604.31039057431" />
		<line stroke="black" stroke-width="2.4" x1="1289.80682356114" x2="1265.94580998892" y1="1566.47100820529" y2="1563.89185499031" />
		<line stroke="black" stroke-width="2.4" x1="1296.08672287718" x2="1272.70877848312" y1="1529.42578382674" y2="1523.99699796725" />
		<line stroke="black" stroke-width="2.4" x1="1306.77429441151" x2="1284.21847090471" y1="1493.40410147602" y2="1485.20441697418" />
		<line stroke="black" stroke-width="2.4" x1="1321.71453568257" x2="1300.30796150431" y1="1458.92838574103" y2="1448.07672310572" />
		<line stroke="black" stroke-width="2.4" x1="1340.69076748828" x2="1320.74390344892" y1="1426.49863996446" y2="1413.15238150018" />
		<line stroke="black" stroke-width="2.4" x1="1363.42777641734" x2="1345.22991306483" y1="1396.58519466578" y2="1380.93790194776" />
		<line stroke="black" stroke-width="2.4" x1="1389.59580628559" x2="1373.41086830756" y1="1369.62188630994" y2="1351.90049294917" />
		<line stroke="black" stroke-width="2.4" x1="1418.8153406094" x2="1404.87805911781" y1="1345.99976535147" y2="1326.46128576312" />
		<line stroke="black" stroke-width="2.4" x1="1450.6626067557" x2="1439.17511496768" y1="1326.06142480659" y2="1304.98922671478" />
		<line stroke="black" stroke-width="2.4" x1="1484.67572194153" x2="1475.80462362934" y1="1310.09603160651" y2="1287.79572634547" />
		<line stroke="black" stroke-width="2.4" x1="1520.36139194728" x2="1514.235345174" y1="1298.33513279232" y2="1275.13014300712" />
		<line stroke="black" stroke-width="2.4" x1="1557.20206539198" x2="1553.90991657598" y1="1290.94929737455" y2="1267.17616640336" />
		<line stroke="black" stroke-width="2.4" x1="1594.6634398115" x2="1594.25293518161" y1="1288.04564256072" y2="1264.04915352693" />
		<path d="M1216,1600 A384,384 -90,1,1 1600,1984 A384,384 -90,1,1 1600,1216 " fill="none" id="cp7" stroke="none" />
		<line stroke="black" stroke-width="9.60000000000001" x1="1600" x2="1600" y1="1288" y2="1240" />
		<text font-size="50" font-weight="bold" text-anchor="middle" x="603.18578948924" y="0">
			<textPath xlink:href="#cp7">0bp</textPath>
		</text>
		<line stroke="black" stroke-width="9.60000000000001" x1="1776.81364249345" x2="1804.01574133859" y1="1342.93787554717" y2="1303.38985640059" />
		<text font-size="50" font-weight="bold" text-anchor="middle" x="834.548747525616" y="0">
			<textPath xlink:href="#cp7">500000bp</textPath>
		</text>
		<line stroke="black" stroke-width="9.60000000000001" x1="1891.3595549462" x2="1936.184101861" y1="1488.40425751154" y2="1471.23568174408" />
		<text font-size="50" font-weight="bold" text-anchor="middle" x="1065.91170556199" y="0">
			<textPath xlink:href="#cp7">1000000bp</textPath>
		</text>
		<line stroke="black" stroke-width="9.60000000000001" x1="1903.2985765713" x2="1949.95989604381" y1="1673.17085109401" y2="1684.42790510848" />
		<text font-size="50" font-weight="bold" text-anchor="middle" x="1297.27466359837" y="0">
			<textPath xlink:href="#cp7">1500000bp</textPath>
		</text>
		<line stroke="black" stroke-width="9.60000000000001" x1="1808.42619144442" x2="1840.49175935894" y1="1832.16916832339" y2="1867.8875019116" />
		<text font-size="50" font-weight="bold" text-anchor="middle" x="1528.63762163474" y="0">
			<textPath xlink:href="#cp7">2000000bp</textPath>
		</text>
		<line stroke="black" stroke-width="9.60000000000001" x1="1640.15321550763" x2="1646.33063327804" y1="1909.40542866019" y2="1957.00626383868" />
		<text font-size="50" font-weight="bold" text-anchor="middle" x="1760.00057967112" y="0">
			<textPath xlink:href="#cp7">2500000bp</textPath>
		</text>
		<line stroke="black" stroke-width="9.60000000000001" x1="1457.73964754279" x2="1435.85343947245" y1="1877.67965737293" y2="1920.39960466108" />
		<text font-size="50" font-weight="bold" text-anchor="middle" x="1991.3635377075" y="0">
			<textPath xlink:href="#cp7">3000000bp</textPath>
		</text>
		<line stroke="black" stroke-width="9.60000000000001" x1="1325.42532020994" x2="1283.1830617807" y1="1748.16458827326" y2="1770.9591403153" />
		<text font-size="50" font-weight="bold" text-anchor="middle" x="2222.72649574387" y="0">
			<textPath xlink:href="#cp7">3500000bp</textPath>
		</text>
		<line stroke="black" stroke-width="9.60000000000001" x1="1289.80682356114" x2="1242.0847964167" y1="1566.47100820529" y2="1561.31270177534" />
		<text font-size="50" font-weight="bold" text-anchor="middle" x="2454.08945378025" y="0">
			<textPath xlink:href="#cp7">4000000bp</textPath>
		</text>
		<line stroke="black" stroke-width="9.60000000000001" x1="1363.42777641734" x2="1327.03204971232" y1="1396.58519466578" y2="1365.29060922975" />
		<text font-size="50" font-weight="bold" text-anchor="middle" x="2685.45241181662" y="0">
			<textPath xlink:href="#cp7">4500000bp</textPath>
		</text>
		<line stroke="black" stroke-width="9.60000000000001" x1="1520.36139194728" x2="1508.10929840071" y1="1298.33513279232" y2="1251.92515322191" />
		<text font-size="50" font-weight="bold" text-anchor="middle" x="2916.815369853" y="0">
			<textPath xlink:href="#cp7">5000000bp</textPath>
		</text>
	</g>
	<!-- 
	Generated using the Perl SVG Module V2.59
	by Ronan Oger
	Info: http://www.roitsystems.com/
 -->
</svg>