<?xml version="1.0" encoding="UTF-8" standalone="yes"?>
<!DOCTYPE svg PUBLIC "-//W3C//DTD SVG 1.0//EN" "http://www.w3.org/TR/2001/REC-SVG-20010904/DTD/svg10.dtd">
<svg height="3200" printerror="1" raiseerror="0" width="3200" xml_xlink="http://www.w3.org/1999/xlink" xmlns="http://www.w3.org/2000/svg" xmlns:svg="http://www.w3.org/2000/svg" xmlns:xlink="http://www.w3.org/1999/xlink">
	<defs >
		<marker id="triangle-right" markerHeight="6" markerUnits="strokeWidth" markerWidth="4" orient="auto" refX="10" refY="5" viewBox="0 0 10 10">
			<rect fill="white" height="10" stroke="none" width="10" x1="0" y1="0" />
			<path d="M 0 0 L 10 5 L 0 10 z" />
		</marker>
		<marker id="triangle-left" markerHeight="6" markerUnits="strokeWidth" markerWidth="4" orient="auto" refX="0" refY="5" viewBox="0 0 10 10">
			<rect fill="white" height="10" stroke="none" width="10" x1="0" y1="0" />
			<path d="M 10 10 L 0 5 L 10 0 z" />
		</marker>
	</defs>
	<g id="t1">
		<circle cx="1600" cy="1600" fill="none" r="1176" stroke="black" stroke-width="4.8" />
		<line stroke="black" stroke-width="2.4" x1="1600" x2="1600" y1="424" y2="400" />
		<line stroke="black" stroke-width="2.4" x1="1741.36710828678" x2="1744.25215131304" y1="432.527798748667" y2="408.701835457823" />
		<line stroke="black" stroke-width="2.4" x1="1880.68396104779" x2="1886.41220515081" y1="457.987515825453" y2="434.681138597401" />
		<line stroke="black" stroke-width="2.4" x1="2015.93003773433" x2="2024.41840585135" y1="500.009907449016" y2="477.561130050017" />
		<line stroke="black" stroke-width="2.4" x1="2145.14385650364" x2="2156.26924133025" y1="557.98552039027" y2="536.719918765582" />
		<line stroke="black" stroke-width="2.4" x1="2266.45142170606" x2="2280.05247112864" y1="631.07353090858" y2="611.299521335285" />
		<line stroke="black" stroke-width="2.4" x1="2378.09340255462" x2="2393.97285974961" y1="718.21393926816" y2="700.218305375674" />
		<line stroke="black" stroke-width="2.4" x1="2478.45064880343" x2="2496.37821306472" y1="818.142942976892" y2="802.186676507033" />
		<line stroke="black" stroke-width="2.4" x1="2566.0676733794" x2="2585.78334018306" y1="929.411265788546" y2="915.725781416883" />
		<line stroke="black" stroke-width="2.4" x1="2639.67376139725" x2="2660.8915932625" y1="1050.40517664183" y2="1039.18895575697" />
		<line stroke="black" stroke-width="2.4" x1="2698.20139941261" x2="2720.61367287001" y1="1179.36989369733" y2="1170.78560581361" />
		<line stroke="black" stroke-width="2.4" x1="2740.80175763257" x2="2764.08342615568" y1="1314.43503404226" y2="1308.60717759415" />
		<line stroke="black" stroke-width="2.4" x1="2766.85700054434" x2="2790.67040871871" y1="1453.64173996433" y2="1450.65483669829" />
		<line stroke="black" stroke-width="2.4" x1="2775.9892474202" x2="2799.9890279798" y1="1594.97108838093" y2="1594.86845753156" />
		<line stroke="black" stroke-width="2.4" x1="2768.06605274403" x2="2791.90413545309" y1="1736.37337139994" y2="1739.15650142851" />
		<line stroke="black" stroke-width="2.4" x1="2743.20232707644" x2="2766.5329868127" y1="1875.79782335436" y2="1881.42635036159" />
		<line stroke="black" stroke-width="2.4" x1="2701.75867050016" x2="2724.24354132669" y1="2011.22236317803" y2="2019.61465630411" />
		<line stroke="black" stroke-width="2.4" x1="2644.33614281567" x2="2665.64912532211" y1="2140.68292076677" y2="2151.71726608854" />
		<line stroke="black" stroke-width="2.4" x1="2571.76754633545" x2="2591.59953707699" y1="2262.30192200323" y2="2275.8182877584" />
		<line stroke="black" stroke-width="2.4" x1="2485.10534770279" x2="2503.16872214571" y1="2374.31551932524" y2="2390.11787686249" />
		<line stroke="black" stroke-width="2.4" x1="2385.60641390589" x2="2401.63919786315" y1="2475.09917291124" y2="2492.95833970535" />
		<line stroke="black" stroke-width="2.4" x1="2274.71378386161" x2="2288.48345292001" y1="2563.19121147732" y2="2582.84817497686" />
		<line stroke="black" stroke-width="2.4" x1="2154.03573993686" x2="2165.3425917723" y1="2637.31403098224" y2="2658.48370508392" />
		<line stroke="black" stroke-width="2.4" x1="2025.3224829343" x2="2034.00253360642" y1="2696.39262379433" y2="2718.7679834636" />
		<line stroke="black" stroke-width="2.4" x1="1890.44074882672" x2="1896.36811104768" y1="2739.5701695907" y2="2762.82670366398" />
		<line stroke="black" stroke-width="2.4" x1="1751.34673537492" x2="1754.43544426012" y1="2766.22046187303" y2="2790.02087946228" />
		<line stroke="black" stroke-width="2.4" x1="1610.05773127593" x2="1610.26299109789" y1="2775.95698987743" y2="2799.95611211982" />
		<line stroke="black" stroke-width="2.4" x1="1468.62285930588" x2="1465.94169316926" y1="2768.63854416284" y2="2792.48831037024" />
		<line stroke="black" stroke-width="2.4" x1="1329.09335777122" x2="1323.56465078696" y1="2744.37126457996" y2="2767.72578018363" />
		<line stroke="black" stroke-width="2.4" x1="1193.4928312784" x2="1185.19676661062" y1="2703.50710091868" y2="2726.02765399865" />
		<line stroke="black" stroke-width="2.4" x1="1063.78790227666" x2="1052.84479824149" y1="2646.63870855952" y2="2667.99868220359" />
		<line stroke="black" stroke-width="2.4" x1="941.859689016383" x2="928.428254098349" y1="2574.59085315756" y2="2594.48046240568" />
		<line stroke="black" stroke-width="2.4" x1="829.476523580008" x2="813.751554673477" y1="2488.40844901748" y2="2506.53923369131" />
		<line stroke="black" stroke-width="2.4" x1="728.268305657293" x2="710.477862915605" y1="2389.34140463959" y2="2405.45041289754" />
		<line stroke="black" stroke-width="2.4" x1="639.702864013812" x2="620.1049632794" y1="2278.82649522299" y2="2292.68009716631" />
		<line stroke="black" stroke-width="2.4" x1="565.064668483614" x2="543.943539268994" y1="2158.46652502999" y2="2169.86380105101" />
		<line stroke="black" stroke-width="2.4" x1="505.436201227322" x2="483.098164517676" y1="2030.00708182113" y2="2038.78273655217" />
		<line stroke="black" stroke-width="2.4" x1="461.68225742938" x2="438.451283091204" y1="1895.31122049277" y2="1901.33798009466" />
		<line stroke="black" stroke-width="2.4" x1="434.437403122387" x2="410.650411349375" y1="1756.33244308177" y2="1759.52290110385" />
		<line stroke="black" stroke-width="2.4" x1="424.096772038431" x2="400.098746977991" y1="1615.08636701008" y2="1615.3942520511" />
		<line stroke="black" stroke-width="2.4" x1="430.810334961216" x2="406.949321388996" y1="1473.6214924661" y2="1471.04233925112" />
		<line stroke="black" stroke-width="2.4" x1="454.480724690926" x2="431.102780296863" y1="1333.98949288539" y2="1328.5607070259" />
		<line stroke="black" stroke-width="2.4" x1="494.764648166476" x2="472.20882465967" y1="1198.21545940961" y2="1190.01577490777" />
		<line stroke="black" stroke-width="2.4" x1="551.077865265067" x2="529.671291086803" y1="1068.26853087003" y2="1057.41686823473" />
		<line stroke="black" stroke-width="2.4" x1="622.603662071211" x2="602.656798031848" y1="946.033335250647" y2="932.687076786374" />
		<line stroke="black" stroke-width="2.4" x1="708.304695726915" x2="690.106832374403" y1="833.282656817175" y2="817.635364099158" />
		<line stroke="black" stroke-width="2.4" x1="806.938039076447" x2="790.753101098415" y1="731.651725322098" y2="713.930331961325" />
		<line stroke="black" stroke-width="2.4" x1="917.073206912338" x2="903.135925420754" y1="642.614500170907" y2="623.076020582558" />
		<line stroke="black" stroke-width="2.4" x1="1037.11290238688" x2="1025.62541059885" y1="567.462293501747" y2="546.390095409946" />
		<line stroke="black" stroke-width="2.4" x1="1165.31618270268" x2="1156.44508439049" y1="507.285042209162" y2="484.984736948125" />
		<line stroke="black" stroke-width="2.4" x1="1299.82370810899" x2="1293.6976613357" y1="462.955500524909" y2="439.750510739703" />
		<line stroke="black" stroke-width="2.4" x1="1438.68470801592" x2="1435.39255919992" y1="435.116582411746" y2="411.343451440557" />
		<line stroke="black" stroke-width="2.4" x1="1579.88527313564" x2="1579.47476850576" y1="424.17203734425" y2="400.175548310459" />
		<path d="M352,1600 A1248,1248 -90,1,1 1600,2848 A1248,1248 -90,1,1 1600,352 " fill="none" id="cp1" stroke="none" />
		<line stroke="black" stroke-width="9.60000000000001" x1="1600" x2="1600" y1="424" y2="376" />
		<text font-size="50" font-weight="bold" text-anchor="middle" x="1960.35381584003" y="0">
			<textPath xlink:href="#cp1">0.0Mb</textPath>
		</text>
		<line stroke="black" stroke-width="9.60000000000001" x1="2266.45142170606" x2="2293.65352055121" y1="631.07353090858" y2="591.525511761991" />
		<text font-size="50" font-weight="bold" text-anchor="middle" x="2712.28342945825" y="0">
			<textPath xlink:href="#cp1">0.5Mb</textPath>
		</text>
		<line stroke="black" stroke-width="9.60000000000001" x1="2698.20139941261" x2="2743.02594632741" y1="1179.36989369733" y2="1162.20131792988" />
		<text font-size="50" font-weight="bold" text-anchor="middle" x="3464.21304307647" y="0">
			<textPath xlink:href="#cp1">1.0Mb</textPath>
		</text>
		<line stroke="black" stroke-width="9.60000000000001" x1="2743.20232707644" x2="2789.86364654895" y1="1875.79782335436" y2="1887.05487736883" />
		<text font-size="50" font-weight="bold" text-anchor="middle" x="4216.14265669469" y="0">
			<textPath xlink:href="#cp1">1.5Mb</textPath>
		</text>
		<line stroke="black" stroke-width="9.60000000000001" x1="2385.60641390589" x2="2417.67198182041" y1="2475.09917291124" y2="2510.81750649945" />
		<text font-size="50" font-weight="bold" text-anchor="middle" x="4968.07227031292" y="0">
			<textPath xlink:href="#cp1">2.0Mb</textPath>
		</text>
		<line stroke="black" stroke-width="9.60000000000001" x1="1751.34673537492" x2="1757.52415314533" y1="2766.22046187303" y2="2813.82129705153" />
		<text font-size="50" font-weight="bold" text-anchor="middle" x="5720.00188393114" y="0">
			<textPath xlink:href="#cp1">2.5Mb</textPath>
		</text>
		<line stroke="black" stroke-width="9.60000000000001" x1="1063.78790227666" x2="1041.90169420632" y1="2646.63870855952" y2="2689.35865584766" />
		<text font-size="50" font-weight="bold" text-anchor="middle" x="6471.93149754936" y="0">
			<textPath xlink:href="#cp1">3.0Mb</textPath>
		</text>
		<line stroke="black" stroke-width="9.60000000000001" x1="565.064668483614" x2="522.822410054374" y1="2158.46652502999" y2="2181.26107707203" />
		<text font-size="50" font-weight="bold" text-anchor="middle" x="7223.86111116758" y="0">
			<textPath xlink:href="#cp1">3.5Mb</textPath>
		</text>
		<line stroke="black" stroke-width="9.60000000000001" x1="430.810334961216" x2="383.088307816776" y1="1473.6214924661" y2="1468.46318603614" />
		<text font-size="50" font-weight="bold" text-anchor="middle" x="7975.7907247858" y="0">
			<textPath xlink:href="#cp1">4.0Mb</textPath>
		</text>
		<line stroke="black" stroke-width="9.60000000000001" x1="708.304695726915" x2="671.908969021891" y1="833.282656817175" y2="801.988071381141" />
		<text font-size="50" font-weight="bold" text-anchor="middle" x="8727.72033840402" y="0">
			<textPath xlink:href="#cp1">4.5Mb</textPath>
		</text>
		<line stroke="black" stroke-width="9.60000000000001" x1="1299.82370810899" x2="1287.57161456241" y1="462.955500524909" y2="416.545520954497" />
		<text font-size="50" font-weight="bold" text-anchor="middle" x="9479.64995202224" y="0">
			<textPath xlink:href="#cp1">5.0Mb</textPath>
		</text>
	</g>
	<g id="t2" />
	<g id="t3">
		<circle cx="1600" cy="1600" fill="none" r="1032" stroke="black" stroke-width="4.8" />
		<line stroke="black" stroke-width="2.4" x1="1600" x2="1600" y1="568" y2="544" />
		<line stroke="black" stroke-width="2.4" x1="1846.3144964297" x2="1852.04274053271" y1="597.825779193765" y2="574.519401965713" />
		<line stroke="black" stroke-width="2.4" x1="2078.39154754401" x2="2089.51693237062" y1="685.5791301384" y2="664.313528513712" />
		<line stroke="black" stroke-width="2.4" x1="2282.81665938467" x2="2298.69611657966" y1="826.18774262308" y2="808.192108730593" />
		<line stroke="black" stroke-width="2.4" x1="2447.77367255743" x2="2467.48933936109" y1="1011.52417201852" y2="997.838687646857" />
		<line stroke="black" stroke-width="2.4" x1="2563.72775866821" x2="2586.14003212561" y1="1230.8756209997" y2="1222.29133311597" />
		<line stroke="black" stroke-width="2.4" x1="2623.97655149809" x2="2647.78995967247" y1="1471.56315956053" y2="1468.5762562945" />
		<line stroke="black" stroke-width="2.4" x1="2625.03755648966" x2="2648.87563919872" y1="1719.67459122852" y2="1722.45772125709" />
		<line stroke="black" stroke-width="2.4" x1="2566.84944554096" x2="2589.33431636749" y1="1960.86860442153" y2="1969.26089754761" />
		<line stroke="black" stroke-width="2.4" x1="2452.77560188621" x2="2472.60759262775" y1="2181.20372747222" y2="2194.72009322739" />
		<line stroke="black" stroke-width="2.4" x1="2289.40971016231" x2="2305.44249411957" y1="2367.9441721466" y2="2385.8033389407" />
		<line stroke="black" stroke-width="2.4" x1="2086.19462892418" x2="2097.50148075963" y1="2510.29598637217" y2="2531.46566047385" />
		<line stroke="black" stroke-width="2.4" x1="1854.876575501" x2="1860.80393772195" y1="2600.03096515102" y2="2623.2874992243" />
		<line stroke="black" stroke-width="2.4" x1="1608.82617234419" x2="1609.03143216614" y1="2631.96225642305" y2="2655.96137866545" />
		<line stroke="black" stroke-width="2.4" x1="1362.26559967678" x2="1356.73689269252" y1="2604.24417095792" y2="2627.59868656159" />
		<line stroke="black" stroke-width="2.4" x1="1129.44652648768" x2="1118.50342245251" y1="2518.47886669509" y2="2539.83884033916" />
		<line stroke="black" stroke-width="2.4" x1="923.826337019191" x2="908.10136811266" y1="2379.62374097453" y2="2397.75452564835" />
		<line stroke="black" stroke-width="2.4" x1="757.290268420284" x2="737.692367685872" y1="2195.70488356303" y2="2209.55848550636" />
		<line stroke="black" stroke-width="2.4" x1="639.464421485201" x2="617.126384775555" y1="1977.35315343487" y2="1986.12880816591" />
		<line stroke="black" stroke-width="2.4" x1="577.159353760462" x2="553.37236198745" y1="1737.18969494931" y2="1740.38015297139" />
		<line stroke="black" stroke-width="2.4" x1="573.976416394537" x2="550.115402822317" y1="1489.09641175596" y2="1486.51725854098" />
		<line stroke="black" stroke-width="2.4" x1="630.099589207316" x2="607.543765700509" y1="1247.41356642068" y2="1239.21388191884" />
		<line stroke="black" stroke-width="2.4" x1="742.284846307389" x2="722.337982268027" y1="1026.11088603628" y2="1012.76462757201" />
		<line stroke="black" stroke-width="2.4" x1="904.047666944637" x2="887.862728966605" y1="837.980085486739" y2="820.258692125966" />
		<line stroke="black" stroke-width="2.4" x1="1106.03785311501" x2="1094.55036132699" y1="693.895482052553" y2="672.823283960752" />
		<line stroke="black" stroke-width="2.4" x1="1336.5799887487" x2="1330.45394197542" y1="602.185439236144" y2="578.980449450938" />
		<line stroke="black" stroke-width="2.4" x1="1582.34830091495" x2="1581.93779628506" y1="568.150971546995" y2="544.154482513204" />
		<path d="M496,1600 A1104,1104 -90,1,1 1600,2704 A1104,1104 -90,1,1 1600,496 " fill="none" id="cp2" stroke="none" />
		<line stroke="black" stroke-width="9.60000000000001" x1="1600" x2="1600" y1="568" y2="520" />
		<text font-size="50" font-weight="bold" text-anchor="middle" x="1734.15914478157" y="0">
			<textPath xlink:href="#cp2">0.0Mb</textPath>
		</text>
		<line stroke="black" stroke-width="9.60000000000001" x1="2563.72775866821" x2="2608.55230558301" y1="1230.8756209997" y2="1213.70704523225" />
		<text font-size="50" font-weight="bold" text-anchor="middle" x="3064.49615349073" y="0">
			<textPath xlink:href="#cp2">1.0Mb</textPath>
		</text>
		<line stroke="black" stroke-width="9.60000000000001" x1="2289.40971016231" x2="2321.47527807683" y1="2367.9441721466" y2="2403.66250573481" />
		<text font-size="50" font-weight="bold" text-anchor="middle" x="4394.83316219989" y="0">
			<textPath xlink:href="#cp2">2.0Mb</textPath>
		</text>
		<line stroke="black" stroke-width="9.60000000000001" x1="1129.44652648768" x2="1107.56031841734" y1="2518.47886669509" y2="2561.19881398323" />
		<text font-size="50" font-weight="bold" text-anchor="middle" x="5725.17017090905" y="0">
			<textPath xlink:href="#cp2">3.0Mb</textPath>
		</text>
		<line stroke="black" stroke-width="9.60000000000001" x1="573.976416394537" x2="526.254389250097" y1="1489.09641175596" y2="1483.93810532601" />
		<text font-size="50" font-weight="bold" text-anchor="middle" x="7055.50717961821" y="0">
			<textPath xlink:href="#cp2">4.0Mb</textPath>
		</text>
		<line stroke="black" stroke-width="9.60000000000001" x1="1336.5799887487" x2="1324.32789520213" y1="602.185439236144" y2="555.775459665733" />
		<text font-size="50" font-weight="bold" text-anchor="middle" x="8385.84418832737" y="0">
			<textPath xlink:href="#cp2">5.0Mb</textPath>
		</text>
	</g>
	<g id="t4" />
	<g id="t5">
		<circle cx="1600" cy="1600" fill="none" r="888" stroke="black" stroke-width="4.8" />
		<line stroke="black" stroke-width="2.4" x1="1600" x2="1600" y1="712" y2="688" />
		<line stroke="black" stroke-width="2.4" x1="1653.47031941201" x2="1654.9154631799" y1="713.611301436002" y2="689.654850123462" />
		<line stroke="black" stroke-width="2.4" x1="1706.74659197165" x2="1709.63163499791" y1="718.439358238789" y2="694.613394947945" />
		<line stroke="black" stroke-width="2.4" x1="1759.6354750337" x2="1763.9499473319" y1="726.466649113632" y2="702.857639630217" />
		<line stroke="black" stroke-width="2.4" x1="1811.9450318116" x2="1817.67327591462" y1="737.664042562076" y2="714.357665334025" />
		<line stroke="black" stroke-width="2.4" x1="1863.48542792709" x2="1870.6066557089" y1="751.990902601818" y2="729.071737807273" />
		<line stroke="black" stroke-width="2.4" x1="1914.06962033" x2="1922.55798844703" y1="769.395236237012" y2="746.946458838013" />
		<line stroke="black" stroke-width="2.4" x1="1963.51403608822" x2="1973.33873976628" y1="789.813882143832" y2="767.916960039611" />
		<line stroke="black" stroke-width="2.4" x1="2011.63923858438" x2="2022.76462341099" y1="813.172739886531" y2="791.907138261842" />
		<line stroke="black" stroke-width="2.4" x1="2058.27057870161" x2="2070.65627001787" y1="839.387038832173" y2="818.829931773583" />
		<line stroke="black" stroke-width="2.4" x1="2103.23882863519" x2="2116.83987805776" y1="868.361645788111" y2="848.587636214817" />
		<line stroke="black" stroke-width="2.4" x1="2146.38079602996" x2="2161.14784457131" y1="899.991410245798" y2="881.07225917136" />
		<line stroke="black" stroke-width="2.4" x1="2187.53991621471" x2="2203.4193734097" y1="934.161545977999" y2="916.165912085512" />
		<line stroke="black" stroke-width="2.4" x1="2226.56682038436" x2="2243.50105877313" y1="970.748047604595" y2="953.741238080395" />
		<line stroke="black" stroke-width="2.4" x1="2263.3198776679" x2="2281.24744192919" y1="1009.6181406152" y2="993.661874145345" />
		<line stroke="black" stroke-width="2.4" x1="2297.66570911491" x2="2316.52153909098" y1="1050.63076321549" y2="1035.7829460051" />
		<line stroke="black" stroke-width="2.4" x1="2329.47967173546" x2="2349.19533853912" y1="1093.63707824849" y2="1079.95159387683" />
		<line stroke="black" stroke-width="2.4" x1="2358.64631083664" x2="2379.15026518358" y1="1138.4810133332" y2="1126.00752720707" />
		<line stroke="black" stroke-width="2.4" x1="2385.05977901425" x2="2406.2776108795" y1="1184.99982726016" y2="1173.7836063753" />
		<line stroke="black" stroke-width="2.4" x1="2408.62422027907" x2="2430.47892893526" y1="1233.02470058864" y2="1223.10644925319" />
		<line stroke="black" stroke-width="2.4" x1="2429.25411792381" x2="2451.66639138121" y1="1282.38134830207" y2="1273.79706041834" />
		<line stroke="black" stroke-width="2.4" x1="2446.87460486804" x2="2469.76310770231" y1="1332.89065229834" y2="1325.67148073884" />
		<line stroke="black" stroke-width="2.4" x1="2461.4217353552" x2="2484.70340387832" y1="1384.36931141967" y2="1378.54145497155" />
		<line stroke="black" stroke-width="2.4" x1="2472.84271701539" x2="2496.4330607185" y1="1436.63050666296" y2="1432.21511495115" />
		<line stroke="black" stroke-width="2.4" x1="2481.09610245185" x2="2504.90951062622" y1="1489.48457915674" y2="1486.4976758907" />
		<line stroke="black" stroke-width="2.4" x1="2486.15193965602" x2="2510.10199207916" y1="1542.73971844399" y2="1541.1921432668" />
		<line stroke="black" stroke-width="2.4" x1="2487.99188070505" x2="2511.99166126464" y1="1596.20265857336" y2="1596.10002772399" />
		<line stroke="black" stroke-width="2.4" x1="2486.60924834746" x2="2510.57166046496" y1="1649.6793794723" y2="1651.02206540399" />
		<line stroke="black" stroke-width="2.4" x1="2482.00906023529" x2="2505.84714294435" y1="1702.9758110571" y2="1705.75894108567" />
		<line stroke="black" stroke-width="2.4" x1="2474.20801071473" x2="2497.83525424756" y1="1755.89853752426" y2="1760.1120115114" />
		<line stroke="black" stroke-width="2.4" x1="2463.2344102414" x2="2486.56506997765" y1="1808.25549926758" y2="1813.88402627481" />
		<line stroke="black" stroke-width="2.4" x1="2449.12808264007" x2="2472.077490279" y1="1859.85668987346" y2="1866.87984365382" />
		<line stroke="black" stroke-width="2.4" x1="2431.94022058175" x2="2454.42509140829" y1="1910.51484566504" y2="1918.90713879112" />
		<line stroke="black" stroke-width="2.4" x1="2411.73319980251" x2="2433.6719349323" y1="1960.04612529284" y2="1969.7771016521" />
		<line stroke="black" stroke-width="2.4" x1="2388.58035273837" x2="2409.89333524481" y1="2008.27077690552" y2="2019.30512222729" />
		<line stroke="black" stroke-width="2.4" x1="2362.56570239771" x2="2383.1755862463" y1="2055.01379047967" y2="2067.31146049264" />
		<line stroke="black" stroke-width="2.4" x1="2333.78365743697" x2="2353.61564817851" y1="2100.10553294122" y2="2113.62189869638" />
		<line stroke="black" stroke-width="2.4" x1="2302.33866954618" x2="2321.32079575013" y1="2143.38236377352" y2="2158.06837360524" />
		<line stroke="black" stroke-width="2.4" x1="2268.34485438782" x2="2286.40822883074" y1="2184.68722887824" y2="2200.48958641549" />
		<line stroke="black" stroke-width="2.4" x1="2231.92557746455" x2="2249.00464712576" y1="2223.87023053363" y2="2240.73158811562" />
		<line stroke="black" stroke-width="2.4" x1="2193.21300641873" x2="2209.24579037599" y1="2260.78917138196" y2="2278.64833817606" />
		<line stroke="black" stroke-width="2.4" x1="2152.34763138845" x2="2167.2759457503" y1="2295.31007047185" y2="2314.10223453866" />
		<line stroke="black" stroke-width="2.4" x1="2109.47775516081" x2="2123.24742421921" y1="2327.30764948287" y2="2346.96461298241" />
		<line stroke="black" stroke-width="2.4" x1="2064.75895497258" x2="2077.32000780967" y1="2356.66578736771" y2="2377.11621405332" />
		<line stroke="black" stroke-width="2.4" x1="2018.3535179115" x2="2029.66036974695" y1="2383.2779417621" y2="2404.44761586378" />
		<line stroke="black" stroke-width="2.4" x1="1970.42985196717" x2="1980.4414695879" y1="2407.04753563317" y2="2428.85963119083" />
		<line stroke="black" stroke-width="2.4" x1="1921.16187486875" x2="1929.84192554088" y1="2427.88830776306" y2="2450.26366743233" />
		<line stroke="black" stroke-width="2.4" x1="1870.72838292762" x2="1878.04536624999" y1="2445.72462579577" y2="2468.58204811457" />
		<line stroke="black" stroke-width="2.4" x1="1819.31240217528" x2="1825.23976439623" y1="2460.49176071134" y2="2483.74829478462" />
		<line stroke="black" stroke-width="2.4" x1="1767.10052415141" x2="1771.61675453388" y1="2472.13612173119" y2="2495.70736826447" />
		<line stroke="black" stroke-width="2.4" x1="1714.28222875249" x2="1717.37093763769" y1="2480.61545080209" y2="2504.41586839133" />
		<line stroke="black" stroke-width="2.4" x1="1661.0491965984" x2="1662.69917488484" y1="2485.89897595307" y2="2509.84219151936" />
		<line stroke="black" stroke-width="2.4" x1="1607.59461341244" x2="1607.7998732344" y1="2487.96752296867" y2="2511.96664521107" />
		<line stroke="black" stroke-width="2.4" x1="1554.11246893933" x2="1552.87226539715" y1="2486.81358497328" y2="2510.78151970228" />
		<line stroke="black" stroke-width="2.4" x1="1500.79685294525" x2="1498.11568680864" y1="2482.44134967398" y2="2506.29111588138" />
		<line stroke="black" stroke-width="2.4" x1="1447.84125085502" x2="1443.72885222948" y1="2474.86668416316" y2="2498.51172968108" />
		<line stroke="black" stroke-width="2.4" x1="1395.43784158235" x2="1389.90913459809" y1="2464.11707733588" y2="2487.47159293956" />
		<line stroke="black" stroke-width="2.4" x1="1343.77680010159" x2="1336.85184875299" y1="2450.23154013117" y2="2473.21077094553" />
		<line stroke="black" stroke-width="2.4" x1="1293.04560729186" x2="1284.74954262407" y1="2433.260463959" y2="2455.78101703898" />
		<line stroke="black" stroke-width="2.4" x1="1243.42836955815" x2="1233.79129846513" y1="2413.26543782706" y2="2435.24558479536" />
		<line stroke="black" stroke-width="2.4" x1="1195.1051506987" x2="1184.16204666353" y1="2390.31902483066" y2="2411.67899847473" />
		<line stroke="black" stroke-width="2.4" x1="1148.2513184431" x2="1136.04189461724" y1="2364.50449881711" y2="2385.16678256892" />
		<line stroke="black" stroke-width="2.4" x1="1103.03690803278" x2="1089.60547311475" y1="2335.9155421802" y2="2355.80515142831" />
		<line stroke="black" stroke-width="2.4" x1="1059.62600515337" x2="1045.02130258995" y1="2304.65590588137" y2="2323.70066009438" />
		<line stroke="black" stroke-width="2.4" x1="1018.17615045837" x2="1002.45118155184" y1="2270.83903293157" y2="2288.9698176054" />
		<line stroke="black" stroke-width="2.4" x1="978.837767845053" x2="962.049599408433" y1="2234.58764670003" y2="2251.73866417841" />
		<line stroke="black" stroke-width="2.4" x1="941.753618557548" x2="923.96317581586" y1="2196.03330554418" y2="2212.14231380213" />
		<line stroke="black" stroke-width="2.4" x1="907.058283098109" x2="888.330128587247" y1="2155.31592537677" y2="2170.32446390047" />
		<line stroke="black" stroke-width="2.4" x1="874.877672826756" x2="855.279772092344" y1="2112.58327190307" y2="2126.4368738464" />
		<line stroke="black" stroke-width="2.4" x1="845.328573021734" x2="824.932047968268" y1="2067.99042437062" y2="2080.63881421847" />
		<line stroke="black" stroke-width="2.4" x1="818.518219059056" x2="797.397089844436" y1="2021.69921277775" y2="2033.09648879877" />
		<line stroke="black" stroke-width="2.4" x1="794.543907249169" x2="772.774823661309" y1="1973.87763058328" y2="1983.98243140985" />
		<line stroke="black" stroke-width="2.4" x1="773.49264174308" x2="751.154605033434" y1="1924.69922504861" y2="1933.47487977965" />
		<line stroke="black" stroke-width="2.4" x1="755.440818789302" x2="732.614894972796" y1="1874.34246742478" y2="1881.75712870653" />
		<line stroke="black" stroke-width="2.4" x1="740.453949487491" x2="717.222975149315" y1="1822.99010527005" y2="1829.01686487194" />
		<line stroke="black" stroke-width="2.4" x1="728.586422044916" x2="705.034703721806" y1="1770.82849924857" y2="1775.44548571475" />
		<line stroke="black" stroke-width="2.4" x1="719.881304398537" x2="696.094312625525" y1="1718.04694681685" y2="1721.23740483893" />
		<line stroke="black" stroke-width="2.4" x1="714.370187918994" x2="690.43424705194" y1="1664.83699525242" y2="1666.58934647546" />
		<line stroke="black" stroke-width="2.4" x1="712.073072763713" x2="688.075047703273" y1="1611.39174651782" y2="1611.69963155884" />
		<line stroke="black" stroke-width="2.4" x1="712.998295295191" x2="689.025276249116" y1="1557.90515648249" y2="1556.76745800904" />
		<line stroke="black" stroke-width="2.4" x1="717.142497827857" x2="693.281484255637" y1="1504.57133104583" y2="1501.99217783085" />
		<line stroke="black" stroke-width="2.4" x1="724.490640813305" x2="700.828225700151" y1="1451.58382171575" y2="1447.57257365401" />
		<line stroke="black" stroke-width="2.4" x1="735.016057419679" x2="711.638113025616" y1="1399.13492319917" y2="1393.70613733969" />
		<line stroke="black" stroke-width="2.4" x1="748.68055030713" x2="725.671916531647" y1="1347.41497555352" y2="1340.58835327118" />
		<line stroke="black" stroke-width="2.4" x1="765.434530248156" x2="742.878706741349" y1="1296.61167343175" y2="1288.4119889299" />
		<line stroke="black" stroke-width="2.4" x1="785.217196089742" x2="763.196039227302" y1="1246.9093849277" y2="1237.36639533115" />
		<line stroke="black" stroke-width="2.4" x1="807.956755404235" x2="786.550181225971" y1="1198.4884824937" y2="1187.63681985839" />
		<line stroke="black" stroke-width="2.4" x1="833.570685028171" x2="812.856379218122" y1="1151.52468835864" y2="1139.40373398996" />
		<line stroke="black" stroke-width="2.4" x1="861.966030543568" x2="842.019166504205" y1="1106.18843682192" y2="1092.84217835764" />
		<line stroke="black" stroke-width="2.4" x1="893.039743614829" x2="873.932709658473" y1="1062.64425573759" y2="1048.12112751428" />
		<line stroke="black" stroke-width="2.4" x1="926.679055957058" x2="908.481192604546" y1="1021.05016943338" y2="1005.40287671536" />
		<line stroke="black" stroke-width="2.4" x1="962.761888578627" x2="945.53923691859" y1="981.557125231342" y2="964.842452940298" />
		<line stroke="black" stroke-width="2.4" x1="1001.15729481283" x2="984.972356834795" y1="944.30844565138" y2="926.587052290607" />
		<line stroke="black" stroke-width="2.4" x1="1041.72593553083" x2="1026.63744730193" y1="909.439308285599" y2="890.775505806831" />
		<line stroke="black" stroke-width="2.4" x1="1084.32058481136" x2="1070.38330331977" y1="877.076255231093" y2="857.537775642744" />
		<line stroke="black" stroke-width="2.4" x1="1128.786664232" x2="1116.0511686707" y1="847.336733861421" y2="826.994483425243" />
		<line stroke="black" stroke-width="2.4" x1="1174.96280384315" x2="1163.47531205513" y1="820.32867060336" y2="799.256472511559" />
		<line stroke="black" stroke-width="2.4" x1="1222.68142778881" x2="1212.48362853986" y1="796.150079265719" y2="774.42440573236" />
		<line stroke="black" stroke-width="2.4" x1="1271.76936244896" x2="1262.89826413677" y1="774.888705341612" y2="752.588400080575" />
		<line stroke="black" stroke-width="2.4" x1="1322.04846489656" x2="1314.53626124512" y1="756.62170757504" y2="733.827699671662" />
		<line stroke="black" stroke-width="2.4" x1="1373.33626938842" x2="1367.21022261513" y1="741.41537794738" y2="718.210388162174" />
		<line stroke="black" stroke-width="2.4" x1="1425.44664954384" x2="1420.72899142341" y1="729.324901099997" y2="705.793141670267" />
		<line stroke="black" stroke-width="2.4" x1="1478.19049380794" x2="1474.89834499194" y1="720.394154066012" y2="696.621023094823" />
		<line stroke="black" stroke-width="2.4" x1="1531.37639174826" x2="1529.52169963335" y1="714.65554703804" y2="690.727318579609" />
		<line stroke="black" stroke-width="2.4" x1="1584.81132869426" x2="1584.40082406437" y1="712.12990574974" y2="688.133416715949" />
		<path d="M640,1600 A960,960 -90,1,1 1600,2560 A960,960 -90,1,1 1600,640 " fill="none" id="cp3" stroke="none" />
		<line stroke="black" stroke-width="9.60000000000001" x1="1600" x2="1600" y1="712" y2="664" />
		<text font-size="50" font-weight="bold" text-anchor="middle" x="1507.9644737231" y="0">
			<textPath xlink:href="#cp3">0.0Mb</textPath>
		</text>
		<line stroke="black" stroke-width="9.60000000000001" x1="2429.25411792381" x2="2474.07866483861" y1="1282.38134830207" y2="1265.21277253461" />
		<text font-size="50" font-weight="bold" text-anchor="middle" x="2664.77926390498" y="0">
			<textPath xlink:href="#cp3">1.0Mb</textPath>
		</text>
		<line stroke="black" stroke-width="9.60000000000001" x1="2193.21300641873" x2="2225.27857433326" y1="2260.78917138196" y2="2296.50750497017" />
		<text font-size="50" font-weight="bold" text-anchor="middle" x="3821.59405408686" y="0">
			<textPath xlink:href="#cp3">2.0Mb</textPath>
		</text>
		<line stroke="black" stroke-width="9.60000000000001" x1="1195.1051506987" x2="1173.21894262836" y1="2390.31902483066" y2="2433.0389721188" />
		<text font-size="50" font-weight="bold" text-anchor="middle" x="4978.40884426874" y="0">
			<textPath xlink:href="#cp3">3.0Mb</textPath>
		</text>
		<line stroke="black" stroke-width="9.60000000000001" x1="717.142497827857" x2="669.420470683417" y1="1504.57133104583" y2="1499.41302461587" />
		<text font-size="50" font-weight="bold" text-anchor="middle" x="6135.22363445062" y="0">
			<textPath xlink:href="#cp3">4.0Mb</textPath>
		</text>
		<line stroke="black" stroke-width="9.60000000000001" x1="1373.33626938842" x2="1361.08417584185" y1="741.41537794738" y2="695.005398376968" />
		<text font-size="50" font-weight="bold" text-anchor="middle" x="7292.0384246325" y="0">
			<textPath xlink:href="#cp3">5.0Mb</textPath>
		</text>
	</g>
	<g id="t6" />
	<g id="t7" />
	<g id="t8">
		<circle cx="1600" cy="1600" fill="none" r="684" stroke="black" stroke-width="4.8" />
		<line stroke="black" stroke-width="2.4" x1="1600" x2="1600" y1="916" y2="892" />
		<line stroke="black" stroke-width="2.4" x1="1682.22372624843" x2="1685.10876927469" y1="920.960046210959" y2="897.134082920116" />
		<line stroke="black" stroke-width="2.4" x1="1763.25495693596" x2="1768.98320103898" y1="935.768249000518" y2="912.461871772466" />
		<line stroke="black" stroke-width="2.4" x1="1841.91849133527" x2="1850.4068594523" y1="960.20984412851" y2="937.76106672951" />
		<line stroke="black" stroke-width="2.4" x1="1917.07346755824" x2="1928.19885238485" y1="993.930353696382" y2="972.664752071693" />
		<line stroke="black" stroke-width="2.4" x1="1987.62990854332" x2="2001.2309579659" y1="1036.44072716111" y2="1016.66671758782" />
		<line stroke="black" stroke-width="2.4" x1="2052.56453005728" x2="2068.44398725227" y1="1087.12443406413" y2="1069.12880017165" />
		<line stroke="black" stroke-width="2.4" x1="2110.93558144689" x2="2128.86314570819" y1="1145.24640560901" y2="1129.29013913915" />
		<line stroke="black" stroke-width="2.4" x1="2161.89650390434" x2="2181.612170708" y1="1209.96369540762" y2="1196.27821103596" />
		<line stroke="black" stroke-width="2.4" x1="2204.70820815962" x2="2225.92604002487" y1="1280.33770478147" y2="1269.12148389661" />
		<line stroke="black" stroke-width="2.4" x1="2238.7497935359" x2="2261.1620669933" y1="1355.34779531376" y2="1346.76350743003" />
		<line stroke="black" stroke-width="2.4" x1="2263.52755290874" x2="2286.80922143185" y1="1433.90609122866" y2="1428.07823478055" />
		<line stroke="black" stroke-width="2.4" x1="2278.68213296967" x2="2302.49554114404" y1="1514.87325691803" y2="1511.88635365199" />
		<line stroke="black" stroke-width="2.4" x1="2283.99374594848" x2="2307.99352650808" y1="1597.07502079299" y2="1596.97238994362" />
		<line stroke="black" stroke-width="2.4" x1="2279.38535720826" x2="2303.22343991732" y1="1679.31920581425" y2="1682.10233584282" />
		<line stroke="black" stroke-width="2.4" x1="2264.92380248324" x2="2288.25446221949" y1="1760.41301970611" y2="1766.04154671334" />
		<line stroke="black" stroke-width="2.4" x1="2240.81881855622" x2="2263.30368938275" y1="1839.18035409334" y2="1847.57264721942" />
		<line stroke="black" stroke-width="2.4" x1="2207.42000143361" x2="2228.73298394005" y1="1914.47884167047" y2="1925.51318699224" />
		<line stroke="black" stroke-width="2.4" x1="2165.21173613389" x2="2185.04372687543" y1="1985.21642402229" y2="1998.73278977746" />
		<line stroke="black" stroke-width="2.4" x1="2114.80617162305" x2="2132.86954606597" y1="2050.36718981162" y2="2066.16954734887" />
		<line stroke="black" stroke-width="2.4" x1="2056.93434278199" x2="2072.96712673926" y1="2108.98625363205" y2="2126.84542042615" />
		<line stroke="black" stroke-width="2.4" x1="1992.43556816441" x2="2006.20523722281" y1="2160.22345973681" y2="2179.88042323635" />
		<line stroke="black" stroke-width="2.4" x1="1922.24527731021" x2="1933.55212914566" y1="2203.33571189783" y2="2224.50538599951" />
		<line stroke="black" stroke-width="2.4" x1="1847.38144415566" x2="1856.06149482779" y1="2237.69775057425" y2="2260.07311024352" />
		<line stroke="black" stroke-width="2.4" x1="1768.92982329718" x2="1774.85718551813" y1="2262.81122108847" y2="2286.06775516175" />
		<line stroke="black" stroke-width="2.4" x1="1688.02820322827" x2="1691.11691211347" y1="2278.3119012935" y2="2302.11231888275" />
		<line stroke="black" stroke-width="2.4" x1="1605.8499049258" x2="1606.05516474776" y1="2283.9749839083" y2="2307.9741061507" />
		<line stroke="black" stroke-width="2.4" x1="1523.58676510648" x2="1520.90559896986" y1="2279.71833691104" y2="2303.56810311844" />
		<line stroke="black" stroke-width="2.4" x1="1442.43185094857" x2="1436.9031439643" y1="2265.60369470467" y2="2288.95821030834" />
		<line stroke="black" stroke-width="2.4" x1="1363.56215696805" x2="1355.26609230026" y1="2241.83576277923" y2="2264.35631585921" />
		<line stroke="black" stroke-width="2.4" x1="1288.12153499765" x2="1277.17843096248" y1="2208.75924885605" y2="2230.11922250012" />
		<line stroke="black" stroke-width="2.4" x1="1217.20410483606" x2="1203.77266991803" y1="2166.85386357124" y2="2186.74347281935" />
		<line stroke="black" stroke-width="2.4" x1="1151.83838616388" x2="1136.11341725735" y1="2116.72736320405" y2="2134.85814787787" />
		<line stroke="black" stroke-width="2.4" x1="1092.97238186189" x2="1075.18193912021" y1="2059.1067353516" y2="2075.21574360955" />
		<line stroke="black" stroke-width="2.4" x1="1041.45982906926" x2="1021.86192833485" y1="1994.8276553848" y2="2008.68125732812" />
		<line stroke="black" stroke-width="2.4" x1="998.047817383327" x2="976.926688168707" y1="1924.82236659907" y2="1936.21964262009" />
		<line stroke="black" stroke-width="2.4" x1="963.365953775075" x2="941.027917065429" y1="1850.10615983474" y2="1858.88181456578" />
		<line stroke="black" stroke-width="2.4" x1="937.917231361986" x2="914.68625702381" y1="1771.76264865396" y2="1777.78940825585" />
		<line stroke="black" stroke-width="2.4" x1="922.070734469144" x2="898.283742696131" y1="1690.92805362919" y2="1694.11851165127" />
		<line stroke="black" stroke-width="2.4" x1="916.056285777455" x2="892.058260717015" y1="1608.77472366913" y2="1609.08260871015" />
		<line stroke="black" stroke-width="2.4" x1="919.961113191728" x2="896.100099619508" y1="1526.49413337314" y2="1523.91498015816" />
		<line stroke="black" stroke-width="2.4" x1="933.728584769212" x2="910.350640375149" y1="1445.27960300477" y2="1439.85081714528" />
		<line stroke="black" stroke-width="2.4" x1="957.159030056012" x2="934.603206549205" y1="1366.30899169743" y2="1358.10930719558" />
		<line stroke="black" stroke-width="2.4" x1="989.912635919478" x2="968.506061741214" y1="1290.7276148938" y2="1279.87595225849" />
		<line stroke="black" stroke-width="2.4" x1="1031.51437487815" x2="1011.56751083879" y1="1219.63163376823" y2="1206.28537530396" />
		<line stroke="black" stroke-width="2.4" x1="1081.36089445341" x2="1063.1630311009" y1="1154.05215753652" y2="1138.4048648185" />
		<line stroke="black" stroke-width="2.4" x1="1138.7292676261" x2="1122.54432964806" y1="1094.94028921796" y2="1077.21889585718" />
		<line stroke="black" stroke-width="2.4" x1="1202.78747748983" x2="1188.85019599824" y1="1043.15333173206" y2="1023.61485214371" />
		<line stroke="black" stroke-width="2.4" x1="1272.60648404135" x2="1261.11899225332" y1="999.442354383669" y2="978.370156291868" />
		<line stroke="black" stroke-width="2.4" x1="1347.17369810258" x2="1338.30259979039" y1="964.441300060431" y2="942.140994799394" />
		<line stroke="black" stroke-width="2.4" x1="1425.40766696135" x2="1419.28162018806" y1="938.657791121631" y2="915.452801336425" />
		<line stroke="black" stroke-width="2.4" x1="1506.17375874395" x2="1502.88160992795" y1="922.465767321118" y2="898.692636349929" />
		<line stroke="black" stroke-width="2.4" x1="1588.30061804828" x2="1587.8901134184" y1="916.100062536962" y2="892.103573503171" />
		<path d="M844,1600 A756,756 -90,1,1 1600,2356 A756,756 -90,1,1 1600,844 " fill="none" id="cp4" stroke="none" />
		<line stroke="black" stroke-width="9.60000000000001" x1="1600" x2="1600" y1="916" y2="868" />
		<text font-size="50" font-weight="bold" text-anchor="middle" x="1187.52202305694" y="0">
			<textPath xlink:href="#cp4">0.000Mb</textPath>
		</text>
		<line stroke="black" stroke-width="9.60000000000001" x1="1987.62990854332" x2="2014.83200738847" y1="1036.44072716111" y2="996.892708014524" />
		<text font-size="50" font-weight="bold" text-anchor="middle" x="1643.01784669106" y="0">
			<textPath xlink:href="#cp4">0.500Mb</textPath>
		</text>
		<line stroke="black" stroke-width="9.60000000000001" x1="2238.7497935359" x2="2283.5743404507" y1="1355.34779531376" y2="1338.1792195463" />
		<text font-size="50" font-weight="bold" text-anchor="middle" x="2098.51367032517" y="0">
			<textPath xlink:href="#cp4">1.000Mb</textPath>
		</text>
		<line stroke="black" stroke-width="9.60000000000001" x1="2264.92380248324" x2="2311.58512195575" y1="1760.41301970611" y2="1771.67007372057" />
		<text font-size="50" font-weight="bold" text-anchor="middle" x="2554.00949395929" y="0">
			<textPath xlink:href="#cp4">1.500Mb</textPath>
		</text>
		<line stroke="black" stroke-width="9.60000000000001" x1="2056.93434278199" x2="2088.99991069652" y1="2108.98625363205" y2="2144.70458722026" />
		<text font-size="50" font-weight="bold" text-anchor="middle" x="3009.5053175934" y="0">
			<textPath xlink:href="#cp4">2.000Mb</textPath>
		</text>
		<line stroke="black" stroke-width="9.60000000000001" x1="1688.02820322827" x2="1694.20562099868" y1="2278.3119012935" y2="2325.91273647199" />
		<text font-size="50" font-weight="bold" text-anchor="middle" x="3465.00114122752" y="0">
			<textPath xlink:href="#cp4">2.500Mb</textPath>
		</text>
		<line stroke="black" stroke-width="9.60000000000001" x1="1288.12153499765" x2="1266.23532692731" y1="2208.75924885605" y2="2251.47919614419" />
		<text font-size="50" font-weight="bold" text-anchor="middle" x="3920.49696486163" y="0">
			<textPath xlink:href="#cp4">3.000Mb</textPath>
		</text>
		<line stroke="black" stroke-width="9.60000000000001" x1="998.047817383327" x2="955.805558954087" y1="1924.82236659907" y2="1947.61691864111" />
		<text font-size="50" font-weight="bold" text-anchor="middle" x="4375.99278849575" y="0">
			<textPath xlink:href="#cp4">3.500Mb</textPath>
		</text>
		<line stroke="black" stroke-width="9.60000000000001" x1="919.961113191728" x2="872.239086047288" y1="1526.49413337314" y2="1521.33582694318" />
		<text font-size="50" font-weight="bold" text-anchor="middle" x="4831.48861212986" y="0">
			<textPath xlink:href="#cp4">4.000Mb</textPath>
		</text>
		<line stroke="black" stroke-width="9.60000000000001" x1="1081.36089445341" x2="1044.96516774839" y1="1154.05215753652" y2="1122.75757210049" />
		<text font-size="50" font-weight="bold" text-anchor="middle" x="5286.98443576398" y="0">
			<textPath xlink:href="#cp4">4.500Mb</textPath>
		</text>
		<line stroke="black" stroke-width="9.60000000000001" x1="1425.40766696135" x2="1413.15557341478" y1="938.657791121631" y2="892.247811551219" />
		<text font-size="50" font-weight="bold" text-anchor="middle" x="5742.48025939809" y="0">
			<textPath xlink:href="#cp4">5.000Mb</textPath>
		</text>
	</g>
	<g id="t9" />
	<g id="t10" />
	<g id="t11">
		<circle cx="1600" cy="1600" fill="none" r="480" stroke="black" stroke-width="4.8" />
		<line stroke="black" stroke-width="2.4" x1="1600" x2="1600" y1="1120" y2="1096" />
		<line stroke="black" stroke-width="2.4" x1="1657.70086052522" x2="1660.58590355148" y1="1123.48073418313" y2="1099.65477089229" />
		<line stroke="black" stroke-width="2.4" x1="1714.56488206032" x2="1720.29312616334" y1="1133.87245543896" y2="1110.56607821091" />
		<line stroke="black" stroke-width="2.4" x1="1769.76736234054" x2="1778.25573045757" y1="1151.02445202001" y2="1128.57567462101" />
		<line stroke="black" stroke-width="2.4" x1="1822.5076965321" x2="1833.6330813587" y1="1174.68796750623" y2="1153.42236588154" />
		<line stroke="black" stroke-width="2.4" x1="1872.02098845145" x2="1885.62203787403" y1="1204.51980853411" y2="1184.74579896082" />
		<line stroke="black" stroke-width="2.4" x1="1917.58914389984" x2="1933.46860109484" y1="1240.08732215027" y2="1222.09168825778" />
		<line stroke="black" stroke-width="2.4" x1="1958.55128522589" x2="1976.47884948718" y1="1280.87467060281" y2="1264.91840413295" />
		<line stroke="black" stroke-width="2.4" x1="1994.31333607322" x2="2014.02900287688" y1="1326.29031256675" y2="1312.60482819509" />
		<line stroke="black" stroke-width="2.4" x1="2024.356637305" x2="2045.57446917025" y1="1375.67558230279" y2="1364.45936141793" />
		<line stroke="black" stroke-width="2.4" x1="2048.245469148" x2="2070.6577426054" y1="1428.31424232544" y2="1419.72995444171" />
		<line stroke="black" stroke-width="2.4" x1="2065.63337046227" x2="2088.91503898539" y1="1483.44287103766" y2="1477.61501458954" />
		<line stroke="black" stroke-width="2.4" x1="2076.26816348749" x2="2100.08157166186" y1="1540.26193467932" y2="1537.27503141328" />
		<line stroke="black" stroke-width="2.4" x1="2079.99561119192" x2="2103.99539175151" y1="1597.94738301263" y2="1597.84475216326" />
		<line stroke="black" stroke-width="2.4" x1="2076.76165418124" x2="2100.5997368903" y1="1655.6626005714" y2="1658.44573059997" />
		<line stroke="black" stroke-width="2.4" x1="2066.61319472508" x2="2089.94385446133" y1="1712.57054014464" y2="1718.19906715187" />
		<line stroke="black" stroke-width="2.4" x1="2049.69741653068" x2="2072.18228735721" y1="1767.84586252164" y2="1776.23815564773" />
		<line stroke="black" stroke-width="2.4" x1="2026.25965012885" x2="2047.57263263529" y1="1820.68690643542" y2="1831.72125175719" />
		<line stroke="black" stroke-width="2.4" x1="1996.6398148308" x2="2016.47180557234" y1="1870.32731510336" y2="1883.84368085853" />
		<line stroke="black" stroke-width="2.4" x1="1961.26748885828" x2="1979.3308633012" y1="1916.047150745" y2="1931.84950828225" />
		<line stroke="black" stroke-width="2.4" x1="1920.65567914526" x2="1936.68846310252" y1="1957.18333588214" y2="1975.04250267625" />
		<line stroke="black" stroke-width="2.4" x1="1875.393381168" x2="1889.1630502264" y1="1993.13926999074" y2="2012.79623349028" />
		<line stroke="black" stroke-width="2.4" x1="1826.13703670892" x2="1837.44388854437" y1="2023.39348203357" y2="2044.56315613524" />
		<line stroke="black" stroke-width="2.4" x1="1773.60101344257" x2="1782.2810641147" y1="2047.50719338544" y2="2069.88255305471" />
		<line stroke="black" stroke-width="2.4" x1="1718.54724441907" x2="1724.47460664002" y1="2065.13068146559" y2="2088.38721553887" />
		<line stroke="black" stroke-width="2.4" x1="1661.77417770405" x2="1664.86288658925" y1="2076.00835178491" y2="2099.80876937416" />
		<line stroke="black" stroke-width="2.4" x1="1604.10519643916" x2="1604.31045626111" y1="2079.98244484793" y2="2103.98156709033" />
		<line stroke="black" stroke-width="2.4" x1="1546.3766772677" x2="1543.69551113109" y1="2076.9953241481" y2="2100.8450903555" />
		<line stroke="black" stroke-width="2.4" x1="1489.42586031478" x2="1483.89715333052" y1="2067.09031207345" y2="2090.44482767712" />
		<line stroke="black" stroke-width="2.4" x1="1434.07870664425" x2="1425.78264197646" y1="2050.41106159946" y2="2072.93161467943" />
		<line stroke="black" stroke-width="2.4" x1="1381.1379192966" x2="1370.19481526142" y1="2027.19947288144" y2="2048.55944652551" />
		<line stroke="black" stroke-width="2.4" x1="1331.37130163934" x2="1317.93986672131" y1="1997.79218496227" y2="2017.68179421038" />
		<line stroke="black" stroke-width="2.4" x1="1285.50062186939" x2="1269.77565296286" y1="1962.61569347652" y2="1980.74647815035" />
		<line stroke="black" stroke-width="2.4" x1="1244.19114516624" x2="1226.40070242455" y1="1922.18016515901" y2="1938.28917341697" />
		<line stroke="black" stroke-width="2.4" x1="1208.04198531176" x2="1188.44408457735" y1="1877.07203886653" y2="1890.92564080985" />
		<line stroke="black" stroke-width="2.4" x1="1177.5774157076" x2="1156.45628649298" y1="1827.9455204204" y2="1839.34279644142" />
		<line stroke="black" stroke-width="2.4" x1="1153.23926580707" x2="1130.90122909742" y1="1775.51309462087" y2="1784.28874935191" />
		<line stroke="black" stroke-width="2.4" x1="1135.38051323648" x2="1112.14953889831" y1="1720.53519203786" y2="1726.56195163976" />
		<line stroke="black" stroke-width="2.4" x1="1124.26016453975" x2="1100.47317276674" y1="1663.80916044154" y2="1666.99961846362" />
		<line stroke="black" stroke-width="2.4" x1="1120.0394987912" x2="1096.04147373076" y1="1606.15770082044" y2="1606.46558586146" />
		<line stroke="black" stroke-width="2.4" x1="1122.7797285556" x2="1098.91871498338" y1="1548.41693570045" y2="1545.83778248547" />
		<line stroke="black" stroke-width="2.4" x1="1132.44111211875" x2="1109.06316772468" y1="1491.42428281036" y2="1485.99549695088" />
		<line stroke="black" stroke-width="2.4" x1="1148.88352986387" x2="1126.32770635706" y1="1436.00630996311" y2="1427.80662546126" />
		<line stroke="black" stroke-width="2.4" x1="1171.86851643472" x2="1150.46194225646" y1="1382.96674729389" y2="1372.11508465859" />
		<line stroke="black" stroke-width="2.4" x1="1201.06271921274" x2="1181.11585517338" y1="1333.07483071455" y2="1319.72857225028" />
		<line stroke="black" stroke-width="2.4" x1="1236.04273294976" x2="1217.84486959725" y1="1287.05414563966" y2="1271.40685292165" />
		<line stroke="black" stroke-width="2.4" x1="1276.30124043937" x2="1260.11630246133" y1="1245.57213278453" y2="1227.85073942376" />
		<line stroke="black" stroke-width="2.4" x1="1321.2543701683" x2="1307.31708867672" y1="1209.23040823302" y2="1189.69192864467" />
		<line stroke="black" stroke-width="2.4" x1="1370.25016423954" x2="1358.76267245152" y1="1178.55603816398" y2="1157.48384007218" />
		<line stroke="black" stroke-width="2.4" x1="1422.5780337562" x2="1413.70693544401" y1="1153.99389477925" y2="1131.69358951821" />
		<line stroke="black" stroke-width="2.4" x1="1477.47906453428" x2="1471.35301776099" y1="1135.90020429588" y2="1112.69521451068" />
		<line stroke="black" stroke-width="2.4" x1="1534.15702367997" x2="1530.86487486396" y1="1124.53738057622" y2="1100.76424960503" />
		<line stroke="black" stroke-width="2.4" x1="1591.7899074023" x2="1591.37940277242" y1="1120.07021932418" y2="1096.07373029039" />
		<path d="M1048,1600 A552,552 -90,1,1 1600,2152 A552,552 -90,1,1 1600,1048 " fill="none" id="cp5" stroke="none" />
		<line stroke="black" stroke-width="9.60000000000001" x1="1600" x2="1600" y1="1120" y2="1072" />
		<text font-size="50" font-weight="bold" text-anchor="middle" x="867.079572390783" y="0">
			<textPath xlink:href="#cp5">0kb</textPath>
		</text>
		<line stroke="black" stroke-width="9.60000000000001" x1="1872.02098845145" x2="1899.2230872966" y1="1204.51980853411" y2="1164.97178938753" />
		<text font-size="50" font-weight="bold" text-anchor="middle" x="1199.66382456807" y="0">
			<textPath xlink:href="#cp5">500kb</textPath>
		</text>
		<line stroke="black" stroke-width="9.60000000000001" x1="2048.245469148" x2="2093.0700160628" y1="1428.31424232544" y2="1411.14566655799" />
		<text font-size="50" font-weight="bold" text-anchor="middle" x="1532.24807674536" y="0">
			<textPath xlink:href="#cp5">1000kb</textPath>
		</text>
		<line stroke="black" stroke-width="9.60000000000001" x1="2066.61319472508" x2="2113.27451419759" y1="1712.57054014464" y2="1723.8275941591" />
		<text font-size="50" font-weight="bold" text-anchor="middle" x="1864.83232892265" y="0">
			<textPath xlink:href="#cp5">1500kb</textPath>
		</text>
		<line stroke="black" stroke-width="9.60000000000001" x1="1920.65567914526" x2="1952.72124705979" y1="1957.18333588214" y2="1992.90166947035" />
		<text font-size="50" font-weight="bold" text-anchor="middle" x="2197.41658109994" y="0">
			<textPath xlink:href="#cp5">2000kb</textPath>
		</text>
		<line stroke="black" stroke-width="9.60000000000001" x1="1661.77417770405" x2="1667.95159547445" y1="2076.00835178491" y2="2123.6091869634" />
		<text font-size="50" font-weight="bold" text-anchor="middle" x="2530.00083327723" y="0">
			<textPath xlink:href="#cp5">2500kb</textPath>
		</text>
		<line stroke="black" stroke-width="9.60000000000001" x1="1381.1379192966" x2="1359.25171122625" y1="2027.19947288144" y2="2069.91942016958" />
		<text font-size="50" font-weight="bold" text-anchor="middle" x="2862.58508545452" y="0">
			<textPath xlink:href="#cp5">3000kb</textPath>
		</text>
		<line stroke="black" stroke-width="9.60000000000001" x1="1177.5774157076" x2="1135.33515727836" y1="1827.9455204204" y2="1850.74007246244" />
		<text font-size="50" font-weight="bold" text-anchor="middle" x="3195.16933763181" y="0">
			<textPath xlink:href="#cp5">3500kb</textPath>
		</text>
		<line stroke="black" stroke-width="9.60000000000001" x1="1122.7797285556" x2="1075.05770141116" y1="1548.41693570045" y2="1543.25862927049" />
		<text font-size="50" font-weight="bold" text-anchor="middle" x="3527.7535898091" y="0">
			<textPath xlink:href="#cp5">4000kb</textPath>
		</text>
		<line stroke="black" stroke-width="9.60000000000001" x1="1236.04273294976" x2="1199.64700624474" y1="1287.05414563966" y2="1255.75956020363" />
		<text font-size="50" font-weight="bold" text-anchor="middle" x="3860.33784198639" y="0">
			<textPath xlink:href="#cp5">4500kb</textPath>
		</text>
		<line stroke="black" stroke-width="9.60000000000001" x1="1477.47906453428" x2="1465.22697098771" y1="1135.90020429588" y2="1089.49022472547" />
		<text font-size="50" font-weight="bold" text-anchor="middle" x="4192.92209416368" y="0">
			<textPath xlink:href="#cp5">5000kb</textPath>
		</text>
	</g>
	<g id="t12" />
	<g id="t13">
		<circle cx="1600" cy="1600" fill="none" r="336" stroke="black" stroke-width="4.8" />
		<line stroke="black" stroke-width="2.4" x1="1600" x2="1600" y1="1264" y2="1240" />
		<line stroke="black" stroke-width="2.4" x1="1640.39060236765" x2="1643.27564539391" y1="1266.43651392819" y2="1242.61055063735" />
		<line stroke="black" stroke-width="2.4" x1="1680.19541744223" x2="1685.92366154524" y1="1273.71071880727" y2="1250.40434157922" />
		<line stroke="black" stroke-width="2.4" x1="1718.83715363838" x2="1727.32552175541" y1="1285.717116414" y2="1263.26833901501" />
		<line stroke="black" stroke-width="2.4" x1="1755.75538757247" x2="1766.88077239907" y1="1302.28157725436" y2="1281.01597562967" />
		<line stroke="black" stroke-width="2.4" x1="1790.41469191602" x2="1804.01574133859" y1="1323.16386597388" y2="1303.38985640059" />
		<line stroke="black" stroke-width="2.4" x1="1822.31240072989" x2="1838.19185792488" y1="1348.06112550519" y2="1330.0654916127" />
		<line stroke="black" stroke-width="2.4" x1="1850.98589965812" x2="1868.91346391942" y1="1376.61226942197" y2="1360.65600295211" />
		<line stroke="black" stroke-width="2.4" x1="1876.01933525126" x2="1895.73500205492" y1="1408.40321879673" y2="1394.71773442507" />
		<line stroke="black" stroke-width="2.4" x1="1897.0496461135" x2="1918.26747797875" y1="1442.97290761195" y2="1431.75668672709" />
		<line stroke="black" stroke-width="2.4" x1="1913.7718284036" x2="1936.184101861" y1="1479.81996962781" y2="1471.23568174408" />
		<line stroke="black" stroke-width="2.4" x1="1925.94335932359" x2="1949.2250278467" y1="1518.41000972636" y2="1512.58215327824" />
		<line stroke="black" stroke-width="2.4" x1="1933.38771444124" x2="1957.20112261561" y1="1558.18335427552" y2="1555.19645100949" />
		<line stroke="black" stroke-width="2.4" x1="1935.99692783434" x2="1959.99670839394" y1="1598.56316810884" y2="1598.46053725947" />
		<line stroke="black" stroke-width="2.4" x1="1933.73315792687" x2="1957.57124063593" y1="1638.96382039998" y2="1641.74695042855" />
		<line stroke="black" stroke-width="2.4" x1="1926.62923630756" x2="1949.95989604381" y1="1678.79937810125" y2="1684.42790510848" />
		<line stroke="black" stroke-width="2.4" x1="1914.78819157147" x2="1937.27306239801" y1="1717.49210376515" y2="1725.88439689123" />
		<line stroke="black" stroke-width="2.4" x1="1898.38175509019" x2="1919.69473759663" y1="1754.48083450479" y2="1765.51517982656" />
		<line stroke="black" stroke-width="2.4" x1="1877.64787038156" x2="1897.4798611231" y1="1789.22912057235" y2="1802.74548632752" />
		<line stroke="black" stroke-width="2.4" x1="1852.8872422008" x2="1870.95061664371" y1="1821.2330055215" y2="1837.03536305875" />
		<line stroke="black" stroke-width="2.4" x1="1824.45897540168" x2="1840.49175935894" y1="1850.0283351175" y2="1867.8875019116" />
		<line stroke="black" stroke-width="2.4" x1="1792.7753668176" x2="1806.545035876" y1="1875.19748899352" y2="1894.85445249306" />
		<line stroke="black" stroke-width="2.4" x1="1758.29592569624" x2="1769.60277753169" y1="1896.3754374235" y2="1917.54511152517" />
		<line stroke="black" stroke-width="2.4" x1="1721.5207094098" x2="1730.20076008193" y1="1913.25503536981" y2="1935.63039503908" />
		<line stroke="black" stroke-width="2.4" x1="1682.98307109335" x2="1688.9104333143" y1="1925.59147702591" y2="1948.84801109919" />
		<line stroke="black" stroke-width="2.4" x1="1643.24192439283" x2="1646.33063327804" y1="1933.20584624944" y2="1957.00626383868" />
		<line stroke="black" stroke-width="2.4" x1="1602.87363750741" x2="1603.07889732937" y1="1935.98771139355" y2="1959.98683363595" />
		<line stroke="black" stroke-width="2.4" x1="1562.46367408739" x2="1559.78250795078" y1="1933.89672690367" y2="1957.74649311107" />
		<line stroke="black" stroke-width="2.4" x1="1522.59810222035" x2="1517.06939523609" y1="1926.96321845142" y2="1950.31773405509" />
		<line stroke="black" stroke-width="2.4" x1="1483.85509465097" x2="1475.55902998318" y1="1915.28774311962" y2="1937.8082961996" />
		<line stroke="black" stroke-width="2.4" x1="1446.79654350762" x2="1435.85343947245" y1="1899.039631017" y2="1920.39960466108" />
		<line stroke="black" stroke-width="2.4" x1="1411.95991114754" x2="1398.5284762295" y1="1878.45452947359" y2="1898.3441387217" />
		<line stroke="black" stroke-width="2.4" x1="1379.85043530857" x2="1364.12546640204" y1="1853.83098543357" y2="1871.96177010739" />
		<line stroke="black" stroke-width="2.4" x1="1350.93380161637" x2="1333.14335887468" y1="1825.52611561131" y2="1841.63512386926" />
		<line stroke="black" stroke-width="2.4" x1="1325.62938971823" x2="1306.03148898382" y1="1793.95042720657" y2="1807.80402914989" />
		<line stroke="black" stroke-width="2.4" x1="1304.30419099532" x2="1283.1830617807" y1="1759.56186429428" y2="1770.9591403153" />
		<line stroke="black" stroke-width="2.4" x1="1287.26748606495" x2="1264.9294493553" y1="1722.85916623461" y2="1731.63482096565" />
		<line stroke="black" stroke-width="2.4" x1="1274.76635926554" x2="1251.53538492736" y1="1684.3746344265" y2="1690.4013940284" />
		<line stroke="black" stroke-width="2.4" x1="1266.98211517783" x2="1243.19512340481" y1="1644.66641230908" y2="1647.85687033115" />
		<line stroke="black" stroke-width="2.4" x1="1264.02764915384" x2="1240.0296240934" y1="1604.31039057431" y2="1604.61827561533" />
		<line stroke="black" stroke-width="2.4" x1="1265.94580998892" x2="1242.0847964167" y1="1563.89185499031" y2="1561.31270177534" />
		<line stroke="black" stroke-width="2.4" x1="1272.70877848312" x2="1249.33083408906" y1="1523.99699796725" y2="1518.56821210777" />
		<line stroke="black" stroke-width="2.4" x1="1284.21847090471" x2="1261.6626473979" y1="1485.20441697418" y2="1477.00473247233" />
		<line stroke="black" stroke-width="2.4" x1="1300.30796150431" x2="1278.90138732604" y1="1448.07672310572" y2="1437.22506047042" />
		<line stroke="black" stroke-width="2.4" x1="1320.74390344892" x2="1300.79703940955" y1="1413.15238150018" y2="1399.80612303591" />
		<line stroke="black" stroke-width="2.4" x1="1345.22991306483" x2="1327.03204971232" y1="1380.93790194776" y2="1365.29060922975" />
		<line stroke="black" stroke-width="2.4" x1="1373.41086830756" x2="1357.22593032952" y1="1351.90049294917" y2="1334.1790995884" />
		<line stroke="black" stroke-width="2.4" x1="1404.87805911781" x2="1390.94077762623" y1="1326.46128576312" y2="1306.92280617477" />
		<line stroke="black" stroke-width="2.4" x1="1439.17511496768" x2="1427.68762317966" y1="1304.98922671478" y2="1283.91702862298" />
		<line stroke="black" stroke-width="2.4" x1="1475.80462362934" x2="1466.93352531715" y1="1287.79572634548" y2="1265.49542108444" />
		<line stroke="black" stroke-width="2.4" x1="1514.235345174" x2="1508.10929840071" y1="1275.13014300712" y2="1251.92515322191" />
		<line stroke="black" stroke-width="2.4" x1="1553.90991657598" x2="1550.61776775997" y1="1267.17616640336" y2="1243.40303543217" />
		<line stroke="black" stroke-width="2.4" x1="1594.25293518161" x2="1593.84243055173" y1="1264.04915352693" y2="1240.05266449314" />
		<path d="M1192,1600 A408,408 -90,1,1 1600,2008 A408,408 -90,1,1 1600,1192 " fill="none" id="cp6" stroke="none" />
		<line stroke="black" stroke-width="9.60000000000001" x1="1600" x2="1600" y1="1264" y2="1216" />
		<text font-size="50" font-weight="bold" text-anchor="middle" x="640.884901332318" y="0">
			<textPath xlink:href="#cp6">0bp</textPath>
		</text>
		<line stroke="black" stroke-width="9.60000000000001" x1="1790.41469191602" x2="1817.61679076116" y1="1323.16386597388" y2="1283.61584682729" />
		<text font-size="50" font-weight="bold" text-anchor="middle" x="886.708044245967" y="0">
			<textPath xlink:href="#cp6">500000bp</textPath>
		</text>
		<line stroke="black" stroke-width="9.60000000000001" x1="1913.7718284036" x2="1958.5963753184" y1="1479.81996962781" y2="1462.65139386035" />
		<text font-size="50" font-weight="bold" text-anchor="middle" x="1132.53118715962" y="0">
			<textPath xlink:href="#cp6">1000000bp</textPath>
		</text>
		<line stroke="black" stroke-width="9.60000000000001" x1="1926.62923630756" x2="1973.29055578006" y1="1678.79937810125" y2="1690.05643211571" />
		<text font-size="50" font-weight="bold" text-anchor="middle" x="1378.35433007327" y="0">
			<textPath xlink:href="#cp6">1500000bp</textPath>
		</text>
		<line stroke="black" stroke-width="9.60000000000001" x1="1824.45897540168" x2="1856.52454331621" y1="1850.0283351175" y2="1885.74666870571" />
		<text font-size="50" font-weight="bold" text-anchor="middle" x="1624.17747298691" y="0">
			<textPath xlink:href="#cp6">2000000bp</textPath>
		</text>
		<line stroke="black" stroke-width="9.60000000000001" x1="1643.24192439283" x2="1649.41934216324" y1="1933.20584624944" y2="1980.80668142793" />
		<text font-size="50" font-weight="bold" text-anchor="middle" x="1870.00061590056" y="0">
			<textPath xlink:href="#cp6">2500000bp</textPath>
		</text>
		<line stroke="black" stroke-width="9.60000000000001" x1="1446.79654350762" x2="1424.91033543728" y1="1899.039631017" y2="1941.75957830515" />
		<text font-size="50" font-weight="bold" text-anchor="middle" x="2115.82375881421" y="0">
			<textPath xlink:href="#cp6">3000000bp</textPath>
		</text>
		<line stroke="black" stroke-width="9.60000000000001" x1="1304.30419099532" x2="1262.06193256608" y1="1759.56186429428" y2="1782.35641633632" />
		<text font-size="50" font-weight="bold" text-anchor="middle" x="2361.64690172786" y="0">
			<textPath xlink:href="#cp6">3500000bp</textPath>
		</text>
		<line stroke="black" stroke-width="9.60000000000001" x1="1265.94580998892" x2="1218.22378284448" y1="1563.89185499031" y2="1558.73354856036" />
		<text font-size="50" font-weight="bold" text-anchor="middle" x="2607.47004464151" y="0">
			<textPath xlink:href="#cp6">4000000bp</textPath>
		</text>
		<line stroke="black" stroke-width="9.60000000000001" x1="1345.22991306483" x2="1308.83418635981" y1="1380.93790194776" y2="1349.64331651173" />
		<text font-size="50" font-weight="bold" text-anchor="middle" x="2853.29318755516" y="0">
			<textPath xlink:href="#cp6">4500000bp</textPath>
		</text>
		<line stroke="black" stroke-width="9.60000000000001" x1="1514.235345174" x2="1501.98325162742" y1="1275.13014300712" y2="1228.7201634367" />
		<text font-size="50" font-weight="bold" text-anchor="middle" x="3099.11633046881" y="0">
			<textPath xlink:href="#cp6">5000000bp</textPath>
		</text>
	</g>
	<g id="t14" />
	<g id="t15" />
	<g id="t16">
		<circle cx="1600" cy="1600" fill="none" r="132" stroke="black" stroke-width="4.8" />
		<line stroke="black" stroke-width="2.4" x1="1723.2675040157" x2="1745.6797774731" y1="1552.7864166395" y2="1544.20212875577" />
		<line stroke="black" stroke-width="2.4" x1="1728.04917687712" x2="1751.33084540024" y1="1567.94678953536" y2="1562.11893308724" />
		<line stroke="black" stroke-width="2.4" x1="1730.97374495906" x2="1754.78715313343" y1="1583.57203203681" y2="1580.58512877078" />
		<line stroke="black" stroke-width="2.4" x1="1731.99879307778" x2="1755.99857363737" y1="1599.43553032847" y2="1599.3328994791" />
		<line stroke="black" stroke-width="2.4" x1="1731.10945489984" x2="1754.9475376089" y1="1615.30721515714" y2="1618.09034518571" />
		<line stroke="black" stroke-width="2.4" x1="1728.3186285494" x2="1751.64928828565" y1="1630.95689853978" y2="1636.58542554701" />
		<path d="M1396,1600 A204,204 -90,1,1 1600,1804 A204,204 -90,1,1 1600,1396 " fill="none" id="cp7" stroke="none" />
		<line stroke="black" stroke-width="9.6" x1="1723.2675040157" x2="1768.0920509305" y1="1552.7864166395" y2="1535.61784087204" />
		<text font-size="50" font-weight="bold" text-anchor="middle" x="566.265593579808" y="0">
			<textPath xlink:href="#cp7">1000000bp</textPath>
		</text>
		<line stroke="black" stroke-width="9.6" x1="1728.3186285494" x2="1774.9799480219" y1="1630.95689853978" y2="1642.21395255424" />
		<text font-size="50" font-weight="bold" text-anchor="middle" x="689.177165036632" y="0">
			<textPath xlink:href="#cp7">1500000bp</textPath>
		</text>
	</g>
	<!-- 
	Generated using the Perl SVG Module V2.59
	by Ronan Oger
	Info: http://www.roitsystems.com/
 -->
</svg>