<?xml version="1.0" encoding="UTF-8" standalone="yes"?>
<!DOCTYPE svg PUBLIC "-//W3C//DTD SVG 1.0//EN" "http://www.w3.org/TR/2001/REC-SVG-20010904/DTD/svg10.dtd">
<svg height="3200" printerror="1" raiseerror="0" width="3200" xml_xlink="http://www.w3.org/1999/xlink" xmlns="http://www.w3.org/2000/svg" xmlns:svg="http://www.w3.org/2000/svg" xmlns:xlink="http://www.w3.org/1999/xlink">
	<defs >
		<marker id="triangle-right" markerHeight="6" markerUnits="strokeWidth" markerWidth="4" orient="auto" refX="10" refY="5" viewBox="0 0 10 10">
			<rect fill="white" height="10" stroke="none" width="10" x1="0" y1="0" />
			<path d="M 0 0 L 10 5 L 0 10 z" />
		</marker>
		<marker id="triangle-left" markerHeight="6" markerUnits="strokeWidth" markerWidth="4" orient="auto" refX="0" refY="5" viewBox="0 0 10 10">
			<rect fill="white" height="10" stroke="none" width="10" x1="0" y1="0" />
			<path d="M 10 10 L 0 5 L 10 0 z" />
		</marker>
	</defs>
	<g id="t1" opacity="0.7">
		<path d="M386.56,1600 A1213.44,1213.44 -90,1,1 1600,2813.44 A1213.44,1213.44 -90,1,1 2813.44,1600 " fill="none" id="cp1" stroke="none" />
		<text fill="#ff0000" font-size="58.8000000000001" font-style="italic" font-weight="bold" text-anchor="middle" x="1906.067094786" y="0">
			<textPath xlink:href="#cp1"></textPath>
		</text>
	</g>
	<g id="t2">
		<mask height="3200" id="2" maskUnits="userSpaceOnUse" width="3200" x="0" y="0">
			<rect fill="white" height="3200" width="3200" x="0" y="0" />
			<circle cx="1600" cy="1600" fill="black" r="1080" stroke="black" stroke-width="0.06" />
		</mask>
		<circle cx="1600" cy="1600" fill="#0000ff" mask="url(#2)" r="1200" stroke="black" stroke-width="0.06" />
		<circle cx="1600" cy="1600" fill="none" r="1080" stroke="black" stroke-width="0.06" />
	</g>
	<g id="t3" opacity="0.7">
		<path d="M506.56,1600 A1093.44,1093.44 -90,1,1 1600,2693.44 A1093.44,1093.44 -90,1,1 2693.44,1600 " fill="none" id="cp3" stroke="none" />
		<text fill="#ff0000" font-size="58.8" font-style="italic" font-weight="bold" text-anchor="middle" x="1717.57153557061" y="0">
			<textPath xlink:href="#cp3">contigs 0.9-1.0</textPath>
		</text>
	</g>
	<g id="t4">
		<mask height="3200" id="4" maskUnits="userSpaceOnUse" width="3200" x="0" y="0">
			<rect fill="white" height="3200" width="3200" x="0" y="0" />
			<circle cx="1600" cy="1600" fill="black" r="840" stroke="black" stroke-width="0.06" />
		</mask>
		<circle cx="1600" cy="1600" fill="#0000ff" mask="url(#4)" r="960" stroke="black" stroke-width="0.06" />
		<circle cx="1600" cy="1600" fill="none" r="840" stroke="black" stroke-width="0.06" />
	</g>
	<g id="t5" opacity="0.7">
		<path d="M746.56,1600 A853.44,853.44 -90,1,1 1600,2453.44 A853.44,853.44 -90,1,1 2453.44,1600 " fill="none" id="cp5" stroke="none" />
		<text fill="#ff0000" font-size="58.8000000000001" font-style="italic" font-weight="bold" text-anchor="middle" x="1340.58041713984" y="0">
			<textPath xlink:href="#cp5">contigs 0.7-0.8</textPath>
		</text>
	</g>
	<g id="t6" />
	<g id="t7">
		<mask height="3200" id="6" maskUnits="userSpaceOnUse" width="3200" x="0" y="0">
			<rect fill="white" height="3200" width="3200" x="0" y="0" />
			<circle cx="1600" cy="1600" fill="black" r="660" stroke="black" stroke-width="0.03" />
		</mask>
		<circle cx="1600" cy="1600" fill="#0000ff" mask="url(#6)" r="720" stroke="black" stroke-width="0.03" />
		<circle cx="1600" cy="1600" fill="none" r="660" stroke="black" stroke-width="0.03" />
	</g>
	<g id="t8">
		<mask height="3200" id="7" maskUnits="userSpaceOnUse" width="3200" x="0" y="0">
			<rect fill="white" height="3200" width="3200" x="0" y="0" />
			<circle cx="1600" cy="1600" fill="black" r="600" stroke="black" stroke-width="0.03" />
		</mask>
		<circle cx="1600" cy="1600" fill="#d0d0d0" mask="url(#7)" r="660" stroke="black" stroke-width="0.03" />
		<circle cx="1600" cy="1600" fill="none" r="600" stroke="black" stroke-width="0.03" />
	</g>
	<g id="t9" opacity="0.7">
		<path d="M986.56,1600 A613.44,613.44 -90,1,1 1600,2213.44 A613.44,613.44 -90,1,1 2213.44,1600 " fill="none" id="cp8" stroke="none" />
		<text fill="#ff0000" font-size="58.8" font-style="italic" font-weight="bold" text-anchor="middle" x="963.589298709061" y="0">
			<textPath xlink:href="#cp8">contigs 0.50-0.55 and 0.55-0.60</textPath>
		</text>
	</g>
	<g id="t10" opacity="0.3" />
	<g id="t11" opacity="0.7">
		<path d="M266.56,1600 A1333.44,1333.44 -90,1,1 1600,2933.44 A1333.44,1333.44 -90,1,1 2933.44,1600 " fill="none" id="cp9" stroke="none" />
		<text fill="#ff0000" font-size="58.8000000000001" font-style="italic" font-weight="bold" text-anchor="start" x="2094.56265400139" y="0">
			<textPath xlink:href="#cp9">gaps stroke-width 4</textPath>
		</text>
	</g>
	<g id="t12" opacity="0.4">
		<path d="M1600,1000 A600,600 0,0,1 1672.12607565652,1004.35091772891 L1744.25215131304,408.701835457823 A1200,1200 0,0,0 1600,400 L1600,1000 " fill="#00ff00" stroke="#000000" stroke-dasharray="3" stroke-width="4" />
	</g>
	<g id="t13" opacity="0.7">
		<path d="M386.56,1600 A1213.44,1213.44 -90,1,1 1600,2813.44 A1213.44,1213.44 -90,1,1 2813.44,1600 " fill="none" id="cp10" stroke="none" />
		<text fill="#ff0000" font-size="58.8000000000001" font-style="italic" font-weight="bold" text-anchor="start" x="2052.28848426499" y="0">
			<textPath xlink:href="#cp10">highlight 0-100kb</textPath>
		</text>
	</g>
	<g id="t14">
		<circle cx="1600" cy="1600" fill="none" r="480" stroke="black" stroke-width="4.8" />
		<line stroke="black" stroke-width="2.4" x1="1600" x2="1600" y1="1120" y2="1096" />
		<line stroke="black" stroke-width="2.4" x1="1605.78393397135" x2="1606.07313066991" y1="1120.03484906942" y2="1096.03659152289" />
		<line stroke="black" stroke-width="2.4" x1="1611.56702808971" x2="1612.14537949419" y1="1120.13939121744" y2="1096.14636077831" />
		<line stroke="black" stroke-width="2.4" x1="1617.34844262405" x2="1618.21586475525" y1="1120.31361126407" y2="1096.32929182727" />
		<line stroke="black" stroke-width="2.4" x1="1623.12733808722" x2="1624.28370499158" y1="1120.55748391178" y2="1096.58535810737" />
		<line stroke="black" stroke-width="2.4" x1="1628.90287535784" x2="1630.34801912573" y1="1120.87097374919" y2="1096.91452243665" />
		<line stroke="black" stroke-width="2.4" x1="1634.67421580218" x2="1636.40792659229" y1="1121.25403525617" y2="1097.31673701897" />
		<line stroke="black" stroke-width="2.4" x1="1640.44052139587" x2="1642.46254746567" y1="1121.70661281047" y2="1097.791943451" />
		<line stroke="black" stroke-width="2.4" x1="1646.20095484566" x2="1648.51100258794" y1="1122.22864069584" y2="1098.34007273063" />
		<line stroke="black" stroke-width="2.4" x1="1651.95467971094" x2="1654.55241369649" y1="1122.82004311148" y2="1098.96104526705" />
		<line stroke="black" stroke-width="2.4" x1="1657.70086052522" x2="1660.58590355148" y1="1123.48073418313" y2="1099.65477089229" />
		<path d="M1048,1600 A552,552 -90,1,1 1600,2152 A552,552 -90,1,1 1600,1048 " fill="none" id="cp11" stroke="none" />
		<line stroke="black" stroke-width="9.60000000000001" x1="1600" x2="1600" y1="1120" y2="1072" />
		<text font-size="50" font-weight="bold" text-anchor="middle" x="867.079572390783" y="0">
			<textPath xlink:href="#cp11">0kb</textPath>
		</text>
		<line stroke="black" stroke-width="9.60000000000001" x1="1657.70086052522" x2="1663.47094657774" y1="1123.48073418313" y2="1075.82880760144" />
		<text font-size="50" font-weight="bold" text-anchor="middle" x="933.596422826241" y="0">
			<textPath xlink:href="#cp11">100kb</textPath>
		</text>
	</g>
	<g id="t15" opacity="0.3">
		<mask height="3200" id="12" maskUnits="userSpaceOnUse" width="3200" x="0" y="0">
			<rect fill="white" height="3200" width="3200" x="0" y="0" />
			<circle cx="1600" cy="1600" fill="black" r="0" stroke="black" stroke-width="4" />
		</mask>
		<circle cx="1600" cy="1600" fill="#0000ff" mask="url(#12)" r="480" stroke="black" stroke-width="4" />
		<circle cx="1600" cy="1600" fill="none" r="0" stroke="black" stroke-width="4" />
	</g>
	<g id="t16" opacity="0.7">
		<path d="M1346.56,1600 A253.44,253.44 -90,1,1 1600,1853.44 A253.44,253.44 -90,1,1 1853.44,1600 " fill="none" id="cp13" stroke="none" />
		<text fill="#ff0000" font-size="58.8" font-style="italic" font-weight="bold" text-anchor="middle" x="398.102621062899" y="0">
			<textPath xlink:href="#cp13">contigs 0-0.4</textPath>
		</text>
	</g>
	<!-- 
	Generated using the Perl SVG Module V2.59
	by Ronan Oger
	Info: http://www.roitsystems.com/
 -->
</svg>