<?xml version="1.0" encoding="UTF-8" standalone="yes"?>
<!DOCTYPE svg PUBLIC "-//W3C//DTD SVG 1.0//EN" "http://www.w3.org/TR/2001/REC-SVG-20010904/DTD/svg10.dtd">
<svg height="3200" printerror="1" raiseerror="0" width="3200" xml_xlink="http://www.w3.org/1999/xlink" xmlns="http://www.w3.org/2000/svg" xmlns:svg="http://www.w3.org/2000/svg" xmlns:xlink="http://www.w3.org/1999/xlink">
	<defs >
		<marker id="triangle-right" markerHeight="6" markerUnits="strokeWidth" markerWidth="4" orient="auto" refX="10" refY="5" viewBox="0 0 10 10">
			<rect fill="white" height="10" stroke="none" width="10" x1="0" y1="0" />
			<path d="M 0 0 L 10 5 L 0 10 z" />
		</marker>
		<marker id="triangle-left" markerHeight="6" markerUnits="strokeWidth" markerWidth="4" orient="auto" refX="0" refY="5" viewBox="0 0 10 10">
			<rect fill="white" height="10" stroke="none" width="10" x1="0" y1="0" />
			<path d="M 10 10 L 0 5 L 10 0 z" />
		</marker>
	</defs>
	<g id="t1">
		<circle cx="1600" cy="1600" fill="none" r="1176" stroke="black" stroke-width="4.8" />
		<line stroke="black" stroke-width="2.4" x1="1600" x2="1600" y1="424" y2="400" />
		<line stroke="black" stroke-width="2.4" x1="1756.74857579293" x2="1759.94752631931" y1="434.493293032215" y2="410.707441869607" />
		<line stroke="black" stroke-width="2.4" x1="1910.69985781344" x2="1917.0406712382" y1="465.785911586923" y2="442.638685292778" />
		<line stroke="black" stroke-width="2.4" x1="2059.10647205656" x2="2068.47599189445" y1="517.319415840584" y2="495.223893714881" />
		<line stroke="black" stroke-width="2.4" x1="2199.31999319718" x2="2211.55101346651" y1="588.174152457978" y2="567.524645365284" />
		<line stroke="black" stroke-width="2.4" x1="2328.83820769038" x2="2343.71245682692" y1="677.085666483243" y2="658.250680084942" />
		<line stroke="black" stroke-width="2.4" x1="2445.34976761491" x2="2462.60180368869" y1="782.467266469771" y2="765.782924969154" />
		<line stroke="black" stroke-width="2.4" x1="2546.77543837908" x2="2566.09738610111" y1="902.438340157593" y2="888.202387915911" />
		<line stroke="black" stroke-width="2.4" x1="2631.30520419323" x2="2652.35224917676" y1="1034.85791538413" y2="1023.3244034532" />
		<line stroke="black" stroke-width="2.4" x1="2697.4305691345" x2="2719.82711136173" y1="1177.36286730916" y2="1168.73761970322" />
		<line stroke="black" stroke-width="2.4" x1="2743.97147736754" x2="2767.31783404851" y1="1327.41009011789" y2="1321.84703073254" />
		<line stroke="black" stroke-width="2.4" x1="2770.09737210991" x2="2793.97691031623" y1="1482.32188061713" y2="1479.92028634401" />
		<line stroke="black" stroke-width="2.4" x1="2775.34201752953" x2="2799.32858931585" y1="1639.33372382074" y2="1640.1364528783" />
		<line stroke="black" stroke-width="2.4" x1="2759.61181906649" x2="2783.27736639437" y1="1795.64362775546" y2="1799.63635485251" />
		<line stroke="black" stroke-width="2.4" x1="2723.18749369683" x2="2746.10968744574" y1="1948.46212707127" y2="1955.57359905232" />
		<line stroke="black" stroke-width="2.4" x1="2666.71906033146" x2="2688.48883707292" y1="2095.06206310479" y2="2105.16537051509" />
		<line stroke="black" stroke-width="2.4" x1="2591.21423974992" x2="2611.44310178563" y1="2232.82725203406" y2="2245.74209391231" />
		<line stroke="black" stroke-width="2.4" x1="2498.02047108097" x2="2516.34741947037" y1="2359.29917260558" y2="2374.79507408733" />
		<line stroke="black" stroke-width="2.4" x1="2388.80086575898" x2="2404.89884261121" y1="2472.22084025657" y2="2490.02126556793" />
		<line stroke="black" stroke-width="2.4" x1="2265.50452807565" x2="2279.08625313842" y1="2569.57708466671" y2="2589.36437210889" />
		<line stroke="black" stroke-width="2.4" x1="2130.33177197843" x2="2141.15486936575" y1="2649.63051195657" y2="2671.05154281283" />
		<line stroke="black" stroke-width="2.4" x1="1985.69485484778" x2="1993.5661784161" y1="2710.95250976086" y2="2733.62500996006" />
		<line stroke="black" stroke-width="2.4" x1="1834.17492898763" x2="1838.95400917106" y1="2752.44874186822" y2="2775.96810394716" />
		<line stroke="black" stroke-width="2.4" x1="1678.47597906174" x2="1680.07752965483" y1="2773.37867745681" y2="2797.32518107838" />
		<line stroke="black" stroke-width="2.4" x1="1521.3765674959" x2="1519.77200764888" y1="2773.36880641224" y2="2797.31510858391" />
		<line stroke="black" stroke-width="2.4" x1="1365.68024898527" x2="1360.89821325028" y1="2752.41930489054" y2="2775.93806621484" />
		<line stroke="black" stroke-width="2.4" x1="1214.16553899613" x2="1206.29136632258" y1="2710.90403217463" y2="2733.57554303534" />
		<line stroke="black" stroke-width="2.4" x1="1069.53632911114" x2="1058.71053990932" y1="2649.56385888002" y2="2670.9835294694" />
		<line stroke="black" stroke-width="2.4" x1="934.373634092779" x2="920.789422543652" y1="2569.49344557307" y2="2589.27902609497" />
		<line stroke="black" stroke-width="2.4" x1="811.089531774139" x2="794.989318136877" y1="2472.12170774706" y2="2489.92010994598" />
		<line stroke="black" stroke-width="2.4" x1="701.884117753586" x2="683.555222197537" y1="2359.18631577285" y2="2374.67991405392" />
		<line stroke="black" stroke-width="2.4" x1="608.706243068576" x2="588.47575823324" y1="2232.7026848914" y2="2245.61498458306" />
		<line stroke="black" stroke-width="2.4" x1="533.218735513644" x2="511.447689299637" y1="2094.92800864458" y2="2105.02858024957" />
		<line stroke="black" stroke-width="2.4" x1="476.768725253836" x2="453.845638014119" y1="1948.3209775941" y2="1955.42956897357" />
		<line stroke="black" stroke-width="2.4" x1="440.363604294811" x2="416.697555402868" y1="1795.49790217769" y2="1799.48765528336" />
		<line stroke="black" stroke-width="2.4" x1="424.653048830609" x2="400.666376357764" y1="1639.18602272262" y2="1639.98573747206" />
		<line stroke="black" stroke-width="2.4" x1="429.917425293518" x2="406.038189075019" y1="1482.17483983354" y2="1479.77024472811" />
		<line stroke="black" stroke-width="2.4" x1="456.062787008611" x2="432.717129600624" y1="1327.2663336999" y2="1321.7003405101" />
		<line stroke="black" stroke-width="2.4" x1="502.622550741348" x2="480.227092593212" y1="1177.22496069591" y2="1168.5968986693" />
		<line stroke="black" stroke-width="2.4" x1="568.765823219009" x2="547.720227774499" y1="1034.7283196207" y2="1023.19216287827" />
		<line stroke="black" stroke-width="2.4" x1="653.312229033062" x2="633.9920704419" y1="902.319367975827" y2="888.080987730436" />
		<line stroke="black" stroke-width="2.4" x1="754.752975307609" x2="737.503036028173" y1="782.361041015864" y2="765.674531648841" />
		<line stroke="black" stroke-width="2.4" x1="871.277777219411" x2="856.405895121848" y1="676.99408342865" y2="658.157227988419" />
		<line stroke="black" stroke-width="2.4" x1="1000.80716386374" x2="988.578738636465" y1="588.098846169756" y2="567.447802214036" />
		<line stroke="black" stroke-width="2.4" x1="1141.02958794408" x2="1131.6628448409" y1="517.261730214904" y2="495.165030831535" />
		<line stroke="black" stroke-width="2.4" x1="1289.44267703603" x2="1283.10477248575" y1="465.746876066258" y2="442.598853128835" />
		<line stroke="black" stroke-width="2.4" x1="1443.39789026601" x2="1440.20192884286" y1="434.47360423418" y2="410.687351259368" />
		<path d="M352,1600 A1248,1248 -90,1,1 1600,2848 A1248,1248 -90,1,1 1600,352 " fill="none" id="cp1" stroke="none" />
		<line stroke="black" stroke-width="9.60000000000001" x1="1600" x2="1600" y1="424" y2="376" />
		<text font-size="50" font-weight="bold" text-anchor="middle" x="1960.35381584003" y="0">			<textPath xlink:href="#cp1">0.0Mb
			</textPath>
		</text>
		<line stroke="black" stroke-width="9.60000000000001" x1="2743.97147736754" x2="2790.66419072948" y1="1327.41009011789" y2="1316.28397134719" />
		<text font-size="50" font-weight="bold" text-anchor="middle" x="3628.77341047876" y="0">			<textPath xlink:href="#cp1">0.5Mb
			</textPath>
		</text>
		<line stroke="black" stroke-width="9.60000000000001" x1="2130.33177197843" x2="2151.97796675306" y1="2649.63051195657" y2="2692.47257366908" />
		<text font-size="50" font-weight="bold" text-anchor="middle" x="5297.19300511749" y="0">			<textPath xlink:href="#cp1">1.0Mb
			</textPath>
		</text>
		<line stroke="black" stroke-width="9.60000000000001" x1="701.884117753586" x2="665.226326641488" y1="2359.18631577285" y2="2390.173512335" />
		<text font-size="50" font-weight="bold" text-anchor="middle" x="6965.61259975621" y="0">			<textPath xlink:href="#cp1">1.5Mb
			</textPath>
		</text>
		<line stroke="black" stroke-width="9.60000000000001" x1="653.312229033062" x2="614.671911850738" y1="902.319367975827" y2="873.842607485044" />
		<text font-size="50" font-weight="bold" text-anchor="middle" x="8634.03219439494" y="0">			<textPath xlink:href="#cp1">2.0Mb
			</textPath>
		</text>
	</g><!-- 
	Generated using the Perl SVG Module V2.49
	by Ronan Oger
	Info: http://www.roitsystems.com/
 -->
</svg>