<?xml version="1.0" encoding="UTF-8" standalone="yes"?>
<!DOCTYPE svg PUBLIC "-//W3C//DTD SVG 1.0//EN" "http://www.w3.org/TR/2001/REC-SVG-20010904/DTD/svg10.dtd">
<svg height="3200" printerror="1" raiseerror="0" width="3200" xml_xlink="http://www.w3.org/1999/xlink" xmlns="http://www.w3.org/2000/svg" xmlns:xlink="http://www.w3.org/1999/xlink">
	<defs >
		<marker id="triangle-right" markerHeight="6" markerUnits="strokeWidth" markerWidth="4" orient="auto" refX="10" refY="5" viewBox="0 0 10 10">
			<rect fill="white" height="10" stroke="none" width="10" x1="0" y1="0" />
			<path d="M 0 0 L 10 5 L 0 10 z" />
		</marker>
		<marker id="triangle-left" markerHeight="6" markerUnits="strokeWidth" markerWidth="4" orient="auto" refX="0" refY="5" viewBox="0 0 10 10">
			<rect fill="white" height="10" stroke="none" width="10" x1="0" y1="0" />
			<path d="M 10 10 L 0 5 L 10 0 z" />
		</marker>
	</defs>
	<g id="t1">
		<path d="M1607.80852995389,431.84059041566 A1168.18550724638,1174.02898550725 0,0,1 1623.54136643365,426.20706132742 " stroke="#000000" stroke-width="0.042" />
		<path d="M1623.54136643365,426.20706132742 A1174.02898550725,1185.95942028986 0,0,1 1639.62959905788,414.70288895452 " stroke="#000000" stroke-width="0.042" />
		<path d="M1639.62959905788,414.70288895452 A1185.95942028986,1187.50144927536 0,0,1 1655.54364880082,413.798248564361 " stroke="#000000" stroke-width="0.042" />
		<path d="M1655.54364880082,413.798248564361 A1187.50144927536,1191.72173913043 0,0,1 1671.64998067094,410.434119610888 " stroke="#000000" stroke-width="0.042" />
		<path d="M1671.64998067094,410.434119610888 A1191.72173913043,1179.38550724638 0,0,1 1686.63986661813,423.801161276212 " stroke="#000000" stroke-width="0.042" />
		<path d="M1686.63986661813,423.801161276212 A1179.38550724638,1189.44927536232 0,0,1 1703.2293700968,415.038702822171 " stroke="#000000" stroke-width="0.042" />
		<path d="M1703.2293700968,415.038702822171 A1189.44927536232,1175.32753623188 0,0,1 1717.64756768539,430.575411904375 " stroke="#000000" stroke-width="0.042" />
		<path d="M1717.64756768539,430.575411904375 A1175.32753623188,1185.71594202899 0,0,1 1734.44827094805,421.931259382219 " stroke="#000000" stroke-width="0.042" />
		<path d="M1734.44827094805,421.931259382219 A1185.71594202899,1178.57391304348 0,0,1 1749.28046682858,430.918390047104 " stroke="#000000" stroke-width="0.042" />
		<path d="M1749.28046682858,430.918390047104 A1178.57391304348,1181.90144927536 0,0,1 1765.36137744831,429.723686197316 " stroke="#000000" stroke-width="0.042" />
		<path d="M1765.36137744831,429.723686197316 A1181.90144927536,1186.3652173913 0,0,1 1781.67482443463,427.627752289162 " stroke="#000000" stroke-width="0.042" />
		<path d="M1781.67482443463,427.627752289162 A1186.3652173913,1171.51304347826 0,0,1 1794.86086928093,444.806486919712 " stroke="#000000" stroke-width="0.042" />
		<path d="M1794.86086928093,444.806486919712 A1171.51304347826,1151.87246376812 0,0,1 1806.76100366211,466.836260661388 " stroke="#000000" stroke-width="0.042" />
		<path d="M1806.76100366211,466.836260661388 A1151.87246376812,1157.71594202899 0,0,1 1823.01671419936,463.96754112579 " stroke="#000000" stroke-width="0.042" />
		<path d="M1823.01671419936,463.96754112579 A1157.71594202899,1160.31304347826 0,0,1 1838.71798005612,464.508879443036 " stroke="#000000" stroke-width="0.042" />
		<path d="M1838.71798005612,464.508879443036 A1160.31304347826,1174.11014492754 0,0,1 1856.89509255419,454.338818042902 " stroke="#000000" stroke-width="0.042" />
		<path d="M1856.89509255419,454.338818042902 A1174.11014492754,1167.29275362319 0,0,1 1870.60729459492,464.507126938603 " stroke="#000000" stroke-width="0.042" />
		<path d="M1870.60729459492,464.507126938603 A1167.29275362319,1175.48985507246 0,0,1 1887.76949474461,460.278491352948 " stroke="#000000" stroke-width="0.042" />
		<path d="M1887.76949474461,460.278491352948 A1175.48985507246,1186.04057971014 0,0,1 1905.69940043236,454.03310113491 " stroke="#000000" stroke-width="0.042" />
		<path d="M1905.69940043236,454.03310113491 A1186.04057971014,1171.1884057971 0,0,1 1916.97215373401,472.520095243034 " stroke="#000000" stroke-width="0.042" />
		<path d="M1916.97215373401,472.520095243034 A1171.1884057971,1183.2 0,0,1 1935.42150090549,465.339409016817 " stroke="#000000" stroke-width="0.042" />
		<path d="M1935.42150090549,465.339409016817 A1183.2,1176.30144927536 0,0,1 1948.51615400903,476.513644959552 " stroke="#000000" stroke-width="0.042" />
		<path d="M1948.51615400903,476.513644959552 A1176.30144927536,1179.87246376812 0,0,1 1964.607693155,477.876895857484 " stroke="#000000" stroke-width="0.042" />
		<path d="M1964.607693155,477.876895857484 A1179.87246376812,1168.51014492754 0,0,1 1975.92067983315,493.609652395522 " stroke="#000000" stroke-width="0.042" />
		<path d="M1975.92067983315,493.609652395522 A1168.51014492754,1181.33333333333 0,0,1 1994.96498226381,486.648704482817 " stroke="#000000" stroke-width="0.042" />
		<path d="M1994.96498226381,486.648704482817 A1181.33333333333,1196.0231884058 0,0,1 2014.90937664937,478.25061784158 " stroke="#000000" stroke-width="0.042" />
		<path d="M2014.90937664937,478.25061784158 A1196.0231884058,1182.22608695652 0,0,1 2024.90935673673,496.772662032838 " stroke="#000000" stroke-width="0.042" />
		<path d="M2024.90935673673,496.772662032838 A1182.22608695652,1185.95942028986 0,0,1 2041.00798249557,499.08596795688 " stroke="#000000" stroke-width="0.042" />
		<path d="M2041.00798249557,499.08596795688 A1185.95942028986,1177.92463768116 0,0,1 2052.59873938988,512.49789280251 " stroke="#000000" stroke-width="0.042" />
		<path d="M2052.59873938988,512.49789280251 A1177.92463768116,1170.62028985507 0,0,1 2064.19992268536,525.35108300465 " stroke="#000000" stroke-width="0.042" />
		<path d="M2064.19992268536,525.35108300465 A1170.62028985507,1170.3768115942 0,0,1 2078.42519414504,531.874906799447 " stroke="#000000" stroke-width="0.042" />
		<path d="M2078.42519414504,531.874906799447 A1170.3768115942,1172.08115942029 0,0,1 2093.37894310463,536.820117398296 " stroke="#000000" stroke-width="0.042" />
		<path d="M2093.37894310463,536.820117398296 A1172.08115942029,1189.04347826087 0,0,1 2114.89302858216,528.221309079065 " stroke="#000000" stroke-width="0.042" />
		<path d="M2114.89302858216,528.221309079065 A1189.04347826087,1191.88405797101 0,0,1 2130.43910745573,532.656587162771 " stroke="#000000" stroke-width="0.042" />
		<path d="M2130.43910745573,532.656587162771 A1191.88405797101,1166.31884057971 0,0,1 2132.97767987901,562.582807814529 " stroke="#000000" stroke-width="0.042" />
		<path d="M2132.97767987901,562.582807814529 A1166.31884057971,1174.75942028985 0,0,1 2150.75575622989,562.345051310696 " stroke="#000000" stroke-width="0.042" />
		<path d="M2150.75575622989,562.345051310696 A1174.75942028985,1187.82608695652 0,0,1 2170.85799000408,558.341722011032 " stroke="#000000" stroke-width="0.042" />
		<path d="M2170.85799000408,558.341722011032 A1187.82608695652,1181.98260869565 0,0,1 2181.85565448196,571.152642708187 " stroke="#000000" stroke-width="0.042" />
		<path d="M2181.85565448196,571.152642708187 A1181.98260869565,1179.14202898551 0,0,1 2194.12638586576,581.476675702444 " stroke="#000000" stroke-width="0.042" />
		<path d="M2194.12638586576,581.476675702444 A1179.14202898551,1182.79420289855 0,0,1 2209.57147420158,586.380374967942 " stroke="#000000" stroke-width="0.042" />
		<path d="M2209.57147420158,586.380374967942 A1182.79420289855,1180.0347826087 0,0,1 2221.6138271325,596.965435249592 " stroke="#000000" stroke-width="0.042" />
		<path d="M2221.6138271325,596.965435249592 A1180.0347826087,1181.17101449275 0,0,1 2235.5785923603,604.407302954097 " stroke="#000000" stroke-width="0.042" />
		<path d="M2235.5785923603,604.407302954097 A1181.17101449275,1184.57971014493 0,0,1 2250.70366389279,610.144540105204 " stroke="#000000" stroke-width="0.042" />
		<path d="M2250.70366389279,610.144540105204 A1184.57971014493,1179.38550724638 0,0,1 2260.96724383256,623.233662904388 " stroke="#000000" stroke-width="0.042" />
		<path d="M2260.96724383256,623.233662904388 A1179.38550724638,1174.84057971014 0,0,1 2271.36871010591,635.886706437257 " stroke="#000000" stroke-width="0.042" />
		<path d="M2271.36871010591,635.886706437257 A1174.84057971014,1180.84637681159 0,0,1 2287.69494260806,640.06571498859 " stroke="#000000" stroke-width="0.042" />
		<path d="M2287.69494260806,640.06571498859 A1180.84637681159,1182.79420289855 0,0,1 2301.62165692961,647.776718968829 " stroke="#000000" stroke-width="0.042" />
		<path d="M2301.62165692961,647.776718968829 A1182.79420289855,1168.10434782609 0,0,1 2305.41741900952,668.950037662769 " stroke="#000000" stroke-width="0.042" />
		<path d="M2305.41741900952,668.950037662769 A1168.10434782609,1168.67246376812 0,0,1 2318.15009071987,678.015306651524 " stroke="#000000" stroke-width="0.042" />
		<path d="M2318.15009071987,678.015306651524 A1168.67246376812,1170.62028985507 0,0,1 2331.62870566311,686.177643045381 " stroke="#000000" stroke-width="0.042" />
		<path d="M2331.62870566311,686.177643045381 A1170.62028985507,1169.97101449275 0,0,1 2343.36709129068,696.541344421762 " stroke="#000000" stroke-width="0.042" />
		<path d="M2343.36709129068,696.541344421762 A1169.97101449275,1186.93333333333 0,0,1 2366.32994123131,693.606509869913 " stroke="#000000" stroke-width="0.042" />
		<path d="M2366.32994123131,693.606509869913 A1186.93333333333,1179.62898550725 0,0,1 2373.58833101237,709.446443176854 " stroke="#000000" stroke-width="0.042" />
		<path d="M2373.58833101237,709.446443176854 A1179.62898550725,1182.22608695652 0,0,1 2387.15364380632,717.929899768188 " stroke="#000000" stroke-width="0.042" />
		<path d="M2387.15364380632,717.929899768188 A1182.22608695652,1174.02898550725 0,0,1 2393.33603084048,734.574092725753 " stroke="#000000" stroke-width="0.042" />
		<path d="M2393.33603084048,734.574092725753 A1174.02898550725,1179.14202898551 0,0,1 2408.33960819168,741.534507188217 " stroke="#000000" stroke-width="0.042" />
		<path d="M2408.33960819168,741.534507188217 A1179.14202898551,1172.40579710145 0,0,1 2415.06058874543,757.259476617488 " stroke="#000000" stroke-width="0.042" />
		<path d="M2415.06058874543,757.259476617488 A1172.40579710145,1176.70724637681 0,0,1 2429.28525305645,765.179113378929 " stroke="#000000" stroke-width="0.042" />
		<path d="M2429.28525305645,765.179113378929 A1176.70724637681,1168.99710144928 0,0,1 2434.86495506276,781.736759957491 " stroke="#000000" stroke-width="0.042" />
		<path d="M2434.86495506276,781.736759957491 A1168.99710144928,1171.59420289855 0,0,1 2447.60809295093,791.177709858603 " stroke="#000000" stroke-width="0.042" />
		<path d="M2447.60809295093,791.177709858603 A1171.59420289855,1178.81739130435 0,0,1 2463.63689261604,797.664808353707 " stroke="#000000" stroke-width="0.042" />
		<path d="M2463.63689261604,797.664808353707 A1178.81739130435,1188.06956521739 0,0,1 2481.14761216999,803.075801996852 " stroke="#000000" stroke-width="0.042" />
		<path d="M2481.14761216999,803.075801996852 A1188.06956521739,1189.20579710145 0,0,1 2492.57524786298,814.175684543914 " stroke="#000000" stroke-width="0.042" />
		<path d="M2492.57524786298,814.175684543914 A1189.20579710145,1200 0,0,1 2511.19703171971,819.154324219441 " stroke="#000000" stroke-width="0.042" />
		<path d="M2511.19703171971,819.154324219441 A1200,1189.12463768116 0,0,1 2513.2023605674,838.370921908521 " stroke="#000000" stroke-width="0.042" />
		<path d="M2513.2023605674,838.370921908521 A1189.12463768116,1189.44927536232 0,0,1 2523.55454618859,850.442411235582 " stroke="#000000" stroke-width="0.042" />
		<path d="M2523.55454618859,850.442411235582 A1189.44927536232,1185.47246376812 0,0,1 2530.37132033863,865.320363257695 " stroke="#000000" stroke-width="0.042" />
		<path d="M2530.37132033863,865.320363257695 A1185.47246376812,1188.8 0,0,1 2542.74845582651,875.796445026178 " stroke="#000000" stroke-width="0.042" />
		<path d="M2542.74845582651,875.796445026178 A1188.8,1184.8231884058 0,0,1 2549.15980014943,890.844402430347 " stroke="#000000" stroke-width="0.042" />
		<path d="M2549.15980014943,890.844402430347 A1184.8231884058,1185.22898550725 0,0,1 2558.88352332728,903.357956495597 " stroke="#000000" stroke-width="0.042" />
		<path d="M2558.88352332728,903.357956495597 A1185.22898550725,1174.4347826087 0,0,1 2559.29394237361,922.466096253155 " stroke="#000000" stroke-width="0.042" />
		<path d="M2559.29394237361,922.466096253155 A1174.4347826087,1176.13913043478 0,0,1 2569.67088276779,934.386273239337 " stroke="#000000" stroke-width="0.042" />
		<path d="M2569.67088276779,934.386273239337 A1176.13913043478,1182.3884057971 0,0,1 2583.68143869394,943.941184547883 " stroke="#000000" stroke-width="0.042" />
		<path d="M2583.68143869394,943.941184547883 A1182.3884057971,1181.98260869565 0,0,1 2592.02337898226,957.370633403986 " stroke="#000000" stroke-width="0.042" />
		<path d="M2592.02337898226,957.370633403986 A1181.98260869565,1173.29855072464 0,0,1 2593.17473612855,975.313332422947 " stroke="#000000" stroke-width="0.042" />
		<path d="M2593.17473612855,975.313332422947 A1173.29855072464,1167.45507246377 0,0,1 2596.44947309104,991.691037549199 " stroke="#000000" stroke-width="0.042" />
		<path d="M2596.44947309104,991.691037549199 A1167.45507246377,1181.82028985507 0,0,1 2616.85252365667,997.745782375753 " stroke="#000000" stroke-width="0.042" />
		<path d="M2616.85252365667,997.745782375753 A1181.82028985507,1157.14782608696 0,0,1 2603.41813026651,1023.68138389409 " stroke="#000000" stroke-width="0.042" />
		<path d="M2603.41813026651,1023.68138389409 A1157.14782608696,1173.70434782609 0,0,1 2625.49879546172,1029.09360083074 " stroke="#000000" stroke-width="0.042" />
		<path d="M2625.49879546172,1029.09360083074 A1173.70434782609,1180.19710144928 0,0,1 2638.75384787845,1039.7717949023 " stroke="#000000" stroke-width="0.042" />
		<path d="M2638.75384787845,1039.7717949023 A1180.19710144928,1165.91304347826 0,0,1 2633.48867526414,1060.32011057155 " stroke="#000000" stroke-width="0.042" />
		<path d="M2633.48867526414,1060.32011057155 A1165.91304347826,1191.64057971014 0,0,1 2663.57351783454,1062.5815007157 " stroke="#000000" stroke-width="0.042" />
		<path d="M2663.57351783454,1062.5815007157 A1191.64057971014,1186.20289855072 0,0,1 2665.77723729925,1079.234988709 " stroke="#000000" stroke-width="0.042" />
		<path d="M2665.77723729925,1079.234988709 A1186.20289855072,1184.57971014493 0,0,1 2671.17597202962,1094.22225569581 " stroke="#000000" stroke-width="0.042" />
		<path d="M2671.17597202962,1094.22225569581 A1184.57971014493,1174.27246376812 0,0,1 2668.46316555332,1112.86317833712 " stroke="#000000" stroke-width="0.042" />
		<path d="M2668.46316555332,1112.86317833712 A1174.27246376812,1181.49565217391 0,0,1 2681.49170668701,1124.28194855243 " stroke="#000000" stroke-width="0.042" />
		<path d="M2681.49170668701,1124.28194855243 A1181.49565217391,1169.24057971014 0,0,1 2676.47188591097,1143.56620186035 " stroke="#000000" stroke-width="0.042" />
		<path d="M2676.47188591097,1143.56620186035 A1169.24057971014,1175.40869565217 0,0,1 2688.18787096924,1155.66593728348 " stroke="#000000" stroke-width="0.042" />
		<path d="M2688.18787096924,1155.66593728348 A1175.40869565217,1184.57971014493 0,0,1 2702.56671270146,1166.89985715803 " stroke="#000000" stroke-width="0.042" />
		<path d="M2702.56671270146,1166.89985715803 A1184.57971014493,1176.54492753623 0,0,1 2700.74091373608,1184.5154547535 " stroke="#000000" stroke-width="0.042" />
		<path d="M2700.74091373608,1184.5154547535 A1176.54492753623,1176.62608695652 0,0,1 2706.27320007233,1199.24002781172 " stroke="#000000" stroke-width="0.042" />
		<path d="M2706.27320007233,1199.24002781172 A1176.62608695652,1191.72173913043 0,0,1 2725.7923605742,1209.11348911885 " stroke="#000000" stroke-width="0.042" />
		<path d="M2725.7923605742,1209.11348911885 A1191.72173913043,1186.04057971014 0,0,1 2725.52597329741,1225.98991971859 " stroke="#000000" stroke-width="0.042" />
		<path d="M2725.52597329741,1225.98991971859 A1186.04057971014,1185.71594202899 0,0,1 2730.11587808097,1241.16800966056 " stroke="#000000" stroke-width="0.042" />
		<path d="M2730.11587808097,1241.16800966056 A1185.71594202899,1151.95362318841 0,0,1 2702.4990154402,1266.09421848329 " stroke="#000000" stroke-width="0.042" />
		<path d="M2702.4990154402,1266.09421848329 A1151.95362318841,1167.77971014493 0,0,1 2722.07089248827,1276.47818673737 " stroke="#000000" stroke-width="0.042" />
		<path d="M2722.07089248827,1276.47818673737 A1167.77971014493,1180.7652173913 0,0,1 2738.81978707686,1288.07694672667 " stroke="#000000" stroke-width="0.042" />
		<path d="M2738.81978707686,1288.07694672667 A1180.7652173913,1175.32753623188 0,0,1 2737.62466987926,1304.69519491377 " stroke="#000000" stroke-width="0.042" />
		<path d="M2737.62466987926,1304.69519491377 A1175.32753623188,1175.08405797101 0,0,1 2741.23428432046,1319.98776528661 " stroke="#000000" stroke-width="0.042" />
		<path d="M2741.23428432046,1319.98776528661 A1175.08405797101,1180.68405797101 0,0,1 2750.33164245228,1334.00759950715 " stroke="#000000" stroke-width="0.042" />
		<path d="M2750.33164245228,1334.00759950715 A1180.68405797101,1182.22608695652 0,0,1 2755.29162470924,1349.08211989336 " stroke="#000000" stroke-width="0.042" />
		<path d="M2755.29162470924,1349.08211989336 A1182.22608695652,1185.79710144928 0,0,1 2762.0422220482,1363.83768297463 " stroke="#000000" stroke-width="0.042" />
		<path d="M2762.0422220482,1363.83768297463 A1185.79710144928,1185.31014492754 0,0,1 2764.61702645226,1379.48396574027 " stroke="#000000" stroke-width="0.042" />
		<path d="M2764.61702645226,1379.48396574027 A1185.31014492754,1183.84927536232 0,0,1 2766.02202031588,1395.32524602592 " stroke="#000000" stroke-width="0.042" />
		<path d="M2766.02202031588,1395.32524602592 A1183.84927536232,1185.31014492754 0,0,1 2770.09610619752,1410.69801393135 " stroke="#000000" stroke-width="0.042" />
		<path d="M2770.09610619752,1410.69801393135 A1185.31014492754,1187.09565217391 0,0,1 2774.28844487397,1426.09561349498 " stroke="#000000" stroke-width="0.042" />
		<path d="M2774.28844487397,1426.09561349498 A1187.09565217391,1181.17101449275 0,0,1 2770.63652675578,1442.5989590155 " stroke="#000000" stroke-width="0.042" />
		<path d="M2770.63652675578,1442.5989590155 A1181.17101449275,1181.98260869565 0,0,1 2773.44184001211,1458.1651123032 " stroke="#000000" stroke-width="0.042" />
		<path d="M2773.44184001211,1458.1651123032 A1181.98260869565,1178.81739130435 0,0,1 2772.08593613089,1474.20254229212 " stroke="#000000" stroke-width="0.042" />
		<path d="M2772.08593613089,1474.20254229212 A1178.81739130435,1184.90434782609 0,0,1 2779.72324310172,1489.31403348785 " stroke="#000000" stroke-width="0.042" />
		<path d="M2779.72324310172,1489.31403348785 A1184.90434782609,1159.42028985507 0,0,1 2755.69532787521,1507.13602606479 " stroke="#000000" stroke-width="0.042" />
		<path d="M2755.69532787521,1507.13602606479 A1159.42028985507,1178.49275362319 0,0,1 2775.8634034417,1521.32073469549 " stroke="#000000" stroke-width="0.042" />
		<path d="M2775.8634034417,1521.32073469549 A1178.49275362319,1175.57101449275 0,0,1 2773.89257213569,1537.20319116254 " stroke="#000000" stroke-width="0.042" />
		<path d="M2773.89257213569,1537.20319116254 A1175.57101449275,1178.16811594203 0,0,1 2777.22217856274,1552.79775723136 " stroke="#000000" stroke-width="0.042" />
		<path d="M2777.22217856274,1552.79775723136 A1178.16811594203,1177.92463768116 0,0,1 2777.50460615359,1568.54599320634 " stroke="#000000" stroke-width="0.042" />
		<path d="M2777.50460615359,1568.54599320634 A1177.92463768116,1172.32463768116 0,0,1 2772.22037010802,1584.36478276221 " stroke="#000000" stroke-width="0.042" />
		<path d="M2772.22037010802,1584.36478276221 A1172.32463768116,1178.16811594203 0,0,1 2778.1681153606,1600.03701398325 " stroke="#000000" stroke-width="0.042" />
		<path d="M2778.1681153606,1600.03701398325 A1178.16811594203,1167.37391304348 0,0,1 2767.2691052273,1615.64253292477 " stroke="#000000" stroke-width="0.042" />
		<path d="M2767.2691052273,1615.64253292477 A1167.37391304348,1177.51884057971 0,0,1 2777.09697575794,1631.51713155882 " stroke="#000000" stroke-width="0.042" />
		<path d="M2777.09697575794,1631.51713155882 A1177.51884057971,1172.56811594203 0,0,1 2771.62372065782,1647.0515006749 " stroke="#000000" stroke-width="0.042" />
		<path d="M2771.62372065782,1647.0515006749 A1172.56811594203,1181.5768115942 0,0,1 2779.88582614795,1663.19176332625 " stroke="#000000" stroke-width="0.042" />
		<path d="M2779.88582614795,1663.19176332625 A1181.5768115942,1179.71014492754 0,0,1 2777.07312751552,1678.83450085958 " stroke="#000000" stroke-width="0.042" />
		<path d="M2777.07312751552,1678.83450085958 A1179.71014492754,1161.12463768116 0,0,1 2757.38835421288,1693.07320647004 " stroke="#000000" stroke-width="0.042" />
		<path d="M2757.38835421288,1693.07320647004 A1161.12463768116,1183.2 0,0,1 2778.01940063008,1710.60077639481 " stroke="#000000" stroke-width="0.042" />
		<path d="M2778.01940063008,1710.60077639481 A1183.2,1184.25507246377 0,0,1 2777.48462321871,1726.45172493745 " stroke="#000000" stroke-width="0.042" />
		<path d="M2777.48462321871,1726.45172493745 A1184.25507246377,1185.79710144928 0,0,1 2777.21982699657,1742.3665857274 " stroke="#000000" stroke-width="0.042" />
		<path d="M2777.21982699657,1742.3665857274 A1185.79710144928,1176.95072463768 0,0,1 2766.44401935777,1756.91194323456 " stroke="#000000" stroke-width="0.042" />
		<path d="M2766.44401935777,1756.91194323456 A1176.95072463768,1181.25217391304 0,0,1 2768.49713461799,1773.12176282557 " stroke="#000000" stroke-width="0.042" />
		<path d="M2768.49713461799,1773.12176282557 A1181.25217391304,1169.72753623188 0,0,1 2754.7017676067,1786.88589273962 " stroke="#000000" stroke-width="0.042" />
		<path d="M2754.7017676067,1786.88589273962 A1169.72753623188,1170.86376811594 0,0,1 2753.21933662631,1802.50216077328 " stroke="#000000" stroke-width="0.042" />
		<path d="M2753.21933662631,1802.50216077328 A1170.86376811594,1174.59710144928 0,0,1 2754.07727829574,1818.595485897 " stroke="#000000" stroke-width="0.042" />
		<path d="M2754.07727829574,1818.595485897 A1174.59710144928,1177.27536231884 0,0,1 2753.67646307314,1834.53762443157 " stroke="#000000" stroke-width="0.042" />
		<path d="M2753.67646307314,1834.53762443157 A1177.27536231884,1173.6231884058 0,0,1 2746.8690710915,1849.16404663898 " stroke="#000000" stroke-width="0.042" />
		<path d="M2746.8690710915,1849.16404663898 A1173.6231884058,1171.26956521739 0,0,1 2741.14259049661,1863.94314266377 " stroke="#000000" stroke-width="0.042" />
		<path d="M2741.14259049661,1863.94314266377 A1171.26956521739,1172.56811594203 0,0,1 2738.77325854747,1879.4842609898 " stroke="#000000" stroke-width="0.042" />
		<path d="M2738.77325854747,1879.4842609898 A1172.56811594203,1175.48985507246 0,0,1 2737.76322203034,1895.41707799891 " stroke="#000000" stroke-width="0.042" />
		<path d="M2737.76322203034,1895.41707799891 A1175.48985507246,1176.30144927536 0,0,1 2734.49506234,1910.81514296036 " stroke="#000000" stroke-width="0.042" />
		<path d="M2734.49506234,1910.81514296036 A1176.30144927536,1154.22608695652 0,0,1 2709.02768625432,1919.83660036394 " stroke="#000000" stroke-width="0.042" />
		<path d="M2709.02768625432,1919.83660036394 A1154.22608695652,1146.11014492754 0,0,1 2696.88552790701,1932.28090973449 " stroke="#000000" stroke-width="0.042" />
		<path d="M2696.88552790701,1932.28090973449 A1146.11014492754,1169.64637681159 0,0,1 2714.77759659416,1954.03892006422 " stroke="#000000" stroke-width="0.042" />
		<path d="M2714.77759659416,1954.03892006422 A1169.64637681159,1184.8231884058 0,0,1 2724.34721787337,1973.69683092648 " stroke="#000000" stroke-width="0.042" />
		<path d="M2724.34721787337,1973.69683092648 A1184.8231884058,1177.76231884058 0,0,1 2712.5809393274,1986.37770785345 " stroke="#000000" stroke-width="0.042" />
		<path d="M2712.5809393274,1986.37770785345 A1177.76231884058,1173.94782608696 0,0,1 2703.72995205641,1999.91710554545 " stroke="#000000" stroke-width="0.042" />
		<path d="M2703.72995205641,1999.91710554545 A1173.94782608696,1184.41739130435 0,0,1 2708.0798768008,2018.33424848239 " stroke="#000000" stroke-width="0.042" />
		<path d="M2708.0798768008,2018.33424848239 A1184.41739130435,1177.43768115942 0,0,1 2695.89210265959,2030.55776887941 " stroke="#000000" stroke-width="0.042" />
		<path d="M2695.89210265959,2030.55776887941 A1177.43768115942,1177.19420289855 0,0,1 2689.81292177146,2045.07750659622 " stroke="#000000" stroke-width="0.042" />
		<path d="M2689.81292177146,2045.07750659622 A1177.19420289855,1157.95942028985 0,0,1 2666.05738018313,2052.09698206813 " stroke="#000000" stroke-width="0.042" />
		<path d="M2666.05738018313,2052.09698206813 A1157.95942028985,1148.54492753623 0,0,1 2651.30093214698,2062.51681119295 " stroke="#000000" stroke-width="0.042" />
		<path d="M2651.30093214698,2062.51681119295 A1148.54492753623,1156.57971014493 0,0,1 2652.33449053897,2079.86325754428 " stroke="#000000" stroke-width="0.042" />
		<path d="M2652.33449053897,2079.86325754428 A1156.57971014493,1173.05507246377 0,0,1 2660.72315357235,2100.92374121067 " stroke="#000000" stroke-width="0.042" />
		<path d="M2660.72315357235,2100.92374121067 A1173.05507246377,1178.89855072464 0,0,1 2659.18191940575,2117.62482021693 " stroke="#000000" stroke-width="0.042" />
		<path d="M2659.18191940575,2117.62482021693 A1178.89855072464,1181.17101449275 0,0,1 2654.19565644064,2132.76306499186 " stroke="#000000" stroke-width="0.042" />
		<path d="M2654.19565644064,2132.76306499186 A1181.17101449275,1188.88115942029 0,0,1 2653.81349343459,2150.37762697962 " stroke="#000000" stroke-width="0.042" />
		<path d="M2653.81349343459,2150.37762697962 A1188.88115942029,1168.10434782609 0,0,1 2628.07553402855,2154.55248961853 " stroke="#000000" stroke-width="0.042" />
		<path d="M2628.07553402855,2154.55248961853 A1168.10434782609,1180.92753623188 0,0,1 2631.77380552484,2174.48469088697 " stroke="#000000" stroke-width="0.042" />
		<path d="M2631.77380552484,2174.48469088697 A1180.92753623188,1190.74782608696 0,0,1 2632.51702915307,2193.11800667298 " stroke="#000000" stroke-width="0.042" />
		<path d="M2632.51702915307,2193.11800667298 A1190.74782608696,1195.45507246377 0,0,1 2628.54577601044,2209.26711459789 " stroke="#000000" stroke-width="0.042" />
		<path d="M2628.54577601044,2209.26711459789 A1195.45507246377,1184.17391304348 0,0,1 2610.68061270424,2217.08391279994 " stroke="#000000" stroke-width="0.042" />
		<path d="M2610.68061270424,2217.08391279994 A1184.17391304348,1165.10144927536 0,0,1 2586.19706812416,2220.38434049133 " stroke="#000000" stroke-width="0.042" />
		<path d="M2586.19706812416,2220.38434049133 A1165.10144927536,1171.43188405797 0,0,1 2583.12826642365,2236.95484199936 " stroke="#000000" stroke-width="0.042" />
		<path d="M2583.12826642365,2236.95484199936 A1171.43188405797,1168.26666666667 0,0,1 2571.89220479653,2248.2843100833 " stroke="#000000" stroke-width="0.042" />
		<path d="M2571.89220479653,2248.2843100833 A1168.26666666667,1175.1652173913 0,0,1 2568.82614783296,2265.12343474088 " stroke="#000000" stroke-width="0.042" />
		<path d="M2568.82614783296,2265.12343474088 A1175.1652173913,1178.81739130435 0,0,1 2562.83098308886,2280.12273895653 " stroke="#000000" stroke-width="0.042" />
		<path d="M2562.83098308886,2280.12273895653 A1178.81739130435,1182.22608695652 0,0,1 2556.41043092387,2294.93712542974 " stroke="#000000" stroke-width="0.042" />
		<path d="M2556.41043092387,2294.93712542974 A1182.22608695652,1148.13913043478 0,0,1 2519.72908430375,2287.25677466382 " stroke="#000000" stroke-width="0.042" />
		<path d="M2519.72908430375,2287.25677466382 A1148.13913043478,1173.37971014493 0,0,1 2530.47486055569,2314.86815431495 " stroke="#000000" stroke-width="0.042" />
		<path d="M2530.47486055569,2314.86815431495 A1173.37971014493,1177.84347826087 0,0,1 2524.33814491321,2330.00976235943 " stroke="#000000" stroke-width="0.042" />
		<path d="M2524.33814491321,2330.00976235943 A1177.84347826087,1185.95942028986 0,0,1 2520.79786801902,2347.41623799987 " stroke="#000000" stroke-width="0.042" />
		<path d="M2520.79786801902,2347.41623799987 A1185.95942028986,1178.97971014493 0,0,1 2505.36399418012,2355.18818514039 " stroke="#000000" stroke-width="0.042" />
		<path d="M2505.36399418012,2355.18818514039 A1178.97971014493,1188.47536231884 0,0,1 2502.3974251314,2373.4032414951 " stroke="#000000" stroke-width="0.042" />
		<path d="M2502.3974251314,2373.4032414951 A1188.47536231884,1178.73623188406 0,0,1 2484.66822462448,2378.96164006708 " stroke="#000000" stroke-width="0.042" />
		<path d="M2484.66822462448,2378.96164006708 A1178.73623188406,1175.08405797101 0,0,1 2471.46721016941,2388.2686375197 " stroke="#000000" stroke-width="0.042" />
		<path d="M2471.46721016941,2388.2686375197 A1175.08405797101,1168.18550724638 0,0,1 2455.7976960132,2395.15261606749 " stroke="#000000" stroke-width="0.042" />
		<path d="M2455.7976960132,2395.15261606749 A1168.18550724638,1156.8231884058 0,0,1 2436.87159047229,2398.6775508888 " stroke="#000000" stroke-width="0.042" />
		<path d="M2436.87159047229,2398.6775508888 A1156.8231884058,1168.75362318841 0,0,1 2434.63966475206,2418.14525711428 " stroke="#000000" stroke-width="0.042" />
		<path d="M2434.63966475206,2418.14525711428 A1168.75362318841,1172 0,0,1 2425.91557170079,2431.53320343938 " stroke="#000000" stroke-width="0.042" />
		<path d="M2425.91557170079,2431.53320343938 A1172,1192.53333333333 0,0,1 2428.9994592445,2457.2605483069 " stroke="#000000" stroke-width="0.042" />
		<path d="M2428.9994592445,2457.2605483069 A1192.53333333333,1176.38260869565 0,0,1 2406.39412182871,2456.50718754818 " stroke="#000000" stroke-width="0.042" />
		<path d="M2406.39412182871,2456.50718754818 A1176.38260869565,1182.87536231884 0,0,1 2399.25907534156,2471.99716356481 " stroke="#000000" stroke-width="0.042" />
		<path d="M2399.25907534156,2471.99716356481 A1182.87536231884,1186.28405797101 0,0,1 2389.79992034716,2485.14741823935 " stroke="#000000" stroke-width="0.042" />
		<path d="M2389.79992034716,2485.14741823935 A1186.28405797101,1180.84637681159 0,0,1 2374.330667951,2491.52127417108 " stroke="#000000" stroke-width="0.042" />
		<path d="M2374.330667951,2491.52127417108 A1180.84637681159,1166.48115942029 0,0,1 2353.06925722124,2490.82264739439 " stroke="#000000" stroke-width="0.042" />
		<path d="M2353.06925722124,2490.82264739439 A1166.48115942029,1165.34492753623 0,0,1 2340.37125998959,2499.93288500635 " stroke="#000000" stroke-width="0.042" />
		<path d="M2340.37125998959,2499.93288500635 A1165.34492753623,1158.93333333333 0,0,1 2324.26760095319,2504.74466747289 " stroke="#000000" stroke-width="0.042" />
		<path d="M2324.26760095319,2504.74466747289 A1158.93333333333,1181.5768115942 0,0,1 2326.02124970621,2532.21076301025 " stroke="#000000" stroke-width="0.042" />
		<path d="M2326.02124970621,2532.21076301025 A1181.5768115942,1189.12463768116 0,0,1 2318.05200280139,2547.84952667249 " stroke="#000000" stroke-width="0.042" />
		<path d="M2318.05200280139,2547.84952667249 A1189.12463768116,1188.96231884058 0,0,1 2305.22037688237,2557.23331307088 " stroke="#000000" stroke-width="0.042" />
		<path d="M2305.22037688237,2557.23331307088 A1188.96231884058,1174.51594202899 0,0,1 2283.94826449175,2554.83112097321 " stroke="#000000" stroke-width="0.042" />
		<path d="M2283.94826449175,2554.83112097321 A1174.51594202899,1184.98550724638 0,0,1 2277.10497860732,2572.48110538413 " stroke="#000000" stroke-width="0.042" />
		<path d="M2277.10497860732,2572.48110538413 A1184.98550724638,1194.07536231884 0,0,1 2269.1377928999,2588.97451181005 " stroke="#000000" stroke-width="0.042" />
		<path d="M2269.1377928999,2588.97451181005 A1194.07536231884,1189.85507246377 0,0,1 2253.53900892438,2594.30471047959 " stroke="#000000" stroke-width="0.042" />
		<path d="M2253.53900892438,2594.30471047959 A1189.85507246377,1189.93623188406 0,0,1 2240.23206344933,2603.02100719868 " stroke="#000000" stroke-width="0.042" />
		<path d="M2240.23206344933,2603.02100719868 A1189.93623188406,1177.19420289855 0,0,1 2220.0546050435,2600.65902189622 " stroke="#000000" stroke-width="0.042" />
		<path d="M2220.0546050435,2600.65902189622 A1177.19420289855,1184.74202898551 0,0,1 2210.51152185,2615.32721668096 " stroke="#000000" stroke-width="0.042" />
		<path d="M2210.51152185,2615.32721668096 A1184.74202898551,1182.14492753623 0,0,1 2195.57527507519,2621.15460211407 " stroke="#000000" stroke-width="0.042" />
		<path d="M2195.57527507519,2621.15460211407 A1182.14492753623,1181.08985507246 0,0,1 2181.35157984382,2628.10679716077 " stroke="#000000" stroke-width="0.042" />
		<path d="M2181.35157984382,2628.10679716077 A1181.08985507246,1179.06086956522 0,0,1 2166.58054060155,2634.00726552164 " stroke="#000000" stroke-width="0.042" />
		<path d="M2166.58054060155,2634.00726552164 A1179.06086956522,1189.28695652174 0,0,1 2157.50061168685,2650.52202876547 " stroke="#000000" stroke-width="0.042" />
		<path d="M2157.50061168685,2650.52202876547 A1189.28695652174,1168.8347826087 0,0,1 2134.06207479047,2639.68863094025 " stroke="#000000" stroke-width="0.042" />
		<path d="M2134.06207479047,2639.68863094025 A1168.8347826087,1182.06376811594 0,0,1 2126.00214774442,2658.58230311144 " stroke="#000000" stroke-width="0.042" />
		<path d="M2126.00214774442,2658.58230311144 A1182.06376811594,1182.3884057971 0,0,1 2111.94420670395,2665.81211823927 " stroke="#000000" stroke-width="0.042" />
		<path d="M2111.94420670395,2665.81211823927 A1182.3884057971,1161.04347826087 0,0,1 2088.66653763645,2653.19844920438 " stroke="#000000" stroke-width="0.042" />
		<path d="M2088.66653763645,2653.19844920438 A1161.04347826087,1166.96811594203 0,0,1 2076.96487263118,2665.04417462432 " stroke="#000000" stroke-width="0.042" />
		<path d="M2076.96487263118,2665.04417462432 A1166.96811594203,1145.21739130435 0,0,1 2054.06055143054,2651.35716527759 " stroke="#000000" stroke-width="0.042" />
		<path d="M2054.06055143054,2651.35716527759 A1145.21739130435,1181.65797101449 0,0,1 2053.96466452456,2690.97738007036 " stroke="#000000" stroke-width="0.042" />
		<path d="M2053.96466452456,2690.97738007036 A1181.65797101449,1166.80579710145 0,0,1 2033.81750528248,2683.1611792619 " stroke="#000000" stroke-width="0.042" />
		<path d="M2033.81750528248,2683.1611792619 A1166.80579710145,1163.15362318841 0,0,1 2017.98623242006,2685.45560049391 " stroke="#000000" stroke-width="0.042" />
		<path d="M2017.98623242006,2685.45560049391 A1163.15362318841,1171.51304347826 0,0,1 2006.3375849245,2698.78686655667 " stroke="#000000" stroke-width="0.042" />
		<path d="M2006.3375849245,2698.78686655667 A1171.51304347826,1175.73333333333 0,0,1 1993.02306328212,2708.09825504756 " stroke="#000000" stroke-width="0.042" />
		<path d="M1993.02306328212,2708.09825504756 A1175.73333333333,1193.99420289855 0,0,1 1984.04810562227,2730.54376700917 " stroke="#000000" stroke-width="0.042" />
		<path d="M1984.04810562227,2730.54376700917 A1193.99420289855,1173.6231884058 0,0,1 1962.60638976364,2716.20248811153 " stroke="#000000" stroke-width="0.042" />
		<path d="M1962.60638976364,2716.20248811153 A1173.6231884058,1175.57101449275 0,0,1 1948.22919082844,2722.81059879683 " stroke="#000000" stroke-width="0.042" />
		<path d="M1948.22919082844,2722.81059879683 A1175.57101449275,1172.89275362319 0,0,1 1932.42885947575,2724.79707720523 " stroke="#000000" stroke-width="0.042" />
		<path d="M1932.42885947575,2724.79707720523 A1172.89275362319,1189.93623188406 0,0,1 1921.97411525024,2745.54829887668 " stroke="#000000" stroke-width="0.042" />
		<path d="M1921.97411525024,2745.54829887668 A1189.93623188406,1174.75942028985 0,0,1 1902.72038555084,2735.08592790665 " stroke="#000000" stroke-width="0.042" />
		<path d="M1902.72038555084,2735.08592790665 A1174.75942028985,1178.81739130435 0,0,1 1888.51228719416,2742.96592345511 " stroke="#000000" stroke-width="0.042" />
		<path d="M1888.51228719416,2742.96592345511 A1178.81739130435,1171.59420289855 0,0,1 1871.53286679583,2739.69420394908 " stroke="#000000" stroke-width="0.042" />
		<path d="M1871.53286679583,2739.69420394908 A1171.59420289855,1169.5652173913 0,0,1 1855.82895590375,2741.24245585799 " stroke="#000000" stroke-width="0.042" />
		<path d="M1855.82895590375,2741.24245585799 A1169.5652173913,1180.0347826087 0,0,1 1842.70288905953,2754.8062156953 " stroke="#000000" stroke-width="0.042" />
		<path d="M1842.70288905953,2754.8062156953 A1180.0347826087,1181.17101449275 0,0,1 1827.46215713084,2759.06252314154 " stroke="#000000" stroke-width="0.042" />
		<path d="M1827.46215713084,2759.06252314154 A1181.17101449275,1190.82898550725 0,0,1 1813.68008718469,2771.50095734701 " stroke="#000000" stroke-width="0.042" />
		<path d="M1813.68008718469,2771.50095734701 A1190.82898550725,1181.90144927536 0,0,1 1796.51557191682,2765.44955523326 " stroke="#000000" stroke-width="0.042" />
		<path d="M1796.51557191682,2765.44955523326 A1181.90144927536,1173.70434782609 0,0,1 1779.66311576623,2759.87200196359 " stroke="#000000" stroke-width="0.042" />
		<path d="M1779.66311576623,2759.87200196359 A1173.70434782609,1167.45507246377 0,0,1 1763.2675323359,2755.98229186538 " stroke="#000000" stroke-width="0.042" />
		<path d="M1763.2675323359,2755.98229186538 A1167.45507246377,1170.3768115942 0,0,1 1748.16925957251,2760.95984066424 " stroke="#000000" stroke-width="0.042" />
		<path d="M1748.16925957251,2760.95984066424 A1170.3768115942,1180.19710144928 0,0,1 1733.74881243557,2772.59389962653 " stroke="#000000" stroke-width="0.042" />
		<path d="M1733.74881243557,2772.59389962653 A1180.19710144928,1174.92173913043 0,0,1 1717.53349488806,2769.02821636635 " stroke="#000000" stroke-width="0.042" />
		<path d="M1717.53349488806,2769.02821636635 A1174.92173913043,1172.08115942029 0,0,1 1701.64866630533,2767.66510306096 " stroke="#000000" stroke-width="0.042" />
		<path d="M1701.64866630533,2767.66510306096 A1172.08115942029,1170.13333333333 0,0,1 1685.8868599785,2766.97706278265 " stroke="#000000" stroke-width="0.042" />
		<path d="M1685.8868599785,2766.97706278265 A1170.13333333333,1184.90434782609 0,0,1 1671.16578143157,2782.76529584292 " stroke="#000000" stroke-width="0.042" />
		<path d="M1671.16578143157,2782.76529584292 A1184.90434782609,1172.8115942029 0,0,1 1654.782941395,2771.53141862643 " stroke="#000000" stroke-width="0.042" />
		<path d="M1654.782941395,2771.53141862643 A1172.8115942029,1177.27536231884 0,0,1 1639.26548501953,2776.62037225655 " stroke="#000000" stroke-width="0.042" />
		<path d="M1639.26548501953,2776.62037225655 A1177.27536231884,1174.92173913043 0,0,1 1623.48545853929,2774.68699078456 " stroke="#000000" stroke-width="0.042" />
		<path d="M1623.48545853929,2774.68699078456 A1174.92173913043,1185.22898550725 0,0,1 1607.84798410306,2785.20300254094 " stroke="#000000" stroke-width="0.042" />
		<path d="M1607.84798410306,2785.20300254094 A1185.22898550725,1175.32753623188 0,0,1 1592.06988259454,2775.30078306059 " stroke="#000000" stroke-width="0.042" />
		<path d="M1592.06988259454,2775.30078306059 A1175.32753623188,1174.4347826087 0,0,1 1576.37671810735,2774.19717217925 " stroke="#000000" stroke-width="0.042" />
		<path d="M1576.37671810735,2774.19717217925 A1174.4347826087,1183.68695652174 0,0,1 1560.37200366575,2783.02342873936 " stroke="#000000" stroke-width="0.042" />
		<path d="M1560.37200366575,2783.02342873936 A1183.68695652174,1173.86666666667 0,0,1 1545.02042141666,2772.57843961498 " stroke="#000000" stroke-width="0.042" />
		<path d="M1545.02042141666,2772.57843961498 A1173.86666666667,1169.07826086957 0,0,1 1529.63809117068,2766.95894607467 " stroke="#000000" stroke-width="0.042" />
		<path d="M1529.63809117068,2766.95894607467 A1169.07826086957,1175.1652173913 0,0,1 1513.59652417023,2771.98452529497 " stroke="#000000" stroke-width="0.042" />
		<path d="M1513.59652417023,2771.98452529497 A1175.1652173913,1176.86956521739 0,0,1 1497.78872477058,2772.42263230925 " stroke="#000000" stroke-width="0.042" />
		<path d="M1497.78872477058,2772.42263230925 A1176.86956521739,1181.00869565217 0,0,1 1481.70992787577,2775.06978432895 " stroke="#000000" stroke-width="0.042" />
		<path d="M1481.70992787577,2775.06978432895 A1181.00869565217,1182.22608695652 0,0,1 1465.87363994929,2774.59296789146 " stroke="#000000" stroke-width="0.042" />
		<path d="M1465.87363994929,2774.59296789146 A1182.22608695652,1173.37971014493 0,0,1 1451.30430802474,2763.91990075254 " stroke="#000000" stroke-width="0.042" />
		<path d="M1451.30430802474,2763.91990075254 A1173.37971014493,1182.87536231884 0,0,1 1434.42876873871,2771.23024643302 " stroke="#000000" stroke-width="0.042" />
		<path d="M1434.42876873871,2771.23024643302 A1182.87536231884,1174.84057971014 0,0,1 1420.01706074946,2760.97223451399 " stroke="#000000" stroke-width="0.042" />
		<path d="M1420.01706074946,2760.97223451399 A1174.84057971014,1182.06376811594 0,0,1 1403.31096301586,2765.58490665533 " stroke="#000000" stroke-width="0.042" />
		<path d="M1403.31096301586,2765.58490665533 A1182.06376811594,1165.83188405797 0,0,1 1390.66121899505,2746.88327943759 " stroke="#000000" stroke-width="0.042" />
		<path d="M1390.66121899505,2746.88327943759 A1165.83188405797,1173.13623188406 0,0,1 1373.94046611945,2751.14973209432 " stroke="#000000" stroke-width="0.042" />
		<path d="M1373.94046611945,2751.14973209432 A1173.13623188406,1171.51304347826 0,0,1 1358.90574388377,2746.43637883114 " stroke="#000000" stroke-width="0.042" />
		<path d="M1358.90574388377,2746.43637883114 A1171.51304347826,1181.08985507246 0,0,1 1341.50533522243,2752.45553234675 " stroke="#000000" stroke-width="0.042" />
		<path d="M1341.50533522243,2752.45553234675 A1181.08985507246,1185.06666666667 0,0,1 1325.19984094076,2752.7653174109 " stroke="#000000" stroke-width="0.042" />
		<path d="M1325.19984094076,2752.7653174109 A1185.06666666667,1183.44347826087 0,0,1 1310.2112972716,2747.41490926743 " stroke="#000000" stroke-width="0.042" />
		<path d="M1310.2112972716,2747.41490926743 A1183.44347826087,1178.08695652174 0,0,1 1296.27910758475,2738.26292948384 " stroke="#000000" stroke-width="0.042" />
		<path d="M1296.27910758475,2738.26292948384 A1178.08695652174,1171.83768115942 0,0,1 1282.78124371044,2728.08501968743 " stroke="#000000" stroke-width="0.042" />
		<path d="M1282.78124371044,2728.08501968743 A1171.83768115942,1172.40579710145 0,0,1 1267.56786920744,2724.28832222602 " stroke="#000000" stroke-width="0.042" />
		<path d="M1267.56786920744,2724.28832222602 A1172.40579710145,1177.6 0,0,1 1251.02844027825,2724.70467701765 " stroke="#000000" stroke-width="0.042" />
		<path d="M1251.02844027825,2724.70467701765 A1177.6,1177.92463768116 0,0,1 1235.92384047983,2720.24774140604 " stroke="#000000" stroke-width="0.042" />
		<path d="M1235.92384047983,2720.24774140604 A1177.92463768116,1181.08985507246 0,0,1 1219.96204375717,2718.27742424224 " stroke="#000000" stroke-width="0.042" />
		<path d="M1219.96204375717,2718.27742424224 A1181.08985507246,1179.46666666667 0,0,1 1205.58927189553,2711.56726981946 " stroke="#000000" stroke-width="0.042" />
		<path d="M1205.58927189553,2711.56726981946 A1179.46666666667,1169.80869565217 0,0,1 1194.11568932069,2697.13732539178 " stroke="#000000" stroke-width="0.042" />
		<path d="M1194.11568932069,2697.13732539178 A1169.80869565217,1167.77971014493 0,0,1 1180.21441118226,2689.71992312113 " stroke="#000000" stroke-width="0.042" />
		<path d="M1180.21441118226,2689.71992312113 A1167.77971014493,1170.13333333333 0,0,1 1164.80881776754,2686.19549469002 " stroke="#000000" stroke-width="0.042" />
		<path d="M1164.80881776754,2686.19549469002 A1170.13333333333,1173.05507246377 0,0,1 1149.2042655473,2682.97802786217 " stroke="#000000" stroke-width="0.042" />
		<path d="M1149.2042655473,2682.97802786217 A1173.05507246377,1168.10434782609 0,0,1 1136.73037609925,2672.31013376778 " stroke="#000000" stroke-width="0.042" />
		<path d="M1136.73037609925,2672.31013376778 A1168.10434782609,1173.54202898551 0,0,1 1120.21363800201,2670.98363229144 " stroke="#000000" stroke-width="0.042" />
		<path d="M1120.21363800201,2670.98363229144 A1173.54202898551,1174.4347826087 0,0,1 1105.56338045839,2665.28375931364 " stroke="#000000" stroke-width="0.042" />
		<path d="M1105.56338045839,2665.28375931364 A1174.4347826087,1174.11014492754 0,0,1 1091.50707556797,2658.28615139022 " stroke="#000000" stroke-width="0.042" />
		<path d="M1091.50707556797,2658.28615139022 A1174.11014492754,1177.03188405797 0,0,1 1076.10451395859,2654.01023514693 " stroke="#000000" stroke-width="0.042" />
		<path d="M1076.10451395859,2654.01023514693 A1177.03188405797,1177.35652173913 0,0,1 1061.91258405948,2647.2011803317 " stroke="#000000" stroke-width="0.042" />
		<path d="M1061.91258405948,2647.2011803317 A1177.35652173913,1180.60289855072 0,0,1 1046.43915689065,2642.78166316945 " stroke="#000000" stroke-width="0.042" />
		<path d="M1046.43915689065,2642.78166316945 A1180.60289855072,1168.18550724638 0,0,1 1038.51671965962,2624.39928994445 " stroke="#000000" stroke-width="0.042" />
		<path d="M1038.51671965962,2624.39928994445 A1168.18550724638,1177.6 0,0,1 1020.23737145082,2624.99612415743 " stroke="#000000" stroke-width="0.042" />
		<path d="M1020.23737145082,2624.99612415743 A1177.6,1165.18260869565 0,0,1 1012.84401542003,2606.42851776901 " stroke="#000000" stroke-width="0.042" />
		<path d="M1012.84401542003,2606.42851776901 A1165.18260869565,1176.05797101449 0,0,1 993.83682320006,2607.80878854996 " stroke="#000000" stroke-width="0.042" />
		<path d="M993.83682320006,2607.80878854996 A1176.05797101449,1172.16231884058 0,0,1 982.470594564329,2596.30413786754 " stroke="#000000" stroke-width="0.042" />
		<path d="M982.470594564329,2596.30413786754 A1172.16231884058,1174.19130434783 0,0,1 968.114948066964,2589.66989463641 " stroke="#000000" stroke-width="0.042" />
		<path d="M968.114948066964,2589.66989463641 A1174.19130434783,1175.57101449275 0,0,1 954.183197894507,2582.28705999507 " stroke="#000000" stroke-width="0.042" />
		<path d="M954.183197894507,2582.28705999507 A1175.57101449275,1181.25217391304 0,0,1 937.925144384084,2578.27071096678 " stroke="#000000" stroke-width="0.042" />
		<path d="M937.925144384084,2578.27071096678 A1181.25217391304,1176.30144927536 0,0,1 927.735816208503,2565.26989322079 " stroke="#000000" stroke-width="0.042" />
		<path d="M927.735816208503,2565.26989322079 A1176.30144927536,1174.59710144928 0,0,1 915.884481561064,2554.81113743194 " stroke="#000000" stroke-width="0.042" />
		<path d="M915.884481561064,2554.81113743194 A1174.59710144928,1116 0,0,1 937.943543152282,2498.4081744654 " stroke="#000000" stroke-width="0.042" />
		<path d="M937.943543152282,2498.4081744654 A1116,1164.20869565217 0,0,1 896.876858406187,2527.90071386296 " stroke="#000000" stroke-width="0.042" />
		<path d="M896.876858406187,2527.90071386296 A1164.20869565217,1180.19710144928 0,0,1 874.709509916475,2531.03109682957 " stroke="#000000" stroke-width="0.042" />
		<path d="M874.709509916475,2531.03109682957 A1180.19710144928,1177.84347826087 0,0,1 863.799085824831,2519.4147449597 " stroke="#000000" stroke-width="0.042" />
		<path d="M863.799085824831,2519.4147449597 A1177.84347826087,1183.76811594203 0,0,1 847.809178539468,2514.06559963247 " stroke="#000000" stroke-width="0.042" />
		<path d="M847.809178539468,2514.06559963247 A1183.76811594203,1178.89855072464 0,0,1 838.801059837071,2500.20995684089 " stroke="#000000" stroke-width="0.042" />
		<path d="M838.801059837071,2500.20995684089 A1178.89855072464,1175.48985507246 0,0,1 829.070308979578,2487.38030791845 " stroke="#000000" stroke-width="0.042" />
		<path d="M829.070308979578,2487.38030791845 A1175.48985507246,1178.97971014493 0,0,1 814.952599964545,2479.59862245856 " stroke="#000000" stroke-width="0.042" />
		<path d="M814.952599964545,2479.59862245856 A1178.97971014493,1180.52173913043 0,0,1 802.221892082871,2470.16186257944 " stroke="#000000" stroke-width="0.042" />
		<path d="M802.221892082871,2470.16186257944 A1180.52173913043,1181.49565217391 0,0,1 789.992861642699,2460.12813691686 " stroke="#000000" stroke-width="0.042" />
		<path d="M789.992861642699,2460.12813691686 A1181.49565217391,1172.89275362319 0,0,1 784.547904994947,2443.03931833198 " stroke="#000000" stroke-width="0.042" />
		<path d="M784.547904994947,2443.03931833198 A1172.89275362319,1166.72463768116 0,0,1 777.697989616416,2427.68700841039 " stroke="#000000" stroke-width="0.042" />
		<path d="M777.697989616416,2427.68700841039 A1166.72463768116,1179.14202898551 0,0,1 757.837963572109,2425.31147388104 " stroke="#000000" stroke-width="0.042" />
		<path d="M757.837963572109,2425.31147388104 A1179.14202898551,1179.87246376812 0,0,1 746.351691927925,2414.48363819289 " stroke="#000000" stroke-width="0.042" />
		<path d="M746.351691927925,2414.48363819289 A1179.87246376812,1187.90724637681 0,0,1 729.652807344413,2408.46730931503 " stroke="#000000" stroke-width="0.042" />
		<path d="M729.652807344413,2408.46730931503 A1187.90724637681,1183.68695652174 0,0,1 722.052921143464,2393.92930275118 " stroke="#000000" stroke-width="0.042" />
		<path d="M722.052921143464,2393.92930275118 A1183.68695652174,1175.73333333333 0,0,1 717.487885894963,2376.86629452498 " stroke="#000000" stroke-width="0.042" />
		<path d="M717.487885894963,2376.86629452498 A1175.73333333333,1178.4115942029 0,0,1 705.147532478815,2366.74177316947 " stroke="#000000" stroke-width="0.042" />
		<path d="M705.147532478815,2366.74177316947 A1178.4115942029,1179.2231884058 0,0,1 694.354119509965,2355.23034050902 " stroke="#000000" stroke-width="0.042" />
		<path d="M694.354119509965,2355.23034050902 A1179.2231884058,1182.95652173913 0,0,1 681.43995056038,2345.40832293356 " stroke="#000000" stroke-width="0.042" />
		<path d="M681.43995056038,2345.40832293356 A1182.95652173913,1181.08985507246 0,0,1 673.022207573115,2331.9053341126 " stroke="#000000" stroke-width="0.042" />
		<path d="M673.022207573115,2331.9053341126 A1181.08985507246,1172.08115942029 0,0,1 670.465145271324,2313.96022165983 " stroke="#000000" stroke-width="0.042" />
		<path d="M670.465145271324,2313.96022165983 A1172.08115942029,1183.76811594203 0,0,1 651.640899669723,2308.46451508999 " stroke="#000000" stroke-width="0.042" />
		<path d="M651.640899669723,2308.46451508999 A1183.76811594203,1185.6347826087 0,0,1 640.744390146204,2296.82028723021 " stroke="#000000" stroke-width="0.042" />
		<path d="M640.744390146204,2296.82028723021 A1185.6347826087,1170.29565217391 0,0,1 644.044534749979,2275.08596634487 " stroke="#000000" stroke-width="0.042" />
		<path d="M644.044534749979,2275.08596634487 A1170.29565217391,1171.1884057971 0,0,1 634.369110059125,2262.7512853745 " stroke="#000000" stroke-width="0.042" />
		<path d="M634.369110059125,2262.7512853745 A1171.1884057971,1170.3768115942 0,0,1 626.270738573939,2249.33289348382 " stroke="#000000" stroke-width="0.042" />
		<path d="M626.270738573939,2249.33289348382 A1170.3768115942,1173.05507246377 0,0,1 615.429320238856,2237.71371287409 " stroke="#000000" stroke-width="0.042" />
		<path d="M615.429320238856,2237.71371287409 A1173.05507246377,1176.62608695652 0,0,1 603.969207867912,2226.39572925695 " stroke="#000000" stroke-width="0.042" />
		<path d="M603.969207867912,2226.39572925695 A1176.62608695652,1172.89275362319 0,0,1 598.870944294775,2211.07939363437 " stroke="#000000" stroke-width="0.042" />
		<path d="M598.870944294775,2211.07939363437 A1172.89275362319,1179.79130434783 0,0,1 584.855465569842,2201.15646551569 " stroke="#000000" stroke-width="0.042" />
		<path d="M584.855465569842,2201.15646551569 A1179.79130434783,1167.13043478261 0,0,1 587.888950804816,2181.22687127564 " stroke="#000000" stroke-width="0.042" />
		<path d="M587.888950804816,2181.22687127564 A1167.13043478261,1172.8115942029 0,0,1 575.245386196493,2170.40776378409 " stroke="#000000" stroke-width="0.042" />
		<path d="M575.245386196493,2170.40776378409 A1172.8115942029,1182.46956521739 0,0,1 559.210770044037,2161.24152686083 " stroke="#000000" stroke-width="0.042" />
		<path d="M559.210770044037,2161.24152686083 A1182.46956521739,1175.89565217391 0,0,1 557.628342388612,2144.23516259977 " stroke="#000000" stroke-width="0.042" />
		<path d="M557.628342388612,2144.23516259977 A1175.89565217391,1174.02898550725 0,0,1 552.112070382531,2129.40999780245 " stroke="#000000" stroke-width="0.042" />
		<path d="M552.112070382531,2129.40999780245 A1174.02898550725,1170.70144927536 0,0,1 548.118182624339,2113.89349636857 " stroke="#000000" stroke-width="0.042" />
		<path d="M548.118182624339,2113.89349636857 A1170.70144927536,1162.34202898551 0,0,1 548.901641350339,2096.2169211042 " stroke="#000000" stroke-width="0.042" />
		<path d="M548.901641350339,2096.2169211042 A1162.34202898551,1168.51014492754 0,0,1 536.749476272776,2084.67956692268 " stroke="#000000" stroke-width="0.042" />
		<path d="M536.749476272776,2084.67956692268 A1168.51014492754,1183.52463768116 0,0,1 516.621104799662,2076.4669321504 " stroke="#000000" stroke-width="0.042" />
		<path d="M516.621104799662,2076.4669321504 A1183.52463768116,1177.27536231884 0,0,1 516.101944916345,2059.5022142589 " stroke="#000000" stroke-width="0.042" />
		<path d="M516.101944916345,2059.5022142589 A1177.27536231884,1181.41449275362 0,0,1 506.223930789452,2046.53568066911 " stroke="#000000" stroke-width="0.042" />
		<path d="M506.223930789452,2046.53568066911 A1181.41449275362,1177.03188405797 0,0,1 504.431510959617,2030.27170707685 " stroke="#000000" stroke-width="0.042" />
		<path d="M504.431510959617,2030.27170707685 A1177.03188405797,1180.0347826087 0,0,1 495.96789880977,2016.64758214568 " stroke="#000000" stroke-width="0.042" />
		<path d="M495.96789880977,2016.64758214568 A1180.0347826087,1180.35942028986 0,0,1 490.191431549329,2001.96181716735 " stroke="#000000" stroke-width="0.042" />
		<path d="M490.191431549329,2001.96181716735 A1180.35942028986,1174.67826086957 0,0,1 490.284017647827,1985.22649840282 " stroke="#000000" stroke-width="0.042" />
		<path d="M490.284017647827,1985.22649840282 A1174.67826086957,1186.04057971014 0,0,1 474.450528707982,1973.93935924617 " stroke="#000000" stroke-width="0.042" />
		<path d="M474.450528707982,1973.93935924617 A1186.04057971014,1188.63768115942 0,0,1 467.076787828154,1959.64500885494 " stroke="#000000" stroke-width="0.042" />
		<path d="M467.076787828154,1959.64500885494 A1188.63768115942,1181.41449275362 0,0,1 469.283387132028,1942.37427630107 " stroke="#000000" stroke-width="0.042" />
		<path d="M469.283387132028,1942.37427630107 A1181.41449275362,1179.62898550725 0,0,1 466.523100359084,1926.73331851722 " stroke="#000000" stroke-width="0.042" />
		<path d="M466.523100359084,1926.73331851722 A1179.62898550725,1179.06086956522 0,0,1 462.804447042032,1911.40136234851 " stroke="#000000" stroke-width="0.042" />
		<path d="M462.804447042032,1911.40136234851 A1179.06086956522,1180.27826086957 0,0,1 457.564786995893,1896.47690832432 " stroke="#000000" stroke-width="0.042" />
		<path d="M457.564786995893,1896.47690832432 A1180.27826086957,1177.11304347826 0,0,1 456.777555488825,1880.42389251372 " stroke="#000000" stroke-width="0.042" />
		<path d="M456.777555488825,1880.42389251372 A1177.11304347826,1179.30434782609 0,0,1 450.995907486215,1865.60937518861 " stroke="#000000" stroke-width="0.042" />
		<path d="M450.995907486215,1865.60937518861 A1179.30434782609,1178.08695652174 0,0,1 448.737496119049,1849.96704639696 " stroke="#000000" stroke-width="0.042" />
		<path d="M448.737496119049,1849.96704639696 A1178.08695652174,1176.62608695652 0,0,1 446.930349238589,1834.26337528426 " stroke="#000000" stroke-width="0.042" />
		<path d="M446.930349238589,1834.26337528426 A1176.62608695652,1172.48695652174 0,0,1 447.968591474855,1818.05801288919 " stroke="#000000" stroke-width="0.042" />
		<path d="M447.968591474855,1818.05801288919 A1172.48695652174,1180.0347826087 0,0,1 437.722214439009,1803.94224024902 " stroke="#000000" stroke-width="0.042" />
		<path d="M437.722214439009,1803.94224024902 A1180.0347826087,1175.73333333333 0,0,1 439.345986270018,1787.69957784607 " stroke="#000000" stroke-width="0.042" />
		<path d="M439.345986270018,1787.69957784607 A1175.73333333333,1170.62028985507 0,0,1 441.998396848453,1771.4180565717 " stroke="#000000" stroke-width="0.042" />
		<path d="M441.998396848453,1771.4180565717 A1170.62028985507,1169.40289855072 0,0,1 441.016843937569,1755.76001766308 " stroke="#000000" stroke-width="0.042" />
		<path d="M441.016843937569,1755.76001766308 A1169.40289855072,1180.19710144928 0,0,1 428.321869366099,1741.54701149625 " stroke="#000000" stroke-width="0.042" />
		<path d="M428.321869366099,1741.54701149625 A1180.19710144928,1170.86376811594 0,0,1 435.814420500694,1724.87553792688 " stroke="#000000" stroke-width="0.042" />
		<path d="M435.814420500694,1724.87553792688 A1170.86376811594,1176.86956521739 0,0,1 428.26950140028,1709.86178674235 " stroke="#000000" stroke-width="0.042" />
		<path d="M428.26950140028,1709.86178674235 A1176.86956521739,1181.49565217391 0,0,1 422.294289377458,1694.55810527349 " stroke="#000000" stroke-width="0.042" />
		<path d="M422.294289377458,1694.55810527349 A1181.49565217391,1169.48405797101 0,0,1 433.120289226054,1678.00450264223 " stroke="#000000" stroke-width="0.042" />
		<path d="M433.120289226054,1678.00450264223 A1169.48405797101,1172.32463768116 0,0,1 429.34523709217,1662.54983769342 " stroke="#000000" stroke-width="0.042" />
		<path d="M429.34523709217,1662.54983769342 A1172.32463768116,1173.13623188406 0,0,1 427.802714571702,1646.92699216502 " stroke="#000000" stroke-width="0.042" />
		<path d="M427.802714571702,1646.92699216502 A1173.13623188406,1168.10434782609 0,0,1 432.310224351532,1631.11840703246 " stroke="#000000" stroke-width="0.042" />
		<path d="M432.310224351532,1631.11840703246 A1168.10434782609,1162.74782608696 0,0,1 437.354617627345,1615.43443933174 " stroke="#000000" stroke-width="0.042" />
		<path d="M437.354617627345,1615.43443933174 A1162.74782608696,1170.13333333333 0,0,1 429.866671863814,1599.88971532596 " stroke="#000000" stroke-width="0.042" />
		<path d="M429.866671863814,1599.88971532596 A1170.13333333333,1172.64927536232 0,0,1 427.45699570552,1584.21310391985 " stroke="#000000" stroke-width="0.042" />
		<path d="M427.45699570552,1584.21310391985 A1172.64927536232,1177.43768115942 0,0,1 422.986137092021,1568.41108522743 " stroke="#000000" stroke-width="0.042" />
		<path d="M422.986137092021,1568.41108522743 A1177.43768115942,1178.57391304348 0,0,1 422.37829321455,1552.63351169508 " stroke="#000000" stroke-width="0.042" />
		<path d="M422.37829321455,1552.63351169508 A1178.57391304348,1168.18550724638 0,0,1 433.490241392304,1537.45111980628 " stroke="#000000" stroke-width="0.042" />
		<path d="M433.490241392304,1537.45111980628 A1168.18550724638,1179.54782608696 0,0,1 423.093783550707,1521.10239731477 " stroke="#000000" stroke-width="0.042" />
		<path d="M423.093783550707,1521.10239731477 A1179.54782608696,1177.76231884058 0,0,1 426.033435789295,1505.5193893116 " stroke="#000000" stroke-width="0.042" />
		<path d="M426.033435789295,1505.5193893116 A1177.76231884058,1171.51304347826 0,0,1 433.623268016843,1490.41838599479 " stroke="#000000" stroke-width="0.042" />
		<path d="M433.623268016843,1490.41838599479 A1171.51304347826,1167.37391304348 0,0,1 439.30786010314,1475.27787190683 " stroke="#000000" stroke-width="0.042" />
		<path d="M439.30786010314,1475.27787190683 A1167.37391304348,1171.10724637681 0,0,1 437.37260816313,1459.32402384602 " stroke="#000000" stroke-width="0.042" />
		<path d="M437.37260816313,1459.32402384602 A1171.10724637681,1173.54202898551 0,0,1 436.944079683435,1443.46942786788 " stroke="#000000" stroke-width="0.042" />
		<path d="M436.944079683435,1443.46942786788 A1173.54202898551,1179.46666666667 0,0,1 433.279956544727,1427.06660826346 " stroke="#000000" stroke-width="0.042" />
		<path d="M433.279956544727,1427.06660826346 A1179.46666666667,1188.47536231884 0,0,1 426.803165186971,1410.04507475827 " stroke="#000000" stroke-width="0.042" />
		<path d="M426.803165186971,1410.04507475827 A1188.47536231884,1172.56811594203 0,0,1 445.114744004134,1397.13050498608 " stroke="#000000" stroke-width="0.042" />
		<path d="M445.114744004134,1397.13050498608 A1172.56811594203,1166.72463768116 0,0,1 453.671301373382,1382.79757165898 " stroke="#000000" stroke-width="0.042" />
		<path d="M453.671301373382,1382.79757165898 A1166.72463768116,1170.62028985507 0,0,1 452.859861806191,1366.7161249356 " stroke="#000000" stroke-width="0.042" />
		<path d="M452.859861806191,1366.7161249356 A1170.62028985507,1169.88985507246 0,0,1 456.794764736203,1351.55672062437 " stroke="#000000" stroke-width="0.042" />
		<path d="M456.794764736203,1351.55672062437 A1169.88985507246,1174.27246376812 0,0,1 455.948379575535,1335.30827559556 " stroke="#000000" stroke-width="0.042" />
		<path d="M455.948379575535,1335.30827559556 A1174.27246376812,1181.25217391304 0,0,1 452.810661914556,1318.37379213331 " stroke="#000000" stroke-width="0.042" />
		<path d="M452.810661914556,1318.37379213331 A1181.25217391304,1172.73043478261 0,0,1 464.926156981834,1305.20508219887 " stroke="#000000" stroke-width="0.042" />
		<path d="M464.926156981834,1305.20508219887 A1172.73043478261,1182.22608695652 0,0,1 459.810494888617,1287.54774266396 " stroke="#000000" stroke-width="0.042" />
		<path d="M459.810494888617,1287.54774266396 A1182.22608695652,1153.82028985507 0,0,1 491.382311668141,1280.20618767874 " stroke="#000000" stroke-width="0.042" />
		<path d="M491.382311668141,1280.20618767874 A1153.82028985507,1172.73043478261 0,0,1 477.658870177443,1259.93079972742 " stroke="#000000" stroke-width="0.042" />
		<path d="M477.658870177443,1259.93079972742 A1172.73043478261,1171.75652173913 0,0,1 483.233534286654,1245.25219197815 " stroke="#000000" stroke-width="0.042" />
		<path d="M483.233534286654,1245.25219197815 A1171.75652173913,1176.86956521739 0,0,1 483.223760083085,1228.74159471871 " stroke="#000000" stroke-width="0.042" />
		<path d="M483.223760083085,1228.74159471871 A1176.86956521739,1170.13333333333 0,0,1 494.649954366925,1216.05561028095 " stroke="#000000" stroke-width="0.042" />
		<path d="M494.649954366925,1216.05561028095 A1170.13333333333,1174.51594202899 0,0,1 495.761055353748,1199.81997650212 " stroke="#000000" stroke-width="0.042" />
		<path d="M495.761055353748,1199.81997650212 A1174.51594202899,1172.08115942029 0,0,1 503.487279682382,1185.9539899363 " stroke="#000000" stroke-width="0.042" />
		<path d="M503.487279682382,1185.9539899363 A1172.08115942029,1184.98550724638 0,0,1 497.110038497923,1166.61289220617 " stroke="#000000" stroke-width="0.042" />
		<path d="M497.110038497923,1166.61289220617 A1184.98550724638,1180.35942028986 0,0,1 507.284852918842,1153.65711789432 " stroke="#000000" stroke-width="0.042" />
		<path d="M507.284852918842,1153.65711789432 A1180.35942028986,1175.89565217391 0,0,1 517.458754927876,1140.8322337977 " stroke="#000000" stroke-width="0.042" />
		<path d="M517.458754927876,1140.8322337977 A1175.89565217391,1174.19130434783 0,0,1 525.253808413471,1127.08791210596 " stroke="#000000" stroke-width="0.042" />
		<path d="M525.253808413471,1127.08791210596 A1174.19130434783,1175.32753623188 0,0,1 530.638110704413,1112.29110409274 " stroke="#000000" stroke-width="0.042" />
		<path d="M530.638110704413,1112.29110409274 A1175.32753623188,1169.40289855072 0,0,1 542.610666343734,1100.56938799389 " stroke="#000000" stroke-width="0.042" />
		<path d="M542.610666343734,1100.56938799389 A1169.40289855072,1183.2 0,0,1 536.986086354079,1080.41972766936 " stroke="#000000" stroke-width="0.042" />
		<path d="M536.986086354079,1080.41972766936 A1183.2,1181.98260869565 0,0,1 545.113495615471,1066.8045854226 " stroke="#000000" stroke-width="0.042" />
		<path d="M545.113495615471,1066.8045854226 A1181.98260869565,1172.40579710145 0,0,1 560.824223284328,1057.1841397265 " stroke="#000000" stroke-width="0.042" />
		<path d="M560.824223284328,1057.1841397265 A1172.40579710145,1167.77971014493 0,0,1 572.245023672355,1045.53705258157 " stroke="#000000" stroke-width="0.042" />
		<path d="M572.245023672355,1045.53705258157 A1167.77971014493,1165.91304347826 0,0,1 581.379963686848,1032.75539088138 " stroke="#000000" stroke-width="0.042" />
		<path d="M581.379963686848,1032.75539088138 A1165.91304347826,1169.88985507246 0,0,1 585.605877299475,1017.20772411424 " stroke="#000000" stroke-width="0.042" />
		<path d="M585.605877299475,1017.20772411424 A1169.88985507246,1179.30434782609 0,0,1 585.387753309563,998.900396217652 " stroke="#000000" stroke-width="0.042" />
		<path d="M585.387753309563,998.900396217652 A1179.30434782609,1181.98260869565 0,0,1 591.228347222855,983.994610565584 " stroke="#000000" stroke-width="0.042" />
		<path d="M591.228347222855,983.994610565584 A1181.98260869565,1175.81449275362 0,0,1 604.774245368631,973.848725396265 " stroke="#000000" stroke-width="0.042" />
		<path d="M604.774245368631,973.848725396265 A1175.81449275362,1169.24057971014 0,0,1 618.750742265558,964.175002507355 " stroke="#000000" stroke-width="0.042" />
		<path d="M618.750742265558,964.175002507355 A1169.24057971014,1162.01739130435 0,0,1 633.347144835144,955.122744008293 " stroke="#000000" stroke-width="0.042" />
		<path d="M633.347144835144,955.122744008293 A1162.01739130435,1177.19420289855 0,0,1 629.542987928108,933.667215981046 " stroke="#000000" stroke-width="0.042" />
		<path d="M629.542987928108,933.667215981046 A1177.19420289855,1180.60289855072 0,0,1 635.753456440197,918.786518557255 " stroke="#000000" stroke-width="0.042" />
		<path d="M635.753456440197,918.786518557255 A1180.60289855072,1182.14492753623 0,0,1 643.698890279017,905.050493024091 " stroke="#000000" stroke-width="0.042" />
		<path d="M643.698890279017,905.050493024091 A1182.14492753623,1163.55942028986 0,0,1 667.962092488991,903.454334944389 " stroke="#000000" stroke-width="0.042" />
		<path d="M667.962092488991,903.454334944389 A1163.55942028986,1138.96811594203 0,0,1 696.856688308053,906.039966800222 " stroke="#000000" stroke-width="0.042" />
		<path d="M696.856688308053,906.039966800222 A1138.96811594203,1127.52463768116 0,0,1 715.194564530647,901.121505594915 " stroke="#000000" stroke-width="0.042" />
		<path d="M715.194564530647,901.121505594915 A1127.52463768116,1178.89855072464 0,0,1 684.730988769752,856.976157864194 " stroke="#000000" stroke-width="0.042" />
		<path d="M684.730988769752,856.976157864194 A1178.89855072464,1187.01449275362 0,0,1 688.513698643642,839.607911372792 " stroke="#000000" stroke-width="0.042" />
		<path d="M688.513698643642,839.607911372792 A1187.01449275362,1182.14492753623 0,0,1 702.457548779062,830.659907481774 " stroke="#000000" stroke-width="0.042" />
		<path d="M702.457548779062,830.659907481774 A1182.14492753623,1174.75942028985 0,0,1 718.365243692259,823.611017575632 " stroke="#000000" stroke-width="0.042" />
		<path d="M718.365243692259,823.611017575632 A1174.75942028985,1184.98550724638 0,0,1 721.239613912969,805.0340659952 " stroke="#000000" stroke-width="0.042" />
		<path d="M721.239613912969,805.0340659952 A1184.98550724638,1187.74492753623 0,0,1 729.924124106615,791.479138750021 " stroke="#000000" stroke-width="0.042" />
		<path d="M729.924124106615,791.479138750021 A1187.74492753623,1182.79420289855 0,0,1 744.391712476413,783.338145416738 " stroke="#000000" stroke-width="0.042" />
		<path d="M744.391712476413,783.338145416738 A1182.79420289855,1187.50144927536 0,0,1 752.024220955235,768.677697770288 " stroke="#000000" stroke-width="0.042" />
		<path d="M752.024220955235,768.677697770288 A1187.50144927536,1182.63188405797 0,0,1 766.644797976989,760.871118092285 " stroke="#000000" stroke-width="0.042" />
		<path d="M766.644797976989,760.871118092285 A1182.63188405797,1183.36231884058 0,0,1 777.429299445006,749.280410334745 " stroke="#000000" stroke-width="0.042" />
		<path d="M777.429299445006,749.280410334745 A1183.36231884058,1179.2231884058 0,0,1 791.712648348725,741.373838487027 " stroke="#000000" stroke-width="0.042" />
		<path d="M791.712648348725,741.373838487027 A1179.2231884058,1177.11304347826 0,0,1 804.689000680087,732.200753925532 " stroke="#000000" stroke-width="0.042" />
		<path d="M804.689000680087,732.200753925532 A1177.11304347826,1171.10724637681 0,0,1 820.359349091858,726.127790825337 " stroke="#000000" stroke-width="0.042" />
		<path d="M820.359349091858,726.127790825337 A1171.10724637681,1172.64927536232 0,0,1 831.100146180831,714.619100158225 " stroke="#000000" stroke-width="0.042" />
		<path d="M831.100146180831,714.619100158225 A1172.64927536232,1157.06666666667 0,0,1 853.064173569036,716.320113216893 " stroke="#000000" stroke-width="0.042" />
		<path d="M853.064173569036,716.320113216893 A1157.06666666667,1183.68695652174 0,0,1 848.033051219882,685.855307414621 " stroke="#000000" stroke-width="0.042" />
		<path d="M848.033051219882,685.855307414621 A1183.68695652174,1172.16231884058 0,0,1 867.522531700654,684.881832688529 " stroke="#000000" stroke-width="0.042" />
		<path d="M867.522531700654,684.881832688529 A1172.16231884058,1179.54782608696 0,0,1 875.28393735467,669.344476957067 " stroke="#000000" stroke-width="0.042" />
		<path d="M875.28393735467,669.344476957067 A1179.54782608696,1155.52463768116 0,0,1 902.295206377308,678.889143889786 " stroke="#000000" stroke-width="0.042" />
		<path d="M902.295206377308,678.889143889786 A1155.52463768116,1160.15072463768 0,0,1 911.927604156965,665.91965979571 " stroke="#000000" stroke-width="0.042" />
		<path d="M911.927604156965,665.91965979571 A1160.15072463768,1160.23188405797 0,0,1 924.428945212563,656.738755848572 " stroke="#000000" stroke-width="0.042" />
		<path d="M924.428945212563,656.738755848572 A1160.23188405797,1161.44927536232 0,0,1 936.403600570472,646.792657443397 " stroke="#000000" stroke-width="0.042" />
		<path d="M936.403600570472,646.792657443397 A1161.44927536232,1177.27536231884 0,0,1 940.337884372062,624.898378665982 " stroke="#000000" stroke-width="0.042" />
		<path d="M940.337884372062,624.898378665982 A1177.27536231884,1182.06376811594 0,0,1 950.80250518423,612.165315137503 " stroke="#000000" stroke-width="0.042" />
		<path d="M950.80250518423,612.165315137503 A1182.06376811594,1174.67826086957 0,0,1 968.039535609598,609.800531202418 " stroke="#000000" stroke-width="0.042" />
		<path d="M968.039535609598,609.800531202418 A1174.67826086957,1174.67826086957 0,0,1 981.333339447245,601.440748037429 " stroke="#000000" stroke-width="0.042" />
		<path d="M981.333339447245,601.440748037429 A1174.67826086957,1174.67826086957 0,0,1 994.737711840791,593.259428108798 " stroke="#000000" stroke-width="0.042" />
		<path d="M994.737711840791,593.259428108798 A1174.67826086957,1176.86956521739 0,0,1 1007.14637719725,583.365082507674 " stroke="#000000" stroke-width="0.042" />
		<path d="M1007.14637719725,583.365082507674 A1176.86956521739,1180.68405797101 0,0,1 1018.91273816961,572.209924699913 " stroke="#000000" stroke-width="0.042" />
		<path d="M1018.91273816961,572.209924699913 A1180.68405797101,1180.11594202899 0,0,1 1032.97748883082,565.031832152141 " stroke="#000000" stroke-width="0.042" />
		<path d="M1032.97748883082,565.031832152141 A1180.11594202899,1182.22608695652 0,0,1 1045.87492038889,555.680165453844 " stroke="#000000" stroke-width="0.042" />
		<path d="M1045.87492038889,555.680165453844 A1182.22608695652,1176.46376811594 0,0,1 1062.5178559642,553.491546841478 " stroke="#000000" stroke-width="0.042" />
		<path d="M1062.5178559642,553.491546841478 A1176.46376811594,1170.86376811594 0,0,1 1079.0475833151,551.414980539573 " stroke="#000000" stroke-width="0.042" />
		<path d="M1079.0475833151,551.414980539573 A1170.86376811594,1171.91884057971 0,0,1 1092.65522595106,543.593331547493 " stroke="#000000" stroke-width="0.042" />
		<path d="M1092.65522595106,543.593331547493 A1171.91884057971,1173.05507246377 0,0,1 1106.34481607473,535.874649105338 " stroke="#000000" stroke-width="0.042" />
		<path d="M1106.34481607473,535.874649105338 A1173.05507246377,1171.10724637681 0,0,1 1121.41053441609,531.148136574395 " stroke="#000000" stroke-width="0.042" />
		<path d="M1121.41053441609,531.148136574395 A1171.10724637681,1174.4347826087 0,0,1 1134.42296214019,521.790799325652 " stroke="#000000" stroke-width="0.042" />
		<path d="M1134.42296214019,521.790799325652 A1174.4347826087,1176.38260869565 0,0,1 1148.1302475748,513.864755711899 " stroke="#000000" stroke-width="0.042" />
		<path d="M1148.1302475748,513.864755711899 A1176.38260869565,1169.5652173913 0,0,1 1165.22476455599,514.249894139459 " stroke="#000000" stroke-width="0.042" />
		<path d="M1165.22476455599,514.249894139459 A1169.5652173913,1177.11304347826 0,0,1 1177.06638806308,501.490884416228 " stroke="#000000" stroke-width="0.042" />
		<path d="M1177.06638806308,501.490884416228 A1177.11304347826,1177.35652173913 0,0,1 1191.70499856376,495.706754940589 " stroke="#000000" stroke-width="0.042" />
		<path d="M1191.70499856376,495.706754940589 A1177.35652173913,1177.68115942029 0,0,1 1206.39556057893,490.041235666142 " stroke="#000000" stroke-width="0.042" />
		<path d="M1206.39556057893,490.041235666142 A1177.68115942029,1182.3884057971 0,0,1 1219.75524360942,480.421388467571 " stroke="#000000" stroke-width="0.042" />
		<path d="M1219.75524360942,480.421388467571 A1182.3884057971,1172.97391304348 0,0,1 1237.66430882642,484.392251917238 " stroke="#000000" stroke-width="0.042" />
		<path d="M1237.66430882642,484.392251917238 A1172.97391304348,1165.26376811594 0,0,1 1254.89396703181,487.012365166296 " stroke="#000000" stroke-width="0.042" />
		<path d="M1254.89396703181,487.012365166296 A1165.26376811594,1173.29855072464 0,0,1 1267.52682648848,474.79287327723 " stroke="#000000" stroke-width="0.042" />
		<path d="M1267.52682648848,474.79287327723 A1173.29855072464,1176.05797101449 0,0,1 1281.8522177216,467.792271790171 " stroke="#000000" stroke-width="0.042" />
		<path d="M1281.8522177216,467.792271790171 A1176.05797101449,1170.53913043478 0,0,1 1298.43819419267,468.97288575506 " stroke="#000000" stroke-width="0.042" />
		<path d="M1298.43819419267,468.97288575506 A1170.53913043478,1183.60579710145 0,0,1 1310.38787216226,452.373101421263 " stroke="#000000" stroke-width="0.042" />
		<path d="M1310.38787216226,452.373101421263 A1183.60579710145,1168.91594202899 0,0,1 1329.15930389579,462.894113609777 " stroke="#000000" stroke-width="0.042" />
		<path d="M1329.15930389579,462.894113609777 A1168.91594202899,1163.07246376812 0,0,1 1345.66256959978,465.077083025878 " stroke="#000000" stroke-width="0.042" />
		<path d="M1345.66256959978,465.077083025878 A1163.07246376812,1182.06376811594 0,0,1 1356.95248596877,443.192903801287 " stroke="#000000" stroke-width="0.042" />
		<path d="M1356.95248596877,443.192903801287 A1182.06376811594,1174.51594202899 0,0,1 1373.89185063697,447.453774084589 " stroke="#000000" stroke-width="0.042" />
		<path d="M1373.89185063697,447.453774084589 A1174.51594202899,1179.46666666667 0,0,1 1388.43165281094,439.663646934448 " stroke="#000000" stroke-width="0.042" />
		<path d="M1388.43165281094,439.663646934448 A1179.46666666667,1174.75942028985 0,0,1 1404.74472488135,441.580786978178 " stroke="#000000" stroke-width="0.042" />
		<path d="M1404.74472488135,441.580786978178 A1174.75942028985,1181.25217391304 0,0,1 1419.25485892757,432.657765540457 " stroke="#000000" stroke-width="0.042" />
		<path d="M1419.25485892757,432.657765540457 A1181.25217391304,1175.40869565217 0,0,1 1435.69328980605,436.131920362112 " stroke="#000000" stroke-width="0.042" />
		<path d="M1435.69328980605,436.131920362112 A1175.40869565217,1168.99710144928 0,0,1 1452.07827222271,440.399471521253 " stroke="#000000" stroke-width="0.042" />
		<path d="M1452.07827222271,440.399471521253 A1168.99710144928,1147.1652173913 0,0,1 1470.06622496926,460.217016226905 " stroke="#000000" stroke-width="0.042" />
		<path d="M1470.06622496926,460.217016226905 A1147.1652173913,1152.52173913043 0,0,1 1484.7793464045,453.252181099407 " stroke="#000000" stroke-width="0.042" />
		<path d="M1484.7793464045,453.252181099407 A1152.52173913043,1172.89275362319 0,0,1 1498.3543672706,431.519971566127 " stroke="#000000" stroke-width="0.042" />
		<path d="M1498.3543672706,431.519971566127 A1172.89275362319,1169.48405797101 0,0,1 1514.23408060019,433.66507000868 " stroke="#000000" stroke-width="0.042" />
		<path d="M1514.23408060019,433.66507000868 A1169.48405797101,1180.44057971014 0,0,1 1529.17635108285,421.685961646691 " stroke="#000000" stroke-width="0.042" />
		<path d="M1529.17635108285,421.685961646691 A1180.44057971014,1164.20869565217 0,0,1 1545.69197779747,437.058674843573 " stroke="#000000" stroke-width="0.042" />
		<path d="M1545.69197779747,437.058674843573 A1164.20869565217,1183.36231884058 0,0,1 1560.60581069544,417.293580172666 " stroke="#000000" stroke-width="0.042" />
		<path d="M1560.60581069544,417.293580172666 A1183.36231884058,1176.70724637681 0,0,1 1576.55277248508,423.526383127288 " stroke="#000000" stroke-width="0.042" />
		<path d="M1576.55277248508,423.526383127288 A1176.70724637681,1163.07190664712 0,0,1 1592.29872881469,436.953590584667 " stroke="#000000" stroke-width="0.042" />
		<circle cx="1600" cy="1600" fill="none" opacity="0.6" r="1116" stroke="black" stroke-dasharray="3, 3" stroke-width="0.0840000000000001" />
		<g id="t1.1" opacity="0.6">
			<path d="M482.32,1600 A1117.68,1117.68 -90,1,1 1600,2717.68 A1117.68,1117.68 -90,1,1 2717.68,1600 " fill="none" id="cp1" stroke="none" />
			<text fill="black" font-size="7.35000000000003" text-anchor="middle" x="1755.64763853212" y="0">
				<textPath xlink:href="#cp1">min=47.9600
				</textPath>
			</text>
		</g>
		<circle cx="1600" cy="1600" fill="none" opacity="0.6" r="1200" stroke="black" stroke-dasharray="3, 3" stroke-width="0.0840000000000001" />
		<g id="t1.2" opacity="0.6">
			<path d="M408.82,1600 A1191.18,1191.18 -90,1,1 1600,2791.18 A1191.18,1191.18 -90,1,1 2791.18,1600 " fill="none" id="cp2" stroke="none" />
			<text fill="black" font-size="7.35000000000003" text-anchor="middle" x="1871.10116855154" y="0">
				<textPath xlink:href="#cp2">max=68.6600
				</textPath>
			</text>
		</g>
		<circle cx="1600" cy="1600" fill="none" opacity="0.6" r="1175.92138025158" stroke="black" stroke-dasharray="3, 3" stroke-width="0.0840000000000001" />
		<g id="t1.3" opacity="0.6">
			<path d="M432.898619748423,1600 A1167.10138025158,1167.10138025158 -90,1,1 1600,2767.10138025158 A1167.10138025158,1167.10138025158 -90,1,1 2767.10138025158,1600 " fill="none" id="cp3" stroke="none" />
			<text fill="black" font-size="7.35000000000003" text-anchor="middle" x="1833.27856109643" y="0">
				<textPath xlink:href="#cp3">avg=62.7263
				</textPath>
			</text>
		</g>
	</g><!-- 
	Generated using the Perl SVG Module V2.33
	by Ronan Oger
	Info: http://www.roasp.com/
 -->
</svg>