<?xml version="1.0" encoding="UTF-8" standalone="yes"?>
<!DOCTYPE svg PUBLIC "-//W3C//DTD SVG 1.0//EN" "http://www.w3.org/TR/2001/REC-SVG-20010904/DTD/svg10.dtd">
<svg height="3200" printerror="1" raiseerror="0" width="3200" xml_xlink="http://www.w3.org/1999/xlink" xmlns="http://www.w3.org/2000/svg" xmlns:xlink="http://www.w3.org/1999/xlink">
	<defs >
		<marker id="triangle-right" markerHeight="6" markerUnits="strokeWidth" markerWidth="4" orient="auto" refX="10" refY="5" viewBox="0 0 10 10">
			<rect fill="white" height="10" stroke="none" width="10" x1="0" y1="0" />
			<path d="M 0 0 L 10 5 L 0 10 z" />
		</marker>
		<marker id="triangle-left" markerHeight="6" markerUnits="strokeWidth" markerWidth="4" orient="auto" refX="0" refY="5" viewBox="0 0 10 10">
			<rect fill="white" height="10" stroke="none" width="10" x1="0" y1="0" />
			<path d="M 10 10 L 0 5 L 10 0 z" />
		</marker>
	</defs>
	<g id="t1">
		<path d="M1600,484 A1116,1116 0,0,1 1644.74656598695,484.897428559877 L1646.68207707779,436.663707226428 A1164.2725395733,1164.2725395733 0,0,0 1600,435.727460426703 L1600,484 " fill="#ff0000" stroke="#000000" stroke-width="0.042" />
		<path d="M1644.74656598695,484.897428559877 A1116,1116 0,0,1 1689.42116629958,487.588270909722 L1695.02616062765,417.86136295218 A1185.9518238128,1185.9518238128 0,0,0 1647.55131858565,415.001856328174 L1644.74656598695,484.897428559877 " fill="#ff0000" stroke="#000000" stroke-width="0.042" />
		<path d="M1689.42116629958,487.588270909722 A1116,1116 0,0,1 1733.95195100559,492.06819938148 L1741.65426996979,428.361444422841 A1180.17068134893,1180.17068134893 0,0,0 1694.56293795591,423.623917328836 L1689.42116629958,487.588270909722 " fill="#ff0000" stroke="#000000" stroke-width="0.042" />
		<path d="M1733.95195100559,492.06819938148 A1116,1116 0,0,1 1778.26730147058,498.330008928991 L1788.10222019612,437.551421183693 A1177.56916724019,1177.56916724019 0,0,0 1741.34201379556,430.944150704948 L1733.95195100559,492.06819938148 " fill="#ff0000" stroke="#000000" stroke-width="0.042" />
		<path d="M1778.26730147058,498.330008928991 A1116,1116 0,0,1 1822.29594554197,506.363628715833 L1825.23238600104,491.9171300165 A1130.74191328286,1130.74191328286 0,0,0 1780.62214116543,483.777389328005 L1778.26730147058,498.330008928991 " fill="#ff0000" stroke="#000000" stroke-width="0.042" />
		<path d="M1822.29594554197,506.363628715833 A1116,1116 0,0,1 1865.9670721756,516.156138312192 L1872.97993157781,487.577996838536 A1145.42601514109,1145.42601514109 0,0,0 1828.15731100732,477.527284253242 L1822.29594554197,506.363628715833 " fill="#ff0000" stroke="#000000" stroke-width="0.042" />
		<path d="M1865.9670721756,516.156138312192 A1116,1116 0,0,1 1909.21044532077,527.691788474726 L1923.48233031559,478.198442743735 A1167.50997935306,1167.50997935306 0,0,0 1878.24302055943,466.130354318032 L1865.9670721756,516.156138312192 " fill="#ff0000" stroke="#000000" stroke-width="0.042" />
		<path d="M1909.21044532077,527.691788474726 A1116,1116 0,0,1 1951.95651688056,540.952026475993 L1969.69642346222,487.572102494671 A1172.25051617343,1172.25051617343 0,0,0 1924.79579223431,473.643499590041 L1909.21044532077,527.691788474726 " fill="#ff0000" stroke="#000000" stroke-width="0.042" />
		<path d="M1951.95651688056,540.952026475993 A1116,1116 0,0,1 1994.13653856564,555.915525942708 L2015.63584978505,498.962935023835 A1176.87543014453,1176.87543014453 0,0,0 1971.15499748743,483.183208436597 L1951.95651688056,540.952026475993 " fill="#ff0000" stroke="#000000" stroke-width="0.042" />
		<path d="M1994.13653856564,555.915525942708 A1116,1116 0,0,1 2035.68267246184,572.55822115484 L2059.51594522223,516.353782217059 A1177.04886441844,1177.04886441844 0,0,0 2015.69710138397,498.800676930049 L1994.13653856564,555.915525942708 " fill="#ff0000" stroke="#000000" stroke-width="0.042" />
		<path d="M2035.68267246184,572.55822115484 A1116,1116 0,0,1 2076.52810013347,590.853345750388 L2092.54884445117,556.926111402054 A1153.5196145905,1153.5196145905 0,0,0 2050.33020467916,538.015909724328 L2035.68267246184,572.55822115484 " fill="#ff0000" stroke="#000000" stroke-width="0.042" />
		<path d="M2076.52810013347,590.853345750388 A1116,1116 0,0,1 2116.6071300871,610.771475773585 L2145.24189689772,555.940006241094 A1177.85822436339,1177.85822436339 0,0,0 2102.94134577282,534.917843820161 L2076.52810013347,590.853345750388 " fill="#ff0000" stroke="#000000" stroke-width="0.042" />
		<path d="M2116.6071300871,610.771475773585 A1116,1116 0,0,1 2155.85530342285,632.280576997292 L2185.71531605927,580.295619722565 A1175.95044735031,1175.95044735031 0,0,0 2144.35876857552,557.631070254713 L2116.6071300871,610.771475773585 " fill="#ff0000" stroke="#000000" stroke-width="0.042" />
		<path d="M2155.85530342285,632.280576997292 A1116,1116 0,0,1 2194.20949750331,655.346056443491 L2225.14485419903,606.166084025135 A1174.10048176187,1174.10048176187 0,0,0 2184.7938884755,581.899784267204 L2155.85530342285,632.280576997292 " fill="#ff0000" stroke="#000000" stroke-width="0.042" />
		<path d="M2194.20949750331,655.346056443491 A1116,1116 0,0,1 2231.60802747336,679.930818018987 L2265.7664351044,630.171953660358 A1176.35512732278,1176.35512732278 0,0,0 2226.34533072752,604.257607483527 L2194.20949750331,655.346056443491 " fill="#ff0000" stroke="#000000" stroke-width="0.042" />
		<path d="M2231.60802747336,679.930818018987 A1116,1116 0,0,1 2267.9907454676,705.995322176871 L2301.27930440002,661.443616026 A1171.61459050241,1171.61459050241 0,0,0 2263.08349504143,634.080216952894 L2231.60802747336,679.930818018987 " fill="#ff0000" stroke="#000000" stroke-width="0.042" />
		<path d="M2267.9907454676,705.995322176871 A1116,1116 0,0,1 2303.29913734586,733.497649507768 L2324.39358342082,707.508157788411 A1149.47281486579,1149.47281486579 0,0,0 2288.02616711196,679.180937705609 L2267.9907454676,705.995322176871 " fill="#ff0000" stroke="#000000" stroke-width="0.042" />
		<path d="M2303.29913734586,733.497649507768 A1116,1116 0,0,1 2337.4764168012,762.393568158615 L2373.31084281425,721.693764034626 A1170.22711631108,1170.22711631108 0,0,0 2337.47286863828,691.393775185217 L2303.29913734586,733.497649507768 " fill="#ff0000" stroke="#000000" stroke-width="0.042" />
		<path d="M2337.4764168012,762.393568158615 A1116,1116 0,0,1 2370.46761668903,792.636604970521 L2407.34633661402,753.991854849891 A1169.41775636614,1169.41775636614 0,0,0 2372.77600063495,722.301223797671 L2337.4764168012,762.393568158615 " fill="#ff0000" stroke="#000000" stroke-width="0.042" />
		<path d="M2370.46761668903,792.636604970521 A1116,1116 0,0,1 2402.21967743048,824.178120221313 L2431.76660913701,795.603458263787 A1157.1039229181,1157.1039229181 0,0,0 2398.84507325469,762.900222572504 L2370.46761668903,792.636604970521 " fill="#ff0000" stroke="#000000" stroke-width="0.042" />
		<path d="M2402.21967743048,824.178120221313 A1116,1116 0,0,1 2432.68153234788,856.967385852554 L2474.17726930168,819.939200757801 A1171.61459050241,1171.61459050241 0,0,0 2442.19738249614,785.515919373015 L2402.21967743048,824.178120221313 " fill="#ff0000" stroke="#000000" stroke-width="0.042" />
		<path d="M2432.68153234788,856.967385852554 A1116,1116 0,0,1 2461.80418979501,890.951667055223 L2526.67117182259,837.582437693788 A1200,1200 0,0,0 2495.35648639557,801.040199841456 L2432.68153234788,856.967385852554 " fill="#ff0000" stroke="#000000" stroke-width="0.042" />
		<path d="M2461.80418979501,890.951667055223 A1116,1116 0,0,1 2489.54081195012,926.076307082832 L2548.20104162168,881.634817635083 A1189.59394356504,1189.59394356504 0,0,0 2518.63534473039,844.193904510758 L2461.80418979501,890.951667055223 " fill="#ff0000" stroke="#000000" stroke-width="0.042" />
		<path d="M2489.54081195012,926.076307082832 A1116,1116 0,0,1 2515.84679014499,962.284815155605 L2564.99775642263,928.060403515679 A1175.89263592567,1175.89263592567 0,0,0 2537.28000907482,889.908684877123 L2489.54081195012,926.076307082832 " fill="#ff0000" stroke="#000000" stroke-width="0.042" />
		<path d="M2515.84679014499,962.284815155605 A1116,1116 0,0,1 2540.67981660876,999.518957314304 L2588.77576087646,968.817009368893 A1173.05987611838,1173.05987611838 0,0,0 2562.67304855815,929.679125687838 L2515.84679014499,962.284815155605 " fill="#ff0000" stroke="#000000" stroke-width="0.042" />
		<path d="M2540.67981660876,999.518957314304 A1116,1116 0,0,1 2563.99995251139,1037.71885007761 L2602.25205047234,1015.40719583697 A1160.28355127323,1160.28355127323 0,0,0 2578.00655755006,975.691508351604 L2540.67981660876,999.518957314304 " fill="#ff0000" stroke="#000000" stroke-width="0.042" />
		<path d="M2563.99995251139,1037.71885007761 A1116,1116 0,0,1 2585.76969219698,1076.82305675242 L2617.63436976816,1059.9115359974 A1152.07432897454,1152.07432897454 0,0,0 2595.1609304848,1019.54329884241 L2563.99995251139,1037.71885007761 " fill="#ff0000" stroke="#000000" stroke-width="0.042" />
		<path d="M2585.76969219698,1076.82305675242 A1116,1116 0,0,1 2605.954023504,1116.76868624218 L2659.47179892579,1091.0602897129 A1175.37233310392,1175.37233310392 0,0,0 2638.21364069955,1048.98951217645 L2585.76969219698,1076.82305675242 " fill="#ff0000" stroke="#000000" stroke-width="0.042" />
		<path d="M2605.954023504,1116.76868624218 A1116,1116 0,0,1 2624.52048407516,1157.49149419429 L2676.79696608641,1134.91235760976 A1172.9442532691,1172.9442532691 0,0,0 2657.28314598741,1092.11165549112 L2605.954023504,1116.76868624218 " fill="#ff0000" stroke="#000000" stroke-width="0.042" />
		<path d="M2624.52048407516,1157.49149419429 A1116,1116 0,0,1 2641.43921356641,1198.925986324 L2687.18796603057,1181.30744888806 A1165.0240880936,1165.0240880936 0,0,0 2669.52602391835,1138.05280604842 L2624.52048407516,1157.49149419429 " fill="#ff0000" stroke="#000000" stroke-width="0.042" />
		<path d="M2641.43921356641,1198.925986324 A1116,1116 0,0,1 2656.68300167123,1241.0055237485 L2713.66595154267,1221.64629850118 A1176.18169304886,1176.18169304886 0,0,0 2697.60012313622,1177.29756949521 L2641.43921356641,1198.925986324 " fill="#ff0000" stroke="#000000" stroke-width="0.042" />
		<path d="M2656.68300167123,1241.0055237485 A1116,1116 0,0,1 2670.22733188279,1283.66243016194 L2713.47076025183,1270.88054669269 A1161.09291121817,1161.09291121817 0,0,0 2699.37916007634,1226.50005238164 L2656.68300167123,1241.0055237485 " fill="#ff0000" stroke="#000000" stroke-width="0.042" />
		<path d="M2670.22733188279,1283.66243016194 A1116,1116 0,0,1 2682.05042092375,1326.82810067885 L2725.88367658417,1315.76206025167 A1161.20853406745,1161.20853406745 0,0,0 2713.58164083739,1270.84777263252 L2670.22733188279,1283.66243016194 " fill="#ff0000" stroke="#000000" stroke-width="0.042" />
		<path d="M2682.05042092375,1326.82810067885 A1116,1116 0,0,1 2692.1332537802,1370.43311217103 L2746.21902170786,1359.06426008635 A1171.26772195458,1171.26772195458 0,0,0 2735.6368562324,1313.29979550189 L2682.05042092375,1326.82810067885 " fill="#ff0000" stroke="#000000" stroke-width="0.042" />
		<path d="M2692.1332537802,1370.43311217103 A1116,1116 0,0,1 2700.45961428336,1414.40733492046 L2766.87206575181,1403.20686585961 A1183.35030970406,1183.35030970406 0,0,0 2758.04321155815,1356.57881020591 L2692.1332537802,1370.43311217103 " fill="#ff0000" stroke="#000000" stroke-width="0.042" />
		<path d="M2700.45961428336,1414.40733492046 A1116,1116 0,0,1 2707.01611119001,1458.6800454085 L2772.84936289411,1450.27587491144 A1182.3675154852,1182.3675154852 0,0,0 2765.90295701794,1403.37030618067 L2700.45961428336,1414.40733492046 " fill="#ff0000" stroke="#000000" stroke-width="0.042" />
		<path d="M2707.01611119001,1458.6800454085 A1116,1116 0,0,1 2711.79219971956,1503.18004006022 L2772.32291639279,1497.9087478485 A1176.75980729525,1176.75980729525 0,0,0 2767.28679720134,1450.98598339421 L2707.01611119001,1458.6800454085 " fill="#ff0000" stroke="#000000" stroke-width="0.042" />
		<path d="M2711.79219971956,1503.18004006022 A1116,1116 0,0,1 2714.78019851313,1547.83574976071 L2752.54754489172,1546.06849078894 A1153.8086717137,1153.8086717137 0,0,0 2749.4583164696,1499.89990199508 L2711.79219971956,1503.18004006022 " fill="#ff0000" stroke="#000000" stroke-width="0.042" />
		<path d="M2714.78019851313,1547.83574976071 A1116,1116 0,0,1 2715.97530198747,1592.57535495935 L2764.4202036848,1592.25304836485 A1164.44597384721,1164.44597384721 0,0,0 2763.17322032546,1545.57128031371 L2714.78019851313,1547.83574976071 " fill="#ff0000" stroke="#000000" stroke-width="0.042" />
		<path d="M2715.97530198747,1592.57535495935 A1116,1116 0,0,1 2715.37558806374,1637.32690117682 L2759.98103676755,1638.81965679523 A1160.63041982106,1160.63041982106 0,0,0 2760.60473410004,1592.27843289377 L2715.97530198747,1592.57535495935 " fill="#ff0000" stroke="#000000" stroke-width="0.042" />
		<path d="M2715.37558806374,1637.32690117682 A1116,1116 0,0,1 2712.9820212588,1682.01841472912 L2765.15987430792,1685.86353056146 A1168.319339298,1168.319339298 0,0,0 2767.66565422559,1639.07682842379 L2715.37558806374,1637.32690117682 " fill="#ff0000" stroke="#000000" stroke-width="0.042" />
		<path d="M2712.9820212588,1682.01841472912 A1116,1116 0,0,1 2708.79845113395,1726.57801848246 L2757.04667980928,1732.08593128191 A1164.56159669649,1164.56159669649 0,0,0 2761.41229370218,1685.58736202102 L2712.9820212588,1682.01841472912 " fill="#ff0000" stroke="#000000" stroke-width="0.042" />
		<path d="M2708.79845113395,1726.57801848246 A1116,1116 0,0,1 2702.83160610374,1770.93404745294 L2761.67475509476,1780.05447668824 A1175.54576737784,1175.54576737784 0,0,0 2767.95996962869,1733.33176870084 L2708.79845113395,1726.57801848246 " fill="#ff0000" stroke="#000000" stroke-width="0.042" />
		<path d="M2702.83160610374,1770.93404745294 A1116,1116 0,0,1 2695.09108261465,1815.01516406493 L2733.38268075683,1822.5335106094 A1155.02271163111,1155.02271163111 0,0,0 2741.39386393766,1776.91102777704 L2702.83160610374,1770.93404745294 " fill="#ff0000" stroke="#000000" stroke-width="0.042" />
		<path d="M2695.09108261465,1815.01516406493 A1116,1116 0,0,1 2685.58932971122,1858.75047288294 L2728.3849868934,1868.95082787001 A1159.99449415003,1159.99449415003 0,0,0 2738.26131400161,1823.49140365062 L2695.09108261465,1815.01516406493 " fill="#ff0000" stroke="#000000" stroke-width="0.042" />
		<path d="M2685.58932971122,1858.75047288294 A1116,1116 0,0,1 2674.34162901427,1902.06963463241 L2718.19652637637,1914.40019361407 A1161.55540261528,1161.55540261528 0,0,0 2729.90336106413,1869.31273271187 L2685.58932971122,1858.75047288294 " fill="#ff0000" stroke="#000000" stroke-width="0.042" />
		<path d="M2674.34162901427,1902.06963463241 A1116,1116 0,0,1 2661.3660701436,1944.90297932599 L2667.85385865634,1947.01126001276 A1122.82174810736,1122.82174810736 0,0,0 2680.90873293398,1903.91608889616 L2674.34162901427,1902.06963463241 " fill="#ff0000" stroke="#000000" stroke-width="0.042" />
		<path d="M2661.3660701436,1944.90297932599 A1116,1116 0,0,1 2646.68352162448,1987.1816183134 L2697.54250824457,2005.99500778455 A1170.22711631108,1170.22711631108 0,0,0 2712.93849069405,1961.6620241073 L2661.3660701436,1944.90297932599 " fill="#ff0000" stroke="#000000" stroke-width="0.042" />
		<path d="M2646.68352162448,1987.1816183134 A1116,1116 0,0,1 2630.31759732496,2028.83755507478 L2682.03591288014,2050.36369036825 A1172.01927047488,1172.01927047488 0,0,0 2699.22334895376,2006.61677225534 L2646.68352162448,1987.1816183134 " fill="#ff0000" stroke="#000000" stroke-width="0.042" />
		<path d="M2630.31759732496,2028.83755507478 A1116,1116 0,0,1 2612.29461847781,2069.80379457903 L2614.02511346311,2070.60691364709 A1117.90777701308,1117.90777701308 0,0,0 2632.07890218907,2029.57064327363 L2630.31759732496,2028.83755507478 " fill="#ff0000" stroke="#000000" stroke-width="0.042" />
		<path d="M2612.29461847781,2069.80379457903 A1116,1116 0,0,1 2592.64357134817,2110.01445103168 L2638.71703063149,2133.68672446574 A1167.79903647626,1167.79903647626 0,0,0 2659.28017929076,2091.60969412391 L2612.29461847781,2069.80379457903 " fill="#ff0000" stroke="#000000" stroke-width="0.042" />
		<path d="M2592.64357134817,2110.01445103168 A1116,1116 0,0,1 2571.39606061511,2149.40485383863 L2619.45223408795,2176.58459651349 A1171.20991052994,1171.20991052994 0,0,0 2641.75088565126,2135.24550139946 L2592.64357134817,2110.01445103168 " fill="#ff0000" stroke="#000000" stroke-width="0.042" />
		<path d="M2571.39606061511,2149.40485383863 A1116,1116 0,0,1 2548.586258542,2187.91165161552 L2615.16960232661,2229.17845604368 A1194.33448038541,1194.33448038541 0,0,0 2639.58047428601,2187.96878192704 L2571.39606061511,2149.40485383863 " fill="#ff0000" stroke="#000000" stroke-width="0.042" />
		<path d="M2548.586258542,2187.91165161552 A1116,1116 0,0,1 2524.25085001742,2225.47291407549 L2550.44031715413,2243.19624354581 A1147.62284927736,1147.62284927736 0,0,0 2575.46529105136,2204.57064941788 L2548.586258542,2187.91165161552 " fill="#ff0000" stroke="#000000" stroke-width="0.042" />
		<path d="M2524.25085001742,2225.47291407549 A1116,1116 0,0,1 2498.42897355503,2262.02823163129 L2541.89801890505,2294.05940612681 A1169.99587061253,1169.99587061253 0,0,0 2568.96924545743,2255.73541814364 L2524.25085001742,2225.47291407549 " fill="#ff0000" stroke="#000000" stroke-width="0.042" />
		<path d="M2498.42897355503,2262.02823163129 A1116,1116 0,0,1 2471.16215834732,2297.51881255178 L2492.82371768726,2314.8627077199 A1143.74948382657,1143.74948382657 0,0,0 2520.76852576917,2278.48964893092 L2498.42897355503,2262.02823163129 " fill="#ff0000" stroke="#000000" stroke-width="0.042" />
		<path d="M2471.16215834732,2297.51881255178 A1116,1116 0,0,1 2442.4942574744,2331.88757751628 L2492.50934626704,2375.33644598149 A1182.25189263593,1182.25189263593 0,0,0 2522.87913127143,2338.92736226568 L2471.16215834732,2297.51881255178 " fill="#ff0000" stroke="#000000" stroke-width="0.042" />
		<path d="M2442.4942574744,2331.88757751628 A1116,1116 0,0,1 2412.47137737534,2365.07925141505 L2444.41611483359,2395.16062597394 A1159.87887130076,1159.87887130076 0,0,0 2475.61943408314,2360.66392233748 L2442.4942574744,2331.88757751628 " fill="#ff0000" stroke="#000000" stroke-width="0.042" />
		<path d="M2412.47137737534,2365.07925141505 A1116,1116 0,0,1 2381.14180369539,2397.04045224789 L2399.67476569945,2415.95061727469 A1142.47763248451,1142.47763248451 0,0,0 2431.74764846345,2383.23112170223 L2412.47137737534,2365.07925141505 " fill="#ff0000" stroke="#000000" stroke-width="0.042" />
		<path d="M2381.14180369539,2397.04045224789 A1116,1116 0,0,1 2348.55592362842,2427.71977697817 L2392.21877756828,2476.0002147979 A1181.09566414315,1181.09566414315 0,0,0 2426.70537403726,2443.53138198627 L2381.14180369539,2397.04045224789 " fill="#ff0000" stroke="#000000" stroke-width="0.042" />
		<path d="M2348.55592362842,2427.71977697817 A1116,1116 0,0,1 2314.76614487951,2457.0678842041 L2348.16410859395,2497.11499933752 A1168.14590502409,1168.14590502409 0,0,0 2383.53273912909,2466.39558063128 L2348.55592362842,2427.71977697817 " fill="#ff0000" stroke="#000000" stroke-width="0.042" />
		<path d="M2314.76614487951,2457.0678842041 A1116,1116 0,0,1 2279.82681137782,2485.03757351418 L2299.54812286981,2510.71190906151 A1148.37439779766,1148.37439779766 0,0,0 2335.50102257362,2481.9308381672 L2314.76614487951,2457.0678842041 " fill="#ff0000" stroke="#000000" stroke-width="0.042" />
		<path d="M2279.82681137782,2485.03757351418 A1116,1116 0,0,1 2243.79411587559,2511.58386139947 L2281.67977187425,2565.22826686275 A1181.67377838954,1181.67377838954 0,0,0 2319.83290040443,2537.11979705305 L2279.82681137782,2485.03757351418 " fill="#ff0000" stroke="#000000" stroke-width="0.042" />
		<path d="M2243.79411587559,2511.58386139947 A1116,1116 0,0,1 2206.72600957361,2536.66405360027 L2248.74769791289,2601.53716653417 A1193.29387474191,1193.29387474191 0,0,0 2288.38313178247,2574.71992663223 L2243.79411587559,2511.58386139947 " fill="#ff0000" stroke="#000000" stroke-width="0.042" />
		<path d="M2206.72600957361,2536.66405360027 A1116,1116 0,0,1 2168.68210891855,2560.23781377113 L2201.88248157918,2616.29769812489 A1181.15347556779,1181.15347556779 0,0,0 2242.14743272871,2591.34767235607 L2206.72600957361,2536.66405360027 " fill="#ff0000" stroke="#000000" stroke-width="0.042" />
		<path d="M2168.68210891855,2560.23781377113 A1116,1116 0,0,1 2129.72359972221,2582.26722835354 L2157.41149636052,2633.60893467758 A1174.33172746043,1174.33172746043 0,0,0 2198.40631123849,2610.42807403107 L2168.68210891855,2560.23781377113 " fill="#ff0000" stroke="#000000" stroke-width="0.042" />
		<path d="M2129.72359972221,2582.26722835354 A1116,1116 0,0,1 2089.91313875665,2602.71686755216 L2114.86035443784,2653.77692694449 A1172.82863041982,1172.82863041982 0,0,0 2156.69803222514,2632.28595711125 L2129.72359972221,2582.26722835354 " fill="#ff0000" stroke="#000000" stroke-width="0.042" />
		<path d="M2089.91313875665,2602.71686755216 A1116,1116 0,0,1 2049.31475298359,2621.55384231635 L2063.65249850724,2654.15187951094 A1151.61183757743,1151.61183757743 0,0,0 2105.54638886816,2634.71381219679 L2089.91313875665,2602.71686755216 " fill="#ff0000" stroke="#000000" stroke-width="0.042" />
		<path d="M2049.31475298359,2621.55384231635 A1116,1116 0,0,1 2007.99373658024,2638.74785723548 L2016.65910096528,2660.809785839 A1139.70268410186,1139.70268410186 0,0,0 2058.85773295874,2643.25058785171 L2049.31475298359,2621.55384231635 " fill="#ff0000" stroke="#000000" stroke-width="0.042" />
		<path d="M2007.99373658024,2638.74785723548 A1116,1116 0,0,1 1966.01654592697,2654.27125926286 L1977.69622494507,2687.91331736986 A1151.61183757743,1151.61183757743 0,0,0 2021.01291819288,2671.89455972272 L2007.99373658024,2638.74785723548 " fill="#ff0000" stroke="#000000" stroke-width="0.042" />
		<path d="M1966.01654592697,2654.27125926286 A1116,1116 0,0,1 1923.45069272585,2668.09908219002 L1940.54130944071,2724.53572752031 A1174.96765313145,1174.96765313145 0,0,0 1985.35627417123,2709.97726456991 L1966.01654592697,2654.27125926286 " fill="#ff0000" stroke="#000000" stroke-width="0.042" />
		<path d="M1923.45069272585,2668.09908219002 A1116,1116 0,0,1 1880.36463542192,2680.20908679974 L1894.17652907912,2733.42454677374 A1170.97866483138,1170.97866483138 0,0,0 1939.38517948647,2720.71795445385 L1923.45069272585,2668.09908219002 " fill="#ff0000" stroke="#000000" stroke-width="0.042" />
		<path d="M1880.36463542192,2680.20908679974 A1116,1116 0,0,1 1836.82766910185,2690.58179663324 L1845.8325500959,2732.04890784624 A1158.43358568479,1158.43358568479 0,0,0 1891.02491927511,2721.28179723183 L1880.36463542192,2680.20908679974 " fill="#ff0000" stroke="#000000" stroke-width="0.042" />
		<path d="M1836.82766910185,2690.58179663324 A1116,1116 0,0,1 1792.90981404697,2699.20052931408 L1804.19211659057,2763.48711312044 A1181.26909841707,1181.26909841707 0,0,0 1850.67850103957,2754.36431510664 L1836.82766910185,2690.58179663324 " fill="#ff0000" stroke="#000000" stroke-width="0.042" />
		<path d="M1792.90981404697,2699.20052931408 A1116,1116 0,0,1 1748.68170312005,2706.05142337837 L1754.62769490316,2750.28398553703 A1160.63041982106,1160.63041982106 0,0,0 1800.62455059583,2743.15911452091 L1792.90981404697,2699.20052931408 " fill="#ff0000" stroke="#000000" stroke-width="0.042" />
		<path d="M1748.68170312005,2706.05142337837 A1116,1116 0,0,1 1704.21446816675,2711.12346056805 L1708.54410891218,2757.28562492677 A1162.36476256022,1162.36476256022 0,0,0 1754.85875676002,2752.0028674862 L1748.68170312005,2706.05142337837 " fill="#ff0000" stroke="#000000" stroke-width="0.042" />
		<path d="M1704.21446816675,2711.12346056805 A1116,1116 0,0,1 1659.57962561474,2714.40848355152 L1662.116617421,2761.86170539403 A1163.52099105299,1163.52099105299 0,0,0 1708.65208000308,2758.43680109531 L1704.21446816675,2711.12346056805 " fill="#ff0000" stroke="#000000" stroke-width="0.042" />
		<path d="M1659.57962561474,2714.40848355152 A1116,1116 0,0,1 1614.8489614541,2715.90120904305 L1615.46125351001,2761.91502944272 A1162.01789401239,1162.01789401239 0,0,0 1662.03637193807,2760.36075190509 L1659.57962561474,2714.40848355152 " fill="#ff0000" stroke="#000000" stroke-width="0.042" />
		<path d="M1614.8489614541,2715.90120904305 A1116,1116 0,0,1 1570.09441578434,2715.59923629981 L1568.67071973642,2768.70885664124 A1169.12869924295,1169.12869924295 0,0,0 1615.55586647845,2769.025205208 L1614.8489614541,2715.90120904305 " fill="#ff0000" stroke="#000000" stroke-width="0.042" />
		<path d="M1570.09441578434,2715.59923629981 A1116,1116 0,0,1 1525.38796711345,2713.50305098304 L1522.23406283052,2760.57162565772 A1163.17412250516,1163.17412250516 0,0,0 1568.83028523472,2762.75641823518 L1570.09441578434,2715.59923629981 " fill="#ff0000" stroke="#000000" stroke-width="0.042" />
		<path d="M1525.38796711345,2713.50305098304 A1116,1116 0,0,1 1480.8015165953,2709.61602437691 L1475.27510480708,2761.06126849713 A1167.74122505162,1167.74122505162 0,0,0 1521.92872160705,2765.12850972549 L1525.38796711345,2713.50305098304 " fill="#ff0000" stroke="#000000" stroke-width="0.042" />
		<path d="M1480.8015165953,2709.61602437691 A1116,1116 0,0,1 1436.4067723913,2703.94440796653 L1428.25428998769,2758.9582217537 A1171.61459050241,1171.61459050241 0,0,0 1474.86139576818,2764.91247671619 L1480.8015165953,2709.61602437691 " fill="#ff0000" stroke="#000000" stroke-width="0.042" />
		<path d="M1436.4067723913,2703.94440796653 A1116,1116 0,0,1 1392.27513434261,2696.4973233837 L1384.01096545381,2740.12059899819 A1160.39917412251,1160.39917412251 0,0,0 1429.89834569071,2747.86395992967 L1436.4067723913,2703.94440796653 " fill="#ff0000" stroke="#000000" stroke-width="0.042" />
		<path d="M1392.27513434261,2696.4973233837 A1116,1116 0,0,1 1348.47757913807,2687.28674773665 L1337.98886952313,2732.62757630414 A1162.53819683414,1162.53819683414 0,0,0 1383.61282190057,2742.22224118274 L1392.27513434261,2696.4973233837 " fill="#ff0000" stroke="#000000" stroke-width="0.042" />
		<path d="M1348.47757913807,2687.28674773665 A1116,1116 0,0,1 1305.08454616279,2676.32749434733 L1288.86003858984,2735.540680214 A1177.39573296628,1177.39573296628 0,0,0 1334.64030011811,2747.10284703935 L1348.47757913807,2687.28674773665 " fill="#ff0000" stroke="#000000" stroke-width="0.042" />
		<path d="M1305.08454616279,2676.32749434733 A1116,1116 0,0,1 1262.16582421085,2663.63718892716 L1248.91786635202,2705.34706218993 A1159.76324845148,1159.76324845148 0,0,0 1293.51961938998,2718.53501007338 L1305.08454616279,2676.32749434733 " fill="#ff0000" stroke="#000000" stroke-width="0.042" />
		<path d="M1262.16582421085,2663.63718892716 A1116,1116 0,0,1 1219.79043924432,2649.23624122977 L1200.84312828865,2701.52373576049 A1171.61459050241,1171.61459050241 0,0,0 1245.33024236118,2716.64233830468 L1262.16582421085,2663.63718892716 " fill="#ff0000" stroke="#000000" stroke-width="0.042" />
		<path d="M1219.79043924432,2649.23624122977 A1116,1116 0,0,1 1178.02654337915,2633.14781222604 L1165.28261959914,2664.34967283105 A1149.70406056435,1149.70406056435 0,0,0 1208.3078173242,2680.92398479672 L1219.79043924432,2649.23624122977 " fill="#ff0000" stroke="#000000" stroke-width="0.042" />
		<path d="M1178.02654337915,2633.14781222604 A1116,1116 0,0,1 1136.94130527649,2615.39777685445 L1120.89364809417,2650.58717209166 A1154.67584308328,1154.67584308328 0,0,0 1163.40272689745,2668.95234866644 L1178.02654337915,2633.14781222604 " fill="#ff0000" stroke="#000000" stroke-width="0.042" />
		<path d="M1136.94130527649,2615.39777685445 A1116,1116 0,0,1 1096.60080211567,2596.01468240655 L1075.6607604421,2637.44619251768 A1162.42257398486,1162.42257398486 0,0,0 1117.67931915182,2657.63557113768 L1136.94130527649,2615.39777685445 " fill="#ff0000" stroke="#000000" stroke-width="0.042" />
		<path d="M1096.60080211567,2596.01468240655 A1116,1116 0,0,1 1057.06991332259,2575.02970261447 L1034.28861847499,2615.94185628854 A1162.82725395733,1162.82725395733 0,0,0 1075.47821960559,2637.8073638387 L1096.60080211567,2596.01468240655 " fill="#ff0000" stroke="#000000" stroke-width="0.042" />
		<path d="M1057.06991332259,2575.02970261447 A1116,1116 0,0,1 1018.41221622449,2552.47658751441 L996.720333429322,2588.0017671655 A1157.62422573985,1157.62422573985 0,0,0 1036.81987345806,2611.39606143587 L1057.06991332259,2575.02970261447 " fill="#ff0000" stroke="#000000" stroke-width="0.042" />
		<path d="M1018.41221622449,2552.47658751441 A1116,1116 0,0,1 980.689883798861,2528.39160916659 L956.371939637628,2564.84600369506 A1159.82105987612,1159.82105987612 0,0,0 995.575484059577,2589.87670720264 L1018.41221622449,2552.47658751441 " fill="#ff0000" stroke="#000000" stroke-width="0.042" />
		<path d="M980.689883798861,2528.39160916659 A1116,1116 0,0,1 943.963584680934,2502.8135033191 L913.921526070315,2544.15629397498 A1167.10529938059,1167.10529938059 0,0,0 952.329642850932,2570.90570516022 L980.689883798861,2528.39160916659 " fill="#ff0000" stroke="#000000" stroke-width="0.042" />
		<path d="M943.963584680934,2502.8135033191 A1116,1116 0,0,1 908.292385590653,2475.78340710939 L908.292385590653,2475.78340710939 A1116,1116 0,0,0 943.963584680934,2502.8135033191 L943.963584680934,2502.8135033191 " fill="#ff0000" stroke="#000000" stroke-width="0.042" />
		<path d="M908.292385590653,2475.78340710939 A1116,1116 0,0,1 873.733656335955,2447.34479290361 L836.600441642033,2490.66861809414 A1173.05987611838,1173.05987611838 0,0,0 872.9261214434,2520.56126796619 L908.292385590653,2475.78340710939 " fill="#ff0000" stroke="#000000" stroke-width="0.042" />
		<path d="M873.733656335955,2447.34479290361 A1116,1116 0,0,1 840.342977545201,2417.54339838024 L804.178470848255,2456.46366480551 A1169.12869924295,1169.12869924295 0,0,0 839.158758358534,2487.68379528466 L873.733656335955,2447.34479290361 " fill="#ff0000" stroke="#000000" stroke-width="0.042" />
		<path d="M840.342977545201,2417.54339838024 A1116,1116 0,0,1 808.17405127714,2386.42715297041 L777.49225338392,2416.8997574665 A1159.24294562973,1159.24294562973 0,0,0 810.907666327229,2449.22170010614 L840.342977545201,2417.54339838024 " fill="#ff0000" stroke="#000000" stroke-width="0.042" />
		<path d="M808.17405127714,2386.42715297041 A1116,1116 0,0,1 777.278614652152,2354.04610077323 L731.846864417446,2395.68551203188 A1177.62697866483,1177.62697866483 0,0,0 764.448387434663,2429.85468825495 L808.17405127714,2386.42715297041 " fill="#ff0000" stroke="#000000" stroke-width="0.042" />
		<path d="M777.278614652152,2354.04610077323 A1116,1116 0,0,1 747.70635664371,2320.45232007015 L705.586478968797,2356.05667289914 A1171.1520991053,1171.1520991053 0,0,0 736.620181515276,2391.31063955443 L777.278614652152,2354.04610077323 " fill="#ff0000" stroke="#000000" stroke-width="0.042" />
		<path d="M747.70635664371,2320.45232007015 A1116,1116 0,0,1 719.504838163851,2285.69983956767 L672.935271885384,2321.96664205559 A1175.02546455609,1175.02546455609 0,0,0 702.628374352215,2358.55718824457 L747.70635664371,2320.45232007015 " fill="#ff0000" stroke="#000000" stroke-width="0.042" />
		<path d="M719.504838163851,2285.69983956767 A1116,1116 0,0,1 692.719415571205,2249.84455150331 L645.767146799065,2283.47436411691 A1173.75361321404,1173.75361321404 0,0,0 673.938729728799,2321.18518304018 L719.504838163851,2285.69983956767 " fill="#ff0000" stroke="#000000" stroke-width="0.042" />
		<path d="M692.719415571205,2249.84455150331 A1116,1116 0,0,1 667.393167724595,2212.94412175437 L636.763849653432,2233.07485618107 A1152.65244322092,1152.65244322092 0,0,0 662.921879633731,2271.18719534418 L692.719415571205,2249.84455150331 " fill="#ff0000" stroke="#000000" stroke-width="0.042" />
		<path d="M667.393167724595,2212.94412175437 A1116,1116 0,0,1 643.566826699526,2175.05789709419 L605.614983089072,2197.87654034781 A1160.28355127323,1160.28355127323 0,0,0 630.386767657543,2237.26611319105 L667.393167724595,2212.94412175437 " fill="#ff0000" stroke="#000000" stroke-width="0.042" />
		<path d="M643.566826699526,2175.05789709419 A1116,1116 0,0,1 621.278712278998,2136.24680974505 L584.216965139092,2156.55314610116 A1158.26015141087,1158.26015141087 0,0,0 607.349075160046,2196.8339130451 L643.566826699526,2175.05789709419 " fill="#ff0000" stroke="#000000" stroke-width="0.042" />
		<path d="M621.278712278998,2136.24680974505 A1116,1116 0,0,1 600.56467032399,2096.5732793812 L554.641930113092,2119.39016910641 A1167.27873365451,1167.27873365451 0,0,0 576.307755079139,2160.88664606225 L621.278712278998,2136.24680974505 " fill="#ff0000" stroke="#000000" stroke-width="0.042" />
		<path d="M600.56467032399,2096.5732793812 A1116,1116 0,0,1 581.458015122746,2056.1011127396 L554.707239905514,2068.08005766714 A1145.31039229181,1145.31039229181 0,0,0 574.315708331966,2109.61517689043 L600.56467032399,2096.5732793812 " fill="#ff0000" stroke="#000000" stroke-width="0.042" />
		<path d="M581.458015122746,2056.1011127396 A1116,1116 0,0,1 563.989475811579,2014.89540099986 L509.892351887969,2036.55989899403 A1174.27391603579,1174.27391603579 0,0,0 528.273041909788,2079.91723993281 L581.458015122746,2056.1011127396 " fill="#ff0000" stroke="#000000" stroke-width="0.042" />
		<path d="M563.989475811579,2014.89540099986 A1116,1116 0,0,1 548.18714695335,1973.02241509843 L496.479572836847,1991.36035812694 A1170.86304198211,1170.86304198211 0,0,0 513.058751006514,2035.29183809953 L563.989475811579,2014.89540099986 " fill="#ff0000" stroke="#000000" stroke-width="0.042" />
		<path d="M548.18714695335,1973.02241509843 A1116,1116 0,0,1 534.07644335313,1930.54949914542 L473.558230929485,1949.3165717756 A1179.36132140399,1179.36132140399 0,0,0 488.470075054839,1994.20090356971 L548.18714695335,1973.02241509843 " fill="#ff0000" stroke="#000000" stroke-width="0.042" />
		<path d="M534.07644335313,1930.54949914542 A1116,1116 0,0,1 521.6800591837,1887.54496211537 L466.826021388917,1902.17234831361 A1172.77081899518,1172.77081899518 0,0,0 479.853008499098,1947.3645222502 L534.07644335313,1930.54949914542 " fill="#ff0000" stroke="#000000" stroke-width="0.042" />
		<path d="M521.6800591837,1887.54496211537 A1116,1116 0,0,1 511.017931486623,1844.07796798631 L457.990809175216,1855.96315199085 A1170.34273916036,1170.34273916036 0,0,0 469.172120765068,1901.54673709128 L521.6800591837,1887.54496211537 " fill="#ff0000" stroke="#000000" stroke-width="0.042" />
		<path d="M511.017931486623,1844.07796798631 A1116,1116 0,0,1 502.107208107606,1800.21842450365 L455.300376309161,1808.75440377949 A1163.57880247763,1163.57880247763 0,0,0 464.590993548019,1854.48382589667 L511.017931486623,1844.07796798631 " fill="#ff0000" stroke="#000000" stroke-width="0.042" />
		<path d="M502.107208107606,1800.21842450365 A1116,1116 0,0,1 494.962220117705,1756.03687074794 L448.423209207314,1762.60841224848 A1163.00068823125,1163.00068823125 0,0,0 455.869110595897,1808.65068592681 L502.107208107606,1800.21842450365 " fill="#ff0000" stroke="#000000" stroke-width="0.042" />
		<path d="M494.962220117705,1756.03687074794 A1116,1116 0,0,1 489.594458764738,1711.6043636872 L447.028461061812,1715.88257638691 A1158.78045423262,1158.78045423262 0,0,0 452.601988784754,1762.0183476365 L494.962220117705,1756.03687074794 " fill="#ff0000" stroke="#000000" stroke-width="0.042" />
		<path d="M489.594458764738,1711.6043636872 A1116,1116 0,0,1 486.012556991968,1666.99236389639 L438.057899176268,1669.87623472194 A1164.04129387474,1164.04129387474 0,0,0 441.793993776723,1716.40868092161 L489.594458764738,1711.6043636872 " fill="#ff0000" stroke="#000000" stroke-width="0.042" />
		<path d="M486.012556991968,1666.99236389639 A1116,1116 0,0,1 484.222275553785,1622.27262062771 L446.363334345118,1623.02834268277 A1153.86648313833,1153.86648313833 0,0,0 448.214361000051,1669.26545100919 L486.012556991968,1666.99236389639 " fill="#ff0000" stroke="#000000" stroke-width="0.042" />
		<path d="M484.222275553785,1622.27262062771 A1116,1116 0,0,1 484.226493750713,1577.51705641663 L452.08986514899,1576.86950025603 A1148.14315209911,1148.14315209911 0,0,0 452.0855254591,1622.91411904391 L484.222275553785,1622.27262062771 " fill="#ff0000" stroke="#000000" stroke-width="0.042" />
		<path d="M484.226493750713,1577.51705641663 A1116,1116 0,0,1 486.025204798648,1532.79765140929 L440.667884584647,1530.06139700094 A1161.439779766,1161.439779766 0,0,0 438.795936051155,1576.6016263047 L484.226493750713,1577.51705641663 " fill="#ff0000" stroke="#000000" stroke-width="0.042" />
		<path d="M486.025204798648,1532.79765140929 A1116,1116 0,0,1 489.615515839768,1488.18632759714 L441.125710979008,1483.30349355819 A1164.73503097041,1164.73503097041 0,0,0 437.378613271418,1529.86296633774 L486.025204798648,1532.79765140929 " fill="#ff0000" stroke="#000000" stroke-width="0.042" />
		<path d="M489.615515839768,1488.18632759714 A1116,1116 0,0,1 494.991652595097,1443.7548331452 L458.585720762207,1438.60713366664 A1152.7680660702,1152.7680660702 0,0,0 453.03246021528,1484.50248127594 L489.615515839768,1488.18632759714 " fill="#ff0000" stroke="#000000" stroke-width="0.042" />
		<path d="M494.991652595097,1443.7548331452 A1116,1116 0,0,1 502.144968651256,1399.57462699985 L446.01282520619,1389.32709388662 A1173.05987611838,1173.05987611838 0,0,0 438.493767816696,1435.76618631291 L494.991652595097,1443.7548331452 " fill="#ff0000" stroke="#000000" stroke-width="0.042" />
		<path d="M502.144968651256,1399.57462699985 A1116,1116 0,0,1 511.063959366443,1355.71676396177 L478.515707931747,1348.41514853977 A1149.35719201652,1149.35719201652 0,0,0 469.330128967565,1393.58392121835 L502.144968651256,1399.57462699985 " fill="#ff0000" stroke="#000000" stroke-width="0.042" />
		<path d="M511.063959366443,1355.71676396177 A1116,1116 0,0,1 521.734280373284,1312.25178040885 L475.038079030452,1299.7903355595 A1164.33035099794,1164.33035099794 0,0,0 463.905660927265,1345.13764698987 L511.063959366443,1355.71676396177 " fill="#ff0000" stroke="#000000" stroke-width="0.042" />
		<path d="M521.734280373284,1312.25178040885 A1116,1116 0,0,1 534.138770648814,1269.2495808529 L501.2311560816,1259.03792570352 A1150.45560908465,1150.45560908465 0,0,0 488.443687071456,1303.36778384161 L521.734280373284,1312.25178040885 " fill="#ff0000" stroke="#000000" stroke-width="0.042" />
		<path d="M534.138770648814,1269.2495808529 A1116,1116 0,0,1 548.257480114462,1226.77932551261 L509.084392897181,1212.87838896535 A1157.56641431521,1157.56641431521 0,0,0 494.439819518232,1256.93048680524 L534.138770648814,1269.2495808529 " fill="#ff0000" stroke="#000000" stroke-width="0.042" />
		<path d="M548.257480114462,1226.77932551261 A1116,1116 0,0,1 564.067701721655,1184.90931908347 L517.004611051771,1166.05147443024 A1166.70061940812,1166.70061940812 0,0,0 500.476120601868,1209.82366299252 L548.257480114462,1226.77932551261 " fill="#ff0000" stroke="#000000" stroke-width="0.042" />
		<path d="M564.067701721655,1184.90931908347 A1116,1116 0,0,1 581.544007971452,1143.70690088371 L536.013495292128,1123.30812185211 A1165.89125946318,1165.89125946318 0,0,0 517.755903263149,1166.35251185914 L564.067701721655,1184.90931908347 " fill="#ff0000" stroke="#000000" stroke-width="0.042" />
		<path d="M581.544007971452,1143.70690088371 A1116,1116 0,0,1 600.658291809465,1103.23833655281 L557.58710717477,1081.8281290628 A1164.09910529938,1164.09910529938 0,0,0 537.649006176321,1124.04087057746 L581.544007971452,1143.70690088371 " fill="#ff0000" stroke="#000000" stroke-width="0.042" />
		<path d="M600.658291809465,1103.23833655281 A1116,1116 0,0,1 621.379811830284,1063.56871147679 L582.801048260806,1042.42173729684 A1159.99449415003,1159.99449415003 0,0,0 561.262652978932,1083.65520205774 L600.658291809465,1103.23833655281 " fill="#ff0000" stroke="#000000" stroke-width="0.042" />
		<path d="M621.379811830284,1063.56871147679 A1116,1116 0,0,1 643.67524171873,1024.76182611177 L610.28536826765,1004.67750887117 A1154.96490020647,1154.96490020647 0,0,0 587.21149823524,1044.83932830033 L621.379811830284,1063.56871147679 " fill="#ff0000" stroke="#000000" stroke-width="0.042" />
		<path d="M643.67524171873,1024.76182611177 A1116,1116 0,0,1 667.508723848391,986.880093373943 L627.850120853895,960.804268766494 A1163.46317962836,1163.46317962836 0,0,0 603.003007144046,1000.29710140178 L643.67524171873,1024.76182611177 " fill="#ff0000" stroke="#000000" stroke-width="0.042" />
		<path d="M667.508723848391,986.880093373943 A1116,1116 0,0,1 692.841926951269,949.984438261273 L658.443108294269,925.33628917152 A1158.31796283551,1158.31796283551 0,0,0 632.149287317367,963.631002493733 L667.508723848391,986.880093373943 " fill="#ff0000" stroke="#000000" stroke-width="0.042" />
		<path d="M692.841926951269,949.984438261273 A1116,1116 0,0,1 719.634107765754,914.13419986808 L705.998205683696,903.510890884249 A1133.28561596696,1133.28561596696 0,0,0 678.791043374161,939.916410149475 L692.841926951269,949.984438261273 " fill="#ff0000" stroke="#000000" stroke-width="0.042" />
		<path d="M719.634107765754,914.13419986808 A1116,1116 0,0,1 747.842176563808,879.387035950301 L729.875658355506,864.193951308384 A1139.52924982794,1139.52924982794 0,0,0 701.072863125629,899.673709043935 L719.634107765754,914.13419986808 " fill="#ff0000" stroke="#000000" stroke-width="0.042" />
		<path d="M747.842176563808,879.387035950301 A1116,1116 0,0,1 777.42076645196,845.798830194809 L734.638781434861,806.573158271011 A1174.04267033723,1174.04267033723 0,0,0 703.521822064703,841.908271870486 L747.842176563808,879.387035950301 " fill="#ff0000" stroke="#000000" stroke-width="0.042" />
		<path d="M777.42076645196,845.798830194809 A1116,1116 0,0,1 808.322306334641,813.423602341961 L758.986354330586,764.405554071949 A1185.54714384033,1185.54714384033 0,0,0 726.159085201392,798.798348796075 L777.42076645196,845.798830194809 " fill="#ff0000" stroke="#000000" stroke-width="0.042" />
		<path d="M808.322306334641,813.423602341961 A1116,1116 0,0,1 840.497097422543,782.313421305928 L799.382579203995,738.049219519878 A1176.41293874742,1176.41293874742 0,0,0 765.46605542505,770.843502223788 L808.322306334641,813.423602341961 " fill="#ff0000" stroke="#000000" stroke-width="0.042" />
		<path d="M840.497097422543,782.313421305928 A1116,1116 0,0,1 873.893393162921,752.518321432526 L845.870940879138,719.811671093003 A1159.06951135582,1159.06951135582 0,0,0 811.185790175827,750.75664586994 L840.497097422543,782.313421305928 " fill="#ff0000" stroke="#000000" stroke-width="0.042" />
		<path d="M873.893393162921,752.518321432526 A1116,1116 0,0,1 908.457482463319,724.086222029229 L885.279659331914,694.728989307685 A1153.40399174123,1153.40399174123 0,0,0 849.557115810427,724.114022412833 L873.893393162921,752.518321432526 " fill="#ff0000" stroke="#000000" stroke-width="0.042" />
		<path d="M908.457482463319,724.086222029229 A1116,1116 0,0,1 944.133776074838,697.062850296794 L929.558323948002,676.996689364953 A1140.80110116999,1140.80110116999 0,0,0 893.089188609574,704.620607133491 L908.457482463319,724.086222029229 " fill="#ff0000" stroke="#000000" stroke-width="0.042" />
		<path d="M944.133776074838,697.062850296794 A1116,1116 0,0,1 980.864895996051,671.491667786433 L965.63038511524,648.64468301921 A1143.46042670337,1143.46042670337 0,0,0 927.99545495538,674.84507304126 L944.133776074838,697.062850296794 " fill="#ff0000" stroke="#000000" stroke-width="0.042" />
		<path d="M980.864895996051,671.491667786433 A1116,1116 0,0,1 1018.59176775374,647.413800500824 L992.238243177167,604.235870730512 A1166.58499655884,1166.58499655884 0,0,0 952.801323320873,629.405116899443 L980.864895996051,671.491667786433 " fill="#ff0000" stroke="#000000" stroke-width="0.042" />
		<path d="M1018.59176775374,647.413800500824 A1116,1116 0,0,1 1057.25371541209,624.867972751371 L1032.37146783369,580.162965618889 A1167.16311080523,1167.16311080523 0,0,0 991.937060039148,603.742408675995 L1018.59176775374,647.413800500824 " fill="#ff0000" stroke="#000000" stroke-width="0.042" />
		<path d="M1057.25371541209,624.867972751371 A1116,1116 0,0,1 1096.78855915746,603.890444878089 L1071.60731928313,554.044055045156 A1171.84583620096,1171.84583620096 0,0,0 1030.09410958075,576.071320898288 L1057.25371541209,624.867972751371 " fill="#ff0000" stroke="#000000" stroke-width="0.042" />
		<path d="M1096.78855915746,603.890444878089 A1116,1116 0,0,1 1137.13271530187,584.514954932284 L1120.75600498697,548.586072157538 A1155.48520302822,1155.48520302822 0,0,0 1078.98443199994,568.647086435136 L1096.78855915746,603.890444878089 " fill="#ff0000" stroke="#000000" stroke-width="0.042" />
		<path d="M1137.13271530187,584.514954932284 A1116,1116 0,0,1 1178.22129854435,566.772664415819 L1161.65965900048,526.201771101951 A1159.82105987612,1159.82105987612 0,0,0 1118.95768394215,544.640733639081 L1137.13271530187,584.514954932284 " fill="#ff0000" stroke="#000000" stroke-width="0.042" />
		<path d="M1178.22129854435,566.772664415819 A1116,1116 0,0,1 1219.9882263256,550.692108164226 L1204.55479150461,508.076520759637 A1161.32415691672,1161.32415691672 0,0,0 1161.09158165465,524.810157347122 L1178.22129854435,566.772664415819 " fill="#ff0000" stroke="#000000" stroke-width="0.042" />
		<path d="M1219.9882263256,550.692108164226 A1116,1116 0,0,1 1262.36632510826,536.299148454277 L1246.71257962655,486.982674307839 A1167.74122505162,1167.74122505162 0,0,0 1202.36970060521,502.042936318426 L1219.9882263256,550.692108164226 " fill="#ff0000" stroke="#000000" stroke-width="0.042" />
		<path d="M1262.36632510826,536.299148454277 A1116,1116 0,0,1 1305.28743841174,523.616933409816 L1295.08921347123,486.369804966805 A1154.61803165864,1154.61803165864 0,0,0 1250.68285920683,499.490875013137 L1262.36632510826,536.299148454277 " fill="#ff0000" stroke="#000000" stroke-width="0.042" />
		<path d="M1305.28743841174,523.616933409816 A1116,1116 0,0,1 1348.682536428,512.665859772749 L1338.63199529217,469.181828263687 A1160.63041982106,1160.63041982106 0,0,0 1293.5014658757,480.570850837953 L1305.28743841174,523.616933409816 " fill="#ff0000" stroke="#000000" stroke-width="0.042" />
		<path d="M1348.682536428,512.665859772749 A1116,1116 0,0,1 1392.48182704175,503.463540099067 L1384.63437857535,461.997227833796 A1158.20233998624,1158.20233998624 0,0,0 1339.17878639023,471.54753982247 L1348.682536428,512.665859772749 " fill="#ff0000" stroke="#000000" stroke-width="0.042" />
		<path d="M1392.48182704175,503.463540099067 A1116,1116 0,0,1 1436.61486807684,496.024774432663 L1428.78591404623,443.125399867999 A1169.47556779078,1169.47556779078 0,0,0 1382.53814234117,450.920610173895 L1392.48182704175,503.463540099067 " fill="#ff0000" stroke="#000000" stroke-width="0.042" />
		<path d="M1436.61486807684,496.024774432663 A1116,1116 0,0,1 1481.01068058801,490.361526502496 L1478.64373277829,468.288483582314 A1138.19958706125,1138.19958706125 0,0,0 1433.36479418738,474.064385424197 L1436.61486807684,496.024774432663 " fill="#ff0000" stroke="#000000" stroke-width="0.042" />
		<path d="M1481.01068058801,490.361526502496 A1116,1116 0,0,1 1525.59786301594,486.482904481388 L1523.95982560334,461.967712633836 A1140.56985547144,1140.56985547144 0,0,0 1478.39101178819,465.931726395524 L1481.01068058801,490.361526502496 " fill="#ff0000" stroke="#000000" stroke-width="0.042" />
		<path d="M1525.59786301594,486.482904481388 A1116,1116 0,0,1 1570.3047060221,484.395146337393 L1569.02331372892,436.255280714865 A1164.15691672402,1164.15691672402 0,0,0 1522.38730968724,438.433128460186 L1525.59786301594,486.482904481388 " fill="#ff0000" stroke="#000000" stroke-width="0.042" />
		<path d="M1570.3047060221,484.395146337393 A1116,1116 0,0,1 1600,484 L1600,448.840262516692 A1151.15973748331,1151.15973748331 0,0,0 1569.3691515949,449.247857995205 L1570.3047060221,484.395146337393 " fill="#ff0000" stroke="#000000" stroke-width="0.042" />
		<circle cx="1600" cy="1600" fill="none" opacity="0.6" r="1116" stroke="black" stroke-dasharray="3, 3" stroke-width="0.0840000000000001" />
		<g id="t1.1" opacity="0.6">
			<path d="M482.32,1600 A1117.68,1117.68 -90,1,1 1600,2717.68 A1117.68,1117.68 -90,1,1 2717.68,1600 " fill="none" id="cp1" stroke="none" />
			<text fill="black" font-size="7.35000000000003" text-anchor="middle" x="1755.64763853212" y="0">
				<textPath xlink:href="#cp1">min=57.1933
				</textPath>
			</text>
		</g>
		<circle cx="1600" cy="1600" fill="none" opacity="0.6" r="1200" stroke="black" stroke-dasharray="3, 3" stroke-width="0.0840000000000001" />
		<g id="t1.2" opacity="0.6">
			<path d="M408.82,1600 A1191.18,1191.18 -90,1,1 1600,2791.18 A1191.18,1191.18 -90,1,1 2791.18,1600 " fill="none" id="cp2" stroke="none" />
			<text fill="black" font-size="7.35000000000003" text-anchor="middle" x="1871.10116855154" y="0">
				<textPath xlink:href="#cp2">max=66.8800
				</textPath>
			</text>
		</g>
		<circle cx="1600" cy="1600" fill="none" opacity="0.6" r="1163.95372236034" stroke="black" stroke-dasharray="3, 3" stroke-width="0.0840000000000001" />
		<g id="t1.3" opacity="0.6">
			<path d="M444.86627763966,1600 A1155.13372236034,1155.13372236034 -90,1,1 1600,2755.13372236034 A1155.13372236034,1155.13372236034 -90,1,1 2755.13372236034,1600 " fill="none" id="cp3" stroke="none" />
			<text fill="black" font-size="7.35000000000003" text-anchor="middle" x="1814.47980804054" y="0">
				<textPath xlink:href="#cp3">avg=62.7232
				</textPath>
			</text>
		</g>
	</g><!-- 
	Generated using the Perl SVG Module V2.33
	by Ronan Oger
	Info: http://www.roasp.com/
 -->
</svg>