<?xml version="1.0" encoding="UTF-8" standalone="yes"?>
<!DOCTYPE svg PUBLIC "-//W3C//DTD SVG 1.0//EN" "http://www.w3.org/TR/2001/REC-SVG-20010904/DTD/svg10.dtd">
<svg height="3200" printerror="1" raiseerror="0" width="3200" xml_xlink="http://www.w3.org/1999/xlink" xmlns="http://www.w3.org/2000/svg" xmlns:svg="http://www.w3.org/2000/svg" xmlns:xlink="http://www.w3.org/1999/xlink">
	<defs >
		<marker id="triangle-right" markerHeight="6" markerUnits="strokeWidth" markerWidth="4" orient="auto" refX="10" refY="5" viewBox="0 0 10 10">
			<rect fill="white" height="10" stroke="none" width="10" x1="0" y1="0" />
			<path d="M 0 0 L 10 5 L 0 10 z" />
		</marker>
		<marker id="triangle-left" markerHeight="6" markerUnits="strokeWidth" markerWidth="4" orient="auto" refX="0" refY="5" viewBox="0 0 10 10">
			<rect fill="white" height="10" stroke="none" width="10" x1="0" y1="0" />
			<path d="M 10 10 L 0 5 L 10 0 z" />
		</marker>
	</defs>
	<g id="t1">
		<path d="M2671.75776703492,1911.112983979 A1116,1116 0,0,1 2670.49717679796,1915.42319900034 L2751.07223311608,1939.16473010789 A1200,1200 0,0,0 2752.42770648916,1934.5300903 L2671.75776703492,1911.112983979 " fill="#00ff00" stroke="black" stroke-width="0.042" />
		<path d="M2670.00080469217,1917.10294536333 A1116,1116 0,0,1 2667.35839042233,1925.88658517197 L2747.69719400251,1950.41568298061 A1200,1200 0,0,0 2750.53849966901,1940.97090899283 L2670.00080469217,1917.10294536333 " fill="#00ff00" stroke="black" stroke-width="0.042" />
		<path d="M2667.20753458659,1926.38026613386 A1116,1116 0,0,1 2667.10538126297,1926.71410327626 L2747.42514114298,1951.30548739383 A1200,1200 0,0,0 2747.53498342644,1950.94652272458 L2667.20753458659,1926.38026613386 " fill="#00ff00" stroke="black" stroke-width="0.042" />
		<path d="M2052.10181317655,2620.32345387258 A1116,1116 0,0,1 2044.74614948675,2623.55110400835 L2078.22166611479,2700.59258495521 A1200,1200 0,0,0 2086.13098191026,2697.12199341138 L2052.10181317655,2620.32345387258 " fill="#00ff00" stroke="black" stroke-width="0.042" />
		<path d="M2049.95107703986,2621.27372837583 A1116,1116 0,0,1 2045.83784711359,2623.07605488601 L2079.39553453074,2700.08177944732 A1200,1200 0,0,0 2083.81836240845,2698.1437939525 L2049.95107703986,2621.27372837583 " fill="#00ff00" stroke="black" stroke-width="0.042" />
		<path d="M2044.47246168277,2623.66998139325 A1116,1116 0,0,1 2039.97123569197,2625.61265191283 L2073.08735020642,2702.80930313208 A1200,1200 0,0,0 2077.92737815351,2700.72041010027 L2044.47246168277,2623.66998139325 " fill="#00ff00" stroke="black" stroke-width="0.042" />
		<path d="M2039.50775372457,2625.81135420504 A1116,1116 0,0,1 2039.1868290186,2625.94879463674 L2072.24390217053,2703.17074692123 A1200,1200 0,0,0 2072.58898249954,2703.0229615108 L2039.50775372457,2625.81135420504 " fill="#00ff00" stroke="black" stroke-width="0.042" />
	</g>
	<g id="t2">
		<path d="M1480.13907609426,574.984215282291 A1032,1032 0,0,1 1480.45973628268,574.946769503947 L1470.72971481732,491.512204231012 A1116,1116 0,0,0 1470.382954381,491.552697921547 L1480.13907609426,574.984215282291 " fill="#00ff00" stroke="black" stroke-width="0.042" />
		<path d="M1480.92019187585,574.893176641032 A1032,1032 0,0,1 1489.3523236687,573.948786988445 L1480.34611745569,490.432990580527 A1116,1116 0,0,0 1471.22764935411,491.454249158325 L1480.92019187585,574.893176641032 " fill="#00ff00" stroke="black" stroke-width="0.042" />
		<path d="M1490.96283729645,573.77639027863 A1032,1032 0,0,1 1495.10146038242,573.345093818717 L1486.56320715773,489.780159594659 A1116,1116 0,0,0 1482.08771940197,490.246561580379 L1490.96283729645,573.77639027863 " fill="#00ff00" stroke="black" stroke-width="0.042" />
	</g><!-- 
	Generated using the Perl SVG Module V2.49
	by Ronan Oger
	Info: http://www.roitsystems.com/
 -->
</svg>