<?xml version="1.0" encoding="UTF-8" standalone="yes"?>
<!DOCTYPE svg PUBLIC "-//W3C//DTD SVG 1.0//EN" "http://www.w3.org/TR/2001/REC-SVG-20010904/DTD/svg10.dtd">
<svg height="3200" printerror="1" raiseerror="0" width="3200" xml_xlink="http://www.w3.org/1999/xlink" xmlns="http://www.w3.org/2000/svg" xmlns:svg="http://www.w3.org/2000/svg" xmlns:xlink="http://www.w3.org/1999/xlink">
	<defs >
		<marker id="triangle-right" markerHeight="6" markerUnits="strokeWidth" markerWidth="4" orient="auto" refX="10" refY="5" viewBox="0 0 10 10">
			<rect fill="white" height="10" stroke="none" width="10" x1="0" y1="0" />
			<path d="M 0 0 L 10 5 L 0 10 z" />
		</marker>
		<marker id="triangle-left" markerHeight="6" markerUnits="strokeWidth" markerWidth="4" orient="auto" refX="0" refY="5" viewBox="0 0 10 10">
			<rect fill="white" height="10" stroke="none" width="10" x1="0" y1="0" />
			<path d="M 10 10 L 0 5 L 10 0 z" />
		</marker>
	</defs>
	<g id="t1">
		<path d="M1616.31839092063,484.119311880629 A1116,1116 0,0,1 1616.54812663858,484.122695138595 L1617.79368455761,400.131930256553 A1200,1200 0,0,0 1617.54665690391,400.128292344762 L1616.31839092063,484.119311880629 " fill="#ff0000" stroke="black" stroke-width="0.042" />
		<path d="M2412.02222166007,834.44405068588 A1116,1116 0,0,1 2412.17776965277,834.609073425971 L2473.30942973416,776.99900368384 A1200,1200 0,0,0 2473.14217382803,776.821559877291 L2412.02222166007,834.44405068588 " fill="#ff0000" stroke="black" stroke-width="0.042" />
		<path d="M2412.31282359667,834.752408288401 A1116,1116 0,0,1 2412.46012632166,834.90880077118 L2473.61303905555,777.321291151807 A1200,1200 0,0,0 2473.45464902868,777.153127191829 L2412.31282359667,834.752408288401 " fill="#ff0000" stroke="black" stroke-width="0.042" />
		<path d="M2412.56853825478,835.023941133784 A1116,1116 0,0,1 2412.71783363531,835.182555840196 L2473.89014369388,777.615651441071 A1200,1200 0,0,0 2473.72961102665,777.445097993316 L2412.56853825478,835.023941133784 " fill="#ff0000" stroke="black" stroke-width="0.042" />
		<path d="M2416.47065466058,839.190122252525 A1116,1116 0,0,1 2416.6435418412,839.375700119259 L2478.11133531311,782.124408730386 A1200,1200 0,0,0 2477.9254351189,781.924862637124 L2416.47065466058,839.190122252525 " fill="#ff0000" stroke="black" stroke-width="0.042" />
		<path d="M2592.23210813751,1089.18550962115 A1116,1116 0,0,1 2592.33588768434,1089.38714664265 L2667.02783621972,1050.95392112113 A1200,1200 0,0,0 2666.91624530915,1050.73710711952 L2592.23210813751,1089.18550962115 " fill="#ff0000" stroke="black" stroke-width="0.042" />
		<path d="M2629.05938376968,1168.15189629273 A1116,1116 0,0,1 2629.14827028636,1168.36376685153 L2706.61104331866,1135.87501811993 A1200,1200 0,0,0 2706.51546641901,1135.64720031477 L2629.05938376968,1168.15189629273 " fill="#ff0000" stroke="black" stroke-width="0.042" />
		<path d="M2665.88421971236,1269.32367764206 A1116,1116 0,0,1 2665.96287849144,1269.57732874659 L2746.19664353918,1244.70680510386 A1200,1200 0,0,0 2746.11206420684,1244.43406198071 L2665.88421971236,1269.32367764206 " fill="#ff0000" stroke="black" stroke-width="0.042" />
		<path d="M2676.17062204231,1304.51261913057 A1116,1116 0,0,1 2676.24011746148,1304.76583943166 L2757.24743813063,1282.54391336738 A1200,1200 0,0,0 2757.17271187345,1282.27163347373 L2676.17062204231,1304.51261913057 " fill="#ff0000" stroke="black" stroke-width="0.042" />
		<path d="M2680.78642507952,1321.86926929261 A1116,1116 0,0,1 2680.84292030648,1322.08889618557 L2762.19668850159,1301.17085611351 A1200,1200 0,0,0 2762.13594094572,1300.93469816409 L2680.78642507952,1321.86926929261 " fill="#ff0000" stroke="black" stroke-width="0.042" />
		<path d="M2683.0466770747,1330.80509797278 A1116,1116 0,0,1 2683.10135645038,1331.02518397564 L2764.62511446278,1310.77976771574 A1200,1200 0,0,0 2764.56631943516,1310.54311609976 L2683.0466770747,1330.80509797278 " fill="#ff0000" stroke="black" stroke-width="0.042" />
		<path d="M2683.10207561775,1331.02807991815 A1116,1116 0,0,1 2683.16676897256,1331.28872261562 L2764.69545050813,1311.06314259744 A1200,1200 0,0,0 2764.62588776102,1310.78288163242 L2683.10207561775,1331.02807991815 " fill="#ff0000" stroke="black" stroke-width="0.042" />
		<path d="M2684.62756251885,1337.24716818953 A1116,1116 0,0,1 2684.68935559383,1337.50237741753 L2766.33264042347,1317.74449184681 A1200,1200 0,0,0 2766.26619625683,1317.47007332208 L2684.62756251885,1337.24716818953 " fill="#ff0000" stroke="black" stroke-width="0.042" />
		<path d="M2712.64377905791,1513.51404204299 A1116,1116 0,0,1 2712.66386698931,1513.77286334114 L2796.41276020356,1507.28264875391 A1200,1200 0,0,0 2796.39116027732,1507.00434628279 L2712.64377905791,1513.51404204299 " fill="#ff0000" stroke="black" stroke-width="0.042" />
		<path d="M2715.52819405187,1632.44762357052 A1116,1116 0,0,1 2715.52183955564,1632.66535587431 L2799.48584898456,1635.12403857453 A1200,1200 0,0,0 2799.4926817762,1634.88991781777 L2715.52819405187,1632.44762357052 " fill="#ff0000" stroke="black" stroke-width="0.042" />
		<path d="M2715.52079091377,1632.70114736702 A1116,1116 0,0,1 2715.51403480285,1632.93080864259 L2799.47745677726,1635.4094716587 A1200,1200 0,0,0 2799.48472141265,1635.16252405056 L2715.52079091377,1632.70114736702 " fill="#ff0000" stroke="black" stroke-width="0.042" />
		<path d="M2548.59097429667,2187.90404275093 A1116,1116 0,0,1 2548.47463453404,2188.09171703529 L2619.8651984237,2232.35668498419 A1200,1200 0,0,0 2619.99029494266,2232.15488467842 L2548.59097429667,2187.90404275093 " fill="#ff0000" stroke="black" stroke-width="0.042" />
		<path d="M2189.43709763688,2547.63912325812 A1116,1116 0,0,1 2189.25212269747,2547.75415372159 L2233.60443300803,2619.09048787268 A1200,1200 0,0,0 2233.80333079234,2618.96679920228 L2189.43709763688,2547.63912325812 " fill="#ff0000" stroke="black" stroke-width="0.042" />
		<path d="M2094.31865313925,2600.55238201635 A1116,1116 0,0,1 2094.11532573749,2600.65280935564 L2131.30680186827,2675.970762748 A1200,1200 0,0,0 2131.52543348306,2675.86277636167 L2094.31865313925,2600.55238201635 " fill="#ff0000" stroke="black" stroke-width="0.042" />
		<path d="M2070.13059470422,2612.14288710787 A1116,1116 0,0,1 2069.92491255386,2612.23839907467 L2105.29560489662,2688.42838610179 A1200,1200 0,0,0 2105.51676849916,2688.32568506223 L2070.13059470422,2612.14288710787 " fill="#ff0000" stroke="black" stroke-width="0.042" />
		<path d="M2069.92220608042,2612.23965553248 A1116,1116 0,0,1 2069.71379753847,2612.33638105226 L2105.06859950373,2688.53374306695 A1200,1200 0,0,0 2105.29269471012,2688.4297371317 L2069.92220608042,2612.23965553248 " fill="#ff0000" stroke="black" stroke-width="0.042" />
		<path d="M2064.85253215857,2614.57780546677 A1116,1116 0,0,1 2064.65178128158,2614.66976014458 L2099.62557127052,2691.04275284363 A1200,1200 0,0,0 2099.84143242857,2690.94387684599 L2064.85253215857,2614.57780546677 " fill="#ff0000" stroke="black" stroke-width="0.042" />
		<path d="M2064.58124287097,2614.70205911512 A1116,1116 0,0,1 2064.38318071782,2614.79271847329 L2099.33675346002,2691.17496610031 A1200,1200 0,0,0 2099.54972351717,2691.07748291948 L2064.58124287097,2614.70205911512 " fill="#ff0000" stroke="black" stroke-width="0.042" />
		<path d="M2016.96032656585,2635.18118514108 A1116,1116 0,0,1 2016.75826812818,2635.26254928245 L2048.1271700303,2713.18553686285 A1200,1200 0,0,0 2048.34443716758,2713.0980485388 L2016.96032656585,2635.18118514108 " fill="#ff0000" stroke="black" stroke-width="0.042" />
		<path d="M1871.03406683829,2682.58788770847 A1116,1116 0,0,1 1870.78802150458,2682.64945730815 L1891.16991559633,2764.13920140661 A1200,1200 0,0,0 1891.43448047128,2764.07299753599 L1871.03406683829,2682.58788770847 " fill="#ff0000" stroke="black" stroke-width="0.042" />
		<path d="M1864.36277900992,2684.2362847065 A1116,1116 0,0,1 1864.14245137267,2684.28998214631 L1884.02414126093,2765.90320660893 A1200,1200 0,0,0 1884.26105269884,2765.84546742634 L1864.36277900992,2684.2362847065 " fill="#ff0000" stroke="black" stroke-width="0.042" />
		<path d="M1859.54789063009,2685.39895543964 A1116,1116 0,0,1 1859.3273268318,2685.4516744463 L1878.84658799118,2767.1523381143 A1200,1200 0,0,0 1879.08375336569,2767.09565101037 L1859.54789063009,2685.39895543964 " fill="#ff0000" stroke="black" stroke-width="0.042" />
		<path d="M1846.19937924703,2688.50441692185 A1116,1116 0,0,1 1845.98400571903,2688.55310799723 L1864.49893088068,2770.48721290024 A1200,1200 0,0,0 1864.73051531938,2770.43485690522 L1846.19937924703,2688.50441692185 " fill="#ff0000" stroke="black" stroke-width="0.042" />
		<path d="M1765.23417511215,2703.69998975039 A1116,1116 0,0,1 1765.01284550658,2703.73310216638 L1777.43316721138,2786.80978727568 A1200,1200 0,0,0 1777.67115603457,2786.7741825273 L1765.23417511215,2703.69998975039 " fill="#ff0000" stroke="black" stroke-width="0.042" />
		<path d="M1760.18917936437,2704.44349190648 A1116,1116 0,0,1 1759.97065385518,2704.47516491098 L1772.01145575826,2787.60770420536 A1200,1200 0,0,0 1772.24642942406,2787.57364721126 L1760.18917936437,2704.44349190648 " fill="#ff0000" stroke="black" stroke-width="0.042" />
		<path d="M1407.46932670476,2699.26700116054 A1116,1116 0,0,1 1407.25477137011,2699.22940137189 L1392.74706598936,2781.96709824935 A1200,1200 0,0,0 1392.97777065028,2782.00752812961 L1407.46932670476,2699.26700116054 " fill="#ff0000" stroke="black" stroke-width="0.042" />
		<path d="M1406.82274387602,2699.15355966144 A1116,1116 0,0,1 1406.60527193606,2699.11531658742 L1392.04867950113,2781.84442643809 A1200,1200 0,0,0 1392.28252029679,2781.88554802305 L1406.82274387602,2699.15355966144 " fill="#ff0000" stroke="black" stroke-width="0.042" />
		<path d="M1357.67589800285,2689.37368684546 A1116,1116 0,0,1 1357.45453688118,2689.32442289727 L1339.19842675395,2771.31658376051 A1200,1200 0,0,0 1339.43644946543,2771.36955574781 L1357.67589800285,2689.37368684546 " fill="#ff0000" stroke="black" stroke-width="0.042" />
		<path d="M631.477175260676,2154.45427039474 A1116,1116 0,0,1 631.364527405055,2154.25745031598 L558.456481080704,2195.97575302793 A1200,1200 0,0,0 558.577607807179,2196.18738752122 L631.477175260676,2154.45427039474 " fill="#ff0000" stroke="black" stroke-width="0.042" />
		<path d="M631.297846869089,2154.14090132342 A1116,1116 0,0,1 631.186743806309,2153.94663517651 L558.265315920762,2195.64154320055 A1200,1200 0,0,0 558.384781579666,2195.85043153056 L631.297846869089,2154.14090132342 " fill="#ff0000" stroke="black" stroke-width="0.042" />
		<path d="M631.160084868122,2153.90000798633 A1116,1116 0,0,1 631.050510588498,2153.70830494872 L558.118828589782,2195.38527413841 A1200,1200 0,0,0 558.23665039583,2195.59140643691 L631.160084868122,2153.90000798633 " fill="#ff0000" stroke="black" stroke-width="0.042" />
		<path d="M630.976495386382,2153.57876359769 A1116,1116 0,0,1 630.864025448411,2153.38184179637 L557.918306933776,2195.03423849072 A1200,1200 0,0,0 558.039242350949,2195.2459823631 L630.976495386382,2153.57876359769 " fill="#ff0000" stroke="black" stroke-width="0.042" />
		<path d="M630.837393692685,2153.33519907522 A1116,1116 0,0,1 630.726452207601,2153.14084060928 L557.77037871785,2194.77509742933 A1200,1200 0,0,0 557.889670637295,2194.98408502712 L630.837393692685,2153.33519907522 " fill="#ff0000" stroke="black" stroke-width="0.042" />
		<path d="M630.688001590682,2153.07345781527 A1116,1116 0,0,1 630.575634339303,2152.87647740102 L557.608208966993,2194.49083591507 A1200,1200 0,0,0 557.729033968475,2194.70264281211 L630.688001590682,2153.07345781527 " fill="#ff0000" stroke="black" stroke-width="0.042" />
		<path d="M630.209240714028,2152.23354045507 A1116,1116 0,0,1 630.102948231903,2152.0468358496 L557.09994433538,2193.59874822537 A1200,1200 0,0,0 557.214237326911,2193.79950586566 L630.209240714028,2152.23354045507 " fill="#ff0000" stroke="black" stroke-width="0.042" />
		<path d="M498.825006162926,1781.29984265829 A1116,1116 0,0,1 498.781894561345,1781.03779786028 L415.894510281016,1794.66429877449 A1200,1200 0,0,0 415.940866841855,1794.9460673745 L498.825006162926,1781.29984265829 " fill="#ff0000" stroke="black" stroke-width="0.042" />
		<path d="M484.151599122977,1618.394190936 A1116,1116 0,0,1 484.147835799083,1618.16446112965 L400.158963224821,1619.53167863403 A1200,1200 0,0,0 400.163009809653,1619.77869993118 L484.151599122977,1618.394190936 " fill="#ff0000" stroke="black" stroke-width="0.042" />
		<path d="M504.609031825731,1386.51785357497 A1116,1116 0,0,1 504.653006466837,1386.2923404324 L422.207533835309,1370.20681766925 A1200,1200 0,0,0 422.16024927498,1370.44930491932 L504.609031825731,1386.51785357497 " fill="#ff0000" stroke="black" stroke-width="0.042" />
		<path d="M529.327990229951,1285.17076454852 A1116,1116 0,0,1 529.389460159939,1284.96179281971 L448.805871139719,1261.24923959108 A1200,1200 0,0,0 448.739774440807,1261.47394037475 L529.327990229951,1285.17076454852 " fill="#ff0000" stroke="black" stroke-width="0.042" />
		<path d="M529.429058273859,1284.82725572854 A1116,1116 0,0,1 529.489752001466,1284.62116600806 L448.913711829533,1260.88297420221 A1200,1200 0,0,0 448.848449756838,1261.10457605219 L529.429058273859,1284.82725572854 " fill="#ff0000" stroke="black" stroke-width="0.042" />
		<path d="M676.432859303723,973.517967834588 A1116,1116 0,0,1 676.561858182331,973.327838310708 L607.055761486377,926.158965925492 A1200,1200 0,0,0 606.917053014756,926.363406273751 L676.432859303723,973.517967834588 " fill="#ff0000" stroke="black" stroke-width="0.042" />
		<path d="M1036.91293543501,636.47057246829 A1116,1116 0,0,1 1037.11131755306,636.354665256379 L994.743352207589,563.822220705784 A1200,1200 0,0,0 994.530038102163,563.946852116441 L1036.91293543501,636.47057246829 " fill="#ff0000" stroke="black" stroke-width="0.042" />
		<path d="M1062.54395872257,621.942228856397 A1116,1116 0,0,1 1062.73225453627,621.838781343118 L1022.29274681319,548.213743379697 A1200,1200 0,0,0 1022.09027819631,548.324977264943 L1062.54395872257,621.942228856397 " fill="#ff0000" stroke="black" stroke-width="0.042" />
		<path d="M1358.45511042715,510.45327483341 A1116,1116 0,0,1 1358.67651670109,510.404214211306 L1340.51238354956,428.3916281842 A1200,1200 0,0,0 1340.27431228726,428.444381541301 L1358.45511042715,510.45327483341 " fill="#ff0000" stroke="black" stroke-width="0.042" />
	</g><!-- 
	Generated using the Perl SVG Module V2.49
	by Ronan Oger
	Info: http://www.roitsystems.com/
 -->
</svg>