<?xml version="1.0" encoding="UTF-8" standalone="yes"?>
<!DOCTYPE svg PUBLIC "-//W3C//DTD SVG 1.0//EN" "http://www.w3.org/TR/2001/REC-SVG-20010904/DTD/svg10.dtd">
<svg height="3200" printerror="1" raiseerror="0" width="3200" xml_xlink="http://www.w3.org/1999/xlink" xmlns="http://www.w3.org/2000/svg" xmlns:svg="http://www.w3.org/2000/svg" xmlns:xlink="http://www.w3.org/1999/xlink">
	<defs >
		<marker id="triangle-right" markerHeight="6" markerUnits="strokeWidth" markerWidth="4" orient="auto" refX="10" refY="5" viewBox="0 0 10 10">
			<rect fill="white" height="10" stroke="none" width="10" x1="0" y1="0" />
			<path d="M 0 0 L 10 5 L 0 10 z" />
		</marker>
		<marker id="triangle-left" markerHeight="6" markerUnits="strokeWidth" markerWidth="4" orient="auto" refX="0" refY="5" viewBox="0 0 10 10">
			<rect fill="white" height="10" stroke="none" width="10" x1="0" y1="0" />
			<path d="M 10 10 L 0 5 L 10 0 z" />
		</marker>
	</defs>
	<g id="t1">
		<path d="M2629.05938376968,1168.15189629273 A1116,1116 0,0,1 2629.14827028636,1168.36376685153 L2706.61104331866,1135.87501811993 A1200,1200 0,0,0 2706.51546641901,1135.64720031477 L2629.05938376968,1168.15189629273 " fill="#ff0000" stroke="black" stroke-width="0.042" />
		<path d="M2665.88421971236,1269.32367764206 A1116,1116 0,0,1 2665.96287849144,1269.57732874659 L2746.19664353918,1244.70680510386 A1200,1200 0,0,0 2746.11206420684,1244.43406198071 L2665.88421971236,1269.32367764206 " fill="#ff0000" stroke="black" stroke-width="0.042" />
		<path d="M2189.43709763688,2547.63912325812 A1116,1116 0,0,1 2189.25212269747,2547.75415372159 L2233.60443300803,2619.09048787268 A1200,1200 0,0,0 2233.80333079234,2618.96679920228 L2189.43709763688,2547.63912325812 " fill="#ff0000" stroke="black" stroke-width="0.042" />
		<path d="M2094.31865313925,2600.55238201635 A1116,1116 0,0,1 2094.11532573749,2600.65280935564 L2131.30680186827,2675.970762748 A1200,1200 0,0,0 2131.52543348306,2675.86277636167 L2094.31865313925,2600.55238201635 " fill="#ff0000" stroke="black" stroke-width="0.042" />
		<path d="M2070.13059470422,2612.14288710787 A1116,1116 0,0,1 2069.92491255386,2612.23839907467 L2105.29560489662,2688.42838610179 A1200,1200 0,0,0 2105.51676849916,2688.32568506223 L2070.13059470422,2612.14288710787 " fill="#ff0000" stroke="black" stroke-width="0.042" />
		<path d="M2069.92220608042,2612.23965553248 A1116,1116 0,0,1 2069.71379753847,2612.33638105226 L2105.06859950373,2688.53374306695 A1200,1200 0,0,0 2105.29269471012,2688.4297371317 L2069.92220608042,2612.23965553248 " fill="#ff0000" stroke="black" stroke-width="0.042" />
		<path d="M2064.85253215857,2614.57780546677 A1116,1116 0,0,1 2064.65178128158,2614.66976014458 L2099.62557127052,2691.04275284363 A1200,1200 0,0,0 2099.84143242857,2690.94387684599 L2064.85253215857,2614.57780546677 " fill="#ff0000" stroke="black" stroke-width="0.042" />
		<path d="M2064.58124287097,2614.70205911512 A1116,1116 0,0,1 2064.38318071782,2614.79271847329 L2099.33675346002,2691.17496610031 A1200,1200 0,0,0 2099.54972351717,2691.07748291948 L2064.58124287097,2614.70205911512 " fill="#ff0000" stroke="black" stroke-width="0.042" />
		<path d="M2016.96032656585,2635.18118514108 A1116,1116 0,0,1 2016.75826812818,2635.26254928245 L2048.1271700303,2713.18553686285 A1200,1200 0,0,0 2048.34443716758,2713.0980485388 L2016.96032656585,2635.18118514108 " fill="#ff0000" stroke="black" stroke-width="0.042" />
		<path d="M1765.23417511215,2703.69998975039 A1116,1116 0,0,1 1765.01284550658,2703.73310216638 L1777.43316721138,2786.80978727568 A1200,1200 0,0,0 1777.67115603457,2786.7741825273 L1765.23417511215,2703.69998975039 " fill="#ff0000" stroke="black" stroke-width="0.042" />
		<path d="M1760.18917936437,2704.44349190648 A1116,1116 0,0,1 1759.97065385518,2704.47516491098 L1772.01145575826,2787.60770420536 A1200,1200 0,0,0 1772.24642942406,2787.57364721126 L1760.18917936437,2704.44349190648 " fill="#ff0000" stroke="black" stroke-width="0.042" />
		<path d="M1406.82274387602,2699.15355966144 A1116,1116 0,0,1 1406.60527193606,2699.11531658742 L1392.04867950113,2781.84442643809 A1200,1200 0,0,0 1392.28252029679,2781.88554802305 L1406.82274387602,2699.15355966144 " fill="#ff0000" stroke="black" stroke-width="0.042" />
		<path d="M630.209240714028,2152.23354045507 A1116,1116 0,0,1 630.102948231903,2152.0468358496 L557.09994433538,2193.59874822537 A1200,1200 0,0,0 557.214237326911,2193.79950586566 L630.209240714028,2152.23354045507 " fill="#ff0000" stroke="black" stroke-width="0.042" />
		<path d="M484.151599122977,1618.394190936 A1116,1116 0,0,1 484.147835799083,1618.16446112965 L400.158963224821,1619.53167863403 A1200,1200 0,0,0 400.163009809653,1619.77869993118 L484.151599122977,1618.394190936 " fill="#ff0000" stroke="black" stroke-width="0.042" />
		<path d="M504.609031825731,1386.51785357497 A1116,1116 0,0,1 504.653006466837,1386.2923404324 L422.207533835309,1370.20681766925 A1200,1200 0,0,0 422.16024927498,1370.44930491932 L504.609031825731,1386.51785357497 " fill="#ff0000" stroke="black" stroke-width="0.042" />
	</g>
	<g id="t2">
		<path d="M1615.09012493736,568.110331416496 A1032,1032 0,0,1 1615.30256871954,568.113460020636 L1616.54812663858,484.122695138595 A1116,1116 0,0,0 1616.31839092063,484.119311880629 L1615.09012493736,568.110331416496 " fill="#ff0000" stroke="black" stroke-width="0.042" />
		<path d="M2350.90226949211,892.06654149447 A1032,1032 0,0,1 2351.04610957138,892.219143168103 L2412.17776965277,834.609073425971 A1116,1116 0,0,0 2412.02222166007,834.44405068588 L2350.90226949211,892.06654149447 " fill="#ff0000" stroke="black" stroke-width="0.042" />
		<path d="M2351.17099816466,892.351689384973 A1032,1032 0,0,1 2351.30721358777,892.496310390554 L2412.46012632166,834.90880077118 A1116,1116 0,0,0 2412.31282359667,834.752408288401 L2351.17099816466,892.351689384973 " fill="#ff0000" stroke="black" stroke-width="0.042" />
		<path d="M2351.40746548292,892.602784274252 A1032,1032 0,0,1 2351.54552357673,892.749460239321 L2412.71783363531,835.182555840196 A1116,1116 0,0,0 2412.56853825478,835.023941133784 L2351.40746548292,892.602784274252 " fill="#ff0000" stroke="black" stroke-width="0.042" />
		<path d="M2355.01587420225,896.455381867926 A1032,1032 0,0,1 2355.17574836928,896.626991508132 L2416.6435418412,839.375700119259 A1116,1116 0,0,0 2416.47065466058,839.190122252525 L2355.01587420225,896.455381867926 " fill="#ff0000" stroke="black" stroke-width="0.042" />
		<path d="M2517.54797096587,1127.63391212279 A1032,1032 0,0,1 2517.64393914896,1127.82037216417 L2592.33588768434,1089.38714664265 A1116,1116 0,0,0 2592.23210813751,1089.18550962115 L2517.54797096587,1127.63391212279 " fill="#ff0000" stroke="black" stroke-width="0.042" />
		<path d="M2595.16853221116,1326.75360478741 A1032,1032 0,0,1 2595.23279679234,1326.98776549595 L2676.24011746148,1304.76583943166 A1116,1116 0,0,0 2676.17062204231,1304.51261913057 L2595.16853221116,1326.75360478741 " fill="#ff0000" stroke="black" stroke-width="0.042" />
		<path d="M2599.43690921332,1342.80384042112 A1032,1032 0,0,1 2599.48915211137,1343.00693625762 L2680.84292030648,1322.08889618557 A1116,1116 0,0,0 2680.78642507952,1321.86926929261 L2599.43690921332,1342.80384042112 " fill="#ff0000" stroke="black" stroke-width="0.042" />
		<path d="M2601.52703471424,1351.06707984579 A1032,1032 0,0,1 2601.57759843799,1351.27060023554 L2683.10135645038,1331.02518397564 A1116,1116 0,0,0 2683.0466770747,1330.80509797278 L2601.52703471424,1351.06707984579 " fill="#ff0000" stroke="black" stroke-width="0.042" />
		<path d="M2601.57826347448,1351.27327820388 A1032,1032 0,0,1 2601.63808743699,1351.5143026338 L2683.16676897256,1331.28872261562 A1116,1116 0,0,0 2683.10207561775,1331.02807991815 L2601.57826347448,1351.27327820388 " fill="#ff0000" stroke="black" stroke-width="0.042" />
		<path d="M2602.98892878087,1357.02426305699 A1032,1032 0,0,1 2603.04607076418,1357.26026298826 L2684.68935559383,1337.50237741753 A1116,1116 0,0,0 2684.62756251885,1337.24716818953 L2602.98892878087,1357.02426305699 " fill="#ff0000" stroke="black" stroke-width="0.042" />
		<path d="M2628.89639783849,1520.0237378032 A1032,1032 0,0,1 2628.91497377506,1520.26307792836 L2712.66386698931,1513.77286334114 A1116,1116 0,0,0 2712.64377905791,1513.51404204299 L2628.89639783849,1520.0237378032 " fill="#ff0000" stroke="black" stroke-width="0.042" />
		<path d="M2631.56370632754,1630.00532932328 A1032,1032 0,0,1 2631.55783012672,1630.2066731741 L2715.52183955564,1632.66535587431 A1116,1116 0,0,0 2715.52819405187,1632.44762357052 L2631.56370632754,1630.00532932328 " fill="#ff0000" stroke="black" stroke-width="0.042" />
		<path d="M2631.55686041488,1630.23977068348 A1032,1032 0,0,1 2631.55061282845,1630.45214562649 L2715.51403480285,1632.93080864259 A1116,1116 0,0,0 2715.52079091377,1632.70114736702 L2631.55686041488,1630.23977068348 " fill="#ff0000" stroke="black" stroke-width="0.042" />
		<path d="M2477.19165365069,2143.65320082344 A1032,1032 0,0,1 2477.08407064438,2143.8267490864 L2548.47463453404,2188.09171703529 A1116,1116 0,0,0 2548.59097429667,2187.90404275093 L2477.19165365069,2143.65320082344 " fill="#ff0000" stroke="black" stroke-width="0.042" />
		<path d="M1850.6336532053,2601.10277788095 A1032,1032 0,0,1 1850.40612741284,2601.15971320969 L1870.78802150458,2682.64945730815 A1116,1116 0,0,0 1871.03406683829,2682.58788770847 L1850.6336532053,2601.10277788095 " fill="#ff0000" stroke="black" stroke-width="0.042" />
		<path d="M1844.464505321,2602.62710198665 A1032,1032 0,0,1 1844.2607614844,2602.67675768368 L1864.14245137267,2684.28998214631 A1116,1116 0,0,0 1864.36277900992,2684.2362847065 L1844.464505321,2602.62710198665 " fill="#ff0000" stroke="black" stroke-width="0.042" />
		<path d="M1840.01202789449,2603.70225986892 A1032,1032 0,0,1 1839.80806567242,2603.7510107783 L1859.3273268318,2685.4516744463 A1116,1116 0,0,0 1859.54789063009,2685.39895543964 L1840.01202789449,2603.70225986892 " fill="#ff0000" stroke="black" stroke-width="0.042" />
		<path d="M1827.66824317467,2606.57397693849 A1032,1032 0,0,1 1827.46908055738,2606.61900309421 L1845.98400571903,2688.55310799723 A1116,1116 0,0,0 1846.19937924703,2688.50441692185 L1827.66824317467,2606.57397693849 " fill="#ff0000" stroke="black" stroke-width="0.042" />
		<path d="M1421.96088275924,2616.52647419147 A1032,1032 0,0,1 1421.76247675085,2616.49170449444 L1407.25477137011,2699.22940137189 A1116,1116 0,0,0 1407.46932670476,2699.26700116054 L1421.96088275924,2616.52647419147 " fill="#ff0000" stroke="black" stroke-width="0.042" />
		<path d="M1375.91534654027,2607.37781794312 A1032,1032 0,0,1 1375.7106470084,2607.33226203404 L1357.45453688118,2689.32442289727 A1116,1116 0,0,0 1357.67589800285,2689.37368684546 L1375.91534654027,2607.37781794312 " fill="#ff0000" stroke="black" stroke-width="0.042" />
		<path d="M704.376742714174,2112.72115326825 A1032,1032 0,0,1 704.272573729406,2112.53914760402 L631.364527405055,2154.25745031598 A1116,1116 0,0,0 631.477175260676,2154.45427039474 L704.376742714174,2112.72115326825 " fill="#ff0000" stroke="black" stroke-width="0.042" />
		<path d="M704.210912158513,2112.43137111628 A1032,1032 0,0,1 704.108171691856,2112.25172715247 L631.186743806309,2153.94663517651 A1116,1116 0,0,0 631.297846869089,2154.14090132342 L704.210912158513,2112.43137111628 " fill="#ff0000" stroke="black" stroke-width="0.042" />
		<path d="M704.083519340414,2112.20860953574 A1032,1032 0,0,1 703.982192587213,2112.03133575903 L631.050510588498,2153.70830494872 A1116,1116 0,0,0 631.160084868122,2153.90000798633 L704.083519340414,2112.20860953574 " fill="#ff0000" stroke="black" stroke-width="0.042" />
		<path d="M703.913748421816,2111.91154483227 A1032,1032 0,0,1 703.809743963047,2111.72944510202 L630.864025448411,2153.38184179637 A1116,1116 0,0,0 630.976495386382,2153.57876359769 L703.913748421816,2111.91154483227 " fill="#ff0000" stroke="black" stroke-width="0.042" />
		<path d="M703.785116748074,2111.68631312332 A1032,1032 0,0,1 703.682525697351,2111.50658378922 L630.726452207601,2153.14084060928 A1116,1116 0,0,0 630.837393692685,2153.33519907522 L703.785116748074,2111.68631312332 " fill="#ff0000" stroke="black" stroke-width="0.042" />
		<path d="M703.646969212889,2111.44427281842 A1032,1032 0,0,1 703.543059711614,2111.26211888696 L630.575634339303,2152.87647740102 A1116,1116 0,0,0 630.688001590682,2153.07345781527 L703.646969212889,2111.44427281842 " fill="#ff0000" stroke="black" stroke-width="0.042" />
		<path d="M581.709145483996,1767.65361794207 A1032,1032 0,0,1 581.669278841674,1767.41129694606 L498.781894561345,1781.03779786028 A1116,1116 0,0,0 498.825006162926,1781.29984265829 L581.709145483996,1767.65361794207 " fill="#ff0000" stroke="black" stroke-width="0.042" />
		<path d="M609.916206019094,1308.86758872229 A1032,1032 0,0,1 609.973049180158,1308.67434604833 L529.389460159939,1284.96179281971 A1116,1116 0,0,0 529.327990229951,1285.17076454852 L609.916206019094,1308.86758872229 " fill="#ff0000" stroke="black" stroke-width="0.042" />
		<path d="M610.009666790881,1308.54993540489 A1032,1032 0,0,1 610.065792173399,1308.3593578139 L529.489752001466,1284.62116600806 A1116,1116 0,0,0 529.429058273859,1284.82725572854 L610.009666790881,1308.54993540489 " fill="#ff0000" stroke="black" stroke-width="0.042" />
		<path d="M745.948665592691,1020.67252939543 A1032,1032 0,0,1 746.067954878285,1020.49671069592 L676.561858182331,973.327838310708 A1116,1116 0,0,0 676.432859303723,973.517967834588 L745.948665592691,1020.67252939543 " fill="#ff0000" stroke="black" stroke-width="0.042" />
		<path d="M1079.29583276786,708.994292820139 A1032,1032 0,0,1 1079.47928289853,708.887109806974 L1037.11131755306,636.354665256379 A1116,1116 0,0,0 1036.91293543501,636.47057246829 L1079.29583276786,708.994292820139 " fill="#ff0000" stroke="black" stroke-width="0.042" />
		<path d="M1102.99763924883,695.559480447851 A1032,1032 0,0,1 1103.17176225934,695.463819306539 L1062.73225453627,621.838781343118 A1116,1116 0,0,0 1062.54395872257,621.942228856397 L1102.99763924883,695.559480447851 " fill="#ff0000" stroke="black" stroke-width="0.042" />
		<path d="M1376.63590856704,592.462168125519 A1032,1032 0,0,1 1376.84064985262,592.416800238412 L1358.67651670109,510.404214211306 A1116,1116 0,0,0 1358.45511042715,510.45327483341 L1376.63590856704,592.462168125519 " fill="#ff0000" stroke="black" stroke-width="0.042" />
	</g><!-- 
	Generated using the Perl SVG Module V2.49
	by Ronan Oger
	Info: http://www.roitsystems.com/
 -->
</svg>